<?xml version="1.0" encoding="utf-8"?>
<!-- Generator: Adobe Illustrator 16.0.0, SVG Export Plug-In . SVG Version: 6.00 Build 0)  -->
<!DOCTYPE svg PUBLIC "-//W3C//DTD SVG 1.1//EN" "http://www.w3.org/Graphics/SVG/1.1/DTD/svg11.dtd">
<svg version="1.1" id="Layer_1" xmlns="http://www.w3.org/2000/svg" xmlns:xlink="http://www.w3.org/1999/xlink" x="0px" y="0px"
	 width="677.418px" height="948.387px" viewBox="0 0 677.418 948.387" enable-background="new 0 0 677.418 948.387"
	 xml:space="preserve">
<g id="_x32__1_">
	<path fill="#FFF2D2" d="M677.418,880.646c0,37.41-30.328,67.742-67.74,67.742H67.741c-37.415,0-67.742-30.332-67.742-67.742V67.743
		C-0.001,30.331,30.326,0,67.741,0h541.938c37.412,0,67.74,30.331,67.74,67.743V880.646z"/>
	<path fill="#FFD47D" d="M55.448,439.387V120.626c4.513,1.458,9.326,2.24,14.322,2.24c25.843,0,46.796-20.953,46.796-46.802
		c0-7.396-1.719-14.394-4.774-20.609c0.1-0.005,0.205-0.005,0.305-0.005h453.224c31.285,0,56.646,26.781,56.646,59.821v324.118"/>
	<path fill="#FFD47D" d="M621.969,355.259v472.577c-4.512-1.457-9.326-2.238-14.32-2.238c-25.844,0-46.797,20.951-46.797,46.801
		c0,7.396,1.723,14.396,4.773,20.609c-0.102,0.006-0.205,0.006-0.305,0.006H112.098c-31.289,0-56.649-26.781-56.649-59.82
		l-0.003-454.934"/>
	<path fill="none" stroke="#231F20" stroke-width="5" stroke-miterlimit="10" d="M621.971,823.328"/>
	<g>
		<rect x="41.757" y="46.92" fill="none" width="100.468" height="89.127"/>
		<text transform="matrix(1 0 0 1 41.7568 110.1089)" fill="#ED5565" font-family="'Arvo'" font-size="83.1693">2</text>
	</g>
	<path fill="none" stroke="#231F20" stroke-width="5" stroke-miterlimit="10" d="M621.971,439.387"/>
	<path fill="none" stroke="#231F20" stroke-width="5" stroke-miterlimit="10" d="M367.036,439.387"/>
	<path fill="none" stroke="#231F20" stroke-width="5" stroke-miterlimit="10" d="M55.446,439.387"/>
	<path fill="none" stroke="#231F20" stroke-width="5" stroke-miterlimit="10" d="M367.036,439.387"/>
	<path fill="none" stroke="#231F20" stroke-width="5" stroke-miterlimit="10" d="M621.971,509.074"/>
	<path fill="none" stroke="#231F20" stroke-width="5" stroke-miterlimit="10" d="M310.383,509.074"/>
	<g>
		<rect x="533.092" y="813.218" fill="none" width="100.469" height="89.127"/>
		<text transform="matrix(-1 0 0 -1 633.561 839.1548)" fill="#ED5565" font-family="'Arvo'" font-size="83.1693">2</text>
	</g>
	<g>
		<g>
			<path fill="#E3E4E2" d="M365.875,200.172c17.293-3.458,28.684-20.061,25.688-37.44l-6.957-40.353H325.37l-6.957,40.353
				c-2.998,17.379,8.393,33.981,25.686,37.44c3.461,0.692,5.953,3.731,5.953,7.261v43.294l-20.416,1.857
				c-3.813,0.346-6.734,3.544-6.734,7.374v0.643h64.176v-0.643c0-3.829-2.92-7.027-6.734-7.374l-20.416-1.857v-43.294
				C359.922,203.904,362.415,200.864,365.875,200.172z"/>
			<path fill="#ED5565" d="M354.987,212.37c2.727,0,4.936-2.21,4.936-4.937c0-3.53,2.492-6.569,5.953-7.261
				c17.293-3.458,28.684-20.061,25.688-37.44l-0.572-3.329h-72.006l-0.572,3.329c-2.996,17.379,8.395,33.981,25.688,37.44
				c3.461,0.692,5.951,3.731,5.951,7.261C350.049,210.16,352.26,212.37,354.987,212.37z"/>
			<g>
				<path fill="#F3F1F2" d="M334.143,184.16c-1.063,0.844-2.613,0.663-3.459-0.403c-0.324-0.416-0.635-0.84-0.934-1.274
					l-0.061-0.086c-0.035-0.056-0.07-0.114-0.104-0.173c-0.588-1.075-0.191-2.421,0.883-3.008l0.412-0.225
					c1.012-0.558,2.285-0.254,2.939,0.7c0.23,0.339,0.477,0.67,0.727,0.995c0.785,0.994,0.695,2.42-0.211,3.306
					C334.276,184.051,334.211,184.107,334.143,184.16z"/>
				<path fill="#F3F1F2" d="M328.477,174.232c-1.34,0.225-2.607-0.679-2.834-2.019c-0.432-2.726-0.412-5.504,0.063-8.222
					l4.701-27.258c0.229-1.343,1.508-2.245,2.852-2.013s2.244,1.509,2.012,2.852l-4.695,27.257c-0.383,2.175-0.4,4.398-0.063,6.58
					c0.199,1.243-0.572,2.436-1.787,2.768C328.643,174.199,328.561,174.217,328.477,174.232z"/>
			</g>
		</g>
		<g>
			<path fill="#E3E4E2" d="M358.641,733.22v-43.295l20.418-1.855c3.814-0.346,6.734-3.545,6.734-7.375v-0.643H321.62v0.643
				c0,3.83,2.92,7.027,6.732,7.375l20.416,1.855v43.295c0,3.531-2.488,6.568-5.951,7.262c-17.293,3.459-28.686,20.063-25.688,37.439
				l6.957,40.354h59.24l6.957-40.354c2.996-17.379-8.396-33.98-25.689-37.439C361.133,739.789,358.641,736.751,358.641,733.22z"/>
			<path fill="#ED5565" d="M348.768,733.22c0,3.531-2.49,6.568-5.951,7.262c-17.293,3.459-28.684,20.063-25.688,37.439l0.574,3.33
				h72.004l0.574-3.33c2.998-17.379-8.396-33.98-25.688-37.439c-3.461-0.689-5.953-3.729-5.953-7.262
				c0-2.727-2.211-4.936-4.936-4.936C350.979,728.285,348.768,730.494,348.768,733.22z"/>
			<g>
				<path fill="#F3F1F2" d="M333.055,756.664c0.906,0.887,0.996,2.311,0.211,3.305c-0.25,0.324-0.494,0.656-0.727,0.994
					c-0.654,0.955-1.924,1.26-2.939,0.701l-0.412-0.229c-1.072-0.586-1.471-1.934-0.883-3.008c0.033-0.059,0.066-0.117,0.105-0.174
					l0.057-0.086c0.299-0.436,0.609-0.857,0.936-1.273c0.846-1.064,2.395-1.248,3.461-0.4
					C332.93,756.546,332.995,756.603,333.055,756.664z"/>
				<path fill="#F3F1F2" d="M327.446,766.478c1.213,0.33,1.982,1.523,1.783,2.77c-0.34,2.182-0.318,4.402,0.061,6.58l4.699,27.258
					c0.229,1.344-0.668,2.619-2.014,2.852c-1.344,0.232-2.621-0.67-2.854-2.014l-4.699-27.256c-0.475-2.723-0.496-5.498-0.063-8.227
					c0.225-1.34,1.492-2.244,2.834-2.018C327.28,766.437,327.364,766.455,327.446,766.478z"/>
			</g>
		</g>
	</g>
</g>
</svg>
