<?xml version="1.0" encoding="utf-8"?>
<!-- Generator: Adobe Illustrator 16.0.0, SVG Export Plug-In . SVG Version: 6.00 Build 0)  -->
<!DOCTYPE svg PUBLIC "-//W3C//DTD SVG 1.1//EN" "http://www.w3.org/Graphics/SVG/1.1/DTD/svg11.dtd">
<svg version="1.1" id="Layer_1" xmlns="http://www.w3.org/2000/svg" xmlns:xlink="http://www.w3.org/1999/xlink" x="0px" y="0px"
	 width="683.267px" height="956.574px" viewBox="116.983 19.541 683.267 956.574"
	 enable-background="new 116.983 19.541 683.267 956.574" xml:space="preserve">
<g id="_x33__1_">
	<path fill="#FFF2D2" d="M800.25,907.789c0,37.733-30.589,68.326-68.327,68.326H185.31c-37.738,0-68.327-30.593-68.327-68.326
		V87.868c0-37.735,30.589-68.327,68.327-68.327h546.613c37.738,0,68.327,30.592,68.327,68.327V907.789z"/>
	<path fill="#FFD47D" d="M172.911,464.683V139.871c4.599,1.485,9.503,2.282,14.594,2.282c26.334,0,47.685-21.351,47.685-47.691
		c0-7.537-1.751-14.667-4.865-21c0.102-0.005,0.209-0.005,0.312-0.005h461.826c31.883,0,57.727,27.289,57.727,60.957v330.271"/>
	<path fill="#FFD47D" d="M750.188,362.626l-0.002,497.879c-4.6-1.486-9.503-2.283-14.595-2.283
		c-26.334,0-47.685,21.353-47.685,47.691c0,7.537,1.752,14.666,4.863,21c-0.103,0.006-0.209,0.006-0.312,0.006H230.636
		c-31.883,0-57.725-27.289-57.725-60.957V389.626"/>
	<path fill="none" stroke="#231F20" stroke-width="5" stroke-miterlimit="10" d="M744.325,849.977"/>
	<g>
		<rect x="159.101" y="66.866" fill="none" width="101.335" height="89.897"/>
		<text transform="matrix(1 0 0 1 167.9082 130.6006)" fill="#ED5565" font-family="'Arvo'" font-size="83.8872">3</text>
	</g>
	<path fill="none" stroke="#231F20" stroke-width="5" stroke-miterlimit="10" d="M744.325,462.721"/>
	<path fill="none" stroke="#231F20" stroke-width="5" stroke-miterlimit="10" d="M487.188,462.721"/>
	<path fill="none" stroke="#231F20" stroke-width="5" stroke-miterlimit="10" d="M172.908,462.721"/>
	<path fill="none" stroke="#231F20" stroke-width="5" stroke-miterlimit="10" d="M487.188,462.721"/>
	<path fill="none" stroke="#231F20" stroke-width="5" stroke-miterlimit="10" d="M744.325,533.009"/>
	<path fill="none" stroke="#231F20" stroke-width="5" stroke-miterlimit="10" d="M430.045,533.009"/>
	<g>
		<rect x="654.678" y="839.778" fill="none" width="101.336" height="89.896"/>
		<text transform="matrix(-1 0 0 -1 756.0137 865.9414)" fill="#ED5565" font-family="'Arvo'" font-size="83.8872">3</text>
	</g>
	<g>
		<g>
			<path fill="#E3E4E2" d="M486.017,221.441c17.441-3.488,28.934-20.234,25.91-37.763l-7.018-40.702h-59.75l-7.019,40.702
				c-3.021,17.529,8.469,34.275,25.909,37.763c3.492,0.699,6.003,3.763,6.003,7.323v43.668l-20.592,1.872
				c-3.846,0.35-6.792,3.576-6.792,7.438v0.648h64.729v-0.648c0-3.863-2.946-7.088-6.793-7.438l-20.593-1.872v-43.668
				C480.014,225.204,482.525,222.14,486.017,221.441z"/>
			<path fill="#ED5565" d="M475.034,233.744c2.75,0,4.979-2.229,4.979-4.979c0-3.56,2.514-6.625,6.003-7.323
				c17.441-3.488,28.934-20.234,25.91-37.763l-0.579-3.358h-72.626l-0.579,3.358c-3.021,17.529,8.469,34.275,25.909,37.763
				c3.492,0.699,6.003,3.763,6.003,7.323C470.055,231.515,472.284,233.744,475.034,233.744z"/>
			<g>
				<path fill="#F3F1F2" d="M454.012,205.291c-1.074,0.851-2.638,0.669-3.487-0.407c-0.328-0.419-0.644-0.848-0.941-1.285
					l-0.062-0.087c-0.036-0.057-0.071-0.115-0.104-0.174c-0.592-1.084-0.193-2.442,0.892-3.034l0.414-0.227
					c1.022-0.563,2.308-0.256,2.967,0.706c0.233,0.342,0.479,0.676,0.731,1.003c0.792,1.003,0.701,2.44-0.213,3.334
					C454.145,205.18,454.08,205.237,454.012,205.291z"/>
				<path fill="#F3F1F2" d="M448.296,195.276c-1.351,0.227-2.631-0.685-2.858-2.037c-0.437-2.749-0.413-5.551,0.064-8.293
					l4.74-27.493c0.232-1.355,1.521-2.264,2.877-2.03c1.354,0.234,2.264,1.521,2.03,2.876l-4.741,27.493
					c-0.382,2.194-0.402,4.436-0.06,6.636c0.199,1.254-0.577,2.458-1.802,2.792C448.466,195.244,448.382,195.262,448.296,195.276z"
					/>
			</g>
		</g>
		<g>
			<path fill="#E3E4E2" d="M478.721,759.091v-43.669l20.595-1.872c3.847-0.35,6.793-3.576,6.793-7.438v-0.648h-64.729v0.648
				c0,3.859,2.946,7.087,6.792,7.438l20.592,1.872v43.669c0,3.563-2.513,6.625-6.003,7.323
				c-17.44,3.488-28.931,20.234-25.909,37.763l7.019,40.702h59.75l7.017-40.702c3.022-17.526-8.468-34.272-25.907-37.763
				C481.234,765.716,478.721,762.651,478.721,759.091z"/>
			<path fill="#ED5565" d="M468.763,759.091c0,3.563-2.513,6.625-6.003,7.323c-17.44,3.488-28.931,20.234-25.909,37.763l0.578,3.358
				h72.626l0.579-3.358c3.022-17.526-8.468-34.272-25.907-37.763c-3.49-0.698-6.006-3.763-6.006-7.323
				c0-2.75-2.229-4.979-4.978-4.979C470.992,754.11,468.763,756.341,468.763,759.091z"/>
			<g>
				<path fill="#F3F1F2" d="M452.915,782.735c0.913,0.894,1.004,2.331,0.213,3.334c-0.253,0.325-0.497,0.659-0.733,1.003
					c-0.658,0.963-1.941,1.27-2.965,0.707l-0.414-0.229c-1.085-0.591-1.482-1.949-0.892-3.032c0.034-0.06,0.068-0.117,0.106-0.176
					l0.059-0.087c0.301-0.438,0.614-0.865,0.941-1.285c0.852-1.075,2.412-1.258,3.488-0.406
					C452.788,782.617,452.854,782.675,452.915,782.735z"/>
				<path fill="#F3F1F2" d="M447.256,792.635c1.227,0.334,2.002,1.537,1.802,2.791c-0.345,2.201-0.323,4.442,0.061,6.639
					l4.739,27.49c0.232,1.355-0.677,2.645-2.029,2.877c-1.356,0.232-2.645-0.676-2.877-2.029l-4.74-27.492
					c-0.479-2.742-0.501-5.544-0.064-8.293c0.229-1.354,1.509-2.265,2.858-2.036C447.089,792.593,447.173,792.611,447.256,792.635z"
					/>
			</g>
		</g>
	</g>
	<g>
		<path fill="#E3E4E2" d="M484.726,518.818c17.44-3.488,28.933-20.235,25.908-37.765l-7.017-40.702h-59.75l-7.019,40.702
			c-3.021,17.528,8.469,34.274,25.909,37.765c3.491,0.696,6.003,3.763,6.003,7.321v43.669l-20.592,1.872
			c-3.847,0.352-6.792,3.575-6.792,7.438v0.646h64.729v-0.646c0-3.862-2.945-7.088-6.793-7.438l-20.593-1.872V526.14
			C478.722,522.581,481.234,519.517,484.726,518.818z"/>
		<path fill="#ED5565" d="M473.743,531.121c2.75,0,4.979-2.229,4.979-4.979c0-3.561,2.515-6.625,6.004-7.321
			c17.44-3.488,28.933-20.235,25.908-37.765l-0.579-3.357H437.43l-0.578,3.357c-3.021,17.528,8.469,34.274,25.909,37.765
			c3.491,0.696,6.003,3.763,6.003,7.321C468.763,528.892,470.992,531.121,473.743,531.121z"/>
		<g>
			<path fill="#F3F1F2" d="M452.72,502.668c-1.075,0.851-2.638,0.67-3.486-0.407c-0.328-0.419-0.643-0.847-0.942-1.285l-0.059-0.085
				c-0.038-0.058-0.072-0.114-0.106-0.175c-0.592-1.084-0.192-2.44,0.892-3.034l0.414-0.228c1.023-0.563,2.307-0.256,2.967,0.707
				c0.234,0.342,0.479,0.676,0.732,1.002c0.791,1.002,0.7,2.441-0.214,3.334C452.854,502.558,452.789,502.614,452.72,502.668z"/>
			<path fill="#F3F1F2" d="M447.004,492.654c-1.351,0.227-2.631-0.687-2.859-2.036c-0.436-2.75-0.414-5.551,0.066-8.294l4.74-27.492
				c0.232-1.355,1.521-2.265,2.877-2.03c1.354,0.234,2.263,1.521,2.03,2.876l-4.741,27.494c-0.384,2.193-0.403,4.437-0.059,6.635
				c0.199,1.254-0.576,2.458-1.804,2.792C447.174,492.621,447.089,492.639,447.004,492.654z"/>
		</g>
	</g>
</g>
</svg>
