<?xml version="1.0" encoding="utf-8"?>
<!-- Generator: Adobe Illustrator 16.0.0, SVG Export Plug-In . SVG Version: 6.00 Build 0)  -->
<!DOCTYPE svg PUBLIC "-//W3C//DTD SVG 1.1//EN" "http://www.w3.org/Graphics/SVG/1.1/DTD/svg11.dtd">
<svg version="1.1" id="Layer_1" xmlns="http://www.w3.org/2000/svg" xmlns:xlink="http://www.w3.org/1999/xlink" x="0px" y="0px"
	 width="690.278px" height="966.388px" viewBox="24.001 16.829 690.278 966.388"
	 enable-background="new 24.001 16.829 690.278 966.388" xml:space="preserve">
<g id="_x34__1_">
	<path fill="#FFF2D2" d="M714.279,914.191c0,38.119-30.903,69.025-69.027,69.025H93.029c-38.125,0-69.028-30.906-69.028-69.025
		V85.857c0-38.122,30.903-69.028,69.028-69.028h552.223c38.124,0,69.027,30.906,69.027,69.028V914.191z"/>
	<path fill="#FFD47D" d="M80.503,464.557V139.744c4.599,1.485,9.503,2.282,14.594,2.282c26.334,0,47.685-21.351,47.685-47.691
		c0-7.537-1.751-14.667-4.865-21c0.102-0.005,0.209-0.005,0.312-0.005h461.826c31.883,0,57.727,27.289,57.727,60.957v330.271"/>
	<path fill="#FFD47D" d="M657.78,362.5l-0.002,497.879c-4.601-1.485-9.503-2.282-14.596-2.282c-26.334,0-47.685,21.353-47.685,47.69
		c0,7.537,1.752,14.667,4.864,21.001c-0.104,0.006-0.209,0.006-0.313,0.006H138.228c-31.883,0-57.725-27.29-57.725-60.957V389.5"/>
	<path fill="none" stroke="#231F20" stroke-width="5" stroke-miterlimit="10" d="M657.78,855.785"/>
	<g>
		<rect x="66.551" y="64.64" fill="none" width="102.375" height="90.819"/>
		<text transform="matrix(1 0 0 1 66.5518 129.0283)" fill="#ED5565" font-family="'Arvo'" font-size="84.748">4</text>
	</g>
	<path fill="none" stroke="#231F20" stroke-width="5" stroke-miterlimit="10" d="M657.78,464.557"/>
	<path fill="none" stroke="#231F20" stroke-width="5" stroke-miterlimit="10" d="M398.005,464.557"/>
	<path fill="none" stroke="#231F20" stroke-width="5" stroke-miterlimit="10" d="M80.5,464.557"/>
	<path fill="none" stroke="#231F20" stroke-width="5" stroke-miterlimit="10" d="M398.005,464.557"/>
	<path fill="none" stroke="#231F20" stroke-width="5" stroke-miterlimit="10" d="M657.78,535.565"/>
	<path fill="none" stroke="#231F20" stroke-width="5" stroke-miterlimit="10" d="M340.276,535.565"/>
	<g>
		<rect x="562.977" y="845.482" fill="none" width="102.375" height="90.817"/>
		<text transform="matrix(-1 0 0 -1 665.3506 871.9141)" fill="#ED5565" font-family="'Arvo'" font-size="84.748">4</text>
	</g>
	<g>
		<g>
			<path fill="#E3E4E2" d="M228.006,220.8c17.62-3.524,29.229-20.442,26.175-38.15l-7.089-41.12H186.73l-7.089,41.12
				c-3.053,17.708,8.554,34.626,26.175,38.15c3.527,0.706,6.065,3.802,6.065,7.399v44.117l-20.804,1.892
				c-3.887,0.354-6.862,3.612-6.862,7.514v0.655h65.393v-0.655c0-3.902-2.976-7.161-6.862-7.514l-20.804-1.892v-44.117
				C221.94,224.603,224.479,221.506,228.006,220.8z"/>
			<path fill="#ED5565" d="M216.911,233.229c2.777,0,5.03-2.252,5.03-5.03c0-3.597,2.539-6.693,6.065-7.399
				c17.62-3.524,29.229-20.442,26.175-38.15l-0.584-3.393h-73.373l-0.584,3.393c-3.053,17.708,8.554,34.626,26.175,38.15
				c3.527,0.706,6.065,3.802,6.065,7.399C211.88,230.978,214.132,233.229,216.911,233.229z"/>
			<g>
				<path fill="#F3F1F2" d="M195.672,204.484c-1.086,0.86-2.665,0.676-3.525-0.411c-0.331-0.424-0.647-0.856-0.951-1.298
					l-0.06-0.087c-0.038-0.058-0.073-0.116-0.107-0.177c-0.598-1.095-0.195-2.467,0.901-3.065l0.417-0.229
					c1.034-0.568,2.33-0.259,2.997,0.714c0.237,0.345,0.484,0.683,0.741,1.014c0.799,1.013,0.707,2.465-0.215,3.368
					C195.806,204.373,195.74,204.431,195.672,204.484z"/>
				<path fill="#F3F1F2" d="M189.897,194.368c-1.365,0.229-2.658-0.691-2.888-2.058c-0.44-2.777-0.418-5.608,0.065-8.378
					l4.789-27.775c0.236-1.369,1.538-2.287,2.906-2.051c1.369,0.236,2.287,1.537,2.051,2.906l-4.789,27.775
					c-0.387,2.216-0.407,4.481-0.059,6.704c0.202,1.267-0.583,2.483-1.821,2.82C190.068,194.334,189.983,194.353,189.897,194.368z"
					/>
			</g>
		</g>
		<g>
			<path fill="#E3E4E2" d="M533.771,220.8c17.619-3.524,29.229-20.442,26.175-38.15l-7.089-41.12h-60.362l-7.09,41.12
				c-3.056,17.708,8.554,34.626,26.175,38.15c3.527,0.706,6.063,3.802,6.063,7.399v44.117l-20.804,1.892
				c-3.887,0.354-6.862,3.612-6.862,7.514v0.655h65.395v-0.655c0-3.902-2.978-7.161-6.861-7.514l-20.805-1.892v-44.117
				C527.706,224.603,530.245,221.506,533.771,220.8z"/>
			<path fill="#ED5565" d="M522.676,233.229c2.778,0,5.03-2.252,5.03-5.03c0-3.597,2.539-6.693,6.065-7.399
				c17.619-3.524,29.229-20.442,26.175-38.15l-0.585-3.393H485.99l-0.584,3.393c-3.056,17.708,8.554,34.626,26.175,38.15
				c3.527,0.706,6.063,3.802,6.063,7.399C517.646,230.978,519.898,233.229,522.676,233.229z"/>
			<g>
				<path fill="#F3F1F2" d="M501.438,204.484c-1.087,0.86-2.663,0.676-3.522-0.411c-0.331-0.424-0.648-0.856-0.951-1.298
					l-0.061-0.087c-0.038-0.058-0.074-0.116-0.106-0.177c-0.598-1.095-0.195-2.467,0.9-3.065l0.418-0.229
					c1.034-0.568,2.33-0.259,2.997,0.714c0.234,0.345,0.481,0.683,0.738,1.014c0.801,1.013,0.706,2.465-0.216,3.368
					C501.572,204.373,501.506,204.431,501.438,204.484z"/>
				<path fill="#F3F1F2" d="M495.663,194.368c-1.366,0.229-2.658-0.691-2.888-2.058c-0.441-2.777-0.42-5.608,0.063-8.378
					l4.789-27.775c0.236-1.369,1.537-2.287,2.906-2.051s2.287,1.537,2.051,2.906l-4.789,27.775
					c-0.387,2.216-0.407,4.481-0.059,6.704c0.2,1.267-0.583,2.483-1.821,2.82C495.834,194.334,495.749,194.353,495.663,194.368z"/>
			</g>
		</g>
		<g>
			<path fill="#E3E4E2" d="M220.635,763.968v-44.117l20.804-1.892c3.886-0.353,6.862-3.611,6.862-7.514v-0.655h-65.393v0.655
				c0,3.9,2.976,7.161,6.863,7.514l20.803,1.892v44.117c0,3.599-2.538,6.693-6.065,7.398c-17.621,3.522-29.228,20.439-26.175,38.148
				l7.089,41.119h60.363l7.089-41.119c3.053-17.709-8.554-34.626-26.175-38.148C223.174,770.661,220.635,767.564,220.635,763.968z"
				/>
			<path fill="#ED5565" d="M210.574,763.968c0,3.599-2.538,6.693-6.065,7.398c-17.621,3.522-29.228,20.439-26.175,38.148
				l0.584,3.395h73.372l0.585-3.395c3.053-17.709-8.554-34.626-26.175-38.148c-3.527-0.705-6.066-3.802-6.066-7.398
				c0-2.776-2.252-5.028-5.03-5.028C212.827,758.938,210.574,761.189,210.574,763.968z"/>
			<g>
				<path fill="#F3F1F2" d="M194.563,787.854c0.922,0.901,1.015,2.354,0.215,3.367c-0.256,0.329-0.503,0.667-0.74,1.015
					c-0.667,0.973-1.963,1.28-2.996,0.714l-0.418-0.229c-1.096-0.599-1.498-1.97-0.9-3.063c0.033-0.062,0.068-0.119,0.107-0.179
					l0.06-0.087c0.303-0.44,0.62-0.875,0.951-1.298c0.859-1.088,2.438-1.271,3.524-0.412
					C194.435,787.736,194.501,787.794,194.563,787.854z"/>
				<path fill="#F3F1F2" d="M188.847,797.854c1.237,0.339,2.022,1.555,1.821,2.819c-0.348,2.225-0.328,4.488,0.06,6.704
					l4.788,27.774c0.236,1.368-0.682,2.67-2.05,2.904c-1.37,0.236-2.67-0.682-2.907-2.051l-4.789-27.773
					c-0.484-2.771-0.506-5.604-0.066-8.38c0.229-1.363,1.523-2.285,2.888-2.058C188.678,797.813,188.763,797.832,188.847,797.854z"
					/>
			</g>
		</g>
		<g>
			<path fill="#E3E4E2" d="M526.4,763.968v-44.117l20.805-1.892c3.887-0.353,6.862-3.611,6.862-7.514v-0.655h-65.395v0.655
				c0,3.9,2.978,7.161,6.862,7.514l20.803,1.892v44.117c0,3.599-2.537,6.693-6.063,7.398c-17.622,3.522-29.229,20.439-26.177,38.148
				l7.091,41.119h60.36l7.09-41.119c3.055-17.709-8.555-34.626-26.175-38.148C528.939,770.661,526.4,767.564,526.4,763.968z"/>
			<path fill="#ED5565" d="M516.34,763.968c0,3.599-2.537,6.693-6.063,7.398c-17.622,3.522-29.229,20.439-26.176,38.148l0.584,3.395
				h73.37l0.587-3.395c3.054-17.709-8.556-34.626-26.176-38.148c-3.525-0.705-6.064-3.802-6.064-7.398
				c0-2.776-2.252-5.028-5.029-5.028C518.593,758.938,516.34,761.189,516.34,763.968z"/>
			<g>
				<path fill="#F3F1F2" d="M500.33,787.854c0.922,0.901,1.014,2.354,0.215,3.367c-0.256,0.329-0.504,0.667-0.74,1.015
					c-0.667,0.973-1.963,1.28-2.997,0.714l-0.418-0.229c-1.096-0.599-1.499-1.97-0.899-3.063c0.034-0.062,0.067-0.119,0.105-0.179
					l0.062-0.087c0.304-0.44,0.621-0.875,0.952-1.298c0.857-1.088,2.438-1.271,3.522-0.412
					C500.201,787.736,500.267,787.794,500.33,787.854z"/>
				<path fill="#F3F1F2" d="M494.613,797.854c1.235,0.339,2.021,1.555,1.819,2.819c-0.349,2.225-0.326,4.488,0.061,6.704
					l4.789,27.774c0.234,1.368-0.684,2.67-2.051,2.904c-1.369,0.236-2.671-0.682-2.906-2.051l-4.789-27.773
					c-0.483-2.771-0.506-5.604-0.065-8.38c0.229-1.363,1.523-2.285,2.89-2.058C494.444,797.813,494.529,797.832,494.613,797.854z"/>
			</g>
		</g>
	</g>
</g>
</svg>
