<?xml version="1.0" encoding="utf-8"?>
<!-- Generator: Adobe Illustrator 16.0.0, SVG Export Plug-In . SVG Version: 6.00 Build 0)  -->
<!DOCTYPE svg PUBLIC "-//W3C//DTD SVG 1.1//EN" "http://www.w3.org/Graphics/SVG/1.1/DTD/svg11.dtd">
<svg version="1.1" id="Layer_1" xmlns="http://www.w3.org/2000/svg" xmlns:xlink="http://www.w3.org/1999/xlink" x="0px" y="0px"
	 width="688.134px" height="963.389px" viewBox="24.61 16.122 688.134 963.389"
	 enable-background="new 24.61 16.122 688.134 963.389" xml:space="preserve">
<g id="_x35__1_">
	<path fill="#FFF2D2" d="M712.745,910.698c0,38.003-30.808,68.813-68.813,68.813H93.423c-38.006,0-68.813-30.811-68.813-68.813
		V84.936c0-38.004,30.807-68.814,68.813-68.814h550.508c38.006,0,68.813,30.81,68.813,68.814L712.745,910.698L712.745,910.698z"/>
	<path fill="#FFD47D" d="M80.936,462.459V138.655c4.584,1.479,9.473,2.275,14.548,2.275c26.252,0,47.537-21.284,47.537-47.543
		c0-7.513-1.747-14.621-4.85-20.935c0.101-0.005,0.208-0.005,0.31-0.005h460.392c31.784,0,57.546,27.205,57.546,60.768V462.46"/>
	<path fill="#FFD47D" d="M656.419,393.5v463.552c-4.584-1.479-9.474-2.273-14.549-2.273c-26.252,0-47.536,21.283-47.536,47.543
		c0,7.514,1.746,14.62,4.85,20.936c-0.102,0.005-0.208,0.005-0.311,0.005H138.481c-31.784,0-57.545-27.204-57.545-60.768
		L80.934,393.5"/>
	<path fill="none" stroke="#231F20" stroke-width="5" stroke-miterlimit="10" d="M656.422,852.474"/>
	<g>
		<rect x="67.027" y="63.784" fill="none" width="102.057" height="90.537"/>
		<text transform="matrix(1 0 0 1 67.0273 127.9727)" fill="#ED5565" font-family="'Arvo'" font-size="84.4849">5</text>
	</g>
	<path fill="none" stroke="#231F20" stroke-width="5" stroke-miterlimit="10" d="M397.452,462.459"/>
	<path fill="none" stroke="#231F20" stroke-width="5" stroke-miterlimit="10" d="M80.934,462.459"/>
	<path fill="none" stroke="#231F20" stroke-width="5" stroke-miterlimit="10" d="M397.452,462.459"/>
	<path fill="none" stroke="#231F20" stroke-width="5" stroke-miterlimit="10" d="M656.422,533.247"/>
	<path fill="none" stroke="#231F20" stroke-width="5" stroke-miterlimit="10" d="M339.903,533.247"/>
	<g>
		<rect x="565.291" y="842.203" fill="none" width="102.057" height="90.537"/>
		<text transform="matrix(-1 0 0 -1 667.3477 868.5508)" fill="#ED5565" font-family="'Arvo'" font-size="84.4849">5</text>
	</g>
	<g>
		<g>
			<path fill="#E3E4E2" d="M227.981,219.46c17.565-3.513,29.138-20.378,26.094-38.032l-7.067-40.992h-60.175l-7.067,40.992
				c-3.044,17.654,8.527,34.521,26.094,38.032c3.516,0.703,6.046,3.79,6.046,7.376v43.979l-20.739,1.886
				c-3.875,0.352-6.841,3.6-6.841,7.49v0.653h65.189v-0.653c0-3.89-2.966-7.139-6.84-7.49l-20.74-1.886v-43.979
				C221.934,223.25,224.465,220.163,227.981,219.46z"/>
			<path fill="#ED5565" d="M216.92,231.851c2.769,0,5.014-2.245,5.014-5.015c0-3.586,2.531-6.673,6.047-7.376
				c17.565-3.513,29.138-20.378,26.094-38.032l-0.583-3.382h-73.145l-0.583,3.382c-3.044,17.654,8.527,34.521,26.094,38.032
				c3.516,0.703,6.046,3.79,6.046,7.376C211.905,229.605,214.15,231.851,216.92,231.851z"/>
			<g>
				<path fill="#F3F1F2" d="M195.747,203.194c-1.083,0.857-2.657,0.674-3.514-0.41c-0.33-0.422-0.646-0.854-0.948-1.294l-0.06-0.087
					c-0.038-0.057-0.073-0.116-0.106-0.176c-0.596-1.092-0.194-2.46,0.898-3.056l0.417-0.229c1.03-0.566,2.323-0.258,2.987,0.711
					c0.236,0.344,0.482,0.681,0.738,1.01c0.796,1.01,0.705,2.458-0.215,3.358C195.881,203.083,195.815,203.141,195.747,203.194z"/>
				<path fill="#F3F1F2" d="M189.99,193.109c-1.36,0.229-2.65-0.689-2.878-2.051c-0.439-2.769-0.417-5.591,0.064-8.353l4.774-27.688
					c0.235-1.365,1.533-2.28,2.897-2.044c1.365,0.235,2.28,1.532,2.044,2.897l-4.773,27.688c-0.386,2.209-0.406,4.467-0.059,6.683
					c0.201,1.263-0.582,2.475-1.815,2.812C190.161,193.076,190.076,193.095,189.99,193.109z"/>
			</g>
		</g>
		<g>
			<path fill="#E3E4E2" d="M532.798,219.46c17.565-3.513,29.137-20.378,26.093-38.032l-7.065-40.992H491.65l-7.068,40.992
				c-3.044,17.654,8.528,34.521,26.094,38.032c3.519,0.703,6.047,3.79,6.047,7.376v43.979l-20.738,1.886
				c-3.874,0.352-6.842,3.6-6.842,7.49v0.653h65.189v-0.653c0-3.89-2.967-7.139-6.841-7.49l-20.739-1.886v-43.979
				C526.751,223.25,529.281,220.163,532.798,219.46z"/>
			<path fill="#ED5565" d="M521.736,231.851c2.77,0,5.015-2.245,5.015-5.015c0-3.586,2.53-6.673,6.047-7.376
				c17.565-3.513,29.138-20.378,26.093-38.032l-0.583-3.382h-73.144l-0.583,3.382c-3.044,17.654,8.528,34.521,26.094,38.032
				c3.519,0.703,6.047,3.79,6.047,7.376C516.722,229.605,518.967,231.851,521.736,231.851z"/>
			<g>
				<path fill="#F3F1F2" d="M500.564,203.194c-1.084,0.857-2.657,0.674-3.516-0.41c-0.33-0.422-0.646-0.854-0.948-1.294
					l-0.061-0.087c-0.038-0.057-0.073-0.116-0.106-0.176c-0.596-1.092-0.192-2.459,0.897-3.056l0.417-0.229
					c1.03-0.566,2.323-0.258,2.987,0.711c0.234,0.344,0.48,0.681,0.736,1.01c0.796,1.01,0.704,2.458-0.215,3.358
					C500.698,203.083,500.632,203.141,500.564,203.194z"/>
				<path fill="#F3F1F2" d="M494.807,193.109c-1.359,0.229-2.648-0.689-2.879-2.051c-0.438-2.769-0.417-5.591,0.065-8.353
					l4.772-27.688c0.235-1.365,1.532-2.28,2.896-2.044c1.365,0.235,2.28,1.532,2.045,2.896l-4.774,27.689
					c-0.385,2.209-0.404,4.467-0.058,6.683c0.201,1.263-0.582,2.475-1.814,2.812C494.979,193.076,494.893,193.095,494.807,193.109z"
					/>
			</g>
		</g>
		<g>
			<path fill="#E3E4E2" d="M220.633,760.94v-43.979l20.739-1.885c3.875-0.354,6.841-3.604,6.841-7.492v-0.652h-65.189v0.652
				c0,3.891,2.966,7.139,6.841,7.492l20.738,1.885v43.979c0,3.586-2.53,6.672-6.046,7.376c-17.566,3.513-29.138,20.379-26.094,38.03
				l7.067,40.991h60.175l7.067-40.991c3.044-17.651-8.528-34.52-26.094-38.03C223.164,767.612,220.633,764.526,220.633,760.94z"/>
			<path fill="#ED5565" d="M210.604,760.94c0,3.586-2.53,6.672-6.046,7.376c-17.566,3.513-29.138,20.379-26.094,38.03l0.582,3.383
				h73.145l0.583-3.383c3.044-17.651-8.528-34.52-26.094-38.03c-3.516-0.704-6.047-3.79-6.047-7.376
				c0-2.771-2.245-5.017-5.014-5.017C212.849,755.926,210.604,758.171,210.604,760.94z"/>
			<g>
				<path fill="#F3F1F2" d="M194.643,784.754c0.919,0.9,1.012,2.349,0.214,3.357c-0.255,0.33-0.501,0.667-0.738,1.011
					c-0.665,0.97-1.957,1.277-2.987,0.712l-0.417-0.229c-1.092-0.596-1.494-1.964-0.897-3.056c0.033-0.061,0.068-0.118,0.106-0.176
					l0.06-0.088c0.302-0.439,0.618-0.871,0.948-1.294c0.857-1.083,2.431-1.269,3.514-0.41
					C194.515,784.635,194.58,784.693,194.643,784.754z"/>
				<path fill="#F3F1F2" d="M188.943,794.724c1.233,0.337,2.016,1.55,1.815,2.813c-0.347,2.216-0.327,4.474,0.06,6.684l4.773,27.688
					c0.235,1.365-0.68,2.661-2.044,2.896c-1.365,0.235-2.662-0.68-2.897-2.045l-4.774-27.688c-0.482-2.765-0.504-5.584-0.065-8.354
					c0.229-1.36,1.518-2.278,2.879-2.051C188.775,794.682,188.859,794.701,188.943,794.724z"/>
			</g>
		</g>
		<g>
			<path fill="#E3E4E2" d="M525.449,760.94v-43.979l20.74-1.885c3.872-0.354,6.841-3.604,6.841-7.492v-0.652h-65.189v0.652
				c0,3.891,2.966,7.139,6.84,7.492l20.739,1.885v43.979c0,3.586-2.529,6.672-6.046,7.376c-17.566,3.513-29.138,20.379-26.094,38.03
				l7.065,40.991h60.176l7.066-40.991c3.044-17.651-8.528-34.52-26.093-38.03C527.98,767.612,525.449,764.526,525.449,760.94z"/>
			<path fill="#ED5565" d="M515.42,760.94c0,3.586-2.529,6.672-6.046,7.376c-17.566,3.513-29.138,20.379-26.094,38.03l0.583,3.383
				h73.144l0.583-3.383c3.044-17.651-8.526-34.52-26.093-38.03c-3.517-0.704-6.048-3.79-6.048-7.376
				c0-2.771-2.245-5.017-5.014-5.017C517.666,755.926,515.42,758.171,515.42,760.94z"/>
			<g>
				<path fill="#F3F1F2" d="M499.459,784.754c0.919,0.9,1.011,2.349,0.214,3.357c-0.256,0.33-0.502,0.667-0.738,1.011
					c-0.665,0.97-1.956,1.277-2.985,0.712l-0.417-0.229c-1.092-0.596-1.494-1.964-0.898-3.056c0.034-0.061,0.069-0.118,0.107-0.176
					l0.06-0.088c0.303-0.439,0.618-0.871,0.948-1.294c0.856-1.083,2.431-1.269,3.514-0.41
					C499.331,784.635,499.396,784.693,499.459,784.754z"/>
				<path fill="#F3F1F2" d="M493.76,794.724c1.233,0.337,2.018,1.55,1.815,2.813c-0.347,2.216-0.327,4.474,0.059,6.684l4.774,27.688
					c0.233,1.365-0.68,2.661-2.044,2.896c-1.364,0.235-2.662-0.68-2.897-2.045l-4.772-27.688c-0.482-2.765-0.505-5.584-0.065-8.354
					c0.229-1.36,1.52-2.278,2.879-2.051C493.592,794.682,493.676,794.701,493.76,794.724z"/>
			</g>
		</g>
	</g>
	<g>
		<path fill="#E3E4E2" d="M379.738,518.956c17.564-3.514,29.138-20.378,26.094-38.032l-7.067-40.992h-60.176l-7.065,40.992
			c-3.045,17.654,8.526,34.521,26.094,38.032c3.516,0.703,6.046,3.79,6.046,7.376v43.979l-20.739,1.888
			c-3.875,0.352-6.841,3.601-6.841,7.488v0.653h65.188v-0.653c0-3.89-2.968-7.139-6.842-7.488l-20.737-1.888v-43.979
			C373.692,522.746,376.223,519.659,379.738,518.956z"/>
		<path fill="#ED5565" d="M368.677,531.347c2.771,0,5.017-2.244,5.017-5.015c0-3.586,2.529-6.673,6.046-7.376
			c17.564-3.514,29.138-20.378,26.094-38.032l-0.583-3.382h-73.145l-0.584,3.382c-3.044,17.654,8.528,34.521,26.096,38.032
			c3.516,0.703,6.046,3.79,6.046,7.376C363.663,529.103,365.907,531.347,368.677,531.347z"/>
		<g>
			<path fill="#F3F1F2" d="M347.505,502.69c-1.083,0.855-2.657,0.675-3.514-0.409c-0.33-0.422-0.646-0.854-0.949-1.294l-0.06-0.087
				c-0.039-0.059-0.074-0.116-0.106-0.178c-0.596-1.093-0.194-2.46,0.897-3.056l0.417-0.229c1.029-0.566,2.32-0.26,2.985,0.712
				c0.236,0.344,0.483,0.681,0.738,1.01c0.797,1.01,0.705,2.458-0.215,3.358C347.639,502.58,347.574,502.637,347.505,502.69z"/>
			<path fill="#F3F1F2" d="M341.748,492.605c-1.361,0.229-2.65-0.69-2.879-2.053c-0.439-2.768-0.417-5.591,0.064-8.352l4.774-27.688
				c0.236-1.363,1.532-2.279,2.896-2.045c1.365,0.235,2.28,1.532,2.046,2.897l-4.773,27.688c-0.386,2.209-0.406,4.468-0.059,6.685
				c0.198,1.263-0.582,2.475-1.816,2.812C341.919,492.572,341.833,492.591,341.748,492.605z"/>
		</g>
	</g>
</g>
</svg>
