<?xml version="1.0" encoding="utf-8"?>
<!-- Generator: Adobe Illustrator 16.0.0, SVG Export Plug-In . SVG Version: 6.00 Build 0)  -->
<!DOCTYPE svg PUBLIC "-//W3C//DTD SVG 1.1//EN" "http://www.w3.org/Graphics/SVG/1.1/DTD/svg11.dtd">
<svg version="1.1" id="Layer_1" xmlns="http://www.w3.org/2000/svg" xmlns:xlink="http://www.w3.org/1999/xlink" x="0px" y="0px"
	 width="670.331px" height="938.464px" viewBox="21.178 41.503 670.331 938.464"
	 enable-background="new 21.178 41.503 670.331 938.464" xml:space="preserve">
<g id="_x37__1_">
	<path fill="#FFF2D2" d="M691.509,912.934c0,37.021-30.011,67.033-67.033,67.033H88.211c-37.023,0-67.033-30.014-67.033-67.033
		V108.537c0-37.021,30.01-67.034,67.033-67.034h536.265c37.022,0,67.033,30.013,67.033,67.034V912.934L691.509,912.934z"/>
	<path fill="#FFD47D" d="M76.046,476.293V160.866c4.465,1.442,9.228,2.216,14.172,2.216c25.573,0,46.307-20.733,46.307-46.313
		c0-7.319-1.701-14.243-4.724-20.394c0.099-0.005,0.203-0.005,0.302-0.005h448.48c30.961,0,56.057,26.5,56.057,59.195v320.727"/>
	<path fill="#FFD47D" d="M636.64,378.5v482.177c-4.465-1.439-9.229-2.216-14.172-2.216c-25.57,0-46.307,20.733-46.307,46.313
		c0,7.317,1.701,14.24,4.725,20.394c-0.099,0.006-0.203,0.006-0.303,0.006h-448.48c-30.961,0-56.057-26.501-56.057-59.195V378.5"/>
	<path fill="none" stroke="#231F20" stroke-width="5" stroke-miterlimit="10" d="M636.643,856.216"/>
	<g>
		<rect x="62.498" y="87.932" fill="none" width="99.417" height="88.195"/>
		<text transform="matrix(1 0 0 1 62.4976 150.46)" fill="#ED5565" font-family="'Arvo'" font-size="82.299">7</text>
	</g>
	<path fill="none" stroke="#231F20" stroke-width="5" stroke-miterlimit="10" d="M636.643,476.293"/>
	<path fill="none" stroke="#231F20" stroke-width="5" stroke-miterlimit="10" d="M384.374,476.293"/>
	<path fill="none" stroke="#231F20" stroke-width="5" stroke-miterlimit="10" d="M76.043,476.293"/>
	<path fill="none" stroke="#231F20" stroke-width="5" stroke-miterlimit="10" d="M384.374,476.293"/>
	<path fill="none" stroke="#231F20" stroke-width="5" stroke-miterlimit="10" d="M636.643,545.25"/>
	<path fill="none" stroke="#231F20" stroke-width="5" stroke-miterlimit="10" d="M328.313,545.25"/>
	<g>
		<rect x="545.768" y="846.211" fill="none" width="99.416" height="88.195"/>
		<text transform="matrix(-1 0 0 -1 645.1836 871.8789)" fill="#ED5565" font-family="'Arvo'" font-size="82.299">7</text>
	</g>
	<g>
		<g>
			<path fill="#E3E4E2" d="M219.287,239.581c17.111-3.422,28.383-19.851,25.418-37.048l-6.885-39.931h-58.618l-6.884,39.931
				c-2.965,17.197,8.306,33.626,25.418,37.048c3.425,0.685,5.89,3.692,5.89,7.185v42.842l-20.202,1.837
				c-3.774,0.343-6.664,3.507-6.664,7.297v0.636h63.503v-0.636c0-3.79-2.89-6.954-6.664-7.297l-20.203-1.837v-42.842
				C213.396,243.272,215.862,240.266,219.287,239.581z"/>
			<path fill="#ED5565" d="M208.512,251.65c2.697,0,4.884-2.187,4.884-4.885c0-3.493,2.465-6.5,5.891-7.185
				c17.111-3.422,28.383-19.851,25.418-37.048l-0.568-3.294h-71.251l-0.567,3.294c-2.965,17.197,8.306,33.626,25.418,37.048
				c3.425,0.685,5.89,3.692,5.89,7.185C203.626,249.464,205.814,251.65,208.512,251.65z"/>
			<g>
				<path fill="#F3F1F2" d="M187.887,223.736c-1.055,0.835-2.587,0.656-3.423-0.399c-0.321-0.411-0.629-0.831-0.923-1.261
					l-0.058-0.085c-0.037-0.056-0.072-0.113-0.104-0.172c-0.58-1.063-0.189-2.396,0.875-2.976l0.406-0.223
					c1.003-0.552,2.263-0.251,2.91,0.693c0.229,0.335,0.47,0.663,0.719,0.984c0.776,0.984,0.687,2.395-0.209,3.271
					C188.018,223.627,187.953,223.684,187.887,223.736z"/>
				<path fill="#F3F1F2" d="M182.279,213.912c-1.326,0.223-2.582-0.672-2.805-1.998c-0.427-2.697-0.406-5.446,0.063-8.136
					l4.65-26.972c0.229-1.329,1.493-2.221,2.822-1.992c1.33,0.229,2.221,1.492,1.992,2.822l-4.65,26.972
					c-0.375,2.152-0.395,4.352-0.057,6.511c0.196,1.23-0.567,2.411-1.768,2.738C182.445,213.879,182.363,213.897,182.279,213.912z"
					/>
			</g>
		</g>
		<g>
			<path fill="#E3E4E2" d="M516.217,239.581c17.111-3.422,28.383-19.851,25.418-37.048l-6.885-39.931h-58.617l-6.885,39.931
				c-2.965,17.197,8.307,33.626,25.418,37.048c3.425,0.685,5.89,3.692,5.89,7.185v42.842l-20.202,1.837
				c-3.773,0.343-6.662,3.507-6.663,7.297v0.636h63.503v-0.636c0-3.79-2.893-6.954-6.664-7.297l-20.202-1.837v-42.842
				C510.327,243.272,512.792,240.266,516.217,239.581z"/>
			<path fill="#ED5565" d="M505.441,251.65c2.696,0,4.886-2.187,4.886-4.885c0-3.493,2.465-6.5,5.89-7.185
				c17.111-3.422,28.383-19.851,25.418-37.048l-0.565-3.294h-71.251l-0.568,3.294c-2.965,17.197,8.307,33.626,25.418,37.048
				c3.425,0.685,5.89,3.692,5.89,7.185C500.557,249.464,502.744,251.65,505.441,251.65z"/>
			<g>
				<path fill="#F3F1F2" d="M484.817,223.736c-1.058,0.835-2.589,0.656-3.425-0.399c-0.319-0.411-0.629-0.831-0.923-1.261
					l-0.059-0.085c-0.036-0.056-0.071-0.113-0.104-0.172c-0.58-1.063-0.188-2.396,0.875-2.976l0.406-0.223
					c1.004-0.552,2.264-0.251,2.91,0.693c0.23,0.335,0.469,0.663,0.719,0.984c0.775,0.984,0.688,2.395-0.21,3.271
					C484.948,223.627,484.884,223.684,484.817,223.736z"/>
				<path fill="#F3F1F2" d="M479.209,213.912c-1.326,0.223-2.582-0.672-2.804-1.998c-0.429-2.697-0.407-5.446,0.063-8.136
					l4.651-26.972c0.229-1.329,1.493-2.221,2.822-1.992c1.33,0.229,2.221,1.492,1.99,2.822l-4.648,26.972
					c-0.376,2.152-0.396,4.352-0.059,6.511c0.195,1.23-0.565,2.411-1.769,2.738C479.375,213.879,479.293,213.897,479.209,213.912z"
					/>
			</g>
		</g>
		<g>
			<path fill="#E3E4E2" d="M374.441,382.7c17.109-3.422,28.384-19.851,25.419-37.048l-6.886-39.931h-58.617l-6.886,39.931
				c-2.965,17.197,8.309,33.626,25.418,37.048c3.427,0.686,5.893,3.693,5.893,7.186v42.842l-20.203,1.838
				c-3.774,0.343-6.664,3.507-6.664,7.297v0.635h63.502v-0.635c0-3.79-2.89-6.955-6.664-7.297l-20.202-1.838v-42.842
				C368.552,386.393,371.017,383.386,374.441,382.7z"/>
			<path fill="#ED5565" d="M363.667,394.77c2.697,0,4.885-2.187,4.885-4.884c0-3.493,2.465-6.5,5.892-7.186
				c17.109-3.422,28.384-19.851,25.419-37.048l-0.568-3.294h-71.251l-0.567,3.294c-2.965,17.197,8.309,33.626,25.419,37.048
				c3.426,0.686,5.892,3.693,5.892,7.186C358.782,392.583,360.969,394.77,363.667,394.77z"/>
			<g>
				<path fill="#F3F1F2" d="M343.042,366.856c-1.055,0.835-2.589,0.657-3.423-0.399c-0.321-0.412-0.629-0.832-0.924-1.261
					l-0.06-0.085c-0.038-0.056-0.071-0.113-0.104-0.171c-0.581-1.064-0.188-2.396,0.874-2.977l0.406-0.223
					c1.005-0.552,2.263-0.252,2.908,0.693c0.23,0.335,0.473,0.664,0.722,0.984c0.775,0.984,0.686,2.394-0.209,3.271
					C343.172,366.747,343.109,366.804,343.042,366.856z"/>
				<path fill="#F3F1F2" d="M337.435,357.032c-1.325,0.222-2.581-0.672-2.805-1.998c-0.427-2.697-0.406-5.446,0.064-8.136
					l4.649-26.972c0.23-1.33,1.493-2.221,2.822-1.993c1.329,0.23,2.221,1.493,1.991,2.823l-4.649,26.972
					c-0.376,2.152-0.396,4.352-0.057,6.51c0.193,1.229-0.567,2.41-1.771,2.738C337.6,356.999,337.517,357.018,337.435,357.032z"/>
			</g>
		</g>
		<g>
			<path fill="#E3E4E2" d="M212.128,767.051V724.21l20.203-1.837c3.774-0.344,6.664-3.508,6.664-7.297v-0.637h-63.503v0.637
				c0,3.789,2.89,6.953,6.665,7.297l20.202,1.837v42.841c0,3.493-2.465,6.501-5.89,7.188c-17.112,3.422-28.383,19.852-25.418,37.048
				l6.884,39.932h58.619l6.884-39.932c2.965-17.196-8.307-33.626-25.418-37.048C214.594,773.552,212.128,770.544,212.128,767.051z"
				/>
			<path fill="#ED5565" d="M202.359,767.051c0,3.493-2.465,6.501-5.89,7.188c-17.112,3.422-28.383,19.852-25.418,37.048l0.567,3.295
				h71.252l0.568-3.295c2.965-17.196-8.307-33.626-25.418-37.048c-3.425-0.687-5.891-3.692-5.891-7.188
				c0-2.695-2.187-4.885-4.884-4.885C204.546,762.166,202.359,764.354,202.359,767.051z"/>
			<g>
				<path fill="#F3F1F2" d="M186.811,790.249c0.895,0.876,0.985,2.287,0.209,3.271c-0.249,0.319-0.489,0.646-0.719,0.982
					c-0.647,0.944-1.906,1.244-2.909,0.693l-0.406-0.226c-1.064-0.58-1.455-1.913-0.875-2.977c0.032-0.061,0.066-0.116,0.104-0.172
					l0.058-0.085c0.295-0.431,0.603-0.851,0.924-1.261c0.835-1.057,2.368-1.233,3.423-0.398
					C186.686,790.134,186.75,790.189,186.811,790.249z"/>
				<path fill="#F3F1F2" d="M181.259,799.96c1.202,0.328,1.964,1.508,1.768,2.739c-0.338,2.158-0.318,4.356,0.058,6.51l4.65,26.973
					c0.229,1.329-0.663,2.595-1.991,2.822c-1.33,0.229-2.593-0.663-2.823-1.992l-4.65-26.972c-0.47-2.689-0.492-5.439-0.064-8.138
					c0.223-1.325,1.479-2.22,2.805-1.997C181.095,799.92,181.178,799.938,181.259,799.96z"/>
			</g>
		</g>
		<g>
			<path fill="#E3E4E2" d="M509.059,767.051V724.21l20.203-1.837c3.774-0.344,6.664-3.508,6.664-7.297v-0.637h-63.502v0.637
				c0,3.789,2.889,6.953,6.664,7.297l20.202,1.837v42.841c0,3.493-2.465,6.501-5.89,7.188
				c-17.112,3.422-28.386,19.852-25.421,37.048l6.887,39.932h58.618l6.885-39.932c2.964-17.196-8.31-33.626-25.419-37.048
				C511.524,773.552,509.059,770.544,509.059,767.051z"/>
			<path fill="#ED5565" d="M499.289,767.051c0,3.493-2.465,6.501-5.89,7.188c-17.112,3.422-28.386,19.852-25.419,37.048l0.566,3.295
				H539.8l0.568-3.295c2.964-17.196-8.31-33.626-25.419-37.048c-3.425-0.687-5.893-3.692-5.893-7.188
				c0-2.695-2.187-4.885-4.884-4.885S499.289,764.354,499.289,767.051z"/>
			<g>
				<path fill="#F3F1F2" d="M483.741,790.249c0.895,0.876,0.983,2.287,0.209,3.271c-0.249,0.319-0.489,0.646-0.719,0.982
					c-0.647,0.944-1.906,1.244-2.91,0.693l-0.405-0.226c-1.064-0.58-1.456-1.913-0.875-2.977c0.033-0.061,0.067-0.116,0.104-0.172
					l0.06-0.085c0.295-0.431,0.603-0.851,0.924-1.261c0.835-1.057,2.368-1.233,3.423-0.398
					C483.616,790.134,483.681,790.189,483.741,790.249z"/>
				<path fill="#F3F1F2" d="M478.189,799.96c1.2,0.328,1.964,1.508,1.768,2.739c-0.337,2.158-0.318,4.356,0.058,6.51l4.65,26.973
					c0.229,1.329-0.662,2.595-1.992,2.822c-1.329,0.229-2.592-0.663-2.822-1.992l-4.649-26.972
					c-0.469-2.689-0.491-5.439-0.063-8.138c0.225-1.325,1.479-2.22,2.806-1.997C478.025,799.92,478.108,799.938,478.189,799.96z"/>
			</g>
		</g>
	</g>
	<g>
		<path fill="#E3E4E2" d="M218.019,531.328c17.112-3.422,28.384-19.854,25.418-37.048l-6.884-39.933h-58.619l-6.884,39.933
			c-2.965,17.195,8.307,33.626,25.418,37.048c3.425,0.685,5.89,3.692,5.89,7.185v42.842l-20.202,1.839
			c-3.774,0.344-6.665,3.508-6.665,7.297v0.636h63.503v-0.636c0-3.789-2.89-6.954-6.664-7.297l-20.202-1.839v-42.842
			C212.129,535.021,214.594,532.013,218.019,531.328z"/>
		<path fill="#ED5565" d="M207.245,543.398c2.697,0,4.885-2.188,4.885-4.888c0-3.491,2.465-6.5,5.89-7.185
			c17.112-3.422,28.384-19.854,25.418-37.048l-0.568-3.294h-71.251l-0.567,3.294c-2.965,17.195,8.307,33.626,25.418,37.048
			c3.425,0.685,5.89,3.69,5.89,7.185C202.359,541.211,204.546,543.398,207.245,543.398z"/>
		<g>
			<path fill="#F3F1F2" d="M186.62,515.483c-1.055,0.836-2.588,0.654-3.422-0.399c-0.322-0.411-0.63-0.831-0.925-1.261l-0.058-0.085
				c-0.038-0.058-0.072-0.112-0.104-0.171c-0.581-1.063-0.188-2.396,0.875-2.979l0.406-0.224c1.004-0.552,2.262-0.251,2.909,0.691
				c0.23,0.336,0.471,0.663,0.72,0.984c0.776,0.983,0.686,2.396-0.209,3.271C186.75,515.375,186.687,515.432,186.62,515.483z"/>
			<path fill="#F3F1F2" d="M181.012,505.659c-1.326,0.223-2.581-0.672-2.805-1.998c-0.428-2.696-0.406-5.446,0.064-8.136
				l4.65-26.974c0.229-1.329,1.493-2.221,2.822-1.99c1.329,0.229,2.221,1.49,1.992,2.82l-4.65,26.975
				c-0.376,2.149-0.396,4.351-0.057,6.51c0.195,1.229-0.567,2.411-1.77,2.739C181.178,505.627,181.095,505.645,181.012,505.659z"/>
		</g>
	</g>
	<g>
		<path fill="#E3E4E2" d="M514.949,531.328c17.109-3.422,28.384-19.854,25.419-37.048l-6.884-39.933h-58.619l-6.884,39.933
			c-2.967,17.195,8.307,33.626,25.419,37.048c3.424,0.685,5.89,3.692,5.89,7.185v42.842l-20.203,1.839
			c-3.772,0.344-6.664,3.508-6.664,7.297v0.636h63.502v-0.636c0-3.789-2.89-6.954-6.664-7.297l-20.202-1.839v-42.842
			C509.06,535.021,511.524,532.013,514.949,531.328z"/>
		<path fill="#ED5565" d="M504.175,543.398c2.697,0,4.885-2.188,4.885-4.888c0-3.491,2.467-6.5,5.892-7.185
			c17.109-3.422,28.384-19.854,25.419-37.048l-0.568-3.294H468.55l-0.566,3.294c-2.967,17.195,8.307,33.626,25.419,37.048
			c3.424,0.685,5.89,3.69,5.89,7.185C499.29,541.211,501.477,543.398,504.175,543.398z"/>
		<g>
			<path fill="#F3F1F2" d="M483.55,515.483c-1.055,0.836-2.588,0.654-3.423-0.399c-0.322-0.411-0.63-0.831-0.925-1.261l-0.06-0.085
				c-0.037-0.058-0.07-0.112-0.104-0.171c-0.581-1.063-0.188-2.396,0.875-2.979l0.406-0.224c1.004-0.552,2.262-0.251,2.908,0.691
				c0.229,0.336,0.472,0.663,0.721,0.984c0.775,0.983,0.686,2.396-0.209,3.271C483.681,515.375,483.617,515.432,483.55,515.483z"/>
			<path fill="#F3F1F2" d="M477.942,505.659c-1.326,0.223-2.582-0.672-2.807-1.998c-0.428-2.696-0.405-5.446,0.064-8.136
				l4.648-26.974c0.23-1.329,1.493-2.221,2.822-1.99c1.33,0.229,2.221,1.49,1.991,2.82l-4.649,26.975
				c-0.376,2.149-0.396,4.351-0.057,6.51c0.195,1.229-0.567,2.411-1.771,2.739C478.108,505.627,478.025,505.645,477.942,505.659z"/>
		</g>
	</g>
</g>
</svg>
