<?xml version="1.0" encoding="utf-8"?>
<!-- Generator: Adobe Illustrator 16.0.0, SVG Export Plug-In . SVG Version: 6.00 Build 0)  -->
<!DOCTYPE svg PUBLIC "-//W3C//DTD SVG 1.1//EN" "http://www.w3.org/Graphics/SVG/1.1/DTD/svg11.dtd">
<svg version="1.1" id="Layer_1" xmlns="http://www.w3.org/2000/svg" xmlns:xlink="http://www.w3.org/1999/xlink" x="0px" y="0px"
	 width="651.401px" height="911.962px" viewBox="37.177 40.358 651.401 911.962"
	 enable-background="new 37.177 40.358 651.401 911.962" xml:space="preserve">
<g id="_x38__1_">
	<path fill="#FFF2D2" d="M688.577,887.179c0,35.976-29.162,65.142-65.14,65.142H102.317c-35.978,0-65.14-29.166-65.14-65.142
		v-781.68c0-35.975,29.163-65.141,65.14-65.141h521.121c35.979,0,65.141,29.166,65.141,65.141L688.577,887.179L688.577,887.179z"/>
	<path fill="#FFD47D" d="M90.497,462.869V156.35c4.339,1.402,8.967,2.154,13.772,2.154c24.85,0,44.999-20.148,44.999-45.005
		c0-7.112-1.653-13.84-4.591-19.818c0.096-0.005,0.198-0.005,0.294-0.005h435.814c30.087,0,54.474,25.752,54.474,57.523v311.669"/>
	<path fill="#FFD47D" d="M635.259,387.5l-0.001,448.897c-4.339-1.4-8.967-2.152-13.771-2.152c-24.853,0-44.999,20.146-44.999,45.005
		c0,7.112,1.651,13.84,4.591,19.817c-0.096,0.005-0.197,0.005-0.294,0.005H144.97c-30.087,0-54.474-25.752-54.474-57.523
		L90.497,406.5"/>
	<path fill="none" stroke="#231F20" stroke-width="5" stroke-miterlimit="10" d="M635.261,832.063"/>
	<g>
		<rect x="77.331" y="85.476" fill="none" width="96.609" height="85.704"/>
		<text transform="matrix(1 0 0 1 77.3306 146.2383)" fill="#ED5565" font-family="'Arvo'" font-size="79.9749">8</text>
	</g>
	<path fill="none" stroke="#231F20" stroke-width="5" stroke-miterlimit="10" d="M635.261,462.869"/>
	<path fill="none" stroke="#231F20" stroke-width="5" stroke-miterlimit="10" d="M390.116,462.869"/>
	<path fill="none" stroke="#231F20" stroke-width="5" stroke-miterlimit="10" d="M90.494,462.869"/>
	<path fill="none" stroke="#231F20" stroke-width="5" stroke-miterlimit="10" d="M390.116,462.869"/>
	<path fill="none" stroke="#231F20" stroke-width="5" stroke-miterlimit="10" d="M635.261,529.878"/>
	<path fill="none" stroke="#231F20" stroke-width="5" stroke-miterlimit="10" d="M335.639,529.878"/>
	<g>
		<rect x="545.796" y="822.34" fill="none" width="96.608" height="85.704"/>
		<text transform="matrix(-1 0 0 -1 642.4053 847.2852)" fill="#ED5565" font-family="'Arvo'" font-size="79.9749">8</text>
	</g>
	<g>
		<g>
			<path fill="#E3E4E2" d="M229.692,232.841c16.627-3.326,27.582-19.291,24.701-36.002l-6.69-38.804H190.74l-6.69,38.804
				c-2.881,16.711,8.072,32.676,24.701,36.002c3.329,0.666,5.724,3.588,5.724,6.982v41.632l-19.632,1.785
				c-3.667,0.333-6.476,3.408-6.476,7.091v0.618h61.709v-0.618c0-3.683-2.808-6.758-6.476-7.091l-19.632-1.785v-41.632
				C223.968,236.429,226.363,233.507,229.692,232.841z"/>
			<path fill="#ED5565" d="M219.221,244.57c2.621,0,4.747-2.125,4.747-4.747c0-3.394,2.396-6.316,5.724-6.982
				c16.627-3.326,27.582-19.291,24.701-36.002l-0.552-3.202h-69.24l-0.552,3.202c-2.881,16.711,8.072,32.676,24.701,36.002
				c3.329,0.666,5.724,3.588,5.724,6.982C214.474,242.445,216.599,244.57,219.221,244.57z"/>
			<g>
				<path fill="#F3F1F2" d="M199.179,217.444c-1.025,0.812-2.515,0.638-3.326-0.388c-0.313-0.399-0.611-0.808-0.897-1.225
					l-0.057-0.083c-0.036-0.054-0.069-0.109-0.101-0.167c-0.564-1.034-0.184-2.329,0.85-2.893l0.394-0.217
					c0.975-0.536,2.199-0.245,2.828,0.674c0.224,0.326,0.457,0.645,0.699,0.957c0.754,0.956,0.667,2.327-0.203,3.178
					C199.306,217.339,199.243,217.393,199.179,217.444z"/>
				<path fill="#F3F1F2" d="M193.729,207.897c-1.289,0.216-2.509-0.653-2.726-1.942c-0.416-2.621-0.395-5.292,0.062-7.906
					l4.52-26.21c0.223-1.292,1.451-2.159,2.742-1.936c1.292,0.223,2.158,1.45,1.936,2.742l-4.519,26.21
					c-0.365,2.091-0.384,4.229-0.056,6.327c0.19,1.196-0.551,2.343-1.718,2.661C193.891,207.866,193.811,207.884,193.729,207.897z"
					/>
			</g>
		</g>
		<g>
			<path fill="#E3E4E2" d="M518.236,232.841c16.628-3.326,27.582-19.291,24.698-36.002l-6.688-38.804h-56.962l-6.69,38.804
				c-2.881,16.711,8.072,32.676,24.701,36.002c3.329,0.666,5.725,3.588,5.725,6.982v41.632l-19.633,1.785
				c-3.667,0.333-6.475,3.408-6.476,7.091v0.618h61.709v-0.618c0-3.683-2.811-6.758-6.478-7.091l-19.632-1.785v-41.632
				C512.513,236.429,514.908,233.507,518.236,232.841z"/>
			<path fill="#ED5565" d="M507.766,244.57c2.621,0,4.747-2.125,4.747-4.747c0-3.394,2.396-6.316,5.726-6.982
				c16.628-3.326,27.582-19.291,24.699-36.002l-0.553-3.202h-69.238l-0.553,3.202c-2.881,16.711,8.072,32.676,24.701,36.002
				c3.329,0.666,5.724,3.588,5.724,6.982C503.02,242.445,505.145,244.57,507.766,244.57z"/>
			<g>
				<path fill="#F3F1F2" d="M487.723,217.444c-1.023,0.812-2.515,0.638-3.326-0.388c-0.313-0.399-0.61-0.808-0.896-1.225
					l-0.057-0.083c-0.036-0.054-0.069-0.109-0.103-0.167c-0.563-1.034-0.184-2.329,0.852-2.893l0.395-0.217
					c0.976-0.536,2.199-0.245,2.828,0.674c0.223,0.326,0.456,0.645,0.699,0.957c0.754,0.956,0.667,2.327-0.204,3.178
					C487.851,217.339,487.788,217.393,487.723,217.444z"/>
				<path fill="#F3F1F2" d="M482.274,207.897c-1.289,0.216-2.51-0.653-2.727-1.942c-0.416-2.621-0.395-5.292,0.063-7.906l4.52-26.21
					c0.223-1.292,1.45-2.159,2.742-1.936c1.292,0.223,2.159,1.45,1.936,2.742l-4.519,26.21c-0.365,2.091-0.384,4.229-0.055,6.327
					c0.188,1.196-0.553,2.343-1.721,2.661C482.436,207.866,482.354,207.884,482.274,207.897z"/>
			</g>
		</g>
		<g>
			<path fill="#E3E4E2" d="M380.465,371.919c16.628-3.325,27.582-19.29,24.701-36.001l-6.69-38.804h-56.963l-6.688,38.804
				c-2.881,16.711,8.072,32.677,24.7,36.001c3.327,0.666,5.725,3.589,5.725,6.982v41.632l-19.632,1.785
				c-3.667,0.334-6.478,3.406-6.478,7.091v0.618h61.71v-0.618c0-3.685-2.809-6.758-6.476-7.091l-19.632-1.785v-41.632
				C374.741,375.508,377.137,372.585,380.465,371.919z"/>
			<path fill="#ED5565" d="M369.994,383.649c2.621,0,4.747-2.125,4.747-4.748c0-3.394,2.396-6.316,5.724-6.982
				c16.628-3.325,27.582-19.29,24.701-36.001l-0.552-3.202h-69.239l-0.552,3.202c-2.881,16.711,8.073,32.677,24.701,36.001
				c3.326,0.666,5.724,3.589,5.724,6.982C365.247,381.523,367.372,383.649,369.994,383.649z"/>
			<g>
				<path fill="#F3F1F2" d="M349.952,356.522c-1.025,0.812-2.518,0.638-3.326-0.388c-0.313-0.4-0.612-0.808-0.897-1.225
					l-0.058-0.083c-0.036-0.054-0.069-0.109-0.101-0.167c-0.564-1.034-0.186-2.329,0.85-2.893l0.395-0.217
					c0.978-0.536,2.198-0.245,2.827,0.673c0.226,0.326,0.458,0.645,0.699,0.957c0.754,0.956,0.667,2.327-0.204,3.179
					C350.079,356.417,350.017,356.471,349.952,356.522z"/>
				<path fill="#F3F1F2" d="M344.503,346.976c-1.289,0.216-2.509-0.653-2.726-1.942c-0.416-2.621-0.396-5.292,0.063-7.906
					l4.521-26.21c0.223-1.292,1.449-2.158,2.74-1.936c1.292,0.223,2.158,1.45,1.938,2.742l-4.521,26.21
					c-0.363,2.091-0.384,4.229-0.055,6.327c0.189,1.196-0.551,2.342-1.719,2.661C344.664,346.944,344.583,346.961,344.503,346.976z"
					/>
			</g>
		</g>
		<g>
			<path fill="#E3E4E2" d="M222.736,745.416v-41.632l19.632-1.785c3.667-0.333,6.476-3.408,6.476-7.091v-0.618h-61.71v0.618
				c0,3.683,2.808,6.758,6.476,7.091l19.631,1.785v41.632c0,3.394-2.395,6.316-5.723,6.981c-16.628,3.324-27.582,19.291-24.7,36.003
				l6.689,38.803h56.963l6.69-38.803c2.881-16.712-8.073-32.679-24.701-36.003C225.132,751.732,222.736,748.81,222.736,745.416z"/>
			<path fill="#ED5565" d="M213.242,745.416c0,3.394-2.395,6.316-5.723,6.981c-16.628,3.324-27.582,19.291-24.7,36.003l0.551,3.199
				h69.24l0.552-3.199c2.881-16.712-8.073-32.679-24.701-36.003c-3.328-0.665-5.724-3.59-5.724-6.981
				c0-2.622-2.125-4.747-4.747-4.747C215.367,740.669,213.242,742.794,213.242,745.416z"/>
			<g>
				<path fill="#F3F1F2" d="M198.133,767.958c0.87,0.852,0.958,2.223,0.203,3.179c-0.242,0.313-0.475,0.63-0.699,0.956
					c-0.629,0.918-1.852,1.21-2.827,0.674l-0.395-0.217c-1.034-0.563-1.414-1.856-0.85-2.893c0.031-0.059,0.064-0.112,0.101-0.167
					l0.056-0.082c0.286-0.418,0.585-0.826,0.897-1.228c0.811-1.023,2.301-1.197,3.326-0.388
					C198.012,767.846,198.074,767.9,198.133,767.958z"/>
				<path fill="#F3F1F2" d="M192.738,777.396c1.167,0.318,1.909,1.468,1.718,2.661c-0.329,2.1-0.309,4.235,0.056,6.326l4.519,26.211
					c0.223,1.292-0.644,2.521-1.935,2.742c-1.292,0.223-2.52-0.644-2.743-1.936l-4.519-26.21c-0.457-2.614-0.478-5.286-0.062-7.907
					c0.217-1.288,1.437-2.157,2.726-1.941C192.579,777.354,192.659,777.373,192.738,777.396z"/>
			</g>
		</g>
		<g>
			<path fill="#E3E4E2" d="M511.28,745.416v-41.632l19.633-1.785c3.667-0.333,6.476-3.408,6.476-7.091v-0.618H475.68v0.618
				c0,3.683,2.81,6.758,6.478,7.091l19.631,1.785v41.632c0,3.394-2.396,6.316-5.723,6.981c-16.63,3.324-27.582,19.291-24.701,36.003
				l6.688,38.803h56.963l6.689-38.803c2.881-16.712-8.073-32.679-24.7-36.003C513.676,751.732,511.28,748.81,511.28,745.416z"/>
			<path fill="#ED5565" d="M501.786,745.416c0,3.394-2.396,6.316-5.724,6.981c-16.63,3.324-27.581,19.291-24.7,36.003l0.551,3.199
				h69.239l0.553-3.199c2.881-16.712-8.073-32.679-24.7-36.003c-3.329-0.665-5.725-3.59-5.725-6.981
				c0-2.622-2.125-4.747-4.746-4.747C503.912,740.669,501.786,742.794,501.786,745.416z"/>
			<g>
				<path fill="#F3F1F2" d="M486.678,767.958c0.87,0.852,0.957,2.223,0.203,3.179c-0.242,0.313-0.476,0.63-0.699,0.956
					c-0.629,0.918-1.853,1.21-2.828,0.674l-0.395-0.217c-1.034-0.563-1.414-1.856-0.85-2.893c0.03-0.059,0.063-0.112,0.101-0.167
					l0.057-0.082c0.287-0.418,0.585-0.826,0.898-1.228c0.812-1.023,2.301-1.197,3.326-0.388
					C486.556,767.846,486.619,767.9,486.678,767.958z"/>
				<path fill="#F3F1F2" d="M481.283,777.396c1.167,0.318,1.909,1.468,1.718,2.661c-0.329,2.1-0.31,4.235,0.056,6.326l4.521,26.211
					c0.223,1.292-0.646,2.521-1.937,2.742c-1.292,0.223-2.52-0.644-2.74-1.936l-4.521-26.21c-0.456-2.614-0.477-5.286-0.062-7.907
					c0.217-1.288,1.437-2.157,2.725-1.941C481.123,777.354,481.204,777.373,481.283,777.396z"/>
			</g>
		</g>
	</g>
	<g>
		<path fill="#E3E4E2" d="M228.46,516.35c16.628-3.323,27.582-19.291,24.701-36.002l-6.689-38.804h-56.963l-6.689,38.804
			c-2.882,16.711,8.072,32.679,24.7,36.002c3.328,0.666,5.724,3.589,5.724,6.981v41.632l-19.632,1.785
			c-3.667,0.334-6.476,3.408-6.476,7.092v0.617h61.71v-0.617c0-3.684-2.809-6.758-6.476-7.092l-19.632-1.785v-41.632
			C222.736,519.938,225.132,517.016,228.46,516.35z"/>
		<path fill="#ED5565" d="M217.989,528.079c2.621,0,4.747-2.126,4.747-4.748c0-3.396,2.396-6.315,5.724-6.981
			c16.628-3.323,27.582-19.291,24.701-36.002l-0.552-3.202H183.37l-0.551,3.202c-2.882,16.711,8.072,32.679,24.7,36.002
			c3.328,0.666,5.724,3.589,5.724,6.981C213.242,525.953,215.367,528.079,217.989,528.079z"/>
		<g>
			<path fill="#F3F1F2" d="M197.947,500.953c-1.025,0.812-2.516,0.637-3.326-0.388c-0.313-0.4-0.612-0.81-0.898-1.227l-0.056-0.083
				c-0.037-0.054-0.07-0.107-0.101-0.167c-0.564-1.033-0.184-2.328,0.85-2.892l0.395-0.218c0.976-0.535,2.198-0.244,2.827,0.674
				c0.224,0.324,0.458,0.645,0.7,0.957c0.754,0.956,0.667,2.324-0.204,3.178C198.074,500.847,198.012,500.901,197.947,500.953z"/>
			<path fill="#F3F1F2" d="M192.498,491.405c-1.289,0.217-2.509-0.653-2.726-1.941c-0.416-2.621-0.395-5.292,0.063-7.906
				l4.519-26.21c0.224-1.292,1.451-2.157,2.742-1.936c1.292,0.223,2.158,1.451,1.936,2.742l-4.519,26.211
				c-0.365,2.091-0.384,4.229-0.055,6.327c0.189,1.193-0.551,2.343-1.719,2.66C192.659,491.374,192.579,491.392,192.498,491.405z"/>
		</g>
	</g>
	<g>
		<path fill="#E3E4E2" d="M517.005,516.35c16.628-3.323,27.582-19.291,24.7-36.002l-6.689-38.804h-56.963l-6.688,38.804
			c-2.881,16.711,8.07,32.679,24.7,36.002c3.327,0.666,5.725,3.589,5.725,6.981v41.632l-19.632,1.785
			c-3.667,0.334-6.478,3.408-6.478,7.092v0.617h61.709v-0.617c0-3.684-2.809-6.758-6.476-7.092l-19.632-1.785v-41.632
			C511.281,519.938,513.677,517.016,517.005,516.35z"/>
		<path fill="#ED5565" d="M506.534,528.079c2.621,0,4.747-2.126,4.747-4.748c0-3.396,2.396-6.315,5.724-6.981
			c16.628-3.323,27.582-19.291,24.7-36.002l-0.552-3.202h-69.239l-0.551,3.202c-2.881,16.711,8.07,32.679,24.701,36.002
			c3.326,0.666,5.724,3.589,5.724,6.981C501.787,525.953,503.912,528.079,506.534,528.079z"/>
		<g>
			<path fill="#F3F1F2" d="M486.492,500.953c-1.025,0.812-2.517,0.637-3.326-0.388c-0.313-0.4-0.612-0.81-0.898-1.227l-0.056-0.083
				c-0.037-0.054-0.07-0.107-0.101-0.167c-0.564-1.033-0.185-2.328,0.85-2.892l0.395-0.218c0.978-0.535,2.198-0.244,2.827,0.674
				c0.226,0.324,0.457,0.645,0.699,0.957c0.754,0.956,0.667,2.324-0.204,3.178C486.619,500.847,486.557,500.901,486.492,500.953z"/>
			<path fill="#F3F1F2" d="M481.042,491.405c-1.289,0.217-2.508-0.653-2.726-1.941c-0.416-2.621-0.396-5.292,0.063-7.906l4.52-26.21
				c0.224-1.292,1.449-2.157,2.741-1.936s2.158,1.451,1.938,2.742l-4.521,26.211c-0.364,2.091-0.384,4.229-0.055,6.327
				c0.189,1.193-0.551,2.343-1.719,2.66C481.204,491.374,481.123,491.392,481.042,491.405z"/>
		</g>
	</g>
	<g>
		<path fill="#E3E4E2" d="M374.741,624.981V583.35l19.632-1.782c3.667-0.333,6.476-3.408,6.476-7.093v-0.616h-61.71v0.616
			c0,3.685,2.811,6.76,6.478,7.093l19.632,1.782v41.634c0,3.396-2.396,6.315-5.724,6.98c-16.63,3.326-27.582,19.291-24.701,36.002
			l6.688,38.805h56.963l6.69-38.805c2.881-16.711-8.073-32.676-24.701-36.002C377.137,631.299,374.741,628.377,374.741,624.981z"/>
		<path fill="#ED5565" d="M365.247,624.981c0,3.396-2.396,6.315-5.724,6.98c-16.629,3.326-27.582,19.291-24.701,36.002l0.552,3.202
			h69.239l0.552-3.202c2.881-16.711-8.073-32.676-24.701-36.002c-3.328-0.665-5.724-3.587-5.724-6.98
			c0-2.621-2.126-4.746-4.747-4.746S365.247,622.36,365.247,624.981z"/>
		<g>
			<path fill="#F3F1F2" d="M350.138,647.524c0.871,0.852,0.958,2.223,0.204,3.179c-0.242,0.311-0.475,0.63-0.699,0.956
				c-0.629,0.918-1.852,1.21-2.825,0.673l-0.396-0.216c-1.033-0.564-1.414-1.859-0.85-2.895c0.029-0.057,0.063-0.111,0.101-0.167
				l0.057-0.082c0.286-0.418,0.587-0.824,0.898-1.226c0.813-1.025,2.301-1.199,3.326-0.388
				C350.017,647.412,350.079,647.467,350.138,647.524z"/>
			<path fill="#F3F1F2" d="M344.743,656.962c1.168,0.318,1.909,1.466,1.719,2.661c-0.329,2.098-0.31,4.235,0.055,6.326l4.521,26.211
				c0.223,1.292-0.646,2.52-1.938,2.742c-1.292,0.222-2.519-0.646-2.74-1.938l-4.521-26.211c-0.457-2.613-0.478-5.285-0.063-7.906
				c0.217-1.289,1.437-2.156,2.726-1.939C344.583,656.922,344.664,656.939,344.743,656.962z"/>
		</g>
	</g>
</g>
</svg>
