<?xml version="1.0" encoding="utf-8"?>
<!-- Generator: Adobe Illustrator 16.0.0, SVG Export Plug-In . SVG Version: 6.00 Build 0)  -->
<!DOCTYPE svg PUBLIC "-//W3C//DTD SVG 1.1//EN" "http://www.w3.org/Graphics/SVG/1.1/DTD/svg11.dtd">
<svg version="1.1" id="Layer_1" xmlns="http://www.w3.org/2000/svg" xmlns:xlink="http://www.w3.org/1999/xlink" x="0px" y="0px"
	 width="688.134px" height="963.389px" viewBox="18.432 16.731 688.134 963.389"
	 enable-background="new 18.432 16.731 688.134 963.389" xml:space="preserve">
<g id="_x39__1_">
	<path fill="#FFF2D2" d="M706.565,911.307c0,38.003-30.81,68.813-68.813,68.813H87.245c-38.007,0-68.813-30.813-68.813-68.813
		V85.545c0-38.004,30.807-68.814,68.813-68.814h550.508c38.005,0,68.813,30.81,68.813,68.814L706.565,911.307L706.565,911.307z"/>
	<path fill="#FFD47D" d="M74.757,463.068V139.265c4.583,1.481,9.473,2.275,14.548,2.275c26.251,0,47.536-21.284,47.536-47.542
		c0-7.513-1.746-14.621-4.85-20.935c0.101-0.006,0.208-0.006,0.311-0.006h460.394c31.781,0,57.545,27.205,57.545,60.768V463.07"/>
	<path fill="#FFD47D" d="M650.239,415.013v442.649c-4.584-1.481-9.475-2.275-14.548-2.275c-26.252,0-47.537,21.284-47.537,47.543
		c0,7.515,1.747,14.62,4.85,20.937c-0.101,0.006-0.208,0.006-0.31,0.006H132.303c-31.784,0-57.545-27.204-57.545-60.77L74.754,404.5
		"/>
	<path fill="none" stroke="#231F20" stroke-width="5" stroke-miterlimit="10" d="M650.242,853.083"/>
	<g>
		<rect x="60.849" y="64.394" fill="none" width="102.057" height="90.537"/>
		<text transform="matrix(1 0 0 1 60.8486 128.582)" fill="#ED5565" font-family="'Arvo'" font-size="84.4849">9</text>
	</g>
	<path fill="none" stroke="#231F20" stroke-width="5" stroke-miterlimit="10" d="M650.242,463.068"/>
	<path fill="none" stroke="#231F20" stroke-width="5" stroke-miterlimit="10" d="M391.273,463.068"/>
	<path fill="none" stroke="#231F20" stroke-width="5" stroke-miterlimit="10" d="M74.754,463.068"/>
	<path fill="none" stroke="#231F20" stroke-width="5" stroke-miterlimit="10" d="M391.273,463.068"/>
	<path fill="none" stroke="#231F20" stroke-width="5" stroke-miterlimit="10" d="M650.242,533.857"/>
	<path fill="none" stroke="#231F20" stroke-width="5" stroke-miterlimit="10" d="M333.724,533.857"/>
	<g>
		<rect x="561.646" y="842.813" fill="none" width="102.058" height="90.534"/>
		<text transform="matrix(-1 0 0 -1 663.7051 869.1602)" fill="#ED5565" font-family="'Arvo'" font-size="84.4849">9</text>
	</g>
	<g>
		<g>
			<path fill="#E3E4E2" d="M221.801,220.069c17.566-3.513,29.138-20.378,26.094-38.032l-7.067-40.992h-60.176l-7.067,40.992
				c-3.043,17.654,8.527,34.519,26.094,38.032c3.516,0.703,6.046,3.791,6.046,7.376v43.979l-20.739,1.886
				c-3.875,0.352-6.841,3.601-6.841,7.491v0.653h65.189v-0.653c0-3.89-2.967-7.139-6.84-7.491l-20.74-1.886v-43.979
				C215.755,223.86,218.286,220.772,221.801,220.069z"/>
			<path fill="#ED5565" d="M210.74,232.46c2.77,0,5.015-2.245,5.015-5.015c0-3.585,2.531-6.673,6.046-7.376
				c17.566-3.513,29.138-20.378,26.094-38.032l-0.583-3.382h-73.144l-0.583,3.382c-3.043,17.654,8.527,34.519,26.094,38.032
				c3.516,0.703,6.046,3.791,6.046,7.376C205.726,230.215,207.971,232.46,210.74,232.46z"/>
			<g>
				<path fill="#F3F1F2" d="M189.568,203.804c-1.083,0.857-2.657,0.674-3.514-0.41c-0.33-0.422-0.646-0.854-0.948-1.294l-0.06-0.088
					c-0.038-0.057-0.073-0.116-0.106-0.176c-0.596-1.092-0.194-2.459,0.897-3.055l0.417-0.229c1.03-0.566,2.322-0.258,2.987,0.711
					c0.236,0.345,0.483,0.681,0.739,1.011c0.796,1.009,0.705,2.458-0.215,3.357C189.702,203.693,189.636,203.75,189.568,203.804z"/>
				<path fill="#F3F1F2" d="M183.812,193.718c-1.361,0.229-2.65-0.689-2.879-2.051c-0.439-2.768-0.417-5.591,0.065-8.352
					l4.774-27.688c0.235-1.365,1.533-2.28,2.897-2.045c1.365,0.235,2.28,1.532,2.044,2.897l-4.773,27.688
					c-0.386,2.209-0.406,4.467-0.059,6.683c0.201,1.264-0.582,2.475-1.815,2.812C183.982,193.686,183.896,193.704,183.812,193.718z"
					/>
			</g>
		</g>
		<g>
			<path fill="#E3E4E2" d="M526.618,220.069c17.563-3.513,29.138-20.378,26.094-38.032l-7.067-40.992H485.47l-7.065,40.992
				c-3.044,17.654,8.525,34.519,26.094,38.032c3.516,0.703,6.047,3.791,6.047,7.376v43.979l-20.739,1.886
				c-3.875,0.352-6.841,3.601-6.841,7.491v0.653h65.19v-0.653c0-3.89-2.969-7.139-6.844-7.491l-20.736-1.886v-43.979
				C520.572,223.86,523.104,220.772,526.618,220.069z"/>
			<path fill="#ED5565" d="M515.557,232.46c2.771,0,5.018-2.245,5.018-5.015c0-3.585,2.53-6.673,6.046-7.376
				c17.563-3.513,29.138-20.378,26.094-38.032l-0.583-3.382h-73.144l-0.583,3.382c-3.044,17.654,8.525,34.519,26.094,38.032
				c3.516,0.703,6.047,3.791,6.047,7.376C510.543,230.215,512.787,232.46,515.557,232.46z"/>
			<g>
				<path fill="#F3F1F2" d="M494.385,203.804c-1.083,0.857-2.656,0.674-3.514-0.41c-0.331-0.422-0.646-0.854-0.949-1.294
					l-0.06-0.088c-0.039-0.057-0.074-0.116-0.106-0.176c-0.596-1.092-0.193-2.459,0.897-3.055l0.417-0.229
					c1.028-0.566,2.32-0.258,2.985,0.711c0.236,0.345,0.483,0.681,0.738,1.011c0.797,1.009,0.705,2.458-0.215,3.357
					C494.52,203.693,494.454,203.75,494.385,203.804z"/>
				<path fill="#F3F1F2" d="M488.628,193.719c-1.361,0.229-2.649-0.69-2.879-2.051c-0.439-2.769-0.417-5.591,0.065-8.352
					l4.772-27.688c0.235-1.365,1.532-2.28,2.897-2.045c1.362,0.235,2.278,1.532,2.044,2.897l-4.773,27.688
					c-0.386,2.209-0.406,4.467-0.059,6.684c0.2,1.263-0.582,2.475-1.815,2.812C488.799,193.686,488.713,193.704,488.628,193.719z"/>
			</g>
		</g>
		<g>
			<path fill="#E3E4E2" d="M221.801,402.622c17.566-3.513,29.138-20.378,26.094-38.032l-7.067-40.992h-60.176l-7.067,40.992
				c-3.043,17.654,8.527,34.519,26.094,38.032c3.516,0.704,6.046,3.791,6.046,7.376v43.979l-20.739,1.888
				c-3.875,0.352-6.841,3.601-6.841,7.491v0.65h65.189v-0.65c0-3.893-2.967-7.141-6.84-7.491l-20.74-1.888v-43.979
				C215.755,406.413,218.286,403.326,221.801,402.622z"/>
			<path fill="#ED5565" d="M210.74,415.013c2.77,0,5.015-2.245,5.015-5.015c0-3.585,2.531-6.672,6.046-7.376
				c17.566-3.513,29.138-20.378,26.094-38.032l-0.583-3.382h-73.144l-0.583,3.382c-3.043,17.654,8.527,34.519,26.094,38.032
				c3.516,0.704,6.046,3.791,6.046,7.376C205.726,412.768,207.971,415.013,210.74,415.013z"/>
			<g>
				<path fill="#F3F1F2" d="M189.568,386.357c-1.083,0.858-2.657,0.674-3.514-0.41c-0.33-0.422-0.646-0.854-0.948-1.294l-0.06-0.088
					c-0.038-0.057-0.073-0.115-0.106-0.176c-0.596-1.092-0.194-2.46,0.897-3.055l0.417-0.229c1.03-0.566,2.322-0.259,2.987,0.711
					c0.236,0.345,0.483,0.681,0.739,1.011c0.796,1.01,0.705,2.458-0.215,3.358C189.702,386.246,189.636,386.303,189.568,386.357z"/>
				<path fill="#F3F1F2" d="M183.812,376.271c-1.361,0.229-2.65-0.689-2.879-2.05c-0.439-2.769-0.417-5.591,0.065-8.352
					l4.774-27.689c0.235-1.364,1.533-2.28,2.897-2.045c1.365,0.235,2.28,1.532,2.044,2.897l-4.773,27.689
					c-0.386,2.209-0.406,4.467-0.059,6.683c0.201,1.263-0.582,2.475-1.815,2.812C183.982,376.238,183.896,376.257,183.812,376.271z"
					/>
			</g>
		</g>
		<g>
			<path fill="#E3E4E2" d="M526.618,402.622c17.563-3.513,29.138-20.378,26.094-38.032l-7.067-40.992H485.47l-7.065,40.992
				c-3.044,17.654,8.525,34.519,26.094,38.032c3.516,0.704,6.047,3.791,6.047,7.376v43.979l-20.739,1.888
				c-3.875,0.352-6.841,3.601-6.841,7.491v0.65h65.19v-0.65c0-3.893-2.969-7.141-6.844-7.491l-20.736-1.888v-43.979
				C520.572,406.413,523.104,403.326,526.618,402.622z"/>
			<path fill="#ED5565" d="M515.557,415.013c2.771,0,5.018-2.245,5.018-5.015c0-3.585,2.53-6.672,6.046-7.376
				c17.563-3.513,29.138-20.378,26.094-38.032l-0.583-3.382h-73.144l-0.583,3.382c-3.044,17.654,8.525,34.519,26.094,38.032
				c3.516,0.704,6.047,3.791,6.047,7.376C510.543,412.768,512.787,415.013,515.557,415.013z"/>
			<g>
				<path fill="#F3F1F2" d="M494.385,386.357c-1.083,0.858-2.656,0.674-3.514-0.41c-0.331-0.422-0.646-0.854-0.949-1.294
					l-0.06-0.088c-0.039-0.057-0.074-0.115-0.106-0.176c-0.596-1.092-0.193-2.46,0.897-3.055l0.417-0.229
					c1.028-0.566,2.32-0.259,2.985,0.711c0.236,0.345,0.483,0.681,0.738,1.011c0.797,1.01,0.705,2.458-0.215,3.358
					C494.52,386.246,494.454,386.303,494.385,386.357z"/>
				<path fill="#F3F1F2" d="M488.628,376.271c-1.361,0.229-2.649-0.689-2.879-2.05c-0.439-2.769-0.417-5.591,0.065-8.352
					l4.772-27.689c0.235-1.364,1.532-2.28,2.897-2.045c1.362,0.235,2.278,1.532,2.044,2.897l-4.773,27.689
					c-0.386,2.209-0.406,4.467-0.059,6.683c0.2,1.263-0.582,2.475-1.815,2.812C488.799,376.238,488.713,376.257,488.628,376.271z"/>
			</g>
		</g>
		<g>
			<path fill="#E3E4E2" d="M373.56,519.565c17.564-3.515,29.139-20.38,26.095-38.032l-7.068-40.992H332.41l-7.066,40.992
				c-3.044,17.651,8.526,34.519,26.094,38.032c3.517,0.701,6.047,3.789,6.047,7.376v43.979l-20.738,1.886
				c-3.875,0.354-6.841,3.603-6.841,7.49v0.653h65.188v-0.653c0-3.89-2.965-7.139-6.84-7.49l-20.74-1.886v-43.979
				C367.513,523.354,370.043,520.269,373.56,519.565z"/>
			<path fill="#ED5565" d="M362.498,531.956c2.77,0,5.015-2.245,5.015-5.015c0-3.587,2.53-6.675,6.047-7.376
				c17.564-3.515,29.139-20.38,26.095-38.032l-0.584-3.382h-73.146l-0.582,3.382c-3.044,17.651,8.526,34.519,26.093,38.032
				c3.518,0.701,6.048,3.789,6.048,7.376C357.483,529.711,359.729,531.956,362.498,531.956z"/>
			<g>
				<path fill="#F3F1F2" d="M341.325,503.301c-1.083,0.856-2.657,0.674-3.516-0.41c-0.329-0.422-0.646-0.854-0.946-1.294
					l-0.061-0.088c-0.039-0.057-0.072-0.116-0.105-0.177c-0.598-1.091-0.195-2.459,0.896-3.055l0.417-0.229
					c1.03-0.564,2.322-0.259,2.987,0.711c0.236,0.345,0.483,0.683,0.738,1.011c0.796,1.012,0.704,2.457-0.216,3.357
					C341.459,503.188,341.395,503.246,341.325,503.301z"/>
				<path fill="#F3F1F2" d="M335.569,493.214c-1.361,0.229-2.65-0.688-2.879-2.05c-0.439-2.771-0.417-5.591,0.063-8.354
					l4.774-27.688c0.233-1.365,1.532-2.28,2.896-2.044c1.364,0.235,2.279,1.532,2.043,2.896l-4.771,27.688
					c-0.388,2.209-0.406,4.468-0.062,6.683c0.202,1.266-0.582,2.477-1.813,2.813C335.739,493.182,335.654,493.2,335.569,493.214z"/>
			</g>
		</g>
		<g>
			<path fill="#E3E4E2" d="M214.454,761.55V717.57l20.739-1.887c3.875-0.353,6.841-3.601,6.841-7.488v-0.654h-65.189v0.654
				c0,3.89,2.967,7.138,6.841,7.488l20.739,1.887v43.979c0,3.586-2.53,6.673-6.046,7.375c-17.566,3.515-29.138,20.379-26.094,38.033
				l7.067,40.991h60.175l7.067-40.991c3.044-17.654-8.528-34.521-26.094-38.033C216.984,768.223,214.454,765.136,214.454,761.55z"/>
			<path fill="#ED5565" d="M204.424,761.55c0,3.586-2.53,6.673-6.046,7.375c-17.566,3.514-29.138,20.379-26.094,38.033l0.583,3.382
				h73.144l0.583-3.382c3.044-17.654-8.528-34.52-26.094-38.033c-3.516-0.702-6.046-3.789-6.046-7.375
				c0-2.771-2.245-5.015-5.014-5.015C206.669,756.535,204.424,758.779,204.424,761.55z"/>
			<g>
				<path fill="#F3F1F2" d="M188.463,785.363c0.919,0.897,1.012,2.348,0.215,3.355c-0.256,0.329-0.502,0.666-0.738,1.011
					c-0.665,0.972-1.957,1.277-2.987,0.713l-0.417-0.229c-1.092-0.597-1.494-1.964-0.898-3.056c0.033-0.063,0.069-0.119,0.106-0.178
					l0.06-0.088c0.302-0.439,0.618-0.871,0.948-1.294c0.857-1.084,2.431-1.267,3.514-0.409
					C188.335,785.244,188.401,785.302,188.463,785.363z"/>
				<path fill="#F3F1F2" d="M182.764,795.333c1.233,0.336,2.016,1.548,1.815,2.811c-0.347,2.219-0.327,4.477,0.059,6.686
					l4.773,27.688c0.235,1.365-0.68,2.662-2.044,2.897c-1.364,0.233-2.661-0.683-2.897-2.045l-4.774-27.688
					c-0.482-2.762-0.505-5.584-0.065-8.353c0.229-1.361,1.518-2.28,2.879-2.051C182.595,795.29,182.681,795.309,182.764,795.333z"/>
			</g>
		</g>
		<g>
			<path fill="#E3E4E2" d="M519.271,761.55V717.57l20.737-1.887c3.874-0.353,6.841-3.601,6.841-7.488v-0.654h-65.188v0.654
				c0,3.89,2.967,7.138,6.841,7.488l20.739,1.887v43.979c0,3.586-2.53,6.673-6.047,7.375c-17.565,3.515-29.139,20.379-26.095,38.033
				l7.067,40.991h60.176l7.067-40.991c3.043-17.654-8.528-34.521-26.095-38.033C521.801,768.223,519.271,765.136,519.271,761.55z"/>
			<path fill="#ED5565" d="M509.241,761.55c0,3.586-2.53,6.673-6.047,7.375c-17.565,3.514-29.139,20.379-26.095,38.033l0.583,3.382
				h73.145l0.584-3.382c3.043-17.654-8.528-34.52-26.095-38.033c-3.518-0.702-6.047-3.789-6.047-7.375
				c0-2.771-2.245-5.015-5.016-5.015C511.486,756.535,509.241,758.779,509.241,761.55z"/>
			<g>
				<path fill="#F3F1F2" d="M493.28,785.363c0.919,0.897,1.012,2.348,0.215,3.355c-0.255,0.329-0.502,0.666-0.738,1.011
					c-0.665,0.972-1.956,1.277-2.987,0.713l-0.416-0.229c-1.092-0.597-1.493-1.964-0.896-3.056c0.033-0.063,0.068-0.119,0.105-0.178
					l0.061-0.088c0.302-0.439,0.619-0.871,0.949-1.294c0.854-1.084,2.43-1.267,3.514-0.409
					C493.152,785.244,493.218,785.302,493.28,785.363z"/>
				<path fill="#F3F1F2" d="M487.58,795.333c1.234,0.336,2.017,1.548,1.816,2.811c-0.35,2.219-0.328,4.477,0.059,6.686l4.773,27.688
					c0.234,1.365-0.682,2.662-2.046,2.897c-1.362,0.233-2.659-0.683-2.896-2.045l-4.774-27.688
					c-0.481-2.762-0.505-5.584-0.064-8.353c0.229-1.361,1.518-2.28,2.879-2.051C487.412,795.29,487.497,795.309,487.58,795.333z"/>
			</g>
		</g>
		<g>
			<path fill="#E3E4E2" d="M214.454,578.996v-43.979l20.739-1.885c3.875-0.353,6.841-3.601,6.841-7.491v-0.651h-65.189v0.651
				c0,3.893,2.967,7.141,6.841,7.491l20.739,1.885v43.979c0,3.586-2.53,6.673-6.046,7.376
				c-17.566,3.514-29.138,20.379-26.094,38.032l7.067,40.989h60.175l7.067-40.989c3.044-17.653-8.528-34.521-26.094-38.032
				C216.984,585.669,214.454,582.582,214.454,578.996z"/>
			<path fill="#ED5565" d="M204.424,578.996c0,3.586-2.53,6.673-6.046,7.376c-17.566,3.514-29.138,20.379-26.094,38.032l0.583,3.383
				h73.144l0.583-3.383c3.044-17.653-8.528-34.521-26.094-38.032c-3.516-0.703-6.046-3.79-6.046-7.376
				c0-2.771-2.245-5.015-5.014-5.015C206.669,573.981,204.424,576.227,204.424,578.996z"/>
			<g>
				<path fill="#F3F1F2" d="M188.463,602.811c0.919,0.899,1.012,2.349,0.215,3.356c-0.256,0.33-0.502,0.667-0.738,1.011
					c-0.665,0.97-1.957,1.277-2.987,0.712l-0.417-0.229c-1.092-0.596-1.494-1.964-0.898-3.055c0.033-0.063,0.069-0.119,0.106-0.179
					l0.06-0.087c0.302-0.439,0.618-0.872,0.948-1.294c0.857-1.084,2.431-1.268,3.514-0.41
					C188.335,602.691,188.401,602.749,188.463,602.811z"/>
				<path fill="#F3F1F2" d="M182.764,612.779c1.233,0.337,2.016,1.549,1.815,2.812c-0.347,2.217-0.327,4.476,0.059,6.686
					l4.773,27.688c0.235,1.365-0.68,2.661-2.044,2.896c-1.364,0.233-2.661-0.682-2.897-2.044l-4.774-27.689
					c-0.482-2.761-0.505-5.583-0.065-8.352c0.229-1.362,1.518-2.28,2.879-2.053C182.595,612.737,182.681,612.756,182.764,612.779z"
					/>
			</g>
		</g>
		<g>
			<path fill="#E3E4E2" d="M519.271,578.996v-43.979l20.737-1.885c3.874-0.353,6.841-3.601,6.841-7.491v-0.651h-65.188v0.651
				c0,3.893,2.967,7.141,6.841,7.491l20.739,1.885v43.979c0,3.586-2.53,6.673-6.047,7.376
				c-17.565,3.514-29.139,20.379-26.095,38.032l7.067,40.989h60.176l7.067-40.989c3.043-17.653-8.528-34.521-26.095-38.032
				C521.801,585.669,519.271,582.582,519.271,578.996z"/>
			<path fill="#ED5565" d="M509.241,578.996c0,3.586-2.53,6.673-6.047,7.376c-17.565,3.514-29.139,20.379-26.095,38.032l0.583,3.383
				h73.145l0.584-3.383c3.043-17.653-8.528-34.521-26.095-38.032c-3.518-0.703-6.047-3.79-6.047-7.376
				c0-2.771-2.245-5.015-5.016-5.015C511.486,573.981,509.241,576.227,509.241,578.996z"/>
			<g>
				<path fill="#F3F1F2" d="M493.28,602.811c0.919,0.899,1.012,2.349,0.215,3.356c-0.255,0.33-0.502,0.667-0.738,1.011
					c-0.665,0.97-1.956,1.277-2.987,0.712l-0.416-0.229c-1.092-0.599-1.493-1.965-0.896-3.058c0.033-0.061,0.068-0.117,0.105-0.177
					l0.061-0.087c0.302-0.439,0.619-0.872,0.949-1.294c0.854-1.084,2.43-1.268,3.514-0.41
					C493.152,602.691,493.218,602.749,493.28,602.811z"/>
				<path fill="#F3F1F2" d="M487.58,612.779c1.234,0.337,2.017,1.549,1.816,2.812c-0.35,2.217-0.328,4.476,0.059,6.686l4.773,27.688
					c0.234,1.365-0.682,2.661-2.046,2.896c-1.362,0.233-2.659-0.682-2.896-2.044l-4.774-27.688
					c-0.481-2.762-0.505-5.584-0.064-8.353c0.229-1.362,1.518-2.28,2.879-2.053C487.412,612.737,487.497,612.756,487.58,612.779z"/>
			</g>
		</g>
	</g>
</g>
</svg>
