<?xml version="1.0" encoding="utf-8"?>
<!-- Generator: Adobe Illustrator 16.0.0, SVG Export Plug-In . SVG Version: 6.00 Build 0)  -->
<!DOCTYPE svg PUBLIC "-//W3C//DTD SVG 1.1//EN" "http://www.w3.org/Graphics/SVG/1.1/DTD/svg11.dtd">
<svg version="1.1" id="Layer_1" xmlns="http://www.w3.org/2000/svg" xmlns:xlink="http://www.w3.org/1999/xlink" x="0px" y="0px"
	 width="683.539px" height="956.958px" viewBox="91.045 21.522 683.539 956.958"
	 enable-background="new 91.045 21.522 683.539 956.958" xml:space="preserve">
<path fill="#FFF2D2" d="M774.584,910.125c0,37.748-30.602,68.354-68.354,68.354H159.399c-37.753,0-68.354-30.605-68.354-68.354
	V89.876c0-37.75,30.601-68.354,68.354-68.354H706.23c37.752,0,68.354,30.604,68.354,68.354V910.125L774.584,910.125z"/>
<path fill="#FFD47D" d="M146.995,464.88V143.237c4.554,1.47,9.41,2.26,14.451,2.26c26.077,0,47.219-21.141,47.219-47.225
	c0-7.463-1.735-14.522-4.817-20.796c0.101-0.004,0.207-0.004,0.308-0.004h457.314c31.572,0,57.162,27.023,57.162,60.361V464.88"/>
<path fill="#FFD47D" d="M718.634,322.5l0.001,534.336c-4.555-1.471-9.412-2.26-14.451-2.26c-26.076,0-47.22,21.145-47.22,47.225
	c0,7.465,1.734,14.525,4.815,20.797c-0.103,0.004-0.205,0.004-0.309,0.004H204.156c-31.571,0-57.161-27.021-57.161-60.359V365.5"/>
<path fill="none" stroke="#231F20" stroke-width="5" stroke-miterlimit="10" d="M718.637,852.291"/>
<g>
	<rect x="127.601" y="60.636" fill="none" width="75.104" height="75.274"/>
	<text transform="matrix(1 0 0 1 127.6006 124.3955)" fill="#ED5565" font-family="'Arvo'" font-size="83.9208">A</text>
</g>
<path fill="none" stroke="#231F20" stroke-width="5" stroke-miterlimit="10" d="M461.398,464.88"/>
<path fill="none" stroke="#231F20" stroke-width="5" stroke-miterlimit="10" d="M146.992,464.88"/>
<path fill="none" stroke="#231F20" stroke-width="5" stroke-miterlimit="10" d="M461.398,464.88"/>
<g>
	<rect x="669.773" y="864.164" fill="none" width="71.281" height="75.272"/>
	<text transform="matrix(-1 0 0 -1 741.0596 875.6758)" fill="#ED5565" font-family="'Arvo'" font-size="83.9208">A</text>
</g>
<path fill="none" stroke="#231F20" stroke-width="5" stroke-miterlimit="10" d="M718.637,535.193"/>
<path fill="none" stroke="#231F20" stroke-width="5" stroke-miterlimit="10" d="M404.232,535.193"/>
<g>
	<path fill="#ED5565" d="M606.383,542.281H480.151v-31.559h126.229L606.383,542.281L606.383,542.281z"/>
	<path fill="#ED5565" d="M606.383,721.109H480.151v-31.559h126.229L606.383,721.109L606.383,721.109z"/>
	<path fill="#FFFFFF" d="M606.383,689.553H480.151V542.281h126.229L606.383,689.553L606.383,689.553z"/>
	<path fill="#ED5565" d="M574.823,226.703h-63.112v-63.116h63.112V226.703z"/>
	<path fill="#DA4453" d="M574.823,310.856h-63.112v-84.153h63.112V310.856z"/>
	<path fill="#E6E9ED" d="M448.593,458.128v336.614c0,11.574,9.364,21.041,21.038,21.041h147.167
		c11.676,0,21.146-9.467,21.146-21.041V458.128c0-41.235-26.402-76.265-63.118-89.312v-57.959h-63.112v57.959h-0.104
		C474.891,381.863,448.593,416.892,448.593,458.128z M480.151,510.725h126.229V721.11H480.151V542.281V510.725z"/>
	<path fill="#E6E9ED" d="M448.593,458.128v336.614c0,11.574,9.364,21.041,21.038,21.041h31.589c-11.676,0-21.04-9.467-21.04-21.041
		v-73.633h-0.031V510.725h0.031v-42.065c0-41.234,26.298-76.264,63.015-89.304h0.104v-68.496h-31.589v57.959h-0.104
		C474.891,381.863,448.593,416.892,448.593,458.128z"/>
	<path fill="#D3374E" d="M543.297,310.856H511.71v-84.153h31.587V310.856z"/>
	<path fill="#DA4453" d="M543.297,226.703H511.71v-63.116h31.587V226.703z"/>
	<path fill="#ED5565" d="M501.159,615.938c0-5.816,4.698-10.521,10.519-10.521h63.146c5.82,0,10.521,4.703,10.521,10.521
		c0,5.815-4.698,10.518-10.521,10.518h-63.146C505.857,626.455,501.159,621.756,501.159,615.938z"/>
	<path fill="#ED5565" d="M522.238,647.496c0-5.816,4.705-10.521,10.519-10.521h20.987c5.813,0,10.52,4.703,10.52,10.521
		c0,5.817-4.705,10.518-10.52,10.518h-20.987C526.943,658.014,522.238,653.314,522.238,647.496z"/>
	<path fill="#FFCE54" d="M564.013,584.357c0-5.818,4.71-10.52,10.521-10.52h0.11c5.811,0,10.457,4.699,10.457,10.52
		c0,5.819-4.756,10.52-10.569,10.52C568.722,594.879,564.013,590.178,564.013,584.357z"/>
	<path fill="#FFCE54" d="M532.454,584.357c0-5.818,4.71-10.52,10.519-10.52h0.113c5.808,0,10.459,4.699,10.459,10.52
		c0,5.819-4.759,10.52-10.572,10.52C537.164,594.879,532.454,590.178,532.454,584.357z"/>
	<path fill="#FFCE54" d="M500.841,584.357c0-5.818,4.714-10.52,10.521-10.52h0.117c5.805,0,10.456,4.699,10.456,10.52
		c0,5.819-4.757,10.52-10.573,10.52C505.555,594.879,500.841,590.178,500.841,584.357z"/>
</g>
<g id="glass_3_">
	<g>
		<path fill="#80C612" d="M260.675,670.883L260.675,670.883l-11.338-4.537l4.535,11.341l0,0c0.324,0.646,0.648,1.298,1.295,1.942
			c1.943,1.943,5.183,1.943,7.45,0c2.268-1.942,1.944-5.182,0-7.451C261.97,671.531,261.323,670.883,260.675,670.883z"/>
	</g>
	<polyline fill="#FFFCEE" points="357.523,662.135 240.916,662.135 259.055,796.881 259.055,817.613 340.032,817.613 
		340.032,796.881 357.523,662.135 	"/>
	<line fill="none" x1="357.523" y1="662.135" x2="297.925" y2="662.135"/>
	<polyline fill="#FFFCEE" points="301.163,817.613 340.032,817.613 340.032,796.881 357.523,662.135 	"/>
	<path fill="#E8E3CF" d="M255.167,679.627c-0.644-0.646-0.971-1.295-1.293-1.945l-1.703-4.25l-0.857-6.295l9.362,3.744
		c0.645,0,1.294,0.648,1.941,1.295c1.943,2.271,2.269,5.508,0,7.449C260.349,681.572,257.113,681.572,255.167,679.627z"/>
	<path fill="#E8E3CF" d="M347.805,662.137l-11.662,83.244c0,20.406-16.518,36.604-36.924,36.604
		c-20.406,0-37.25-16.197-37.25-36.604l-6.433-47.229c15.027-5.02,25.777-19.277,26.178-36.018L347.805,662.137L347.805,662.137z"/>
	<path fill="#E8E3CF" d="M281.714,662.137c-0.401,16.738-11.15,30.998-26.178,36.018l-3.366-24.723l1.703,4.253
		c0.322,0.647,0.649,1.298,1.293,1.942c1.946,1.945,5.182,1.945,7.45,0c2.269-1.942,1.943-5.182,0-7.451
		c-0.647-0.645-1.296-1.295-1.941-1.295l-9.362-3.744l-0.68-5H281.714L281.714,662.137z"/>
	<path fill="#FFFCEE" d="M252.17,673.432l3.366,24.725c-3.189,1.063-6.57,1.713-10.085,1.877l-4.533-38.222h40.801
		c0,0.104,0,0.22-0.004,0.325h-31.082l0.681,5.002"/>
	<path fill="#BDE5C8" d="M281.727,661.164v0.645h-0.008C281.727,661.594,281.727,661.379,281.727,661.164z"/>
	<path fill="#E8E3CF" d="M299.543,781.984c20.407,0,36.602-15.875,36.602-36.281l11.66-83.568h-49.881"/>
	<path fill="#ED5565" d="M321.244,700.684c-5.83,4.531-13.604,7.123-22.024,7.123s-16.196-2.592-22.026-7.123
		c-5.506,4.207-12.309,6.479-20.083,7.123l5.183,37.25c0,20.404,16.519,36.93,36.926,36.93c20.407,0,36.925-16.523,36.925-36.93
		l5.184-37.57C333.554,707.16,326.752,704.568,321.244,700.684z"/>
	<path fill="#ED5565" d="M299.22,781.984c20.406,0,36.925-16.523,36.925-36.93l5.184-37.57c-7.773-0.324-14.575-2.916-20.083-7.13
		c-5.829,4.534-13.604,7.13-22.024,7.13"/>
	<path fill="#FFFCEE" d="M273.308,751.857c0.324,1.619-0.647,2.916-1.944,2.916l0,0c-1.295,0.32-2.591-0.973-2.915-2.271
		l-5.183-38.543c0-1.621,0.972-3.242,2.268-3.242l0,0c1.296-0.322,2.591,0.975,2.915,2.271L273.308,751.857z"/>
	<path fill="#FFFCEE" d="M266.829,700.033c0,0.648-0.972,1.295-2.267,1.621l0,0c-1.296,0.322-2.592-0.326-2.592-0.973l-2.591-19.109
		c0-0.646,0.971-1.295,2.267-1.619l0,0c1.296-0.326,2.592,0.324,2.592,0.973L266.829,700.033z"/>
	<path fill="#FFFCEE" d="M340.032,666.994c0,1.297-1.619,1.621-2.916,1.621h-75.47c-1.296,0-2.915-0.646-2.915-1.621l0,0
		c0-0.971,0.972-1.619,2.591-1.619h75.794C338.413,665.375,340.032,665.701,340.032,666.994L340.032,666.994z"/>
</g>
</svg>
