<?xml version="1.0" encoding="utf-8"?>
<!-- Generator: Adobe Illustrator 16.0.0, SVG Export Plug-In . SVG Version: 6.00 Build 0)  -->
<!DOCTYPE svg PUBLIC "-//W3C//DTD SVG 1.1//EN" "http://www.w3.org/Graphics/SVG/1.1/DTD/svg11.dtd">
<svg version="1.1" id="Layer_1" xmlns="http://www.w3.org/2000/svg" xmlns:xlink="http://www.w3.org/1999/xlink" x="0px" y="0px"
	 width="655.971px" height="918.359px" viewBox="0 0 655.971 918.359" enable-background="new 0 0 655.971 918.359"
	 xml:space="preserve">
<g id="k_1_">
	<path fill="#FFF2D2" d="M655.969,852.762c0,36.23-29.366,65.598-65.601,65.598H65.595c-36.23,0-65.597-29.367-65.597-65.598V65.597
		C-0.001,29.369,29.365,0,65.595,0h524.777c36.23,0,65.601,29.37,65.601,65.598L655.969,852.762L655.969,852.762z"/>
	<path fill="#FFD47D" d="M53.691,425.475V116.806c4.37,1.411,9.03,2.168,13.868,2.168c25.025,0,45.314-20.289,45.314-45.32
		c0-7.163-1.665-13.938-4.623-19.957c0.097-0.005,0.199-0.005,0.295-0.005h438.873c30.303,0,54.855,25.933,54.855,57.927v313.855"/>
	<path fill="#FFD47D" d="M602.273,297.59l0.002,504.035c-4.37-1.412-9.03-2.17-13.868-2.17c-25.021,0-45.313,20.291-45.313,45.318
		c0,7.162,1.665,13.938,4.622,19.957c-0.101,0.008-0.198,0.008-0.295,0.008H108.547c-30.298,0-54.855-25.936-54.855-57.932
		L53.689,302.59"/>
	<path fill="none" stroke="#231F20" stroke-width="5" stroke-miterlimit="10" d="M602.278,797.26"/>
	<g>
		<rect x="30.357" y="37.538" fill="none" width="64.855" height="72.237"/>
		<text transform="matrix(1 0 0 1 30.3574 98.7261)" fill="#ED5565" font-family="'Arvo'" font-size="80.536">K</text>
	</g>
	<path fill="none" stroke="#231F20" stroke-width="5" stroke-miterlimit="10" d="M602.278,425.475"/>
	<path fill="none" stroke="#231F20" stroke-width="5" stroke-miterlimit="10" d="M355.413,425.475"/>
	<path fill="none" stroke="#231F20" stroke-width="5" stroke-miterlimit="10" d="M53.689,425.475"/>
	<path fill="none" stroke="#231F20" stroke-width="5" stroke-miterlimit="10" d="M355.413,425.475"/>
	<rect x="555.459" y="802.295" fill="none" width="65.433" height="78.598"/>
	<text transform="matrix(-1 0 0 -1 620.8877 819.7031)" fill="#ED5565" font-family="'Arvo'" font-size="80.536">K</text>
	<path fill="none" stroke="#231F20" stroke-width="5" stroke-miterlimit="10" d="M602.278,492.955"/>
	<path fill="none" stroke="#231F20" stroke-width="5" stroke-miterlimit="10" d="M300.554,492.955"/>
	<g>
		<path fill="#E59751" d="M533.515,362.927v342.92c-0.004,15.779-12.796,28.574-28.577,28.578H314.426
			c-15.781-0.004-28.573-12.799-28.577-28.578v-342.92l34.887-3.882c25.682-2.797,44.44-25.578,42.258-51.32
			c-0.583-6.548-0.938-13.597-0.938-21.003c0-38.103,9.521-66.679,9.521-66.679v-19.051h76.205v19.051
			c0,0,9.525,28.577,9.525,66.679c0,7.406-0.357,14.455-0.94,21.003c-2.183,25.743,16.575,48.523,42.259,51.32L533.515,362.927z"/>
		<path fill="#4E4E4F" d="M457.31,286.722h-95.255c0.031-15.993,1.628-31.945,4.763-47.628c1.23-6.435,2.82-12.796,4.763-19.051
			v-19.051h76.205v19.051c1.943,6.255,3.533,12.616,4.767,19.051C455.682,254.777,457.275,270.729,457.31,286.722z"/>
		<path fill="#4E4E4F" d="M285.85,410.554h247.666v247.665H285.85V410.554z"/>
		<path fill="#B2B1B4" d="M479.675,501.262c-18.021-15.494-42.877-24.027-69.994-24.027c-27.116,0-51.978,8.533-69.994,24.027
			l-12.421-14.443c21.474-18.467,50.743-28.636,82.415-28.636c31.673,0,60.938,10.169,82.415,28.636L479.675,501.262z"/>
		<ellipse fill="#B2B1B4" cx="409.681" cy="553.438" rx="66.68" ry="47.628"/>
		<path fill="#959494" d="M381.104,543.912h19.052v19.051h-19.052V543.912z"/>
		<path fill="#959494" d="M419.207,543.912h19.055v19.051h-19.055V543.912z"/>
		<path fill="#343433" d="M452.547,239.094h-85.73c1.23-6.435,2.82-12.796,4.763-19.051v-19.051h76.205v19.051
			C449.727,226.298,451.316,232.659,452.547,239.094z"/>
		<path fill="#4E4E4F" d="M457.31,220.043h-95.255v-38.102h95.255V220.043z"/>
		<path fill="#E3E4E2" d="M287.966,734.426H153.689c-12.91,0-23.616-9.078-24.504-20.777L114.39,518.754h212.878l-14.797,194.895
			C311.581,725.346,300.875,734.424,287.966,734.426z"/>
		<path fill="#E59751" d="M124.552,645.699h192.549l-2.137,30.549l-36.824,25.912H163.515l-36.823-25.912L124.552,645.699z"/>
		<path fill="#B5691A" d="M278.142,645.699c0,31.184-25.661,56.461-57.313,56.461c-31.652,0-57.313-25.277-57.313-56.461H278.142z"
			/>
		<path fill="#C9C9C8" d="M163.515,645.699c0-31.186,25.661-56.461,57.313-56.461c31.652,0,57.313,25.275,57.313,56.461H163.515z"/>
	</g>
</g>
</svg>
