<?xml version="1.0" encoding="utf-8"?>
<!-- Generator: Adobe Illustrator 16.0.0, SVG Export Plug-In . SVG Version: 6.00 Build 0)  -->
<!DOCTYPE svg PUBLIC "-//W3C//DTD SVG 1.1//EN" "http://www.w3.org/Graphics/SVG/1.1/DTD/svg11.dtd">
<svg version="1.1" id="Layer_1" xmlns="http://www.w3.org/2000/svg" xmlns:xlink="http://www.w3.org/1999/xlink" x="0px" y="0px"
	 width="673.661px" height="943.125px" viewBox="0 0 673.661 943.125" enable-background="new 0 0 673.661 943.125"
	 xml:space="preserve">
<path fill="#FFF2D2" d="M673.661,875.758c0,37.205-30.158,67.367-67.363,67.367H67.367C30.159,943.125,0,912.963,0,875.758V67.367
	C0,30.162,30.16,0,67.367,0h538.929c37.207,0,67.363,30.162,67.363,67.367L673.661,875.758L673.661,875.758z"/>
<path fill="#F9D069" d="M618.51,828.499c0,32.852-25.225,59.488-56.338,59.488H111.464c-31.117,0-56.338-26.639-56.338-59.488
	V114.627c0-32.854,25.221-59.49,56.338-59.49h450.708c31.113,0,56.338,26.635,56.338,59.49V828.499L618.51,828.499z"/>
<g>
	<path fill="#FFFFFF" d="M336.831,675.883c-114.245,0-207.189-92.943-207.189-207.189c0-114.245,92.945-207.19,207.189-207.19
		S544.02,354.45,544.02,468.694C544.02,582.94,451.075,675.883,336.831,675.883z"/>
	<circle fill="#D85555" cx="336.831" cy="468.693" r="195.19"/>
	<g>
		<path fill="#FFCD38" d="M405.104,420.451c-5.666,0.783-11.389-0.955-15.66-4.755c-6.924,8.327-19.287,9.465-27.611,2.542
			c-1.416-1.18-2.66-2.548-3.693-4.073c-6.762,11.058-20.879,15.076-32.451,9.234v16.131c0,7.287-5.906,13.191-13.193,13.191
			c-7.283,0-13.191-5.904-13.191-13.191l-0.016-16.764c-5.822,0-11.344-2.592-15.062-7.071c-6.946,6.185-17.293,6.607-24.722,1.012
			V587.12c0,4.871,3.948,8.822,8.82,8.822H405.34c4.873,0,8.822-3.951,8.822-8.822V416.708
			C411.512,418.708,408.393,419.998,405.104,420.451z"/>
		<path fill="#FFF1D7" d="M414.153,551.756v35.354c0,4.873-3.949,8.82-8.822,8.82H268.322c-4.872,0-8.82-3.947-8.82-8.82v-35.354
			l6.901,8.16c6.291,7.389,15.506,11.646,25.21,11.646h90.428c9.701,0.002,18.918-4.258,25.207-11.646L414.153,551.756z"/>
		<path fill="#FFF1D7" d="M413.469,384.825c0.023-0.426,0.063-0.845,0.063-1.275c0.033-12.572-10.131-22.791-22.703-22.824
			c-1.777-0.004-3.553,0.199-5.283,0.608c-2.969-9.457-13.039-14.718-22.496-11.75c-1.98,0.622-3.84,1.582-5.492,2.839
			c-7.781-11.45-23.371-14.424-34.82-6.644c-2.613,1.776-4.867,4.031-6.643,6.644c-7.891-6.001-19.148-4.472-25.15,3.416
			c-1.259,1.653-2.22,3.513-2.842,5.495c-12.237-2.88-24.492,4.707-27.372,16.944c-0.406,1.729-0.609,3.498-0.605,5.272
			c0,0.441,0.042,0.849,0.064,1.275c-8.935,6.109-11.223,18.307-5.112,27.241c6.11,8.934,18.309,11.223,27.241,5.11
			c0.662-0.453,1.294-0.943,1.896-1.476c3.721,4.483,9.249,7.078,15.073,7.073l0.018,16.762c0,7.287,5.906,13.191,13.191,13.191
			c7.287,0,13.193-5.906,13.193-13.191v-16.138c11.57,5.839,25.688,1.819,32.447-9.234c6.078,8.962,18.27,11.302,27.23,5.224
			c1.525-1.034,2.896-2.275,4.074-3.691c8.115,7.162,20.5,6.389,27.662-1.729c7.162-8.115,6.389-20.5-1.727-27.662
			c-0.605-0.536-1.244-1.033-1.912-1.489L413.469,384.825z"/>
		<g>
			<path fill="#F7B521" d="M375.481,538.309c-2.133,0-3.861-1.729-3.861-3.857v-58.209c0-2.131,1.73-3.859,3.861-3.859
				s3.859,1.73,3.859,3.859v58.209C379.34,536.581,377.612,538.309,375.481,538.309z"/>
			<path fill="#F7B521" d="M298.155,538.309c-2.131,0-3.859-1.729-3.859-3.857v-58.209c0-2.131,1.729-3.859,3.859-3.859
				s3.859,1.73,3.859,3.859v58.209C302.014,536.581,300.286,538.307,298.155,538.309z"/>
			<path fill="#F7B521" d="M336.819,538.309c-2.133,0-3.859-1.729-3.859-3.857v-58.209c0-2.131,1.729-3.859,3.859-3.859
				s3.859,1.73,3.859,3.859v58.209C340.678,536.581,338.95,538.309,336.819,538.309z"/>
		</g>
		<path fill="#FFDFB8" d="M414.18,480.471c5.863-33.041,27.896-37.917,38.854-34.197c12.49,4.236,12.904,19.336,10.963,31.238
			c-6.303,38.648-33.234,57.494-49.834,44.994l0.02,34.188c18.479-6.064,60.223-25.223,68.34-76.234
			c9.168-57.699-43.078-64.293-68.271-42.916L414.18,480.471z"/>
	</g>
</g>
</svg>
