<?xml version="1.0" encoding="utf-8"?>
<!-- Generator: Adobe Illustrator 16.0.0, SVG Export Plug-In . SVG Version: 6.00 Build 0)  -->
<!DOCTYPE svg PUBLIC "-//W3C//DTD SVG 1.1//EN" "http://www.w3.org/Graphics/SVG/1.1/DTD/svg11.dtd">
<svg version="1.1" id="Layer_1" xmlns="http://www.w3.org/2000/svg" xmlns:xlink="http://www.w3.org/1999/xlink" x="0px" y="0px"
	 width="1000px" height="1000px" viewBox="0 0 1000 1000" enable-background="new 0 0 1000 1000" xml:space="preserve">
<g id="k_1_">
	<path fill="#FFF2D2" d="M693.861,901.672c0,36.227-29.366,65.597-65.597,65.597H103.488c-36.23,0-65.597-29.37-65.597-65.597
		V114.507c0-36.228,29.367-65.598,65.597-65.598h524.777c36.23,0,65.597,29.37,65.597,65.598V901.672z"/>
	<path fill="#FFD47D" d="M91.584,474.385V165.716c4.37,1.411,9.03,2.168,13.868,2.168c25.025,0,45.314-20.289,45.314-45.32
		c0-7.163-1.665-13.938-4.623-19.957c0.097-0.005,0.199-0.005,0.295-0.005h438.873c30.299,0,54.855,25.933,54.855,57.927v313.855"/>
	<path fill="#FFD47D" d="M640.171,474.385l-0.003,376.149c-4.37-1.411-9.03-2.169-13.868-2.169
		c-25.025,0-45.314,20.29-45.314,45.321c0,7.162,1.665,13.938,4.622,19.957c-0.097,0.005-0.198,0.005-0.295,0.005H146.44
		c-30.298,0-54.855-25.933-54.855-57.928l-0.003-381.336"/>
	<path fill="none" stroke="#231F20" stroke-width="5" stroke-miterlimit="10" d="M640.171,846.169"/>
	<g>
		<rect x="68.25" y="86.447" fill="none" width="64.855" height="72.237"/>
		<text transform="matrix(1 0 0 1 68.25 147.6357)" fill="#ED5565" font-family="'Arvo'" font-size="80.536">K</text>
	</g>
	<path fill="none" stroke="#231F20" stroke-width="5" stroke-miterlimit="10" d="M640.171,474.385"/>
	<path fill="none" stroke="#231F20" stroke-width="5" stroke-miterlimit="10" d="M393.306,474.385"/>
	<path fill="none" stroke="#231F20" stroke-width="5" stroke-miterlimit="10" d="M91.582,474.385"/>
	<path fill="none" stroke="#231F20" stroke-width="5" stroke-miterlimit="10" d="M393.306,474.385"/>
	<rect x="593.352" y="851.205" fill="none" width="65.429" height="78.598"/>
	<text transform="matrix(-1 0 0 -1 658.7803 868.6143)" fill="#ED5565" font-family="'Arvo'" font-size="80.536">K</text>
	<path fill="none" stroke="#231F20" stroke-width="5" stroke-miterlimit="10" d="M640.171,541.864"/>
	<path fill="none" stroke="#231F20" stroke-width="5" stroke-miterlimit="10" d="M338.446,541.864"/>
	<g>
		<path fill="#E28A3B" d="M571.407,411.837v342.921c-0.004,15.779-12.796,28.573-28.577,28.577H352.318
			c-15.781-0.004-28.573-12.798-28.577-28.577V411.837l34.887-3.882c25.682-2.797,44.44-25.578,42.258-51.32
			c-0.583-6.548-0.94-13.597-0.94-21.003c0-38.103,9.525-66.679,9.525-66.679v-19.051h76.205v19.051c0,0,9.525,28.577,9.525,66.679
			c0,7.406-0.357,14.455-0.94,21.003c-2.183,25.743,16.575,48.523,42.258,51.32L571.407,411.837z"/>
		<path fill="#4E4E4F" d="M495.202,335.632h-95.255c0.032-15.993,1.628-31.945,4.763-47.628c1.23-6.435,2.82-12.796,4.763-19.051
			v-19.051h76.205v19.051c1.943,6.255,3.533,12.616,4.763,19.051C493.574,303.687,495.168,319.639,495.202,335.632z"/>
		<path fill="#4E4E4F" d="M323.742,459.464h247.666v247.665H323.742V459.464z"/>
		<path fill="#B2B1B4" d="M517.567,550.171c-18.019-15.493-42.877-24.027-69.994-24.027c-27.116,0-51.974,8.534-69.994,24.027
			l-12.421-14.443c21.474-18.466,50.743-28.636,82.415-28.636c31.673,0,60.942,10.17,82.415,28.636L517.567,550.171z"/>
		<ellipse fill="#B2B1B4" cx="447.573" cy="602.348" rx="66.68" ry="47.628"/>
		<path fill="#959494" d="M418.997,592.822h19.052v19.051h-19.052V592.822z"/>
		<path fill="#959494" d="M457.1,592.822h19.051v19.051H457.1V592.822z"/>
		<path fill="#343433" d="M490.439,288.004h-85.73c1.23-6.435,2.82-12.796,4.763-19.051v-19.051h76.205v19.051
			C487.619,275.208,489.209,281.569,490.439,288.004z"/>
		<path fill="#4E4E4F" d="M495.202,268.953h-95.255v-38.102h95.255V268.953z"/>
		<path fill="#E3E4E2" d="M325.858,783.335H191.582c-12.91,0-23.616-9.078-24.504-20.776l-14.796-194.896h212.878l-14.797,194.896
			C349.474,774.256,338.768,783.333,325.858,783.335z"/>
		<path fill="#E59751" d="M162.445,694.609h192.549l-2.137,30.549l-36.824,25.912H201.407l-36.823-25.912L162.445,694.609z"/>
		<path fill="#B5691A" d="M316.034,694.609c0,31.183-25.661,56.461-57.313,56.461s-57.313-25.278-57.313-56.461H316.034z"/>
		<path fill="#C9C9C8" d="M201.407,694.609c0-31.183,25.661-56.461,57.313-56.461s57.313,25.278,57.313,56.461H201.407z"/>
	</g>
</g>
</svg>
