<?xml version="1.0" encoding="utf-8"?>
<!-- Generator: Adobe Illustrator 16.0.0, SVG Export Plug-In . SVG Version: 6.00 Build 0)  -->
<!DOCTYPE svg PUBLIC "-//W3C//DTD SVG 1.1//EN" "http://www.w3.org/Graphics/SVG/1.1/DTD/svg11.dtd">
<svg version="1.1" id="Layer_1" xmlns="http://www.w3.org/2000/svg" xmlns:xlink="http://www.w3.org/1999/xlink" x="0px" y="0px"
	 width="1000px" height="1000px" viewBox="0 0 1000 1000" enable-background="new 0 0 1000 1000" xml:space="preserve">
<g id="b_1_">
	<path fill="#FFF2D2" d="M711.655,908.974c0,37.764-30.613,68.381-68.38,68.381H96.233c-37.768,0-68.38-30.617-68.38-68.381V88.412
		c0-37.765,30.613-68.381,68.38-68.381h547.042c37.767,0,68.38,30.616,68.38,68.381V908.974z"/>
	<path fill="#FFD47D" d="M83.825,463.558V141.793c4.555,1.472,9.414,2.261,14.457,2.261c26.087,0,47.237-21.15,47.237-47.243
		c0-7.466-1.735-14.529-4.819-20.804c0.101-0.005,0.208-0.005,0.309-0.005H598.5c31.584,0,57.184,27.033,57.184,60.385v327.172"/>
	<path fill="#FFD47D" d="M655.687,463.558l-0.003,392.109c-4.556-1.472-9.413-2.261-14.457-2.261
		c-26.087,0-47.236,21.15-47.236,47.243c0,7.467,1.734,14.529,4.818,20.804c-0.101,0.006-0.207,0.006-0.309,0.006H141.008
		c-31.583,0-57.183-27.033-57.183-60.385l-0.003-397.516"/>
	<g>
		<g id="glass_4_">
			<circle fill="#00A057" cx="170.908" cy="564.579" r="54.868"/>
			<path fill="#008730" d="M170.908,509.711c30.431,0,54.869,24.438,54.869,54.87c0,30.431-24.438,54.865-54.869,54.865"/>
			<circle fill="#E9F98C" cx="170.908" cy="564.581" r="43.801"/>
			<path fill="#BEE874" d="M201.801,533.227c17.059,17.06,17.059,45.186,0,62.244c-17.061,17.061-45.186,17.061-62.245,0"/>
			<g>
				<path fill="#80C612" d="M163.993,538.759L163.993,538.759l6.915,16.141l6.917-16.141l0,0c0.461-0.92,0.461-1.843,0.461-3.226
					c0-4.149-3.228-7.379-7.378-7.379c-4.149,0-7.376,3.229-7.376,7.379C163.532,536.453,163.532,537.839,163.993,538.759z"/>
				<path fill="#80C612" d="M177.825,589.938L177.825,589.938l-6.917-16.137l-6.915,16.137l0,0
					c-0.461,0.924-0.461,1.844-0.461,3.228c0,4.149,3.228,7.378,7.376,7.378c4.15,0,7.378-3.229,7.378-7.378
					C178.286,592.245,178.286,590.862,177.825,589.938z"/>
				<path fill="#80C612" d="M196.729,557.662L196.729,557.662l-16.137,6.919l16.137,6.914l0,0c0.922,0.461,1.845,0.461,3.228,0.461
					c4.15,0,7.378-3.227,7.378-7.375c0-4.149-3.228-7.379-7.378-7.379C198.573,556.743,197.651,557.202,196.729,557.662z"/>
				<path fill="#80C612" d="M145.088,571.036L145.088,571.036l16.138-6.919l-16.138-6.915l0,0c-0.921-0.459-1.844-0.459-3.227-0.459
					c-4.15,0-7.377,3.226-7.377,7.374c0,4.152,3.227,7.378,7.377,7.378C143.244,571.956,144.167,571.495,145.088,571.036z"/>
				<path fill="#80C612" d="M184.28,541.525L184.28,541.525l-6.455,16.137l16.137-6.456l0,0c0.921-0.46,1.845-0.92,2.766-1.842
					c2.767-2.767,2.767-7.378,0-10.605c-2.766-2.767-7.377-2.767-10.604,0C185.202,539.682,184.741,540.604,184.28,541.525z"/>
				<path fill="#80C612" d="M157.538,587.173L157.538,587.173l7.839-16.137l-15.216,6.915l0,0c-1.845,0.924-3.228,1.384-4.15,2.305
					c-2.767,2.768-2.767,6.917,0,10.144c2.767,2.767,7.378,2.767,10.144,0C157.077,589.017,157.077,588.094,157.538,587.173z"/>
				<path fill="#80C612" d="M193.962,577.951L193.962,577.951l-16.138-6.456l6.456,16.139l0,0c0.46,0.922,0.922,1.844,1.844,2.766
					c2.767,2.767,7.378,2.767,10.604,0c3.228-2.766,2.767-7.376,0-10.605C195.807,578.875,194.884,577.951,193.962,577.951z"/>
				<path fill="#80C612" d="M150.161,550.746L150.161,550.746l15.216,6.456l-7.378-16.137l0,0c-0.46-0.923-0.921-1.843-1.843-2.767
					c-2.766-2.766-7.839-2.766-10.605,0c-2.766,2.767-1.845,7.379,0.922,10.604C147.395,549.823,147.855,550.286,150.161,550.746z"
					/>
			</g>
			<polyline fill="#FFFCEE" points="331.823,565.501 165.837,565.501 191.657,757.308 191.657,786.815 306.925,786.815 
				306.925,757.308 331.823,565.501 			"/>
			<line fill="#FFFCEE" x1="331.823" y1="565.501" x2="246.986" y2="565.501"/>
			<polyline fill="#FFFCEE" points="251.597,786.815 306.925,786.815 306.925,757.308 331.823,565.501 			"/>
			<path fill="#E8E3CF" d="M179.67,565.501l16.137,118.496c0,29.048,23.975,52.103,53.023,52.103
				c29.047,0,52.562-23.055,52.562-52.103l16.598-118.496H179.67L179.67,565.501z"/>
			<path fill="#BDE5C8" d="M172.292,619.446c29.047-1.383,51.64-25.82,51.64-55.329v0.923h-58.095L172.292,619.446z"/>
			<path fill="#DFE5CF" d="M193.962,577.951L193.962,577.951l-16.138-6.456l6.456,16.139l0,0c0.46,0.922,0.922,1.844,1.844,2.766
				c2.767,2.767,7.378,2.767,10.604,0c3.228-2.766,2.767-7.376,0-10.605C195.807,578.875,194.884,577.951,193.962,577.951z"/>
			<path fill="#E8E3CF" d="M249.291,736.1c29.049,0,52.102-22.594,52.102-51.641l16.598-118.958h-71.004"/>
			<path fill="#D8D2BA" d="M280.183,620.37c-8.299,6.453-19.364,10.144-31.352,10.144s-23.054-3.69-31.354-10.144
				c-7.838,5.991-17.521,9.222-28.586,10.144l7.377,53.023c0,29.046,23.514,52.563,52.563,52.563
				c29.047,0,52.562-23.517,52.562-52.563l7.376-53.486C297.703,629.592,288.021,625.902,280.183,620.37z"/>
			<path fill="#D8D2BA" d="M248.831,736.1c29.047,0,52.562-23.517,52.562-52.563l7.376-53.486
				c-11.066-0.459-20.748-4.148-28.586-10.144c-8.299,6.454-19.364,10.144-31.352,10.144"/>
			<path fill="#FFFCEE" d="M211.944,693.219c0.461,2.305-0.922,4.15-2.767,4.15l0,0c-1.844,0.46-3.688-1.383-4.149-3.229
				l-7.377-54.867c0-2.305,1.384-4.611,3.228-4.611l0,0c1.844-0.46,3.688,1.383,4.149,3.229L211.944,693.219z"/>
			<path fill="#FFFCEE" d="M202.723,619.446c0,0.924-1.384,1.844-3.228,2.307l0,0c-1.845,0.46-3.688-0.463-3.688-1.383
				l-3.689-27.204c0-0.921,1.384-1.844,3.227-2.304l0,0c1.845-0.463,3.689,0.46,3.689,1.383L202.723,619.446z"/>
			<path fill="#FFFCEE" d="M306.925,572.417c0,1.846-2.304,2.306-4.149,2.306h-107.43c-1.843,0-4.149-0.921-4.149-2.306l0,0
				c0-1.381,1.384-2.305,3.688-2.305h107.892C304.621,570.112,306.925,570.573,306.925,572.417L306.925,572.417z"/>
		</g>
		<g id="bottle_2_">
			<path fill="#E3E4E2" d="M585.951,446.853v309.404c0,16.44-13.325,29.765-29.764,29.765l0,0h-178.59
				c-16.438,0-29.764-13.324-29.764-29.765l0,0V446.853c-0.004-11.445,4.938-22.333,13.556-29.865l65.816-57.595
				c0,0-9.921-9.921-9.921-29.765c-0.009-3.327,0.288-6.648,0.88-9.921c2.431-13.233,9.042-19.843,9.042-19.843v-19.843h79.374
				v19.843c0,0,6.61,6.61,9.04,19.843c0.594,3.273,0.889,6.595,0.882,9.921c0,19.844-9.922,29.765-9.922,29.765l65.817,57.595
				C581.014,424.52,585.956,435.408,585.951,446.853z"/>
			<path fill="#C9C9C8" d="M524.852,468.097c-20.585-6.295-40.084-9.487-57.958-9.487c-17.488,0-36.561,3.061-56.678,9.101
				l-5.704-19.006c21.97-6.588,42.957-9.938,62.382-9.938c19.842,0,41.297,3.484,63.761,10.355L524.852,468.097z"/>
			<path fill="#EB5849" d="M387.519,508.217c0,0,39.687-19.843,79.374-19.843c39.686,0,79.373,19.843,79.373,19.843v208.353H387.519
				V508.217z"/>
			<path fill="#C9C9C8" d="M456.971,399.08h19.844v19.843h-19.844V399.08z"/>
			<path fill="#C9C9C8" d="M515.619,319.707h-97.455c2.431-13.233,9.042-19.843,9.042-19.843v-19.843h79.374v19.843
				C506.579,299.864,513.189,306.474,515.619,319.707z"/>
			<path fill="#E54B3D" d="M506.579,280.021h-79.374v-19.844c0,0,9.922-49.608,39.688-49.608s39.686,49.608,39.686,49.608V280.021z"
				/>
			<path fill="#D4342F" d="M526.422,299.864H407.363l-9.922-39.687h138.903L526.422,299.864z"/>
			<path fill="#C9C9C8" d="M387.519,637.197h158.747v79.372H387.519V637.197z"/>
			<path fill="#B2B1B4" d="M437.128,666.962h19.843v19.844h-19.843V666.962z"/>
			<path fill="#B2B1B4" d="M476.814,666.962h19.844v19.844h-19.844V666.962z"/>
			<circle fill="#F8BC1E" cx="466.893" cy="577.668" r="39.687"/>
			<path fill="#1CA55D" d="M546.266,587.59l-158.747,19.842v29.766h158.747V587.59z"/>
		</g>
	</g>
	<path fill="none" stroke="#231F20" stroke-width="5" stroke-miterlimit="10" d="M655.687,851.116"/>
	<g>
		<rect x="64.422" y="59.161" fill="none" width="62.685" height="75.302"/>
		<text transform="matrix(1 0 0 1 64.4229 122.9453)" fill="#ED5565" font-family="'Arvo'" font-size="83.953">B</text>
	</g>
	<path fill="none" stroke="#231F20" stroke-width="5" stroke-miterlimit="10" d="M655.687,463.558"/>
	<path fill="none" stroke="#231F20" stroke-width="5" stroke-miterlimit="10" d="M398.348,463.558"/>
	<path fill="none" stroke="#231F20" stroke-width="5" stroke-miterlimit="10" d="M83.822,463.558"/>
	<path fill="none" stroke="#231F20" stroke-width="5" stroke-miterlimit="10" d="M398.348,463.558"/>
	<g>
		<rect x="612.4" y="862.996" fill="none" width="62.686" height="75.303"/>
		<text transform="matrix(-1 0 0 -1 675.0859 874.5127)" fill="#ED5565" font-family="'Arvo'" font-size="83.953">B</text>
	</g>
	<path fill="none" stroke="#231F20" stroke-width="5" stroke-miterlimit="10" d="M655.687,533.901"/>
	<path fill="none" stroke="#231F20" stroke-width="5" stroke-miterlimit="10" d="M341.161,533.901"/>
</g>
</svg>
