<?xml version="1.0" encoding="utf-8"?>
<!-- Generator: Adobe Illustrator 16.0.0, SVG Export Plug-In . SVG Version: 6.00 Build 0)  -->
<!DOCTYPE svg PUBLIC "-//W3C//DTD SVG 1.1//EN" "http://www.w3.org/Graphics/SVG/1.1/DTD/svg11.dtd">
<svg version="1.1" id="Layer_1" xmlns="http://www.w3.org/2000/svg" xmlns:xlink="http://www.w3.org/1999/xlink" x="0px" y="0px"
	 width="1000px" height="1000px" viewBox="0 0 1000 1000" enable-background="new 0 0 1000 1000" xml:space="preserve">
<g id="_x33__1_">
	<path fill="#FFF2D2" d="M800.25,907.789c0,37.733-30.589,68.326-68.327,68.326H185.31c-37.738,0-68.327-30.593-68.327-68.326
		V87.868c0-37.735,30.589-68.327,68.327-68.327h546.613c37.738,0,68.327,30.592,68.327,68.327V907.789z"/>
	<path fill="#FFD47D" d="M172.911,462.721V141.208c4.552,1.471,9.407,2.259,14.446,2.259c26.066,0,47.2-21.133,47.2-47.206
		c0-7.46-1.734-14.518-4.815-20.787c0.101-0.005,0.207-0.005,0.308-0.005h457.134c31.56,0,57.139,27.012,57.139,60.337v326.916"/>
	<path fill="#FFD47D" d="M744.325,462.721l-0.003,391.802c-4.553-1.471-9.406-2.259-14.446-2.259
		c-26.066,0-47.199,21.134-47.199,47.206c0,7.46,1.734,14.518,4.815,20.787c-0.102,0.006-0.208,0.006-0.309,0.006H230.049
		c-31.559,0-57.139-27.013-57.139-60.338l-0.002-397.204"/>
	<path fill="none" stroke="#231F20" stroke-width="5" stroke-miterlimit="10" d="M744.325,849.977"/>
	<g>
		<rect x="159.101" y="66.866" fill="none" width="101.335" height="89.897"/>
		<text transform="matrix(1 0 0 1 159.1001 130.6006)" fill="#ED5565" font-family="'Arvo'" font-size="83.8872">3</text>
	</g>
	<path fill="none" stroke="#231F20" stroke-width="5" stroke-miterlimit="10" d="M744.325,462.721"/>
	<path fill="none" stroke="#231F20" stroke-width="5" stroke-miterlimit="10" d="M487.188,462.721"/>
	<path fill="none" stroke="#231F20" stroke-width="5" stroke-miterlimit="10" d="M172.908,462.721"/>
	<path fill="none" stroke="#231F20" stroke-width="5" stroke-miterlimit="10" d="M487.188,462.721"/>
	<path fill="none" stroke="#231F20" stroke-width="5" stroke-miterlimit="10" d="M744.325,533.009"/>
	<path fill="none" stroke="#231F20" stroke-width="5" stroke-miterlimit="10" d="M430.045,533.009"/>
	<g>
		<rect x="654.678" y="839.778" fill="none" width="101.336" height="89.896"/>
		<text transform="matrix(-1 0 0 -1 756.0137 865.9395)" fill="#ED5565" font-family="'Arvo'" font-size="83.8872">3</text>
	</g>
	<g>
		<g>
			<path fill="#E3E4E2" d="M486.017,221.441c17.441-3.488,28.932-20.234,25.91-37.763l-7.018-40.702h-59.75l-7.017,40.702
				c-3.022,17.529,8.467,34.275,25.909,37.763c3.492,0.699,6.003,3.763,6.003,7.323v43.668l-20.592,1.872
				c-3.846,0.35-6.792,3.576-6.792,7.438v0.648h64.728v-0.648c0-3.863-2.946-7.088-6.792-7.438l-20.592-1.872v-43.668
				C480.014,225.204,482.525,222.14,486.017,221.441z"/>
			<path fill="#ED5565" d="M475.034,233.744c2.75,0,4.979-2.229,4.979-4.979c0-3.56,2.512-6.625,6.003-7.323
				c17.441-3.488,28.932-20.234,25.91-37.763l-0.579-3.358h-72.626l-0.579,3.358c-3.022,17.529,8.467,34.275,25.909,37.763
				c3.492,0.699,6.003,3.763,6.003,7.323C470.055,231.515,472.284,233.744,475.034,233.744z"/>
			<g>
				<path fill="#F3F1F2" d="M454.012,205.291c-1.075,0.851-2.638,0.669-3.489-0.407c-0.328-0.419-0.642-0.848-0.941-1.285
					l-0.06-0.087c-0.038-0.057-0.073-0.115-0.106-0.174c-0.592-1.084-0.193-2.442,0.892-3.034l0.414-0.227
					c1.022-0.563,2.306-0.256,2.966,0.706c0.234,0.342,0.478,0.676,0.732,1.003c0.792,1.003,0.701,2.44-0.213,3.334
					C454.145,205.18,454.08,205.237,454.012,205.291z"/>
				<path fill="#F3F1F2" d="M448.296,195.276c-1.351,0.227-2.631-0.685-2.859-2.037c-0.436-2.749-0.414-5.551,0.065-8.293
					l4.74-27.493c0.234-1.355,1.522-2.264,2.877-2.03c1.355,0.234,2.264,1.521,2.03,2.876l-4.741,27.493
					c-0.382,2.194-0.402,4.436-0.058,6.636c0.199,1.254-0.579,2.458-1.802,2.792C448.466,195.244,448.382,195.262,448.296,195.276z"
					/>
			</g>
		</g>
		<g>
			<path fill="#E3E4E2" d="M478.721,759.091v-43.669l20.593-1.872c3.847-0.35,6.793-3.576,6.793-7.438v-0.648h-64.729v0.648
				c0,3.861,2.946,7.087,6.792,7.438l20.592,1.872v43.669c0,3.561-2.513,6.625-6.003,7.323
				c-17.442,3.488-28.931,20.234-25.909,37.763l7.017,40.702h59.75l7.017-40.702c3.022-17.528-8.468-34.274-25.908-37.763
				C481.234,765.716,478.721,762.651,478.721,759.091z"/>
			<path fill="#ED5565" d="M468.763,759.091c0,3.561-2.513,6.625-6.003,7.323c-17.442,3.488-28.931,20.234-25.909,37.763
				l0.578,3.358h72.626l0.579-3.358c3.022-17.528-8.468-34.274-25.908-37.763c-3.491-0.698-6.005-3.763-6.005-7.323
				c0-2.75-2.229-4.98-4.978-4.98C470.992,754.11,468.763,756.341,468.763,759.091z"/>
			<g>
				<path fill="#F3F1F2" d="M452.915,782.735c0.913,0.894,1.004,2.331,0.213,3.334c-0.253,0.327-0.497,0.661-0.733,1.003
					c-0.66,0.963-1.943,1.27-2.965,0.707l-0.414-0.229c-1.085-0.591-1.484-1.949-0.892-3.032c0.034-0.06,0.068-0.119,0.106-0.176
					l0.059-0.087c0.301-0.438,0.614-0.865,0.942-1.285c0.851-1.075,2.413-1.258,3.489-0.407
					C452.788,782.617,452.853,782.675,452.915,782.735z"/>
				<path fill="#F3F1F2" d="M447.256,792.635c1.225,0.334,2.002,1.537,1.802,2.791c-0.345,2.201-0.325,4.442,0.059,6.637
					l4.739,27.492c0.234,1.355-0.675,2.643-2.029,2.877c-1.356,0.232-2.643-0.676-2.877-2.031l-4.74-27.492
					c-0.479-2.742-0.501-5.544-0.065-8.293c0.228-1.353,1.508-2.264,2.859-2.036C447.089,792.593,447.173,792.611,447.256,792.635z"
					/>
			</g>
		</g>
	</g>
	<g>
		<path fill="#E3E4E2" d="M484.726,518.818c17.44-3.488,28.931-20.235,25.908-37.763l-7.017-40.702h-59.75l-7.017,40.702
			c-3.022,17.528,8.467,34.274,25.909,37.763c3.491,0.698,6.003,3.763,6.003,7.323v43.669l-20.592,1.872
			c-3.847,0.35-6.792,3.575-6.792,7.438v0.648h64.729v-0.648c0-3.862-2.946-7.088-6.793-7.438l-20.592-1.872v-43.669
			C478.722,522.581,481.234,519.517,484.726,518.818z"/>
		<path fill="#ED5565" d="M473.743,531.121c2.75,0,4.979-2.229,4.979-4.979c0-3.561,2.513-6.625,6.004-7.323
			c17.44-3.488,28.931-20.235,25.908-37.763l-0.579-3.359h-72.625l-0.578,3.359c-3.022,17.528,8.467,34.274,25.909,37.763
			c3.491,0.698,6.003,3.763,6.003,7.323C468.763,528.892,470.992,531.121,473.743,531.121z"/>
		<g>
			<path fill="#F3F1F2" d="M452.72,502.668c-1.075,0.851-2.638,0.67-3.488-0.407c-0.328-0.419-0.641-0.847-0.942-1.285l-0.059-0.085
				c-0.038-0.058-0.072-0.116-0.106-0.175c-0.592-1.084-0.192-2.442,0.892-3.034l0.414-0.228c1.023-0.563,2.305-0.256,2.965,0.707
				c0.236,0.342,0.479,0.676,0.734,1.002c0.791,1.002,0.7,2.441-0.214,3.334C452.853,502.558,452.789,502.614,452.72,502.668z"/>
			<path fill="#F3F1F2" d="M447.004,492.654c-1.351,0.227-2.631-0.685-2.859-2.036c-0.436-2.75-0.414-5.551,0.066-8.294l4.74-27.492
				c0.234-1.355,1.522-2.265,2.877-2.03c1.355,0.234,2.263,1.521,2.03,2.876l-4.741,27.494c-0.384,2.193-0.403,4.435-0.057,6.635
				c0.199,1.254-0.578,2.458-1.804,2.792C447.174,492.621,447.089,492.639,447.004,492.654z"/>
		</g>
	</g>
</g>
</svg>
