<?xml version="1.0" encoding="utf-8"?>
<!-- Generator: Adobe Illustrator 16.0.0, SVG Export Plug-In . SVG Version: 6.00 Build 0)  -->
<!DOCTYPE svg PUBLIC "-//W3C//DTD SVG 1.1//EN" "http://www.w3.org/Graphics/SVG/1.1/DTD/svg11.dtd">
<svg version="1.1" id="Layer_1" xmlns="http://www.w3.org/2000/svg" xmlns:xlink="http://www.w3.org/1999/xlink" x="0px" y="0px"
	 width="1000px" height="1000px" viewBox="0 0 1000 1000" enable-background="new 0 0 1000 1000" xml:space="preserve">
<g id="_x32__1_">
	<path fill="#FFF2D2" d="M710.828,908.887c0,37.411-30.327,67.742-67.74,67.742H101.151c-37.415,0-67.742-30.331-67.742-67.742
		V95.984c0-37.412,30.327-67.743,67.742-67.743h541.937c37.413,0,67.74,30.331,67.74,67.743V908.887z"/>
	<path fill="#FFD47D" d="M88.858,467.628V148.867c4.513,1.458,9.326,2.24,14.322,2.24c25.843,0,46.796-20.953,46.796-46.802
		c0-7.396-1.719-14.394-4.774-20.609c0.1-0.005,0.205-0.005,0.305-0.005H598.73c31.288,0,56.649,26.781,56.649,59.821v324.118"/>
	<path fill="#FFD47D" d="M655.382,467.628l-0.002,388.449c-4.513-1.457-9.326-2.239-14.321-2.239
		c-25.844,0-46.797,20.952-46.797,46.802c0,7.396,1.72,14.394,4.774,20.609c-0.1,0.006-0.206,0.006-0.306,0.006H145.508
		c-31.289,0-56.649-26.781-56.649-59.821l-0.002-393.805"/>
	<path fill="none" stroke="#231F20" stroke-width="5" stroke-miterlimit="10" d="M655.382,851.569"/>
	<g>
		<rect x="75.167" y="75.161" fill="none" width="100.468" height="89.127"/>
		<text transform="matrix(1 0 0 1 75.167 138.3501)" fill="#ED5565" font-family="'Arvo'" font-size="83.1693">2</text>
	</g>
	<path fill="none" stroke="#231F20" stroke-width="5" stroke-miterlimit="10" d="M655.382,467.628"/>
	<path fill="none" stroke="#231F20" stroke-width="5" stroke-miterlimit="10" d="M400.445,467.628"/>
	<path fill="none" stroke="#231F20" stroke-width="5" stroke-miterlimit="10" d="M88.856,467.628"/>
	<path fill="none" stroke="#231F20" stroke-width="5" stroke-miterlimit="10" d="M400.445,467.628"/>
	<path fill="none" stroke="#231F20" stroke-width="5" stroke-miterlimit="10" d="M655.382,537.314"/>
	<path fill="none" stroke="#231F20" stroke-width="5" stroke-miterlimit="10" d="M343.793,537.314"/>
	<g>
		<rect x="566.503" y="841.459" fill="none" width="100.468" height="89.127"/>
		<text transform="matrix(-1 0 0 -1 666.9707 867.3965)" fill="#ED5565" font-family="'Arvo'" font-size="83.1693">2</text>
	</g>
	<g>
		<g>
			<path fill="#E3E4E2" d="M399.286,228.413c17.292-3.458,28.684-20.061,25.687-37.44l-6.957-40.353h-59.239l-6.957,40.353
				c-2.997,17.379,8.394,33.981,25.687,37.44c3.461,0.692,5.952,3.731,5.952,7.261v43.294l-20.416,1.857
				c-3.814,0.346-6.734,3.544-6.734,7.374v0.643h64.174v-0.643c0-3.829-2.92-7.027-6.734-7.374l-20.417-1.857v-43.294
				C393.333,232.145,395.825,229.105,399.286,228.413z"/>
			<path fill="#ED5565" d="M388.397,240.611c2.726,0,4.936-2.21,4.936-4.937c0-3.53,2.492-6.569,5.953-7.261
				c17.292-3.458,28.684-20.061,25.687-37.44l-0.574-3.329h-72.005l-0.573,3.329c-2.997,17.379,8.394,33.981,25.687,37.44
				c3.461,0.692,5.952,3.731,5.952,7.261C383.459,238.401,385.67,240.611,388.397,240.611z"/>
			<g>
				<path fill="#F3F1F2" d="M367.554,212.401c-1.066,0.844-2.615,0.663-3.459-0.403c-0.325-0.416-0.636-0.84-0.934-1.274
					l-0.059-0.086c-0.038-0.056-0.072-0.114-0.105-0.173c-0.587-1.075-0.191-2.421,0.884-3.008l0.411-0.225
					c1.013-0.558,2.286-0.254,2.94,0.7c0.233,0.339,0.476,0.67,0.727,0.995c0.784,0.994,0.694,2.42-0.211,3.306
					C367.686,212.292,367.621,212.348,367.554,212.401z"/>
				<path fill="#F3F1F2" d="M361.887,202.473c-1.34,0.225-2.609-0.679-2.834-2.019c-0.432-2.726-0.411-5.504,0.063-8.222l4.7-27.258
					c0.231-1.343,1.508-2.245,2.853-2.013c1.343,0.232,2.244,1.509,2.012,2.852l-4.699,27.257c-0.38,2.175-0.399,4.398-0.059,6.58
					c0.198,1.243-0.573,2.436-1.787,2.768C362.054,202.44,361.971,202.458,361.887,202.473z"/>
			</g>
		</g>
		<g>
			<path fill="#E3E4E2" d="M392.052,761.462v-43.295l20.417-1.855c3.814-0.347,6.735-3.545,6.735-7.375v-0.643h-64.175v0.643
				c0,3.83,2.921,7.027,6.735,7.375l20.416,1.855v43.295c0,3.53-2.491,6.568-5.952,7.261c-17.292,3.459-28.684,20.062-25.687,37.44
				l6.957,40.353h59.239l6.957-40.353c2.997-17.379-8.395-33.981-25.688-37.44C394.543,768.03,392.052,764.992,392.052,761.462z"/>
			<path fill="#ED5565" d="M382.179,761.462c0,3.53-2.491,6.568-5.952,7.261c-17.292,3.459-28.684,20.062-25.687,37.44l0.573,3.329
				h72.005l0.574-3.329c2.997-17.379-8.395-33.981-25.688-37.44c-3.461-0.692-5.953-3.73-5.953-7.261
				c0-2.727-2.21-4.937-4.936-4.937C384.389,756.525,382.179,758.735,382.179,761.462z"/>
			<g>
				<path fill="#F3F1F2" d="M366.466,784.904c0.905,0.887,0.996,2.312,0.211,3.306c-0.251,0.324-0.494,0.655-0.727,0.994
					c-0.654,0.955-1.925,1.259-2.94,0.701l-0.411-0.226c-1.075-0.587-1.471-1.934-0.884-3.008c0.033-0.06,0.067-0.117,0.105-0.174
					l0.058-0.086c0.298-0.434,0.609-0.858,0.934-1.273c0.844-1.067,2.394-1.248,3.459-0.404
					C366.341,784.788,366.404,784.845,366.466,784.904z"/>
				<path fill="#F3F1F2" d="M360.855,794.719c1.214,0.331,1.985,1.524,1.787,2.768c-0.341,2.182-0.322,4.404,0.058,6.579
					l4.699,27.258c0.231,1.344-0.669,2.62-2.012,2.852c-1.344,0.231-2.62-0.669-2.853-2.013l-4.699-27.257
					c-0.476-2.719-0.497-5.497-0.065-8.223c0.225-1.341,1.494-2.244,2.834-2.019C360.69,794.678,360.773,794.696,360.855,794.719z"
					/>
			</g>
		</g>
	</g>
</g>
</svg>
