<?xml version="1.0" encoding="utf-8"?>
<!-- Generator: Adobe Illustrator 16.0.0, SVG Export Plug-In . SVG Version: 6.00 Build 0)  -->
<!DOCTYPE svg PUBLIC "-//W3C//DTD SVG 1.1//EN" "http://www.w3.org/Graphics/SVG/1.1/DTD/svg11.dtd">
<svg version="1.1" id="Layer_1" xmlns="http://www.w3.org/2000/svg" xmlns:xlink="http://www.w3.org/1999/xlink" x="0px" y="0px"
	 width="1000px" height="1000px" viewBox="0 0 1000 1000" enable-background="new 0 0 1000 1000" xml:space="preserve">
<g id="_x31_0_1_">
	<path fill="#FFF2D2" d="M715.543,906.782c0,37.175-30.136,67.313-67.313,67.313H109.723c-37.178,0-67.313-30.139-67.313-67.313
		V99.023c0-37.176,30.135-67.314,67.313-67.314h538.507c37.178,0,67.313,30.138,67.313,67.314V906.782z"/>
	<path fill="#FFD47D" d="M97.508,468.316V151.571c4.484,1.448,9.267,2.225,14.231,2.225c25.68,0,46.5-20.82,46.5-46.506
		c0-7.35-1.708-14.302-4.744-20.479c0.099-0.005,0.204-0.005,0.304-0.005h450.354c31.091,0,56.291,26.611,56.291,59.443v322.067"/>
	<path fill="#FFD47D" d="M660.447,468.316l-0.003,385.991c-4.484-1.448-9.267-2.226-14.231-2.226c-25.68,0-46.5,20.82-46.5,46.507
		c0,7.35,1.708,14.302,4.744,20.479c-0.1,0.006-0.204,0.006-0.304,0.006H153.799c-31.091,0-56.291-26.612-56.291-59.443
		l-0.003-391.313"/>
	<path fill="none" stroke="#231F20" stroke-width="5" stroke-miterlimit="10" d="M660.447,849.828"/>
	<g>
		<rect x="64.068" y="78.332" fill="none" width="99.833" height="88.563"/>
		<text transform="matrix(1 0 0 1 64.0684 141.1211)" fill="#ED5565" font-family="'Arvo'" font-size="82.6431">10</text>
	</g>
	<path fill="none" stroke="#231F20" stroke-width="5" stroke-miterlimit="10" d="M660.447,468.316"/>
	<path fill="none" stroke="#231F20" stroke-width="5" stroke-miterlimit="10" d="M407.124,468.316"/>
	<path fill="none" stroke="#231F20" stroke-width="5" stroke-miterlimit="10" d="M97.505,468.316"/>
	<path fill="none" stroke="#231F20" stroke-width="5" stroke-miterlimit="10" d="M407.124,468.316"/>
	<path fill="none" stroke="#231F20" stroke-width="5" stroke-miterlimit="10" d="M660.447,537.562"/>
	<path fill="none" stroke="#231F20" stroke-width="5" stroke-miterlimit="10" d="M350.829,537.562"/>
	<g>
		<rect x="598.409" y="839.781" fill="none" width="99.833" height="88.563"/>
		<text transform="matrix(-1 0 0 -1 698.2422 865.5547)" fill="#ED5565" font-family="'Arvo'" font-size="82.6431">10</text>
	</g>
	<g>
		<g>
			<path fill="#E3E4E2" d="M241.347,230.614c17.183-3.437,28.502-19.934,25.525-37.203l-6.913-40.098h-58.864l-6.913,40.098
				c-2.978,17.269,8.341,33.767,25.525,37.203c3.439,0.688,5.915,3.708,5.915,7.215v43.021l-20.287,1.845
				c-3.79,0.344-6.692,3.522-6.692,7.327v0.639h63.769v-0.639c0-3.805-2.902-6.983-6.691-7.327l-20.288-1.845v-43.021
				C235.432,234.322,237.907,231.302,241.347,230.614z"/>
			<path fill="#ED5565" d="M230.526,242.734c2.709,0,4.905-2.196,4.905-4.905c0-3.507,2.476-6.527,5.915-7.215
				c17.183-3.437,28.502-19.934,25.525-37.203l-0.571-3.309h-71.549l-0.57,3.309c-2.978,17.269,8.341,33.767,25.525,37.203
				c3.439,0.688,5.915,3.708,5.915,7.215C225.621,240.538,227.817,242.734,230.526,242.734z"/>
			<g>
				<path fill="#F3F1F2" d="M209.815,214.704c-1.059,0.838-2.599,0.659-3.437-0.401c-0.323-0.413-0.632-0.835-0.927-1.266
					l-0.059-0.086c-0.038-0.056-0.072-0.113-0.104-0.172c-0.583-1.068-0.19-2.406,0.878-2.989l0.408-0.224
					c1.008-0.554,2.272-0.253,2.922,0.696c0.231,0.337,0.472,0.666,0.723,0.988c0.779,0.988,0.689,2.404-0.21,3.284
					C209.947,214.595,209.882,214.651,209.815,214.704z"/>
				<path fill="#F3F1F2" d="M204.185,204.838c-1.332,0.224-2.592-0.675-2.817-2.006c-0.429-2.708-0.408-5.469,0.064-8.17
					l4.67-27.085c0.23-1.335,1.499-2.23,2.834-2c1.335,0.23,2.23,1.499,2,2.833l-4.67,27.085c-0.377,2.162-0.397,4.37-0.058,6.538
					c0.196,1.236-0.569,2.421-1.776,2.75C204.351,204.805,204.268,204.824,204.185,204.838z"/>
			</g>
		</g>
		<g>
			<path fill="#E3E4E2" d="M539.519,230.614c17.183-3.437,28.502-19.934,25.524-37.203l-6.914-40.098h-58.863l-6.914,40.098
				c-2.978,17.269,8.342,33.767,25.524,37.203c3.44,0.688,5.915,3.708,5.915,7.215v43.021l-20.287,1.845
				c-3.79,0.344-6.691,3.522-6.691,7.327v0.639h63.768v-0.639c0-3.805-2.901-6.983-6.691-7.327l-20.288-1.845v-43.021
				C533.603,234.322,536.079,231.302,539.519,230.614z"/>
			<path fill="#ED5565" d="M528.698,242.734c2.708,0,4.904-2.196,4.904-4.905c0-3.507,2.477-6.527,5.916-7.215
				c17.183-3.437,28.502-19.934,25.524-37.203l-0.57-3.309h-71.55l-0.57,3.309c-2.978,17.269,8.342,33.767,25.524,37.203
				c3.44,0.688,5.915,3.708,5.915,7.215C523.792,240.538,525.988,242.734,528.698,242.734z"/>
			<g>
				<path fill="#F3F1F2" d="M507.987,214.704c-1.061,0.838-2.6,0.659-3.438-0.401c-0.323-0.413-0.632-0.835-0.928-1.266
					l-0.059-0.086c-0.037-0.056-0.071-0.113-0.104-0.172c-0.583-1.068-0.19-2.406,0.878-2.989l0.408-0.224
					c1.007-0.554,2.271-0.253,2.921,0.696c0.231,0.337,0.472,0.666,0.723,0.988c0.778,0.988,0.688,2.404-0.21,3.284
					C508.118,214.595,508.054,214.651,507.987,214.704z"/>
				<path fill="#F3F1F2" d="M502.355,204.838c-1.331,0.224-2.592-0.675-2.816-2.006c-0.429-2.708-0.408-5.469,0.063-8.17
					l4.67-27.085c0.23-1.335,1.499-2.23,2.833-2c1.336,0.23,2.23,1.499,2.001,2.833l-4.671,27.085
					c-0.376,2.162-0.396,4.37-0.057,6.538c0.197,1.235-0.569,2.421-1.775,2.75C502.522,204.805,502.439,204.824,502.355,204.838z"/>
			</g>
		</g>
		<g>
			<path fill="#E3E4E2" d="M241.347,409.188c17.183-3.437,28.502-19.934,25.525-37.203l-6.913-40.098h-58.864l-6.913,40.098
				c-2.978,17.269,8.341,33.767,25.525,37.203c3.439,0.688,5.915,3.708,5.915,7.215v43.021l-20.287,1.845
				c-3.79,0.344-6.692,3.522-6.692,7.327v0.639h63.769v-0.639c0-3.805-2.902-6.983-6.691-7.327l-20.288-1.845v-43.021
				C235.432,412.895,237.907,409.875,241.347,409.188z"/>
			<path fill="#ED5565" d="M230.526,421.308c2.709,0,4.905-2.196,4.905-4.905c0-3.508,2.476-6.527,5.915-7.215
				c17.183-3.437,28.502-19.934,25.525-37.203l-0.571-3.309h-71.549l-0.57,3.309c-2.978,17.269,8.341,33.767,25.525,37.203
				c3.439,0.688,5.915,3.708,5.915,7.215C225.621,419.112,227.817,421.308,230.526,421.308z"/>
			<g>
				<path fill="#F3F1F2" d="M209.815,393.277c-1.059,0.838-2.599,0.659-3.437-0.401c-0.323-0.413-0.632-0.834-0.927-1.266
					l-0.059-0.085c-0.038-0.056-0.072-0.114-0.104-0.173c-0.583-1.068-0.19-2.405,0.878-2.989l0.408-0.224
					c1.008-0.554,2.272-0.253,2.922,0.696c0.231,0.337,0.472,0.666,0.723,0.988c0.779,0.988,0.689,2.404-0.21,3.284
					C209.947,393.168,209.882,393.224,209.815,393.277z"/>
				<path fill="#F3F1F2" d="M204.185,383.411c-1.332,0.224-2.592-0.675-2.817-2.006c-0.429-2.708-0.408-5.469,0.064-8.17
					l4.67-27.085c0.23-1.335,1.499-2.231,2.834-2s2.23,1.499,2,2.834l-4.67,27.085c-0.377,2.161-0.397,4.37-0.058,6.538
					c0.196,1.235-0.569,2.42-1.776,2.75C204.351,383.379,204.268,383.397,204.185,383.411z"/>
			</g>
		</g>
		<g>
			<path fill="#E3E4E2" d="M539.519,409.188c17.183-3.437,28.502-19.934,25.524-37.203l-6.914-40.098h-58.863l-6.914,40.098
				c-2.978,17.269,8.342,33.767,25.524,37.203c3.44,0.688,5.915,3.708,5.915,7.215v43.021l-20.287,1.845
				c-3.79,0.344-6.691,3.522-6.691,7.327v0.639h63.768v-0.639c0-3.805-2.901-6.983-6.691-7.327l-20.288-1.845v-43.021
				C533.603,412.895,536.079,409.875,539.519,409.188z"/>
			<path fill="#ED5565" d="M528.698,421.308c2.708,0,4.904-2.196,4.904-4.905c0-3.508,2.477-6.527,5.916-7.215
				c17.183-3.437,28.502-19.934,25.524-37.203l-0.57-3.309h-71.55l-0.57,3.309c-2.978,17.269,8.342,33.767,25.524,37.203
				c3.44,0.688,5.915,3.708,5.915,7.215C523.792,419.112,525.988,421.308,528.698,421.308z"/>
			<g>
				<path fill="#F3F1F2" d="M507.987,393.277c-1.061,0.838-2.6,0.659-3.438-0.401c-0.323-0.413-0.632-0.834-0.928-1.266
					l-0.059-0.085c-0.037-0.056-0.071-0.114-0.104-0.173c-0.583-1.068-0.19-2.405,0.878-2.989l0.408-0.224
					c1.007-0.554,2.271-0.253,2.921,0.696c0.231,0.337,0.472,0.666,0.723,0.988c0.778,0.988,0.688,2.404-0.21,3.284
					C508.118,393.168,508.054,393.224,507.987,393.277z"/>
				<path fill="#F3F1F2" d="M502.355,383.411c-1.331,0.224-2.592-0.675-2.816-2.006c-0.429-2.708-0.408-5.469,0.063-8.17
					l4.67-27.085c0.23-1.335,1.499-2.231,2.833-2c1.336,0.23,2.23,1.499,2.001,2.834l-4.671,27.085
					c-0.376,2.161-0.396,4.37-0.057,6.538c0.197,1.235-0.569,2.42-1.775,2.75C502.522,383.379,502.439,383.397,502.355,383.411z"/>
			</g>
		</g>
		<g>
			<path fill="#E3E4E2" d="M393.474,327.816c17.182-3.437,28.502-19.934,25.524-37.203l-6.914-40.098h-58.863l-6.913,40.098
				c-2.978,17.269,8.342,33.767,25.525,37.203c3.439,0.688,5.914,3.708,5.914,7.215v43.021l-20.286,1.845
				c-3.79,0.344-6.692,3.522-6.692,7.327v0.64h63.768v-0.64c0-3.805-2.901-6.982-6.691-7.327l-20.288-1.845v-43.021
				C387.558,331.524,390.033,328.504,393.474,327.816z"/>
			<path fill="#ED5565" d="M382.653,339.937c2.708,0,4.905-2.196,4.905-4.905c0-3.507,2.475-6.527,5.916-7.215
				c17.182-3.437,28.502-19.934,25.524-37.203l-0.571-3.309h-71.549l-0.569,3.309c-2.978,17.269,8.342,33.767,25.525,37.203
				c3.439,0.688,5.914,3.708,5.914,7.215C377.747,337.741,379.944,339.937,382.653,339.937z"/>
			<g>
				<path fill="#F3F1F2" d="M361.941,311.906c-1.059,0.839-2.599,0.66-3.437-0.401c-0.323-0.413-0.631-0.834-0.927-1.266
					l-0.058-0.085c-0.038-0.056-0.072-0.114-0.104-0.172c-0.583-1.068-0.189-2.406,0.878-2.989l0.408-0.224
					c1.008-0.554,2.271-0.253,2.921,0.696c0.231,0.336,0.472,0.666,0.722,0.988c0.78,0.988,0.689,2.404-0.21,3.285
					C362.073,311.797,362.009,311.853,361.941,311.906z"/>
				<path fill="#F3F1F2" d="M356.311,302.04c-1.331,0.224-2.592-0.675-2.816-2.006c-0.429-2.708-0.408-5.469,0.065-8.17
					l4.669-27.085c0.231-1.335,1.499-2.23,2.834-2c1.334,0.23,2.229,1.499,2,2.834l-4.669,27.085
					c-0.377,2.161-0.397,4.37-0.057,6.537c0.196,1.235-0.569,2.421-1.776,2.75C356.477,302.008,356.395,302.026,356.311,302.04z"/>
			</g>
		</g>
		<g>
			<path fill="#E3E4E2" d="M234.159,760.29v-43.021l20.288-1.844c3.79-0.345,6.691-3.522,6.691-7.327v-0.64h-63.769v0.64
				c0,3.805,2.902,6.982,6.692,7.327l20.287,1.844v43.021c0,3.508-2.475,6.527-5.915,7.215
				c-17.183,3.437-28.502,19.935-25.525,37.203l6.914,40.098h58.863l6.913-40.098c2.978-17.269-8.342-33.767-25.525-37.203
				C236.634,766.817,234.159,763.798,234.159,760.29z"/>
			<path fill="#ED5565" d="M224.348,760.29c0,3.508-2.475,6.527-5.915,7.215c-17.183,3.437-28.502,19.935-25.525,37.203l0.57,3.309
				h71.549l0.571-3.309c2.978-17.269-8.342-33.767-25.525-37.203c-3.439-0.688-5.915-3.707-5.915-7.215
				c0-2.71-2.196-4.905-4.905-4.905C226.544,755.385,224.348,757.58,224.348,760.29z"/>
			<g>
				<path fill="#F3F1F2" d="M208.735,783.584c0.899,0.88,0.989,2.297,0.21,3.285c-0.25,0.321-0.491,0.65-0.722,0.987
					c-0.65,0.949-1.914,1.251-2.922,0.696l-0.407-0.224c-1.068-0.583-1.461-1.921-0.878-2.989c0.033-0.059,0.067-0.116,0.104-0.172
					l0.059-0.086c0.295-0.431,0.604-0.853,0.927-1.266c0.838-1.06,2.378-1.239,3.437-0.4
					C208.61,783.469,208.674,783.524,208.735,783.584z"/>
				<path fill="#F3F1F2" d="M203.16,793.337c1.207,0.329,1.972,1.515,1.776,2.75c-0.339,2.167-0.32,4.376,0.058,6.537l4.67,27.085
					c0.23,1.335-0.665,2.604-2,2.834s-2.603-0.665-2.834-2l-4.67-27.085c-0.472-2.701-0.494-5.463-0.064-8.171
					c0.224-1.331,1.485-2.229,2.816-2.006C202.995,793.295,203.078,793.313,203.16,793.337z"/>
			</g>
		</g>
		<g>
			<path fill="#E3E4E2" d="M532.33,760.29v-43.021l20.287-1.844c3.79-0.345,6.692-3.522,6.692-7.327v-0.64h-63.769v0.64
				c0,3.805,2.902,6.982,6.692,7.327l20.286,1.844v43.021c0,3.508-2.476,6.527-5.914,7.215
				c-17.184,3.437-28.502,19.935-25.525,37.203l6.913,40.098h58.864l6.912-40.098c2.978-17.269-8.342-33.767-25.524-37.203
				C534.806,766.817,532.33,763.798,532.33,760.29z"/>
			<path fill="#ED5565" d="M522.52,760.29c0,3.508-2.476,6.527-5.914,7.215c-17.184,3.437-28.502,19.935-25.525,37.203l0.569,3.309
				h71.549l0.57-3.309c2.978-17.269-8.342-33.767-25.524-37.203c-3.439-0.688-5.915-3.707-5.915-7.215
				c0-2.71-2.196-4.905-4.905-4.905S522.52,757.58,522.52,760.29z"/>
			<g>
				<path fill="#F3F1F2" d="M506.906,783.584c0.899,0.88,0.989,2.297,0.21,3.285c-0.249,0.321-0.49,0.65-0.722,0.987
					c-0.65,0.949-1.915,1.251-2.922,0.696l-0.408-0.224c-1.068-0.583-1.461-1.921-0.878-2.989c0.032-0.059,0.067-0.116,0.104-0.172
					l0.059-0.086c0.296-0.431,0.604-0.853,0.928-1.266c0.838-1.06,2.378-1.239,3.437-0.4
					C506.78,783.469,506.845,783.524,506.906,783.584z"/>
				<path fill="#F3F1F2" d="M501.331,793.337c1.207,0.329,1.973,1.515,1.775,2.75c-0.339,2.167-0.319,4.376,0.059,6.537
					l4.669,27.085c0.23,1.335-0.665,2.604-1.999,2.834c-1.336,0.23-2.604-0.665-2.835-2l-4.67-27.085
					c-0.471-2.701-0.493-5.463-0.063-8.171c0.224-1.331,1.485-2.229,2.816-2.006C501.167,793.295,501.25,793.313,501.331,793.337z"
					/>
			</g>
		</g>
		<g>
			<path fill="#E3E4E2" d="M234.159,581.717v-43.021l20.288-1.844c3.79-0.345,6.691-3.522,6.691-7.328v-0.639h-63.769v0.639
				c0,3.806,2.902,6.983,6.692,7.328l20.287,1.844v43.021c0,3.507-2.475,6.526-5.915,7.215
				c-17.183,3.437-28.502,19.935-25.525,37.203l6.914,40.098h58.863l6.913-40.098c2.978-17.269-8.342-33.767-25.525-37.203
				C236.634,588.243,234.159,585.224,234.159,581.717z"/>
			<path fill="#ED5565" d="M224.348,581.717c0,3.507-2.475,6.526-5.915,7.215c-17.183,3.437-28.502,19.935-25.525,37.203l0.57,3.309
				h71.549l0.571-3.309c2.978-17.269-8.342-33.767-25.525-37.203c-3.439-0.688-5.915-3.708-5.915-7.215
				c0-2.709-2.196-4.905-4.905-4.905C226.544,576.812,224.348,579.008,224.348,581.717z"/>
			<g>
				<path fill="#F3F1F2" d="M208.735,605.011c0.899,0.881,0.989,2.297,0.21,3.284c-0.25,0.322-0.491,0.651-0.722,0.988
					c-0.65,0.949-1.914,1.25-2.922,0.696l-0.407-0.224c-1.068-0.583-1.461-1.921-0.878-2.988c0.033-0.06,0.067-0.117,0.104-0.173
					l0.059-0.086c0.295-0.431,0.604-0.853,0.927-1.266c0.838-1.061,2.378-1.239,3.437-0.4
					C208.61,604.896,208.674,604.951,208.735,605.011z"/>
				<path fill="#F3F1F2" d="M203.16,614.763c1.207,0.329,1.972,1.515,1.776,2.751c-0.339,2.168-0.32,4.376,0.058,6.537l4.67,27.085
					c0.23,1.335-0.665,2.604-2,2.834c-1.335,0.229-2.603-0.665-2.834-2l-4.67-27.086c-0.472-2.701-0.494-5.462-0.064-8.169
					c0.224-1.333,1.485-2.23,2.816-2.007C202.995,614.722,203.078,614.74,203.16,614.763z"/>
			</g>
		</g>
		<g>
			<path fill="#E3E4E2" d="M532.33,581.717v-43.021l20.287-1.844c3.79-0.345,6.692-3.522,6.692-7.328v-0.639h-63.769v0.639
				c0,3.806,2.902,6.983,6.692,7.328l20.286,1.844v43.021c0,3.507-2.476,6.526-5.914,7.215
				c-17.184,3.437-28.502,19.935-25.525,37.203l6.913,40.098h58.864l6.912-40.098c2.978-17.269-8.342-33.767-25.524-37.203
				C534.806,588.243,532.33,585.224,532.33,581.717z"/>
			<path fill="#ED5565" d="M522.52,581.717c0,3.507-2.476,6.526-5.914,7.215c-17.184,3.437-28.502,19.935-25.525,37.203l0.569,3.309
				h71.549l0.57-3.309c2.978-17.269-8.342-33.767-25.524-37.203c-3.439-0.688-5.915-3.708-5.915-7.215
				c0-2.709-2.196-4.905-4.905-4.905S522.52,579.008,522.52,581.717z"/>
			<g>
				<path fill="#F3F1F2" d="M506.906,605.011c0.899,0.881,0.989,2.297,0.21,3.284c-0.249,0.322-0.49,0.651-0.722,0.988
					c-0.65,0.949-1.915,1.25-2.922,0.696l-0.408-0.224c-1.068-0.583-1.461-1.921-0.878-2.988c0.032-0.06,0.067-0.117,0.104-0.173
					l0.059-0.086c0.296-0.431,0.604-0.853,0.928-1.266c0.838-1.061,2.378-1.239,3.437-0.4
					C506.78,604.896,506.845,604.951,506.906,605.011z"/>
				<path fill="#F3F1F2" d="M501.331,614.763c1.207,0.329,1.973,1.515,1.775,2.751c-0.339,2.168-0.319,4.376,0.059,6.537
					l4.669,27.085c0.23,1.335-0.665,2.604-1.999,2.834c-1.336,0.229-2.604-0.665-2.835-2l-4.67-27.085
					c-0.471-2.702-0.493-5.463-0.063-8.17c0.224-1.333,1.485-2.23,2.816-2.007C501.167,614.722,501.25,614.74,501.331,614.763z"/>
			</g>
		</g>
		<g>
			<path fill="#E3E4E2" d="M386.285,663.088v-43.021l20.288-1.846c3.79-0.344,6.692-3.521,6.692-7.327v-0.639h-63.769v0.639
				c0,3.806,2.902,6.983,6.692,7.327l20.287,1.846v43.021c0,3.507-2.476,6.526-5.915,7.215
				c-17.183,3.437-28.502,19.934-25.525,37.203l6.913,40.098h58.863l6.914-40.098c2.978-17.27-8.342-33.767-25.524-37.203
				C388.761,669.614,386.285,666.595,386.285,663.088z"/>
			<path fill="#ED5565" d="M376.475,663.088c0,3.507-2.476,6.526-5.915,7.215c-17.183,3.437-28.502,19.934-25.525,37.203l0.57,3.309
				h71.549l0.57-3.309c2.978-17.27-8.342-33.767-25.524-37.203c-3.439-0.688-5.916-3.708-5.916-7.215
				c0-2.709-2.196-4.905-4.905-4.905C378.67,658.183,376.475,660.379,376.475,663.088z"/>
			<g>
				<path fill="#F3F1F2" d="M360.861,686.382c0.899,0.881,0.99,2.297,0.21,3.284c-0.25,0.322-0.491,0.652-0.722,0.988
					c-0.65,0.949-1.914,1.25-2.922,0.696l-0.408-0.224c-1.067-0.583-1.461-1.921-0.878-2.989c0.032-0.059,0.066-0.116,0.104-0.172
					l0.058-0.086c0.296-0.431,0.605-0.853,0.928-1.266c0.837-1.061,2.377-1.239,3.438-0.401
					C360.736,686.266,360.801,686.322,360.861,686.382z"/>
				<path fill="#F3F1F2" d="M355.286,696.134c1.207,0.329,1.972,1.515,1.776,2.75c-0.34,2.168-0.32,4.377,0.057,6.538l4.67,27.085
					c0.23,1.335-0.666,2.604-2,2.834c-1.335,0.23-2.603-0.665-2.833-2.001l-4.67-27.085c-0.473-2.7-0.494-5.462-0.065-8.17
					c0.225-1.332,1.485-2.229,2.817-2.006C355.122,696.093,355.206,696.111,355.286,696.134z"/>
			</g>
		</g>
	</g>
</g>
</svg>
