<?xml version="1.0" encoding="utf-8"?>
<!-- Generator: Adobe Illustrator 16.0.0, SVG Export Plug-In . SVG Version: 6.00 Build 0)  -->
<!DOCTYPE svg PUBLIC "-//W3C//DTD SVG 1.1//EN" "http://www.w3.org/Graphics/SVG/1.1/DTD/svg11.dtd">
<svg version="1.1" id="Layer_1" xmlns="http://www.w3.org/2000/svg" xmlns:xlink="http://www.w3.org/1999/xlink" x="0px" y="0px"
	 width="1000px" height="1000px" viewBox="0 0 1000 1000" enable-background="new 0 0 1000 1000" xml:space="preserve">
<g id="d_1_">
	<path fill="#FFF2D2" d="M718.121,916.285c0,37.948-30.764,68.715-68.714,68.715H99.689c-37.952,0-68.714-30.767-68.714-68.715
		V91.709c0-37.95,30.763-68.715,68.714-68.715h549.718c37.95,0,68.714,30.766,68.714,68.715V916.285z"/>
	<path fill="#FFD47D" d="M87.22,468.69V145.351c4.577,1.479,9.459,2.272,14.527,2.272c26.214,0,47.468-21.254,47.468-47.475
		c0-7.502-1.744-14.6-4.843-20.905c0.101-0.005,0.208-0.005,0.31-0.005h459.73c31.737,0,57.463,27.166,57.463,60.68V468.69"/>
	<path fill="#FFD47D" d="M661.878,468.69l-0.002,394.028c-4.577-1.479-9.46-2.272-14.527-2.272
		c-26.214,0-47.469,21.254-47.469,47.475c0,7.503,1.744,14.6,4.843,20.905c-0.101,0.006-0.208,0.006-0.31,0.006h-459.73
		c-31.738,0-57.463-27.166-57.463-60.681l-0.003-399.46"/>
	<path fill="none" stroke="#231F20" stroke-width="5" stroke-miterlimit="10" d="M661.878,858.145"/>
	<rect x="62.776" y="62.314" fill="none" width="67.938" height="75.67"/>
	<text transform="matrix(1 0 0 1 62.7764 126.4111)" fill="#ED5565" font-family="'Arvo'" font-size="84.3636">D</text>
	<path fill="none" stroke="#231F20" stroke-width="5" stroke-miterlimit="10" d="M661.878,468.69"/>
	<path fill="none" stroke="#231F20" stroke-width="5" stroke-miterlimit="10" d="M403.281,468.69"/>
	<path fill="none" stroke="#231F20" stroke-width="5" stroke-miterlimit="10" d="M87.217,468.69"/>
	<path fill="none" stroke="#231F20" stroke-width="5" stroke-miterlimit="10" d="M403.281,468.69"/>
	<rect x="612.836" y="863.42" fill="none" width="68.537" height="82.333"/>
	<text transform="matrix(-1 0 0 -1 681.373 881.6553)" fill="#ED5565" font-family="'Arvo'" font-size="84.3636">D</text>
	<path fill="none" stroke="#231F20" stroke-width="5" stroke-miterlimit="10" d="M661.878,539.377"/>
	<path fill="none" stroke="#231F20" stroke-width="5" stroke-miterlimit="10" d="M345.814,539.377"/>
	<g>
		<path fill="#656D78" d="M359.072,415.798v359.664c0,11.638,9.52,21.157,21.156,21.157h148.097c11.741,0,21.157-9.52,21.157-21.157
			V415.798c0-41.466-26.447-76.693-63.471-89.813v-26.549h-63.47v26.549C385.621,339.105,359.072,374.332,359.072,415.798z"/>
		<path fill="#ED5565" d="M486.012,193.55h-63.47v-52.789h63.47V193.55z"/>
		<path fill="#DA4453" d="M486.012,299.437h-63.47V193.55h63.47V299.437z"/>
		<path fill="#ED5565" d="M390.807,690.814V489.868h126.94v200.947H390.807z"/>
		<path fill="#656D78" d="M359.072,415.798v359.664c0,11.638,9.52,21.157,21.156,21.157h31.767c-11.638,0-21.157-9.52-21.157-21.157
			v-63.47h-0.031V468.69h0.031v-42.303c0-41.467,26.554-76.693,63.47-89.808v-37.143h-31.766v26.549
			C385.621,339.105,359.072,374.332,359.072,415.798z"/>
		<path fill="#D3374E" d="M454.308,299.437h-31.766V193.55h31.766V299.437z"/>
		<g>
			<path fill="#DA4453" d="M454.308,193.55h-31.766v-52.789h31.766V193.55z"/>
			<path fill="#DA4453" d="M470.145,532.057c8.78,0,15.867,7.189,15.867,15.867c0,8.776-7.087,15.868-15.867,15.868
				c-8.782,0-15.868-7.092-15.868-15.868C454.277,539.246,461.363,532.057,470.145,532.057z"/>
			<path fill="#DA4453" d="M470.145,575.362c0,8.78-7.088,15.867-15.868,15.867c-8.78,0-15.868-7.087-15.868-15.867
				c0-8.673,7.087-15.868,15.868-15.868C463.057,559.494,470.145,566.689,470.145,575.362z"/>
			<path fill="#DA4453" d="M438.409,563.792c-8.78,0-15.868-7.092-15.868-15.868c0-8.678,7.087-15.867,15.868-15.867
				c8.781,0,15.868,7.189,15.868,15.867C454.277,556.7,447.19,563.792,438.409,563.792z"/>
			<path fill="#DA4453" d="M411.984,616.734c0-5.852,4.731-10.577,10.579-10.577h63.491c5.852,0,10.577,4.726,10.577,10.577
				c0,5.848-4.726,10.579-10.577,10.579h-63.491C416.715,627.313,411.984,622.582,411.984,616.734z"/>
			<path fill="#DA4453" d="M433.162,648.48c0-5.853,4.731-10.578,10.579-10.578h21.136c5.852,0,10.579,4.726,10.579,10.578
				c0,5.848-4.727,10.578-10.579,10.578H443.74C437.893,659.059,433.162,654.328,433.162,648.48z"/>
		</g>
		<path fill="#E3E4E2" d="M287.01,686.463c31.523-6.305,52.289-36.569,46.826-68.25l-12.683-73.561H213.167l-12.683,73.561
			c-5.462,31.681,15.303,61.945,46.826,68.25c6.31,1.262,10.851,6.802,10.851,13.236v78.922l-37.217,3.384
			c-6.952,0.633-12.275,6.462-12.276,13.442v1.172h116.984v-1.172c0-6.98-5.324-12.811-12.276-13.442l-37.217-3.384v-78.922
			C276.159,693.265,280.701,687.725,287.01,686.463z"/>
		<path fill="#ED5565" d="M267.16,708.697c4.97,0,8.999-4.028,8.999-8.998c0-6.435,4.542-11.975,10.851-13.236
			c31.523-6.305,52.289-36.569,46.826-68.25l-1.045-6.069H201.531l-1.046,6.069c-5.462,31.681,15.303,61.945,46.826,68.25
			c6.31,1.262,10.851,6.802,10.851,13.236C258.162,704.669,262.191,708.697,267.16,708.697z"/>
		<g>
			<path fill="#F3F1F2" d="M229.167,657.274c-1.944,1.538-4.768,1.209-6.306-0.735c-0.592-0.758-1.159-1.531-1.702-2.322
				l-0.107-0.156c-0.068-0.104-0.132-0.209-0.191-0.316c-1.069-1.959-0.348-4.414,1.611-5.483l0.748-0.411
				c1.849-1.016,4.167-0.463,5.36,1.277c0.424,0.618,0.866,1.222,1.326,1.813c1.43,1.813,1.263,4.411-0.386,6.025
				C229.406,657.074,229.289,657.178,229.167,657.274z"/>
			<path fill="#F3F1F2" d="M218.836,639.176c-2.443,0.41-4.756-1.237-5.167-3.681c-0.788-4.968-0.749-10.033,0.117-14.988
				l8.567-49.688c0.422-2.449,2.75-4.092,5.199-3.67c2.449,0.423,4.091,2.75,3.669,5.199l-8.566,49.688
				c-0.693,3.965-0.729,8.017-0.105,11.993c0.36,2.267-1.045,4.441-3.259,5.045C219.141,639.116,218.989,639.15,218.836,639.176z"/>
		</g>
	</g>
</g>
</svg>
