<?xml version="1.0" encoding="utf-8"?>
<!-- Generator: Adobe Illustrator 16.0.0, SVG Export Plug-In . SVG Version: 6.00 Build 0)  -->
<!DOCTYPE svg PUBLIC "-//W3C//DTD SVG 1.1//EN" "http://www.w3.org/Graphics/SVG/1.1/DTD/svg11.dtd">
<svg version="1.1" id="Layer_1" xmlns="http://www.w3.org/2000/svg" xmlns:xlink="http://www.w3.org/1999/xlink" x="0px" y="0px"
	 width="1000px" height="1000px" viewBox="0 0 1000 1000" enable-background="new 0 0 1000 1000" xml:space="preserve">
<g id="_x36__1_">
	<path fill="#FFF2D2" d="M699.816,906.524c0,37.293-30.232,67.527-67.527,67.527H92.067c-37.296,0-67.528-30.234-67.528-67.527
		V96.192c0-37.294,30.231-67.528,67.528-67.528h540.222c37.295,0,67.527,30.234,67.527,67.528V906.524z"/>
	<path fill="#FFD47D" d="M79.813,466.661V148.908c4.498,1.453,9.296,2.232,14.276,2.232c25.761,0,46.648-20.886,46.648-46.654
		c0-7.373-1.714-14.348-4.759-20.544c0.099-0.005,0.205-0.005,0.305-0.005h451.789c31.189,0,56.471,26.696,56.471,59.632v323.092"/>
	<path fill="#FFD47D" d="M644.545,466.661l-0.002,387.221c-4.499-1.453-9.297-2.232-14.277-2.232
		c-25.761,0-46.647,20.886-46.647,46.654c0,7.373,1.713,14.348,4.759,20.544c-0.1,0.005-0.205,0.005-0.305,0.005H136.284
		c-31.19,0-56.47-26.696-56.47-59.632l-0.003-392.56"/>
	<path fill="none" stroke="#231F20" stroke-width="5" stroke-miterlimit="10" d="M644.545,849.388"/>
	<g>
		<rect x="66.164" y="75.436" fill="none" width="100.15" height="88.845"/>
		<text transform="matrix(1 0 0 1 66.165 138.4258)" fill="#ED5565" font-family="'Arvo'" font-size="82.9063">6</text>
	</g>
	<path fill="none" stroke="#231F20" stroke-width="5" stroke-miterlimit="10" d="M644.545,466.661"/>
	<path fill="none" stroke="#231F20" stroke-width="5" stroke-miterlimit="10" d="M390.415,466.661"/>
	<path fill="none" stroke="#231F20" stroke-width="5" stroke-miterlimit="10" d="M79.811,466.661"/>
	<path fill="none" stroke="#231F20" stroke-width="5" stroke-miterlimit="10" d="M390.415,466.661"/>
	<path fill="none" stroke="#231F20" stroke-width="5" stroke-miterlimit="10" d="M644.545,536.127"/>
	<path fill="none" stroke="#231F20" stroke-width="5" stroke-miterlimit="10" d="M333.941,536.127"/>
	<g>
		<rect x="555.117" y="839.309" fill="none" width="100.15" height="88.846"/>
		<text transform="matrix(-1 0 0 -1 655.2676 865.165)" fill="#ED5565" font-family="'Arvo'" font-size="82.9063">6</text>
	</g>
	<g>
		<g>
			<path fill="#E3E4E2" d="M224.111,228.203c17.237-3.447,28.593-19.998,25.606-37.321l-6.936-40.226H183.73l-6.935,40.226
				c-2.987,17.324,8.368,33.874,25.606,37.321c3.451,0.69,5.934,3.719,5.934,7.238v43.158l-20.352,1.851
				c-3.802,0.346-6.713,3.533-6.713,7.351v0.641h63.971V287.8c0-3.817-2.911-7.005-6.713-7.351l-20.352-1.851v-43.158
				C218.177,231.922,220.66,228.893,224.111,228.203z"/>
			<path fill="#ED5565" d="M213.256,240.362c2.717,0,4.92-2.203,4.92-4.921c0-3.519,2.483-6.548,5.934-7.238
				c17.237-3.447,28.593-19.998,25.606-37.321l-0.572-3.319h-71.778l-0.571,3.319c-2.987,17.324,8.368,33.874,25.606,37.321
				c3.451,0.69,5.934,3.719,5.934,7.238C208.335,238.159,210.538,240.362,213.256,240.362z"/>
			<g>
				<path fill="#F3F1F2" d="M192.479,212.241c-1.063,0.841-2.607,0.662-3.448-0.402c-0.324-0.415-0.633-0.837-0.93-1.27
					l-0.059-0.086c-0.037-0.056-0.072-0.113-0.104-0.172c-0.584-1.072-0.191-2.414,0.881-2.999l0.409-0.225
					c1.011-0.556,2.279-0.253,2.931,0.698c0.231,0.338,0.474,0.668,0.725,0.991c0.781,0.991,0.691,2.412-0.21,3.295
					C192.611,212.132,192.546,212.188,192.479,212.241z"/>
				<path fill="#F3F1F2" d="M186.83,202.344c-1.335,0.225-2.601-0.676-2.825-2.013c-0.431-2.716-0.409-5.486,0.063-8.196
					l4.685-27.171c0.231-1.339,1.504-2.238,2.843-2.007c1.339,0.231,2.237,1.504,2.006,2.843l-4.685,27.171
					c-0.378,2.168-0.398,4.384-0.058,6.559c0.198,1.239-0.571,2.428-1.781,2.759C186.997,202.312,186.914,202.33,186.83,202.344z"/>
			</g>
		</g>
		<g>
			<path fill="#E3E4E2" d="M523.231,228.203c17.237-3.447,28.593-19.998,25.605-37.321l-6.936-40.226h-59.05l-6.936,40.226
				c-2.987,17.324,8.368,33.874,25.605,37.321c3.451,0.69,5.935,3.719,5.935,7.238v43.158l-20.352,1.851
				c-3.802,0.346-6.712,3.533-6.713,7.351v0.641h63.972V287.8c0-3.817-2.911-7.005-6.713-7.351l-20.352-1.851v-43.158
				C517.298,231.922,519.781,228.893,523.231,228.203z"/>
			<path fill="#ED5565" d="M512.377,240.362c2.718,0,4.921-2.203,4.921-4.921c0-3.519,2.483-6.548,5.934-7.238
				c17.237-3.447,28.593-19.998,25.605-37.321l-0.572-3.319h-71.777l-0.572,3.319c-2.987,17.324,8.368,33.874,25.605,37.321
				c3.451,0.69,5.935,3.719,5.935,7.238C507.456,238.159,509.659,240.362,512.377,240.362z"/>
			<g>
				<path fill="#F3F1F2" d="M491.6,212.241c-1.063,0.841-2.607,0.662-3.448-0.402c-0.324-0.415-0.634-0.837-0.93-1.27l-0.06-0.086
					c-0.037-0.056-0.072-0.113-0.104-0.173c-0.585-1.071-0.191-2.414,0.881-2.998l0.409-0.225c1.011-0.556,2.279-0.253,2.931,0.698
					c0.231,0.338,0.473,0.668,0.725,0.991c0.781,0.991,0.69,2.412-0.211,3.295C491.731,212.132,491.667,212.188,491.6,212.241z"/>
				<path fill="#F3F1F2" d="M485.951,202.344c-1.335,0.225-2.6-0.676-2.825-2.013c-0.432-2.716-0.41-5.486,0.063-8.196l4.685-27.171
					c0.231-1.339,1.504-2.238,2.842-2.007c1.34,0.231,2.238,1.504,2.007,2.843l-4.685,27.171c-0.378,2.168-0.398,4.384-0.057,6.559
					c0.197,1.239-0.571,2.428-1.782,2.759C486.118,202.312,486.035,202.33,485.951,202.344z"/>
			</g>
		</g>
		<g>
			<path fill="#E3E4E2" d="M216.899,759.565v-43.157l20.352-1.851c3.802-0.346,6.713-3.534,6.713-7.352v-0.641h-63.972v0.641
				c0,3.817,2.911,7.006,6.714,7.352l20.351,1.851v43.157c0,3.519-2.483,6.548-5.933,7.238
				c-17.238,3.446-28.593,19.998-25.606,37.321l6.935,40.226h59.051l6.935-40.226c2.987-17.323-8.368-33.875-25.606-37.321
				C219.383,766.113,216.899,763.084,216.899,759.565z"/>
			<path fill="#ED5565" d="M207.058,759.565c0,3.519-2.483,6.548-5.933,7.238c-17.238,3.446-28.593,19.998-25.606,37.321
				l0.571,3.318h71.777l0.572-3.318c2.987-17.323-8.368-33.875-25.606-37.321c-3.45-0.69-5.934-3.72-5.934-7.238
				c0-2.718-2.203-4.921-4.92-4.921C209.261,754.645,207.058,756.848,207.058,759.565z"/>
			<g>
				<path fill="#F3F1F2" d="M191.395,782.934c0.902,0.883,0.993,2.304,0.21,3.295c-0.251,0.323-0.492,0.654-0.724,0.992
					c-0.652,0.951-1.92,1.254-2.931,0.698l-0.409-0.226c-1.072-0.584-1.466-1.927-0.881-2.998c0.033-0.06,0.067-0.116,0.105-0.173
					l0.058-0.086c0.297-0.433,0.607-0.855,0.931-1.27c0.841-1.063,2.385-1.244,3.448-0.402
					C191.27,782.817,191.333,782.874,191.395,782.934z"/>
				<path fill="#F3F1F2" d="M185.802,792.717c1.21,0.331,1.979,1.52,1.781,2.76c-0.341,2.174-0.321,4.39,0.058,6.558l4.684,27.171
					c0.231,1.34-0.667,2.612-2.006,2.844c-1.339,0.23-2.612-0.668-2.843-2.007l-4.685-27.171c-0.474-2.71-0.495-5.479-0.064-8.197
					c0.225-1.336,1.49-2.236,2.825-2.012C185.637,792.676,185.72,792.694,185.802,792.717z"/>
			</g>
		</g>
		<g>
			<path fill="#E3E4E2" d="M516.021,759.565v-43.157l20.353-1.851c3.802-0.346,6.713-3.534,6.713-7.352v-0.641h-63.972v0.641
				c0,3.817,2.911,7.006,6.713,7.352l20.352,1.851v43.157c0,3.519-2.482,6.548-5.934,7.238
				c-17.238,3.446-28.593,19.998-25.606,37.321l6.936,40.226h59.05l6.936-40.226c2.986-17.323-8.369-33.875-25.605-37.321
				C518.504,766.113,516.021,763.084,516.021,759.565z"/>
			<path fill="#ED5565" d="M506.179,759.565c0,3.519-2.482,6.548-5.934,7.238c-17.238,3.446-28.593,19.998-25.606,37.321
				l0.572,3.318h71.777l0.572-3.318c2.986-17.323-8.369-33.875-25.605-37.321c-3.451-0.69-5.935-3.72-5.935-7.238
				c0-2.718-2.203-4.921-4.92-4.921C508.382,754.645,506.179,756.848,506.179,759.565z"/>
			<g>
				<path fill="#F3F1F2" d="M490.516,782.934c0.902,0.883,0.992,2.304,0.21,3.295c-0.251,0.323-0.493,0.654-0.724,0.992
					c-0.652,0.951-1.92,1.254-2.932,0.698l-0.409-0.226c-1.072-0.584-1.466-1.927-0.881-2.998c0.033-0.06,0.067-0.116,0.105-0.173
					l0.059-0.086c0.297-0.433,0.607-0.855,0.931-1.27c0.841-1.063,2.385-1.244,3.448-0.402
					C490.39,782.817,490.455,782.874,490.516,782.934z"/>
				<path fill="#F3F1F2" d="M484.923,792.717c1.21,0.331,1.979,1.52,1.781,2.76c-0.341,2.174-0.321,4.39,0.058,6.558l4.685,27.171
					c0.231,1.34-0.667,2.612-2.006,2.844c-1.339,0.23-2.612-0.668-2.843-2.007l-4.685-27.171c-0.473-2.71-0.495-5.479-0.064-8.197
					c0.225-1.336,1.49-2.236,2.825-2.012C484.758,792.676,484.841,792.694,484.923,792.717z"/>
			</g>
		</g>
	</g>
	<g>
		<path fill="#E3E4E2" d="M222.833,522.103c17.238-3.447,28.593-19.998,25.606-37.321l-6.935-40.226h-59.051l-6.935,40.226
			c-2.987,17.323,8.369,33.874,25.606,37.321c3.45,0.69,5.934,3.72,5.934,7.238v43.157l-20.351,1.851
			c-3.802,0.346-6.714,3.533-6.714,7.351v0.641h63.972v-0.641c0-3.817-2.911-7.005-6.713-7.351l-20.352-1.851v-43.157
			C216.9,525.822,219.383,522.793,222.833,522.103z"/>
		<path fill="#ED5565" d="M211.979,534.262c2.717,0,4.921-2.203,4.921-4.921c0-3.519,2.483-6.548,5.934-7.238
			c17.238-3.447,28.593-19.998,25.606-37.321l-0.572-3.319H176.09l-0.572,3.319c-2.987,17.323,8.369,33.874,25.606,37.321
			c3.45,0.69,5.934,3.72,5.934,7.238C207.058,532.059,209.261,534.262,211.979,534.262z"/>
		<g>
			<path fill="#F3F1F2" d="M191.202,506.141c-1.063,0.842-2.607,0.662-3.448-0.401c-0.324-0.414-0.634-0.838-0.931-1.27
				l-0.058-0.086c-0.038-0.057-0.072-0.113-0.105-0.173c-0.585-1.071-0.19-2.414,0.881-2.998l0.409-0.225
				c1.012-0.556,2.279-0.253,2.931,0.698c0.232,0.338,0.474,0.669,0.725,0.992c0.782,0.99,0.691,2.412-0.211,3.295
				C191.334,506.032,191.27,506.088,191.202,506.141z"/>
			<path fill="#F3F1F2" d="M185.553,496.245c-1.336,0.224-2.601-0.677-2.826-2.013c-0.431-2.716-0.409-5.486,0.065-8.196
				l4.685-27.171c0.231-1.339,1.504-2.238,2.843-2.006c1.339,0.231,2.237,1.503,2.006,2.842l-4.685,27.172
				c-0.379,2.168-0.398,4.383-0.057,6.558c0.196,1.239-0.571,2.429-1.782,2.759C185.721,496.212,185.637,496.23,185.553,496.245z"/>
		</g>
	</g>
	<g>
		<path fill="#E3E4E2" d="M521.955,522.103c17.237-3.447,28.593-19.998,25.605-37.321l-6.935-40.226h-59.051l-6.935,40.226
			c-2.987,17.323,8.369,33.874,25.606,37.321c3.451,0.69,5.934,3.72,5.934,7.238v43.157l-20.352,1.851
			c-3.802,0.346-6.713,3.533-6.713,7.351v0.641h63.972v-0.641c0-3.817-2.911-7.005-6.713-7.351l-20.352-1.851v-43.157
			C516.021,525.822,518.505,522.793,521.955,522.103z"/>
		<path fill="#ED5565" d="M511.101,534.262c2.717,0,4.921-2.203,4.921-4.921c0-3.519,2.483-6.548,5.934-7.238
			c17.237-3.447,28.593-19.998,25.605-37.321l-0.572-3.319h-71.777l-0.572,3.319c-2.987,17.323,8.369,33.874,25.606,37.321
			c3.451,0.69,5.934,3.72,5.934,7.238C506.18,532.059,508.382,534.262,511.101,534.262z"/>
		<g>
			<path fill="#F3F1F2" d="M490.323,506.141c-1.063,0.842-2.607,0.662-3.448-0.401c-0.324-0.414-0.634-0.838-0.931-1.27
				l-0.058-0.086c-0.038-0.057-0.072-0.113-0.105-0.173c-0.585-1.071-0.19-2.414,0.881-2.998l0.409-0.225
				c1.012-0.556,2.279-0.253,2.931,0.698c0.232,0.338,0.474,0.669,0.725,0.992c0.782,0.99,0.691,2.412-0.211,3.295
				C490.455,506.032,490.391,506.088,490.323,506.141z"/>
			<path fill="#F3F1F2" d="M484.674,496.245c-1.336,0.224-2.601-0.677-2.826-2.013c-0.431-2.716-0.409-5.486,0.065-8.196
				l4.685-27.171c0.231-1.339,1.503-2.238,2.843-2.006c1.339,0.231,2.237,1.503,2.006,2.842l-4.685,27.172
				c-0.379,2.168-0.398,4.383-0.057,6.558c0.196,1.239-0.571,2.429-1.782,2.759C484.842,496.212,484.758,496.23,484.674,496.245z"/>
		</g>
	</g>
</g>
</svg>
