<?xml version="1.0" encoding="utf-8"?>
<!-- Generator: Adobe Illustrator 16.0.0, SVG Export Plug-In . SVG Version: 6.00 Build 0)  -->
<!DOCTYPE svg PUBLIC "-//W3C//DTD SVG 1.1//EN" "http://www.w3.org/Graphics/SVG/1.1/DTD/svg11.dtd">
<svg version="1.1" id="Layer_1" xmlns="http://www.w3.org/2000/svg" xmlns:xlink="http://www.w3.org/1999/xlink" x="0px" y="0px"
	 width="677.41895px" height="948.38867px" viewBox="0 0 677.41895 948.38867" enable-background="new 0 0 677.41895 948.38867"
	 xml:space="preserve">
<g id="_x32__1_">
	<path fill="#FFF2D2" d="M677.41895,880.64648c0,37.41016-30.32813,67.74219-67.74023,67.74219H67.7417
		C30.32666,948.38867,0,918.05664,0,880.64648V67.74268C0,30.33105,30.32666,0,67.7417,0h541.93701
		c37.41211,0,67.74023,30.33105,67.74023,67.74268V880.64648z"/>
	<path fill="#FFD47D" d="M55.44873,439.38672V120.62598c4.51318,1.45801,9.32617,2.23975,14.32227,2.23975
		c25.84277,0,46.7959-20.95313,46.7959-46.80176c0-7.396-1.71924-14.39404-4.77393-20.60938
		c0.09961-0.00488,0.20508-0.00488,0.30469-0.00488h453.22363c31.28516,0,56.64648,26.78125,56.64648,59.82129v324.11768"/>
	<path fill="#FFD47D" d="M621.96973,355.25879v472.57715c-4.51172-1.45703-9.32617-2.23828-14.32031-2.23828
		c-25.84375,0-46.79688,20.95117-46.79688,46.80078c0,7.39648,1.72266,14.39648,4.77344,20.60938
		c-0.10156,0.00586-0.20508,0.00586-0.30469,0.00586H112.09863c-31.28906,0-56.64893-26.78125-56.64893-59.82031l-0.00293-454.93457
		"/>
	<path fill="none" stroke="#231F20" stroke-width="5" stroke-miterlimit="10" d="M621.97168,823.32813"/>
	<g>
		<rect x="41.75781" y="46.91992" fill="none" width="100.46777" height="89.12695"/>
	</g>
	<path fill="none" stroke="#231F20" stroke-width="5" stroke-miterlimit="10" d="M621.97168,439.38672"/>
	<path fill="none" stroke="#231F20" stroke-width="5" stroke-miterlimit="10" d="M367.03613,439.38672"/>
	<path fill="none" stroke="#231F20" stroke-width="5" stroke-miterlimit="10" d="M55.44678,439.38672"/>
	<path fill="none" stroke="#231F20" stroke-width="5" stroke-miterlimit="10" d="M367.03613,439.38672"/>
	<path fill="none" stroke="#231F20" stroke-width="5" stroke-miterlimit="10" d="M621.97168,509.07422"/>
	<path fill="none" stroke="#231F20" stroke-width="5" stroke-miterlimit="10" d="M310.38428,509.07422"/>
	<g>
		<rect x="533.09277" y="813.21875" fill="none" width="100.46875" height="89.12695"/>
	</g>
</g>
<g>
	<path fill="#FFFFFF" d="M69.50684,122.96387c-12.51904,0-24.28809-4.87549-33.14014-13.72754S22.63965,88.61475,22.63965,76.09668
		c0-12.51904,4.875-24.28857,13.72705-33.14063s20.62158-13.72754,33.14014-13.72754c12.51953,0,24.28906,4.87549,33.14111,13.72754
		c8.85303,8.85205,13.72754,20.62158,13.72754,33.14063s-4.87598,24.28857-13.72754,33.14063
		C93.79541,118.08838,82.02637,122.96387,69.50684,122.96387z"/>
	<circle fill="#D85555" cx="69.50684" cy="76.09692" r="42.51147"/>
	<g>
		<path fill="#FFCD38" d="M83.05225,65.58838c-1.23389,0.1709-2.48047-0.20801-3.41016-1.03516
			c-1.5083,1.81396-4.20068,2.06152-6.01318,0.55371c-0.30957-0.25684-0.57959-0.55469-0.80322-0.88672
			c-1.47461,2.4082-4.54883,3.28369-7.06885,2.01025v3.5127c0,1.58838-1.2876,2.87402-2.87354,2.87402
			c-1.58643,0-2.87256-1.28564-2.87256-2.87402l-0.00391-3.65039c-1.26807,0-2.4707-0.56396-3.28076-1.53955
			c-1.51318,1.34814-3.76611,1.43848-5.38574,0.22021v37.11572c0,1.06152,0.86035,1.9209,1.92236,1.9209h29.84229
			c1.06006,0,1.92041-0.85938,1.92041-1.9209V64.77344C84.44824,65.20996,83.76807,65.49023,83.05225,65.58838z"/>
		<path fill="#FFF1D7" d="M85.02344,94.18701v7.69922c0,1.0625-0.85938,1.92188-1.92188,1.92188H53.26221
			c-1.06152,0-1.92188-0.85938-1.92188-1.92188v-7.69922l1.50391,1.77832c1.36914,1.60889,3.37695,2.53564,5.49072,2.53564h19.6958
			c2.11182,0,4.11914-0.92676,5.48877-2.53564L85.02344,94.18701z"/>
		<path fill="#FFF1D7" d="M84.875,57.8291c0.00391-0.09131,0.0127-0.18311,0.0127-0.27686
			c0.00732-2.73779-2.20557-4.96436-4.94385-4.96973c-0.38672-0.00244-0.77393,0.04199-1.15039,0.13086
			c-0.64648-2.06006-2.84033-3.20508-4.90039-2.56006c-0.43066,0.13672-0.83691,0.3457-1.19531,0.61865
			c-1.69531-2.49316-5.09131-3.14063-7.5835-1.44629c-0.57031,0.38623-1.06104,0.87842-1.44775,1.44629
			c-1.71826-1.30615-4.16992-0.97363-5.47656,0.74561c-0.2749,0.35938-0.48438,0.76416-0.61865,1.1958
			c-2.6665-0.62744-5.33594,1.02539-5.96289,3.68945c-0.0874,0.37744-0.13232,0.76318-0.13135,1.14941
			c0,0.0957,0.00977,0.18555,0.01367,0.27686c-1.94678,1.33057-2.44482,3.98779-1.1123,5.93408
			c1.33008,1.94531,3.98682,2.44336,5.93262,1.1123c0.14404-0.09912,0.28125-0.20557,0.41162-0.32129
			c0.81152,0.97607,2.01563,1.54199,3.28418,1.54004l0.00391,3.6499c0,1.58789,1.28613,2.87402,2.87256,2.87402
			c1.58594,0,2.87354-1.28613,2.87354-2.87402v-3.51416c2.52002,1.27148,5.59424,0.396,7.06689-2.01025
			c1.32324,1.95215,3.97803,2.46143,5.93018,1.1377c0.33203-0.2251,0.63135-0.49512,0.88672-0.8042
			c1.76807,1.55859,4.46631,1.39258,6.02588-0.37695c1.55957-1.76709,1.39111-4.46387-0.37695-6.0249
			c-0.13184-0.11523-0.271-0.22363-0.41699-0.32373L84.875,57.8291z"/>
		<g>
			<path fill="#F7B521" d="M76.60107,91.25879c-0.46484,0-0.8418-0.37695-0.8418-0.84033V77.7417
				c0-0.46484,0.37744-0.84082,0.8418-0.84082c0.46387,0,0.84033,0.37598,0.84033,0.84082v12.67676
				C77.44141,90.88184,77.06494,91.25879,76.60107,91.25879z"/>
			<path fill="#F7B521" d="M59.75928,91.25879c-0.46387,0-0.84033-0.37695-0.84033-0.84033V77.7417
				c0-0.46484,0.37646-0.84082,0.84033-0.84082c0.46338,0,0.84033,0.37598,0.84033,0.84082v12.67676
				C60.59961,90.88184,60.22266,91.2583,59.75928,91.25879z"/>
			<path fill="#F7B521" d="M68.18018,91.25879c-0.46484,0-0.84033-0.37695-0.84033-0.84033V77.7417
				c0-0.46484,0.37598-0.84082,0.84033-0.84082S69.021,77.27686,69.021,77.7417v12.67676
				C69.021,90.88184,68.64453,91.25879,68.18018,91.25879z"/>
		</g>
		<path fill="#FFDFB8" d="M85.0293,78.66211c1.27637-7.19678,6.07568-8.25977,8.4624-7.44922
			c2.71973,0.92334,2.81055,4.21191,2.3877,6.80371c-1.37256,8.41748-7.2373,12.52246-10.854,9.80029l0.00439,7.4458
			c4.02539-1.32031,13.1167-5.49414,14.88428-16.60352c1.99707-12.56689-9.38135-14.00342-14.86963-9.34668L85.0293,78.66211z"/>
	</g>
</g>
<g>
	<path fill="#FFFFFF" d="M607.15918,918.76855c-12.51953,0-24.28809-4.87598-33.14063-13.72754
		c-8.85156-8.85156-13.72656-20.62109-13.72656-33.13965s4.875-24.28809,13.72656-33.14063
		c8.85254-8.85254,20.62207-13.72754,33.14063-13.72754c12.51953,0,24.28906,4.875,33.14063,13.72754
		c8.85352,8.85254,13.72852,20.62207,13.72852,33.14063s-4.87695,24.28809-13.72852,33.14063
		C631.44824,913.89258,619.67871,918.76855,607.15918,918.76855z"/>
	<circle fill="#D85555" cx="607.15918" cy="871.90186" r="42.51123"/>
	<g>
		<path fill="#FFCD38" d="M620.7041,861.39258c-1.2334,0.17188-2.48047-0.20703-3.41016-1.03516
			c-1.50781,1.81445-4.2002,2.0625-6.0127,0.55469c-0.30957-0.25781-0.5791-0.55469-0.80371-0.88672
			c-1.47461,2.4082-4.54883,3.2832-7.06836,2.00977v3.5127c0,1.58887-1.28711,2.87402-2.87305,2.87402
			c-1.58691,0-2.87305-1.28516-2.87305-2.87402l-0.00391-3.65039c-1.26758,0-2.4707-0.56348-3.28125-1.54004
			c-1.5127,1.34863-3.76563,1.43945-5.38477,0.2207v37.11523c0,1.0625,0.85938,1.92188,1.92188,1.92188h29.8418
			c1.06055,0,1.9209-0.85938,1.9209-1.92188v-37.11523C622.10059,861.01465,621.4209,861.29492,620.7041,861.39258z"/>
		<path fill="#FFF1D7" d="M622.67578,889.99219v7.69922c0,1.0625-0.85938,1.92188-1.92188,1.92188h-29.83887
			c-1.0625,0-1.92188-0.85938-1.92188-1.92188v-7.69922l1.50391,1.77734c1.36914,1.60938,3.37695,2.53613,5.49023,2.53613h19.69531
			c2.1123,0,4.11914-0.92676,5.48926-2.53613L622.67578,889.99219z"/>
		<path fill="#FFF1D7" d="M622.52734,853.63379c0.00391-0.09082,0.0127-0.18262,0.0127-0.27637
			c0.00781-2.73828-2.20508-4.96484-4.94336-4.9707c-0.38672-0.00195-0.77441,0.04297-1.15039,0.13086
			c-0.64648-2.05957-2.84082-3.20508-4.90039-2.55957c-0.43164,0.13672-0.83789,0.3457-1.19531,0.61816
			c-1.69531-2.49219-5.0918-3.14063-7.58398-1.44531c-0.57031,0.38574-1.06055,0.87793-1.44727,1.44531
			c-1.71875-1.30566-4.16992-0.97266-5.47656,0.74609c-0.27539,0.35938-0.48438,0.76367-0.61914,1.19531
			c-2.66602-0.62695-5.33594,1.02539-5.96289,3.68945c-0.08789,0.37793-0.13281,0.76367-0.13086,1.15039
			c0,0.0957,0.00977,0.18555,0.01367,0.27637c-1.94727,1.33105-2.44531,3.9873-1.11328,5.93457
			c1.33008,1.94531,3.9873,2.44336,5.93359,1.11133c0.14355-0.09863,0.28125-0.20508,0.41113-0.32031
			c0.81152,0.97559,2.01563,1.54102,3.28418,1.53906l0.00391,3.65039c0,1.58789,1.28613,2.87402,2.87305,2.87402
			c1.58594,0,2.87305-1.28613,2.87305-2.87402v-3.51367c2.51953,1.27148,5.59375,0.39551,7.06641-2.01074
			c1.32422,1.95215,3.97852,2.46191,5.93066,1.1377c0.33203-0.22461,0.63184-0.49512,0.88672-0.80469
			c1.76855,1.55859,4.46582,1.39258,6.02637-0.37695c1.55859-1.7666,1.39063-4.46289-0.37695-6.02441
			c-0.13281-0.11523-0.27148-0.22363-0.41797-0.32324L622.52734,853.63379z"/>
		<g>
			<path fill="#F7B521" d="M614.25293,887.06348c-0.46484,0-0.8418-0.37695-0.8418-0.84082v-12.67578
				c0-0.46484,0.37793-0.8418,0.8418-0.8418c0.46484,0,0.84082,0.37695,0.84082,0.8418v12.67578
				C615.09375,886.68652,614.71777,887.06348,614.25293,887.06348z"/>
			<path fill="#F7B521" d="M597.41113,887.06348c-0.46289,0-0.83984-0.37695-0.83984-0.84082v-12.67578
				c0-0.46484,0.37695-0.8418,0.83984-0.8418c0.46387,0,0.84082,0.37695,0.84082,0.8418v12.67578
				C598.25195,886.68652,597.875,887.0625,597.41113,887.06348z"/>
			<path fill="#F7B521" d="M605.83301,887.06348c-0.46484,0-0.84082-0.37695-0.84082-0.84082v-12.67578
				c0-0.46484,0.37598-0.8418,0.84082-0.8418c0.46387,0,0.83984,0.37695,0.83984,0.8418v12.67578
				C606.67285,886.68652,606.29688,887.06348,605.83301,887.06348z"/>
		</g>
		<path fill="#FFDFB8" d="M622.68164,874.4668c1.27637-7.19727,6.0752-8.25977,8.46191-7.44922
			c2.7207,0.92383,2.81055,4.21191,2.38867,6.80371c-1.37305,8.41699-7.23828,12.52246-10.85449,9.7998l0.00488,7.44629
			c4.02539-1.32031,13.11621-5.49414,14.88379-16.60352c1.99707-12.56738-9.38184-14.00293-14.87012-9.34668L622.68164,874.4668z"/>
	</g>
</g>
</svg>
