<?xml version="1.0" encoding="utf-8"?>
<!-- Generator: Adobe Illustrator 16.0.0, SVG Export Plug-In . SVG Version: 6.00 Build 0)  -->
<!DOCTYPE svg PUBLIC "-//W3C//DTD SVG 1.1//EN" "http://www.w3.org/Graphics/SVG/1.1/DTD/svg11.dtd">
<svg version="1.1" id="Layer_1" xmlns="http://www.w3.org/2000/svg" xmlns:xlink="http://www.w3.org/1999/xlink" x="0px" y="0px"
	 width="683.261px" height="956.564px" viewBox="2.985 0 683.261 956.564" enable-background="new 2.985 0 683.261 956.564"
	 xml:space="preserve">
<g id="_x31_0">
	<path fill="#FFF2D2" d="M686.246,888.239c0,37.731-30.594,68.325-68.326,68.325H71.311c-37.737,0-68.326-30.596-68.326-68.325
		V68.326C2.985,30.592,33.573,0,71.311,0h546.608c37.732,0,68.326,30.592,68.326,68.326V888.239L686.246,888.239z"/>
	<path fill="#FFD47D" d="M58.912,443.175V121.666c4.551,1.469,9.406,2.257,14.445,2.257c26.066,0,47.2-21.133,47.2-47.206
		c0-7.46-1.734-14.518-4.815-20.787c0.101-0.005,0.208-0.005,0.308-0.005h457.131c31.563,0,57.141,27.012,57.141,60.337v326.912"/>
	<path fill="#FFD47D" d="M630.322,357.028l-0.004,477.944c-4.555-1.473-9.402-2.262-14.441-2.262
		c-26.066,0-47.199,21.137-47.199,47.206c0,7.461,1.73,14.521,4.813,20.788c-0.104,0.006-0.205,0.006-0.311,0.006h-457.13
		c-31.559,0-57.138-27.013-57.138-60.339l0.001-475.846"/>
	<path fill="none" stroke="#231F20" stroke-width="5" stroke-miterlimit="10" d="M630.322,830.428"/>
	<g>
		<rect x="24.969" y="47.324" fill="none" width="101.335" height="89.895"/>
		<text transform="matrix(1 0 0 1 24.9683 111.0586)" fill="#F7B728" font-family="'Arvo'" font-size="83.8865">10</text>
	</g>
	<path fill="none" stroke="#231F20" stroke-width="5" stroke-miterlimit="10" d="M373.185,443.175"/>
	<path fill="none" stroke="#231F20" stroke-width="5" stroke-miterlimit="10" d="M58.909,443.175"/>
	<path fill="none" stroke="#231F20" stroke-width="5" stroke-miterlimit="10" d="M373.185,443.175"/>
	<path fill="none" stroke="#231F20" stroke-width="5" stroke-miterlimit="10" d="M630.322,513.463"/>
	<path fill="none" stroke="#231F20" stroke-width="5" stroke-miterlimit="10" d="M316.044,513.463"/>
	<g>
		<rect x="567.351" y="820.229" fill="none" width="101.334" height="89.895"/>
		<text transform="matrix(-1 0 0 -1 668.6851 846.3877)" fill="#F7B728" font-family="'Arvo'" font-size="83.8865">10</text>
	</g>
	<g>
		<g>
			<path fill="#E3E4E2" d="M204.915,201.897c17.441-3.488,28.931-20.234,25.908-37.762l-7.017-40.702h-59.749l-7.017,40.702
				c-3.023,17.528,8.466,34.274,25.908,37.762c3.491,0.698,6.004,3.763,6.004,7.324v43.667l-20.591,1.873
				c-3.847,0.35-6.792,3.575-6.792,7.438v0.648h64.728v-0.648c0-3.863-2.946-7.089-6.792-7.438l-20.591-1.873v-43.667
				C198.911,205.66,201.423,202.596,204.915,201.897z"/>
			<path fill="#E8C35B" d="M193.932,214.2c2.75,0,4.979-2.23,4.979-4.979c0-3.561,2.512-6.625,6.004-7.324
				c17.441-3.488,28.931-20.234,25.908-37.762l-0.58-3.358h-72.626l-0.578,3.358c-3.022,17.528,8.466,34.274,25.908,37.762
				c3.491,0.698,6.004,3.763,6.004,7.324C188.953,211.97,191.182,214.2,193.932,214.2z"/>
			<g>
				<path fill="#F3F1F2" d="M172.91,185.748c-1.076,0.852-2.638,0.669-3.489-0.406c-0.328-0.42-0.641-0.848-0.941-1.286l-0.06-0.086
					c-0.038-0.057-0.073-0.115-0.106-0.174c-0.592-1.084-0.192-2.442,0.892-3.034l0.414-0.228c1.022-0.562,2.307-0.257,2.966,0.707
					c0.234,0.341,0.479,0.676,0.733,1.002c0.792,1.002,0.7,2.44-0.213,3.333C173.043,185.637,172.978,185.694,172.91,185.748z"/>
				<path fill="#F3F1F2" d="M167.194,175.733c-1.352,0.228-2.63-0.683-2.859-2.035c-0.436-2.75-0.414-5.552,0.065-8.293l4.74-27.492
					c0.234-1.354,1.521-2.263,2.876-2.031c1.355,0.234,2.264,1.522,2.03,2.876l-4.74,27.493c-0.382,2.194-0.402,4.438-0.058,6.636
					c0.199,1.254-0.579,2.457-1.803,2.79C167.363,175.7,167.279,175.72,167.194,175.733z"/>
			</g>
		</g>
		<g>
			<path fill="#E3E4E2" d="M507.572,201.897c17.439-3.488,28.936-20.234,25.91-37.762l-7.021-40.702h-59.748l-7.016,40.702
				c-3.023,17.528,8.465,34.274,25.902,37.762c3.49,0.698,6.002,3.763,6.002,7.324v43.667l-20.59,1.873
				c-3.848,0.35-6.793,3.575-6.793,7.438v0.648h64.73v-0.648c0-3.863-2.947-7.089-6.793-7.438l-20.598-1.873v-43.667
				C501.568,205.66,504.082,202.596,507.572,201.897z"/>
			<path fill="#EDCA58" d="M496.589,214.2c2.75,0,4.979-2.23,4.979-4.979c0-3.561,2.518-6.625,6.004-7.324
				c17.439-3.488,28.936-20.234,25.91-37.762l-0.58-3.358h-72.627l-0.578,3.358c-3.021,17.528,8.471,34.274,25.908,37.762
				c3.49,0.698,6.004,3.763,6.004,7.324C491.611,211.97,493.839,214.2,496.589,214.2z"/>
			<g>
				<path fill="#F3F1F2" d="M475.568,185.748c-1.076,0.852-2.641,0.669-3.484-0.406c-0.33-0.42-0.646-0.848-0.943-1.286
					l-0.059-0.086c-0.037-0.057-0.074-0.115-0.105-0.174c-0.592-1.084-0.189-2.442,0.896-3.034l0.414-0.228
					c1.02-0.562,2.307-0.257,2.967,0.707c0.23,0.341,0.48,0.676,0.73,1.002c0.789,1.002,0.697,2.44-0.215,3.333
					C475.701,185.637,475.636,185.694,475.568,185.748z"/>
				<path fill="#F3F1F2" d="M469.851,175.734c-1.352,0.227-2.631-0.684-2.857-2.036c-0.438-2.75-0.412-5.552,0.063-8.293
					l4.74-27.492c0.23-1.354,1.521-2.263,2.877-2.031c1.354,0.234,2.264,1.522,2.029,2.876l-4.738,27.493
					c-0.385,2.194-0.402,4.438-0.063,6.636c0.197,1.254-0.574,2.457-1.805,2.79C470.019,175.7,469.935,175.72,469.851,175.734z"/>
			</g>
		</g>
		<g>
			<path fill="#E3E4E2" d="M204.915,383.157c17.441-3.488,28.931-20.233,25.908-37.763l-7.017-40.701h-59.749l-7.017,40.701
				c-3.023,17.529,8.466,34.274,25.908,37.763c3.491,0.699,6.004,3.764,6.004,7.324v43.667l-20.591,1.874
				c-3.847,0.348-6.792,3.572-6.792,7.437v0.649h64.728v-0.649c0-3.859-2.946-7.089-6.792-7.437l-20.591-1.874v-43.667
				C198.911,386.92,201.423,383.857,204.915,383.157z"/>
			<path fill="#EDCA58" d="M193.932,395.46c2.75,0,4.979-2.229,4.979-4.978c0-3.562,2.512-6.625,6.004-7.324
				c17.441-3.488,28.931-20.233,25.908-37.763l-0.58-3.357h-72.626l-0.578,3.357c-3.022,17.529,8.466,34.271,25.908,37.763
				c3.491,0.699,6.004,3.764,6.004,7.324C188.953,393.231,191.182,395.46,193.932,395.46z"/>
			<g>
				<path fill="#F3F1F2" d="M172.91,367.009c-1.076,0.851-2.638,0.668-3.489-0.408c-0.328-0.418-0.641-0.848-0.941-1.285
					l-0.06-0.087c-0.038-0.058-0.073-0.115-0.106-0.174c-0.592-1.084-0.192-2.442,0.892-3.034l0.414-0.229
					c1.022-0.563,2.307-0.256,2.966,0.707c0.234,0.341,0.479,0.676,0.733,1.003c0.792,1.001,0.7,2.44-0.213,3.333
					C173.043,366.897,172.978,366.954,172.91,367.009z"/>
				<path fill="#F3F1F2" d="M167.194,356.993c-1.352,0.228-2.63-0.684-2.859-2.035c-0.436-2.749-0.414-5.551,0.065-8.293
					l4.74-27.492c0.234-1.356,1.521-2.265,2.876-2.031c1.355,0.233,2.264,1.521,2.03,2.876l-4.74,27.493
					c-0.382,2.193-0.402,4.438-0.058,6.636c0.199,1.254-0.579,2.457-1.803,2.791C167.363,356.961,167.279,356.98,167.194,356.993z"
					/>
			</g>
		</g>
		<g>
			<path fill="#E3E4E2" d="M507.572,383.157c17.439-3.488,28.936-20.233,25.91-37.763l-7.021-40.701h-59.748l-7.016,40.701
				c-3.023,17.529,8.465,34.274,25.902,37.763c3.49,0.699,6.002,3.764,6.002,7.324v43.667l-20.59,1.874
				c-3.848,0.348-6.793,3.572-6.793,7.437v0.649h64.73v-0.649c0-3.859-2.947-7.089-6.793-7.437l-20.598-1.874v-43.667
				C501.568,386.92,504.082,383.857,507.572,383.157z"/>
			<path fill="#EDCA58" d="M496.589,395.46c2.75,0,4.979-2.229,4.979-4.978c0-3.562,2.518-6.625,6.004-7.324
				c17.439-3.488,28.936-20.233,25.91-37.763l-0.58-3.357h-72.627l-0.578,3.357c-3.021,17.529,8.471,34.271,25.908,37.763
				c3.49,0.699,6.004,3.764,6.004,7.324C491.611,393.231,493.839,395.46,496.589,395.46z"/>
			<g>
				<path fill="#F3F1F2" d="M475.568,367.009c-1.076,0.851-2.641,0.668-3.484-0.408c-0.33-0.418-0.646-0.848-0.943-1.285
					l-0.059-0.087c-0.037-0.058-0.074-0.115-0.105-0.174c-0.592-1.084-0.189-2.442,0.896-3.034l0.414-0.229
					c1.02-0.563,2.307-0.256,2.967,0.707c0.23,0.341,0.48,0.676,0.73,1.003c0.789,1.001,0.697,2.44-0.215,3.333
					C475.701,366.897,475.636,366.954,475.568,367.009z"/>
				<path fill="#F3F1F2" d="M469.851,356.993c-1.352,0.228-2.631-0.684-2.857-2.035c-0.438-2.75-0.412-5.551,0.063-8.293
					l4.74-27.492c0.23-1.356,1.521-2.265,2.877-2.031c1.354,0.233,2.264,1.521,2.029,2.876l-4.738,27.493
					c-0.385,2.193-0.402,4.438-0.063,6.636c0.197,1.254-0.574,2.457-1.805,2.791C470.019,356.961,469.935,356.98,469.851,356.993z"
					/>
			</g>
		</g>
		<g>
			<path fill="#E3E4E2" d="M359.33,300.563c17.438-3.487,28.93-20.234,25.904-37.762l-7.018-40.701H318.47l-7.017,40.701
				c-3.022,17.528,8.467,34.275,25.905,37.762c3.489,0.699,6.006,3.764,6.006,7.324v43.668l-20.595,1.872
				c-3.848,0.35-6.791,3.575-6.791,7.438v0.648h64.728v-0.648c0-3.863-2.945-7.088-6.793-7.438l-20.594-1.872v-43.668
				C353.326,304.326,355.839,301.261,359.33,300.563z"/>
			<path fill="#EDCA58" d="M348.347,312.865c2.748,0,4.979-2.23,4.979-4.979c0-3.56,2.518-6.625,6.008-7.324
				c17.438-3.487,28.93-20.234,25.904-37.762l-0.574-3.358h-72.63l-0.574,3.358c-3.022,17.528,8.467,34.275,25.906,37.762
				c3.49,0.699,6.007,3.764,6.007,7.324C343.369,310.636,345.597,312.865,348.347,312.865z"/>
			<g>
				<path fill="#F3F1F2" d="M327.325,284.412c-1.075,0.851-2.644,0.669-3.488-0.407c-0.329-0.419-0.646-0.847-0.942-1.285
					l-0.06-0.086c-0.038-0.058-0.072-0.116-0.106-0.176c-0.592-1.083-0.188-2.442,0.896-3.034l0.415-0.228
					c1.021-0.562,2.306-0.257,2.966,0.708c0.231,0.34,0.479,0.676,0.729,1.001c0.792,1.002,0.697,2.438-0.212,3.334
					C327.458,284.301,327.393,284.358,327.325,284.412z"/>
				<path fill="#F3F1F2" d="M321.608,274.398c-1.354,0.227-2.633-0.684-2.855-2.037c-0.438-2.749-0.415-5.552,0.063-8.293
					l4.738-27.492c0.233-1.354,1.522-2.264,2.877-2.031c1.354,0.234,2.266,1.521,2.031,2.877l-4.74,27.493
					c-0.384,2.193-0.4,4.436-0.059,6.635c0.195,1.254-0.577,2.457-1.806,2.792C321.777,274.365,321.693,274.384,321.608,274.398z"/>
			</g>
		</g>
		<g>
			<path fill="#E3E4E2" d="M197.619,739.544v-43.67l20.592-1.871c3.846-0.351,6.792-3.572,6.792-7.438v-0.647h-64.728v0.647
				c0,3.86,2.946,7.088,6.792,7.438l20.591,1.871v43.67c0,3.563-2.513,6.625-6.003,7.321c-17.442,3.489-28.932,20.233-25.908,37.764
				l7.017,40.701h59.749l7.018-40.701c3.022-17.524-8.468-34.271-25.909-37.764C200.132,746.168,197.619,743.103,197.619,739.544z"
				/>
			<path fill="#EDCA58" d="M187.661,739.544c0,3.563-2.513,6.625-6.003,7.321c-17.442,3.489-28.932,20.233-25.908,37.764
				l0.578,3.359h72.626l0.579-3.359c3.022-17.524-8.467-34.271-25.909-37.764c-3.491-0.696-6.003-3.765-6.003-7.321
				c0-2.751-2.23-4.979-4.979-4.979C189.89,734.563,187.661,736.793,187.661,739.544z"/>
			<g>
				<path fill="#F3F1F2" d="M171.812,763.188c0.913,0.894,1.005,2.328,0.213,3.335c-0.254,0.323-0.499,0.656-0.733,1.001
					c-0.659,0.965-1.942,1.27-2.966,0.707l-0.414-0.229c-1.084-0.593-1.483-1.95-0.892-3.03c0.033-0.063,0.068-0.118,0.106-0.18
					l0.06-0.087c0.299-0.438,0.614-0.866,0.941-1.284c0.851-1.072,2.413-1.259,3.489-0.404
					C171.685,763.07,171.75,763.127,171.812,763.188z"/>
				<path fill="#F3F1F2" d="M166.153,773.086c1.226,0.335,2.003,1.539,1.803,2.793c-0.345,2.2-0.325,4.44,0.058,6.64l4.739,27.487
					c0.234,1.354-0.674,2.646-2.03,2.881c-1.355,0.23-2.642-0.679-2.876-2.027l-4.739-27.494c-0.479-2.74-0.501-5.543-0.065-8.292
					c0.228-1.354,1.508-2.266,2.859-2.037C165.987,773.044,166.072,773.063,166.153,773.086z"/>
			</g>
		</g>
		<g>
			<path fill="#E3E4E2" d="M500.277,739.544v-43.67l20.596-1.871c3.846-0.351,6.791-3.572,6.791-7.438v-0.647h-64.729v0.647
				c0,3.86,2.945,7.088,6.791,7.438l20.594,1.871v43.67c0,3.563-2.516,6.625-6.002,7.321c-17.439,3.489-28.934,20.233-25.908,37.764
				l7.018,40.701h59.75l7.02-40.701c3.021-17.524-8.469-34.271-25.906-37.764C502.789,746.168,500.277,743.103,500.277,739.544z"/>
			<path fill="#EDCA58" d="M490.318,739.544c0,3.563-2.516,6.625-6.004,7.321c-17.438,3.489-28.934,20.233-25.908,37.764
				l0.578,3.359h72.627l0.578-3.359c3.021-17.524-8.469-34.271-25.91-37.764c-3.484-0.696-6.002-3.765-6.002-7.321
				c0-2.751-2.229-4.979-4.979-4.979S490.318,736.793,490.318,739.544z"/>
			<g>
				<path fill="#F3F1F2" d="M474.47,763.188c0.912,0.894,1.004,2.328,0.213,3.335c-0.254,0.323-0.498,0.656-0.73,1.001
					c-0.656,0.965-1.939,1.27-2.967,0.707l-0.414-0.229c-1.084-0.593-1.48-1.95-0.895-3.03c0.035-0.063,0.068-0.118,0.107-0.18
					l0.059-0.087c0.301-0.438,0.615-0.866,0.943-1.284c0.85-1.072,2.408-1.259,3.484-0.404
					C474.345,763.07,474.41,763.127,474.47,763.188z"/>
				<path fill="#F3F1F2" d="M468.812,773.086c1.23,0.335,2,1.539,1.803,2.793c-0.346,2.2-0.32,4.44,0.063,6.64l4.738,27.487
					c0.229,1.354-0.68,2.646-2.029,2.881c-1.354,0.23-2.645-0.679-2.877-2.027l-4.738-27.494c-0.479-2.74-0.502-5.543-0.063-8.292
					c0.227-1.354,1.506-2.266,2.854-2.037C468.644,773.044,468.728,773.063,468.812,773.086z"/>
			</g>
		</g>
		<g>
			<path fill="#E3E4E2" d="M197.619,558.283v-43.669l20.592-1.872c3.846-0.352,6.792-3.575,6.792-7.438v-0.646h-64.728v0.646
				c0,3.858,2.946,7.088,6.792,7.438l20.591,1.872v43.669c0,3.561-2.513,6.626-6.003,7.323
				c-17.442,3.482-28.932,20.229-25.908,37.763l7.017,40.701h59.749l7.018-40.701c3.022-17.528-8.468-34.273-25.909-37.763
				C200.132,564.907,197.619,561.843,197.619,558.283z"/>
			<path fill="#EDCA58" d="M187.661,558.283c0,3.561-2.513,6.626-6.003,7.323c-17.442,3.482-28.932,20.229-25.908,37.763
				l0.578,3.357h72.626l0.579-3.357c3.022-17.528-8.467-34.273-25.909-37.763c-3.491-0.697-6.003-3.77-6.003-7.323
				c0-2.75-2.23-4.98-4.979-4.98C189.89,553.303,187.661,555.533,187.661,558.283z"/>
			<g>
				<path fill="#F3F1F2" d="M171.812,581.928c0.913,0.896,1.005,2.329,0.213,3.332c-0.254,0.327-0.499,0.661-0.733,1.008
					c-0.659,0.964-1.942,1.271-2.966,0.703l-0.414-0.228c-1.084-0.592-1.483-1.951-0.892-3.034c0.033-0.063,0.068-0.118,0.106-0.176
					l0.06-0.087c0.299-0.438,0.614-0.865,0.941-1.285c0.851-1.076,2.413-1.258,3.489-0.407
					C171.685,581.811,171.75,581.867,171.812,581.928z"/>
				<path fill="#F3F1F2" d="M166.153,591.826c1.226,0.335,2.003,1.538,1.803,2.792c-0.345,2.201-0.325,4.439,0.058,6.636
					l4.739,27.493c0.234,1.354-0.674,2.646-2.03,2.876c-1.355,0.231-2.642-0.675-2.876-2.029l-4.739-27.49
					c-0.479-2.738-0.501-5.544-0.065-8.294c0.228-1.354,1.508-2.267,2.859-2.034C165.987,591.785,166.072,591.803,166.153,591.826z"
					/>
			</g>
		</g>
		<g>
			<path fill="#E3E4E2" d="M500.277,558.283v-43.669l20.596-1.872c3.846-0.352,6.791-3.575,6.791-7.438v-0.646h-64.729v0.646
				c0,3.858,2.945,7.088,6.791,7.438l20.594,1.872v43.669c0,3.561-2.516,6.626-6.002,7.323
				c-17.439,3.482-28.934,20.229-25.908,37.763l7.018,40.701h59.75l7.02-40.701c3.021-17.528-8.469-34.273-25.906-37.763
				C502.789,564.907,500.277,561.843,500.277,558.283z"/>
			<path fill="#EDCA58" d="M490.318,558.283c0,3.561-2.516,6.626-6.004,7.323c-17.438,3.482-28.934,20.229-25.908,37.763
				l0.578,3.357h72.627l0.578-3.357c3.021-17.528-8.469-34.273-25.91-37.763c-3.484-0.697-6.002-3.77-6.002-7.323
				c0-2.75-2.229-4.98-4.979-4.98S490.318,555.533,490.318,558.283z"/>
			<g>
				<path fill="#F3F1F2" d="M474.47,581.928c0.912,0.896,1.004,2.329,0.213,3.332c-0.254,0.327-0.498,0.661-0.73,1.008
					c-0.656,0.964-1.939,1.271-2.967,0.703l-0.414-0.228c-1.084-0.592-1.48-1.951-0.895-3.034c0.035-0.063,0.068-0.118,0.107-0.176
					l0.059-0.087c0.301-0.438,0.615-0.865,0.943-1.285c0.85-1.076,2.408-1.258,3.484-0.407
					C474.345,581.811,474.41,581.867,474.47,581.928z"/>
				<path fill="#F3F1F2" d="M468.812,591.826c1.23,0.335,2,1.538,1.803,2.792c-0.346,2.201-0.32,4.439,0.063,6.636l4.738,27.493
					c0.229,1.354-0.68,2.646-2.029,2.876c-1.354,0.231-2.645-0.675-2.877-2.029l-4.738-27.489c-0.479-2.739-0.502-5.545-0.063-8.294
					c0.227-1.354,1.506-2.268,2.854-2.036C468.644,591.785,468.728,591.803,468.812,591.826z"/>
			</g>
		</g>
		<g>
			<path fill="#E3E4E2" d="M352.035,640.878V597.21l20.59-1.873c3.848-0.349,6.793-3.57,6.793-7.438v-0.648h-64.73v0.648
				c0,3.86,2.946,7.089,6.793,7.438l20.594,1.873v43.668c0,3.563-2.515,6.624-6.003,7.323
				c-17.438,3.488-28.934,20.232-25.906,37.763l7.017,40.702h59.75l7.02-40.702c3.021-17.522-8.467-34.271-25.908-37.763
				C354.546,647.502,352.035,644.438,352.035,640.878z"/>
			<path fill="#EDCA58" d="M342.075,640.878c0,3.563-2.518,6.624-6.005,7.323c-17.439,3.487-28.935,20.232-25.907,37.763
				l0.578,3.359h72.625l0.576-3.359c3.021-17.522-8.469-34.271-25.906-37.763c-3.49-0.699-6.002-3.766-6.002-7.323
				c0-2.75-2.232-4.979-4.98-4.979C344.304,635.899,342.075,638.128,342.075,640.878z"/>
			<g>
				<path fill="#F3F1F2" d="M326.229,664.522c0.911,0.894,1.005,2.329,0.215,3.331c-0.256,0.328-0.499,0.661-0.729,1.006
					c-0.66,0.964-1.942,1.268-2.971,0.706l-0.41-0.229c-1.085-0.591-1.484-1.944-0.896-3.033c0.032-0.06,0.067-0.114,0.104-0.176
					l0.06-0.087c0.303-0.438,0.615-0.864,0.942-1.284c0.851-1.072,2.413-1.258,3.484-0.404
					C326.1,664.405,326.166,664.462,326.229,664.522z"/>
				<path fill="#F3F1F2" d="M320.569,674.422c1.229,0.335,2.001,1.537,1.806,2.791c-0.349,2.2-0.325,4.442,0.058,6.64l4.74,27.489
					c0.23,1.354-0.676,2.646-2.03,2.879c-1.354,0.23-2.642-0.678-2.876-2.028l-4.738-27.491c-0.479-2.742-0.5-5.545-0.063-8.293
					c0.229-1.354,1.507-2.268,2.855-2.037C320.401,674.381,320.486,674.397,320.569,674.422z"/>
			</g>
		</g>
	</g>
</g>
</svg>
