<?xml version="1.0" encoding="utf-8"?>
<!-- Generator: Adobe Illustrator 16.0.0, SVG Export Plug-In . SVG Version: 6.00 Build 0)  -->
<!DOCTYPE svg PUBLIC "-//W3C//DTD SVG 1.1//EN" "http://www.w3.org/Graphics/SVG/1.1/DTD/svg11.dtd">
<svg version="1.1" id="Layer_1" xmlns="http://www.w3.org/2000/svg" xmlns:xlink="http://www.w3.org/1999/xlink" x="0px" y="0px"
	 width="683.258px" height="956.563px" viewBox="110.057 18.49 683.258 956.563"
	 enable-background="new 110.057 18.49 683.258 956.563" xml:space="preserve">
<g id="_x32_">
	<path fill="#FFF2D2" d="M793.315,906.727c0,37.734-30.591,68.326-68.325,68.326H178.383c-37.736,0-68.326-30.591-68.326-68.326
		V86.817c0-37.734,30.588-68.327,68.326-68.327H724.99c37.733,0,68.325,30.592,68.325,68.327V906.727L793.315,906.727z"/>
	<path fill="#FFD47D" d="M165.984,461.666v-321.51c4.552,1.471,9.407,2.258,14.446,2.258c26.066,0,47.2-21.133,47.2-47.205
		c0-7.461-1.735-14.518-4.815-20.788c0.101-0.004,0.207-0.004,0.308-0.004h457.129c31.559,0,57.138,27.011,57.138,60.336v326.913"/>
	<path fill="#FFD47D" d="M737.39,345.5l-0.001,507.962c-4.552-1.47-9.402-2.258-14.44-2.258c-26.066,0-47.2,21.133-47.2,47.206
		c0,7.459,1.734,14.518,4.813,20.785c-0.103,0.007-0.209,0.007-0.309,0.007h-457.13c-31.56,0-57.138-27.014-57.138-60.336V353.5"/>
	<path fill="none" stroke="#231F20" stroke-width="5" stroke-miterlimit="10" d="M737.392,848.915"/>
	<g>
		<rect x="152.175" y="65.814" fill="none" width="101.334" height="89.895"/>
		<text transform="matrix(1 0 0 1 152.1758 129.5498)" fill="#F7B728" font-family="'Arvo'" font-size="83.8863">2</text>
	</g>
	<path fill="none" stroke="#231F20" stroke-width="5" stroke-miterlimit="10" d="M480.258,461.666"/>
	<path fill="none" stroke="#231F20" stroke-width="5" stroke-miterlimit="10" d="M165.982,461.666"/>
	<path fill="none" stroke="#231F20" stroke-width="5" stroke-miterlimit="10" d="M480.258,461.666"/>
	<path fill="none" stroke="#231F20" stroke-width="5" stroke-miterlimit="10" d="M737.392,531.951"/>
	<path fill="none" stroke="#231F20" stroke-width="5" stroke-miterlimit="10" d="M423.116,531.951"/>
	<g>
		<rect x="647.746" y="838.718" fill="none" width="101.334" height="89.896"/>
		<text transform="matrix(-1 0 0 -1 749.0801 864.8867)" fill="#F7B728" font-family="'Arvo'" font-size="83.8863">2</text>
	</g>
	<g>
		<g>
			<path fill="#E3E4E2" d="M479.087,220.388c17.442-3.488,28.931-20.234,25.909-37.762l-7.018-40.701H438.23l-7.021,40.701
				c-3.021,17.529,8.468,34.274,25.909,37.762c3.491,0.698,6.003,3.763,6.003,7.323v43.668l-20.592,1.873
				c-3.85,0.35-6.792,3.576-6.792,7.438v0.648h64.727v-0.648c0-3.861-2.943-7.088-6.792-7.438l-20.592-1.873v-43.668
				C473.083,224.15,475.598,221.086,479.087,220.388z"/>
			<path fill="#EDCA58" d="M468.105,232.69c2.75,0,4.979-2.229,4.979-4.979c0-3.56,2.513-6.625,6.004-7.323
				c17.442-3.488,28.932-20.234,25.908-37.762l-0.579-3.358h-72.625l-0.579,3.358c-3.021,17.529,8.468,34.274,25.908,37.762
				c3.492,0.698,6.004,3.763,6.004,7.323C463.126,230.462,465.354,232.69,468.105,232.69z"/>
			<g>
				<path fill="#F3F1F2" d="M447.083,204.238c-1.075,0.851-2.639,0.669-3.49-0.407c-0.327-0.419-0.64-0.848-0.938-1.285
					l-0.063-0.086c-0.038-0.057-0.072-0.115-0.104-0.175c-0.594-1.083-0.192-2.442,0.892-3.035l0.414-0.226
					c1.023-0.562,2.307-0.257,2.967,0.706c0.235,0.342,0.479,0.676,0.733,1.004c0.79,1.002,0.699,2.439-0.213,3.333
					C447.215,204.127,447.15,204.184,447.083,204.238z"/>
				<path fill="#F3F1F2" d="M441.367,194.224c-1.354,0.227-2.632-0.685-2.859-2.037c-0.437-2.748-0.414-5.552,0.064-8.294
					l4.74-27.492c0.23-1.355,1.521-2.265,2.875-2.031c1.354,0.233,2.265,1.522,2.029,2.877l-4.739,27.492
					c-0.384,2.193-0.401,4.435-0.06,6.636c0.199,1.254-0.578,2.458-1.803,2.791C441.536,194.19,441.452,194.209,441.367,194.224z"/>
			</g>
		</g>
		<g>
			<path fill="#E3E4E2" d="M471.791,758.031v-43.668l20.593-1.873c3.851-0.352,6.792-3.575,6.792-7.438v-0.646h-64.727v0.646
				c0,3.862,2.942,7.089,6.792,7.438l20.592,1.873v43.668c0,3.56-2.514,6.626-6.003,7.323c-17.441,3.485-28.93,20.231-25.909,37.762
				l7.021,40.701h59.746l7.019-40.701c3.021-17.527-8.467-34.273-25.908-37.762C474.304,764.657,471.791,761.592,471.791,758.031z"
				/>
			<path fill="#EDCA58" d="M461.833,758.031c0,3.56-2.514,6.626-6.003,7.323c-17.441,3.485-28.93,20.231-25.909,37.762l0.577,3.356
				h72.626l0.579-3.356c3.021-17.527-8.467-34.273-25.908-37.762c-3.492-0.697-6.004-3.766-6.004-7.323
				c0-2.751-2.229-4.979-4.977-4.979C464.063,753.052,461.833,755.282,461.833,758.031z"/>
			<g>
				<path fill="#F3F1F2" d="M445.986,781.675c0.912,0.896,1.003,2.332,0.212,3.334c-0.254,0.326-0.498,0.662-0.733,1.003
					c-0.66,0.963-1.939,1.271-2.965,0.707l-0.414-0.228c-1.084-0.592-1.482-1.949-0.891-3.033c0.033-0.063,0.064-0.117,0.104-0.176
					l0.063-0.087c0.301-0.438,0.612-0.866,0.939-1.286c0.853-1.075,2.412-1.258,3.488-0.406
					C445.859,781.559,445.923,781.614,445.986,781.675z"/>
				<path fill="#F3F1F2" d="M440.327,791.575c1.224,0.333,2.002,1.536,1.803,2.79c-0.346,2.201-0.325,4.44,0.058,6.637l4.74,27.492
					c0.233,1.354-0.675,2.644-2.026,2.878c-1.355,0.232-2.645-0.676-2.88-2.03l-4.737-27.492c-0.479-2.738-0.501-5.544-0.065-8.294
					c0.229-1.352,1.508-2.263,2.859-2.035C440.16,791.533,440.243,791.551,440.327,791.575z"/>
			</g>
		</g>
	</g>
</g>
</svg>
