<?xml version="1.0" encoding="utf-8"?>
<!-- Generator: Adobe Illustrator 16.0.0, SVG Export Plug-In . SVG Version: 6.00 Build 0)  -->
<!DOCTYPE svg PUBLIC "-//W3C//DTD SVG 1.1//EN" "http://www.w3.org/Graphics/SVG/1.1/DTD/svg11.dtd">
<svg version="1.1" id="Layer_1" xmlns="http://www.w3.org/2000/svg" xmlns:xlink="http://www.w3.org/1999/xlink" x="0px" y="0px"
	 width="693.366px" height="970.717px" viewBox="74.788 14.643 693.366 970.717"
	 enable-background="new 74.788 14.643 693.366 970.717" xml:space="preserve">
<g id="_x34_">
	<path fill="#FFF2D2" d="M768.154,916.021c0,38.293-31.043,69.34-69.335,69.34H144.124c-38.296,0-69.336-31.045-69.336-69.34V83.98
		c0-38.293,31.04-69.337,69.336-69.337h554.695c38.292,0,69.335,31.044,69.335,69.337V916.021L768.154,916.021z"/>
	<path fill="#FFD47D" d="M131.542,464.375V138.108c4.619,1.492,9.545,2.292,14.659,2.292c26.451,0,47.897-21.446,47.897-47.904
		c0-7.571-1.76-14.732-4.886-21.095c0.103-0.005,0.209-0.005,0.312-0.005H653.42c32.023,0,57.98,27.412,57.98,61.229v331.75"/>
	<path fill="#FFD47D" d="M711.402,362.5l-0.003,499.467c-4.619-1.489-9.544-2.293-14.658-2.293
		c-26.451,0-47.898,21.447-47.898,47.906c0,7.57,1.76,14.729,4.888,21.094c-0.103,0.006-0.211,0.006-0.313,0.006H189.525
		c-32.025,0-57.982-27.409-57.982-61.229L131.542,353.5"/>
	<path fill="none" stroke="#231F20" stroke-width="5" stroke-miterlimit="10" d="M711.402,857.354"/>
	<g>
		<rect x="117.528" y="62.667" fill="none" width="102.833" height="91.227"/>
		<text transform="matrix(1 0 0 1 117.5288 127.3438)" fill="#F7B728" font-family="'Arvo'" font-size="85.1273">4</text>
	</g>
	<path fill="none" stroke="#231F20" stroke-width="5" stroke-miterlimit="10" d="M711.402,464.375"/>
	<path fill="none" stroke="#231F20" stroke-width="5" stroke-miterlimit="10" d="M450.465,464.375"/>
	<path fill="none" stroke="#231F20" stroke-width="5" stroke-miterlimit="10" d="M131.54,464.375"/>
	<path fill="none" stroke="#231F20" stroke-width="5" stroke-miterlimit="10" d="M450.465,464.375"/>
	<path fill="none" stroke="#231F20" stroke-width="5" stroke-miterlimit="10" d="M711.402,535.699"/>
	<path fill="none" stroke="#231F20" stroke-width="5" stroke-miterlimit="10" d="M392.479,535.699"/>
	<g>
		<rect x="616.173" y="847.002" fill="none" width="102.835" height="91.228"/>
		<text transform="matrix(-1 0 0 -1 719.0068 873.5547)" fill="#F7B728" font-family="'Arvo'" font-size="85.1273">4</text>
	</g>
	<g>
		<g>
			<path fill="#E3E4E2" d="M279.705,219.528c17.7-3.54,29.359-20.533,26.292-38.32l-7.122-41.304h-60.633l-7.121,41.304
				c-3.066,17.787,8.592,34.78,26.292,38.32c3.543,0.709,6.092,3.819,6.092,7.432v44.314l-20.897,1.899
				c-3.904,0.354-6.893,3.629-6.893,7.547v0.657H301.4v-0.657c0-3.92-2.99-7.193-6.896-7.547l-20.896-1.899v-44.315
				C273.611,223.346,276.161,220.236,279.705,219.528z"/>
			<path fill="#EDCA58" d="M268.559,232.012c2.79,0,5.052-2.262,5.052-5.053c0-3.613,2.55-6.723,6.093-7.432
				c17.7-3.54,29.356-20.533,26.291-38.32l-0.587-3.408h-73.701l-0.587,3.408c-3.066,17.787,8.592,34.78,26.292,38.32
				c3.543,0.709,6.092,3.819,6.092,7.432C263.507,229.75,265.769,232.012,268.559,232.012z"/>
			<g>
				<path fill="#F3F1F2" d="M247.226,203.138c-1.091,0.864-2.678,0.679-3.541-0.414c-0.332-0.426-0.65-0.859-0.956-1.303
					l-0.061-0.088c-0.039-0.058-0.074-0.116-0.107-0.178c-0.601-1.1-0.196-2.479,0.905-3.079l0.419-0.23
					c1.039-0.571,2.34-0.26,3.011,0.717c0.237,0.347,0.485,0.687,0.744,1.018c0.803,1.018,0.71,2.476-0.216,3.383
					C247.36,203.027,247.294,203.085,247.226,203.138z"/>
				<path fill="#F3F1F2" d="M241.425,192.976c-1.371,0.23-2.669-0.694-2.9-2.067c-0.443-2.79-0.42-5.634,0.065-8.417l4.811-27.899
					c0.237-1.375,1.544-2.297,2.919-2.06c1.375,0.236,2.297,1.543,2.06,2.919l-4.81,27.899c-0.389,2.226-0.409,4.501-0.06,6.735
					c0.203,1.273-0.586,2.493-1.828,2.833C241.598,192.942,241.512,192.961,241.425,192.976z"/>
			</g>
		</g>
		<g>
			<path fill="#E3E4E2" d="M586.838,219.528c17.7-3.54,29.359-20.533,26.292-38.32l-7.12-41.304h-60.632l-7.123,41.304
				c-3.063,17.787,8.594,34.78,26.292,38.32c3.545,0.709,6.095,3.819,6.095,7.432v44.314l-20.896,1.899
				c-3.905,0.354-6.896,3.629-6.896,7.547v0.657h65.688v-0.657c0-3.92-2.99-7.193-6.896-7.547l-20.896-1.899v-44.315
				C580.747,223.346,583.295,220.236,586.838,219.528z"/>
			<path fill="#EDCA58" d="M575.693,232.012c2.79,0,5.052-2.262,5.052-5.053c0-3.613,2.55-6.723,6.093-7.432
				c17.698-3.54,29.359-20.533,26.29-38.32l-0.586-3.408h-73.699l-0.588,3.408c-3.067,17.787,8.592,34.78,26.291,38.32
				c3.545,0.709,6.094,3.819,6.094,7.432C570.642,229.75,572.903,232.012,575.693,232.012z"/>
			<g>
				<path fill="#F3F1F2" d="M554.358,203.138c-1.094,0.864-2.678,0.679-3.538-0.414c-0.333-0.426-0.65-0.859-0.957-1.303
					l-0.063-0.088c-0.037-0.058-0.072-0.116-0.104-0.178c-0.603-1.1-0.195-2.479,0.901-3.079l0.42-0.23
					c1.039-0.571,2.344-0.26,3.013,0.717c0.236,0.347,0.483,0.687,0.745,1.018c0.803,1.018,0.71,2.476-0.22,3.383
					C554.495,203.027,554.429,203.085,554.358,203.138z"/>
				<path fill="#F3F1F2" d="M548.56,192.976c-1.372,0.23-2.67-0.694-2.897-2.067c-0.442-2.79-0.422-5.634,0.063-8.417l4.813-27.899
					c0.238-1.375,1.544-2.297,2.92-2.06c1.375,0.236,2.299,1.543,2.059,2.918l-4.81,27.899c-0.389,2.226-0.409,4.501-0.063,6.735
					c0.202,1.273-0.587,2.493-1.826,2.833C548.731,192.942,548.646,192.961,548.56,192.976z"/>
			</g>
		</g>
		<g>
			<path fill="#E3E4E2" d="M272.301,765.123V720.81l20.896-1.899c3.904-0.354,6.893-3.627,6.893-7.547v-0.658h-65.686v0.658
				c0,3.92,2.99,7.19,6.894,7.547l20.896,1.899v44.313c0,3.613-2.55,6.727-6.092,7.434c-17.7,3.539-29.358,20.533-26.292,38.32
				l7.121,41.303h60.632l7.122-41.303c3.067-17.787-8.593-34.779-26.291-38.32C274.851,771.848,272.301,768.736,272.301,765.123z"/>
			<path fill="#EDCA58" d="M262.196,765.123c0,3.613-2.55,6.727-6.092,7.434c-17.7,3.539-29.359,20.533-26.292,38.32l0.587,3.408
				h73.7l0.587-3.408c3.067-17.787-8.593-34.779-26.291-38.32c-3.543-0.709-6.093-3.815-6.093-7.434
				c0-2.789-2.262-5.051-5.052-5.051C264.457,760.07,262.196,762.332,262.196,765.123z"/>
			<g>
				<path fill="#F3F1F2" d="M246.113,789.119c0.926,0.906,1.019,2.365,0.216,3.385c-0.258,0.33-0.506,0.67-0.744,1.019
					c-0.67,0.979-1.972,1.287-3.01,0.719l-0.419-0.23c-1.1-0.602-1.505-1.979-0.905-3.078c0.033-0.063,0.068-0.117,0.107-0.18
					l0.06-0.088c0.306-0.443,0.624-0.877,0.957-1.305c0.862-1.095,2.449-1.277,3.54-0.412
					C245.984,789,246.05,789.059,246.113,789.119z"/>
				<path fill="#F3F1F2" d="M240.37,799.164c1.242,0.34,2.033,1.561,1.829,2.832c-0.349,2.229-0.329,4.508,0.06,6.736l4.809,27.896
					c0.238,1.375-0.685,2.684-2.06,2.92c-1.375,0.238-2.683-0.684-2.92-2.059l-4.811-27.9c-0.485-2.781-0.508-5.625-0.065-8.414
					c0.23-1.373,1.53-2.297,2.901-2.063C240.2,799.121,240.286,799.141,240.37,799.164z"/>
			</g>
		</g>
		<g>
			<path fill="#E3E4E2" d="M579.435,765.123V720.81l20.896-1.899c3.904-0.354,6.893-3.627,6.893-7.547v-0.658H541.54v0.658
				c0,3.92,2.99,7.19,6.894,7.547l20.896,1.899v44.313c0,3.613-2.548,6.727-6.091,7.434c-17.7,3.539-29.359,20.533-26.291,38.32
				l7.12,41.303H604.7l7.121-41.303c3.065-17.787-8.596-34.779-26.292-38.32C581.984,771.848,579.435,768.736,579.435,765.123z"/>
			<path fill="#EDCA58" d="M569.329,765.123c0,3.613-2.548,6.727-6.091,7.434c-17.7,3.539-29.36,20.533-26.291,38.32l0.586,3.408
				h73.701l0.586-3.408c3.065-17.787-8.596-34.779-26.291-38.32c-3.544-0.709-6.096-3.815-6.096-7.434
				c0-2.789-2.262-5.051-5.051-5.051C571.592,760.07,569.329,762.332,569.329,765.123z"/>
			<g>
				<path fill="#F3F1F2" d="M553.247,789.119c0.927,0.906,1.019,2.365,0.217,3.385c-0.257,0.33-0.507,0.67-0.744,1.019
					c-0.669,0.979-1.972,1.287-3.01,0.719l-0.419-0.23c-1.102-0.602-1.506-1.979-0.905-3.078c0.032-0.063,0.067-0.117,0.105-0.18
					l0.061-0.088c0.306-0.443,0.623-0.877,0.956-1.305c0.864-1.095,2.451-1.277,3.541-0.412
					C553.118,789,553.185,789.059,553.247,789.119z"/>
				<path fill="#F3F1F2" d="M547.505,799.164c1.242,0.34,2.031,1.561,1.828,2.832c-0.349,2.229-0.329,4.508,0.061,6.736
					l4.813,27.896c0.236,1.375-0.688,2.684-2.063,2.92c-1.375,0.238-2.683-0.684-2.919-2.059l-4.812-27.9
					c-0.485-2.781-0.509-5.625-0.065-8.414c0.231-1.373,1.529-2.297,2.902-2.063C547.336,799.121,547.42,799.141,547.505,799.164z"
					/>
			</g>
		</g>
	</g>
</g>
</svg>
