<?xml version="1.0" encoding="utf-8"?>
<!-- Generator: Adobe Illustrator 16.0.0, SVG Export Plug-In . SVG Version: 6.00 Build 0)  -->
<!DOCTYPE svg PUBLIC "-//W3C//DTD SVG 1.1//EN" "http://www.w3.org/Graphics/SVG/1.1/DTD/svg11.dtd">
<svg version="1.1" id="Layer_1" xmlns="http://www.w3.org/2000/svg" xmlns:xlink="http://www.w3.org/1999/xlink" x="0px" y="0px"
	 width="692.603px" height="969.646px" viewBox="125.565 15.178 692.603 969.646"
	 enable-background="new 125.565 15.178 692.603 969.646" xml:space="preserve">
<g id="_x37_">
	<path fill="#FFF2D2" d="M818.168,915.561c0,38.249-31.008,69.264-69.262,69.264H194.825c-38.252,0-69.26-31.015-69.26-69.264
		V84.439c0-38.252,31.006-69.261,69.26-69.261h554.081c38.254,0,69.262,31.01,69.262,69.261V915.561z"/>
	<path fill="#FFD47D" d="M182.257,464.413V138.507c4.614,1.489,9.535,2.289,14.643,2.289c26.422,0,47.845-21.422,47.845-47.851
		c0-7.562-1.759-14.716-4.881-21.071c0.103-0.005,0.209-0.005,0.312-0.005h463.38c31.989,0,57.921,27.381,57.921,61.162v331.382"/>
	<path fill="#FFD47D" d="M761.477,363.5v498.069c-4.612-1.49-9.532-2.291-14.644-2.291c-26.423,0-47.845,21.423-47.845,47.852
		c0,7.563,1.758,14.715,4.881,21.071c-0.104,0.006-0.209,0.006-0.313,0.006h-463.38c-31.99,0-57.919-27.382-57.919-61.162V371.5"/>
	<path fill="none" stroke="#231F20" stroke-width="5" stroke-miterlimit="10" d="M761.479,856.959"/>
	<g>
		<rect x="168.258" y="63.149" fill="none" width="102.72" height="91.125"/>
		<text transform="matrix(1 0 0 1 168.2583 127.7559)" fill="#F7B728" font-family="'Arvo'" font-size="85.0334">7</text>
	</g>
	<path fill="none" stroke="#231F20" stroke-width="5" stroke-miterlimit="10" d="M500.827,464.413"/>
	<path fill="none" stroke="#231F20" stroke-width="5" stroke-miterlimit="10" d="M182.254,464.413"/>
	<path fill="none" stroke="#231F20" stroke-width="5" stroke-miterlimit="10" d="M500.827,464.413"/>
	<path fill="none" stroke="#231F20" stroke-width="5" stroke-miterlimit="10" d="M761.479,535.661"/>
	<path fill="none" stroke="#231F20" stroke-width="5" stroke-miterlimit="10" d="M442.904,535.661"/>
	<g>
		<rect x="667.584" y="846.621" fill="none" width="102.721" height="91.125"/>
		<text transform="matrix(-1 0 0 -1 770.3076 873.1406)" fill="#F7B728" font-family="'Arvo'" font-size="85.0334">7</text>
	</g>
	<g>
		<g>
			<path fill="#E3E4E2" d="M330.256,219.835c17.68-3.536,29.326-20.51,26.264-38.279l-7.11-41.257h-60.565l-7.114,41.257
				c-3.064,17.769,8.583,34.745,26.263,38.279c3.539,0.708,6.085,3.814,6.085,7.424v44.266l-20.874,1.896
				c-3.9,0.354-6.886,3.625-6.886,7.54v0.657h65.612v-0.657c0-3.916-2.982-7.184-6.885-7.54l-20.874-1.896v-44.266
				C324.17,223.65,326.718,220.543,330.256,219.835z"/>
			<path fill="#EDCA58" d="M319.124,232.306c2.787,0,5.047-2.259,5.047-5.047c0-3.609,2.545-6.716,6.085-7.424
				c17.68-3.536,29.326-20.51,26.263-38.279l-0.587-3.404h-73.618l-0.586,3.404c-3.064,17.769,8.583,34.745,26.263,38.279
				c3.539,0.708,6.085,3.814,6.085,7.424C314.076,230.048,316.335,232.306,319.124,232.306z"/>
			<g>
				<path fill="#F3F1F2" d="M297.813,203.464c-1.086,0.862-2.67,0.679-3.536-0.412c-0.332-0.425-0.649-0.859-0.955-1.302
					l-0.06-0.089c-0.038-0.057-0.074-0.116-0.107-0.176c-0.599-1.099-0.196-2.477,0.904-3.075l0.418-0.231
					c1.038-0.569,2.339-0.26,3.007,0.716c0.238,0.347,0.485,0.686,0.743,1.017c0.805,1.017,0.71,2.476-0.215,3.379
					C297.948,203.354,297.881,203.411,297.813,203.464z"/>
				<path fill="#F3F1F2" d="M292.019,193.314c-1.37,0.231-2.668-0.693-2.896-2.064c-0.443-2.787-0.421-5.627,0.063-8.407
					l4.806-27.868c0.237-1.374,1.542-2.295,2.917-2.057c1.374,0.237,2.295,1.542,2.058,2.915l-4.805,27.868
					c-0.387,2.224-0.408,4.497-0.059,6.727c0.202,1.272-0.586,2.491-1.828,2.83C292.191,193.281,292.105,193.3,292.019,193.314z"/>
			</g>
		</g>
		<g>
			<path fill="#E3E4E2" d="M637.052,219.835c17.682-3.536,29.327-20.51,26.266-38.279l-7.114-41.257h-60.564l-7.111,41.257
				c-3.063,17.769,8.584,34.745,26.264,38.279c3.541,0.708,6.086,3.814,6.086,7.424v44.266l-20.874,1.896
				c-3.899,0.354-6.886,3.625-6.886,7.54v0.657h65.61v-0.657c0-3.916-2.982-7.184-6.886-7.54l-20.874-1.896v-44.266
				C630.965,223.65,633.513,220.543,637.052,219.835z"/>
			<path fill="#EDCA58" d="M625.919,232.306c2.788,0,5.046-2.259,5.046-5.047c0-3.609,2.548-6.716,6.087-7.424
				c17.682-3.536,29.327-20.51,26.266-38.279l-0.591-3.404H589.11l-0.589,3.404c-3.063,17.769,8.581,34.745,26.265,38.279
				c3.541,0.708,6.086,3.814,6.086,7.424C620.871,230.048,623.132,232.306,625.919,232.306z"/>
			<g>
				<path fill="#F3F1F2" d="M604.608,203.464c-1.093,0.862-2.676,0.679-3.536-0.412c-0.332-0.425-0.65-0.859-0.955-1.302
					l-0.063-0.089c-0.038-0.057-0.071-0.116-0.104-0.176c-0.602-1.099-0.194-2.477,0.9-3.075l0.423-0.231
					c1.037-0.569,2.34-0.26,3.007,0.716c0.236,0.347,0.482,0.686,0.741,1.017c0.804,1.017,0.711,2.476-0.217,3.379
					C604.743,203.354,604.677,203.411,604.608,203.464z"/>
				<path fill="#F3F1F2" d="M598.815,193.314c-1.371,0.231-2.666-0.693-2.898-2.064c-0.443-2.787-0.42-5.627,0.064-8.407
					l4.806-27.868c0.238-1.374,1.543-2.295,2.916-2.057c1.373,0.237,2.295,1.542,2.057,2.915l-4.804,27.868
					c-0.389,2.224-0.41,4.497-0.06,6.727c0.199,1.272-0.59,2.491-1.828,2.83C598.987,193.281,598.9,193.3,598.815,193.314z"/>
			</g>
		</g>
		<g>
			<path fill="#E3E4E2" d="M490.564,367.712c17.683-3.536,29.324-20.511,26.265-38.279l-7.112-41.257H449.15l-7.113,41.257
				c-3.063,17.768,8.584,34.743,26.263,38.279c3.539,0.707,6.085,3.814,6.085,7.424V419.4l-20.874,1.898
				c-3.897,0.354-6.885,3.625-6.885,7.539v0.656h65.611v-0.656c0-3.916-2.986-7.186-6.884-7.539L484.48,419.4v-44.264
				C484.48,371.525,487.027,368.419,490.564,367.712z"/>
			<path fill="#EDCA58" d="M479.435,380.182c2.786,0,5.05-2.259,5.05-5.046c0-3.609,2.546-6.715,6.083-7.424
				c17.683-3.536,29.324-20.511,26.265-38.279l-0.587-3.404h-73.619l-0.586,3.404c-3.063,17.768,8.584,34.743,26.263,38.279
				c3.539,0.708,6.085,3.815,6.085,7.424C474.386,377.922,476.646,380.182,479.435,380.182z"/>
			<g>
				<path fill="#F3F1F2" d="M458.123,351.34c-1.089,0.862-2.674,0.677-3.535-0.413c-0.334-0.425-0.65-0.858-0.956-1.302
					l-0.059-0.087c-0.04-0.058-0.075-0.118-0.108-0.178c-0.6-1.099-0.195-2.476,0.903-3.076l0.419-0.23
					c1.038-0.57,2.338-0.26,3.007,0.716c0.238,0.346,0.486,0.685,0.745,1.018c0.801,1.016,0.709,2.474-0.217,3.379
					C458.258,351.229,458.192,351.286,458.123,351.34z"/>
				<path fill="#F3F1F2" d="M452.329,341.189c-1.371,0.229-2.667-0.694-2.897-2.064c-0.439-2.788-0.42-5.628,0.065-8.407
					l4.807-27.869c0.236-1.373,1.542-2.294,2.915-2.058c1.374,0.236,2.295,1.543,2.061,2.916l-4.807,27.869
					c-0.389,2.224-0.406,4.497-0.061,6.727c0.202,1.271-0.585,2.491-1.828,2.83C452.5,341.155,452.415,341.174,452.329,341.189z"/>
			</g>
		</g>
		<g>
			<path fill="#E3E4E2" d="M322.861,764.831v-44.264l20.874-1.897c3.896-0.354,6.885-3.624,6.885-7.539v-0.658h-65.612v0.658
				c0,3.915,2.986,7.187,6.886,7.539l20.873,1.897v44.264c0,3.609-2.547,6.717-6.085,7.426
				c-17.681,3.535-29.326,20.512-26.263,38.277l7.113,41.259h60.563l7.114-41.259c3.063-17.77-8.583-34.742-26.263-38.277
				C325.407,771.548,322.861,768.44,322.861,764.831z"/>
			<path fill="#EDCA58" d="M312.766,764.831c0,3.609-2.547,6.717-6.085,7.426c-17.681,3.535-29.326,20.512-26.263,38.277l0.586,3.4
				h73.619l0.587-3.4c3.063-17.77-8.583-34.742-26.263-38.277c-3.54-0.709-6.086-3.813-6.086-7.426c0-2.787-2.262-5.047-5.046-5.047
				C315.026,759.784,312.766,762.044,312.766,764.831z"/>
			<g>
				<path fill="#F3F1F2" d="M296.702,788.8c0.925,0.906,1.018,2.363,0.215,3.379c-0.257,0.331-0.504,0.672-0.743,1.02
					c-0.668,0.979-1.968,1.286-3.006,0.717l-0.419-0.229c-1.099-0.601-1.503-1.976-0.903-3.072c0.033-0.063,0.068-0.12,0.106-0.181
					l0.061-0.088c0.304-0.441,0.622-0.877,0.954-1.303c0.862-1.092,2.446-1.275,3.536-0.413
					C296.573,788.681,296.638,788.738,296.702,788.8z"/>
				<path fill="#F3F1F2" d="M290.965,798.834c1.241,0.34,2.03,1.559,1.828,2.829c-0.35,2.229-0.328,4.502,0.059,6.727l4.804,27.867
					c0.237,1.374-0.684,2.682-2.057,2.916c-1.374,0.237-2.679-0.684-2.917-2.058l-4.805-27.866c-0.485-2.78-0.507-5.622-0.065-8.408
					c0.229-1.369,1.527-2.294,2.897-2.063C290.795,798.792,290.881,798.811,290.965,798.834z"/>
			</g>
		</g>
		<g>
			<path fill="#E3E4E2" d="M629.655,764.831v-44.264l20.874-1.897c3.897-0.354,6.886-3.624,6.886-7.539v-0.658h-65.612v0.658
				c0,3.915,2.985,7.187,6.889,7.539l20.874,1.897v44.264c0,3.609-2.552,6.717-6.087,7.426
				c-17.683,3.535-29.325,20.512-26.266,38.277l7.113,41.259h60.563l7.112-41.259c3.064-17.77-8.583-34.742-26.263-38.277
				C632.201,771.548,629.655,768.44,629.655,764.831z"/>
			<path fill="#EDCA58" d="M619.563,764.831c0,3.609-2.548,6.717-6.086,7.426c-17.681,3.535-29.323,20.512-26.264,38.277l0.586,3.4
				h73.619l0.588-3.4c3.063-17.77-8.583-34.742-26.263-38.277c-3.541-0.709-6.087-3.813-6.087-7.426
				c0-2.787-2.258-5.047-5.046-5.047C621.823,759.784,619.563,762.044,619.563,764.831z"/>
			<g>
				<path fill="#F3F1F2" d="M603.497,788.8c0.926,0.906,1.018,2.363,0.217,3.379c-0.258,0.331-0.506,0.672-0.745,1.02
					c-0.668,0.979-1.969,1.286-3.006,0.717l-0.419-0.229c-1.1-0.601-1.502-1.976-0.905-3.072c0.035-0.063,0.07-0.12,0.107-0.181
					l0.062-0.088c0.309-0.441,0.621-0.877,0.954-1.303c0.864-1.092,2.446-1.275,3.535-0.413
					C603.368,788.681,603.435,788.738,603.497,788.8z"/>
				<path fill="#F3F1F2" d="M597.762,798.834c1.239,0.34,2.028,1.559,1.825,2.829c-0.348,2.229-0.328,4.502,0.063,6.727
					l4.805,27.867c0.236,1.374-0.688,2.682-2.061,2.916c-1.371,0.237-2.68-0.684-2.913-2.058l-4.808-27.866
					c-0.481-2.78-0.51-5.622-0.064-8.408c0.229-1.369,1.525-2.294,2.896-2.063C597.592,798.792,597.676,798.811,597.762,798.834z"/>
			</g>
		</g>
	</g>
	<g>
		<path fill="#E3E4E2" d="M328.947,521.275c17.68-3.534,29.326-20.513,26.263-38.278l-7.114-41.257H287.53l-7.113,41.257
			c-3.064,17.77,8.583,34.744,26.263,38.278c3.539,0.709,6.085,3.813,6.085,7.424v44.267l-20.874,1.896
			c-3.9,0.354-6.886,3.625-6.886,7.541v0.656h65.613v-0.656c0-3.916-2.987-7.188-6.886-7.541l-20.873-1.896v-44.267
			C322.861,525.091,325.407,521.984,328.947,521.275z"/>
		<path fill="#EDCA58" d="M317.814,533.747c2.783,0,5.047-2.259,5.047-5.048c0-3.607,2.545-6.715,6.084-7.424
			c17.68-3.534,29.326-20.513,26.264-38.278l-0.587-3.404h-73.618l-0.586,3.404c-3.064,17.77,8.583,34.744,26.263,38.278
			c3.539,0.709,6.085,3.813,6.085,7.424C312.767,531.487,315.026,533.747,317.814,533.747z"/>
		<g>
			<path fill="#F3F1F2" d="M296.504,504.906c-1.091,0.86-2.675,0.678-3.537-0.413c-0.332-0.426-0.65-0.859-0.955-1.303l-0.061-0.091
				c-0.039-0.058-0.074-0.113-0.106-0.178c-0.6-1.099-0.195-2.476,0.904-3.075l0.419-0.229c1.038-0.569,2.338-0.261,3.005,0.715
				c0.239,0.347,0.487,0.688,0.744,1.018c0.802,1.02,0.71,2.477-0.216,3.381C296.639,504.794,296.573,504.851,296.504,504.906z"/>
			<path fill="#F3F1F2" d="M290.709,494.755c-1.371,0.23-2.667-0.694-2.899-2.063c-0.441-2.786-0.419-5.627,0.067-8.406
				l4.805-27.869c0.237-1.375,1.542-2.295,2.916-2.059c1.375,0.233,2.292,1.542,2.057,2.916l-4.804,27.866
				c-0.388,2.226-0.408,4.497-0.059,6.729c0.201,1.271-0.587,2.49-1.829,2.83C290.881,494.722,290.795,494.741,290.709,494.755z"/>
		</g>
	</g>
	<g>
		<path fill="#E3E4E2" d="M635.742,521.275c17.68-3.534,29.326-20.513,26.263-38.278l-7.112-41.257h-60.565l-7.111,41.257
			c-3.063,17.77,8.583,34.744,26.265,38.278c3.537,0.709,6.088,3.813,6.088,7.424v44.267l-20.875,1.896
			c-3.898,0.354-6.888,3.625-6.888,7.541v0.656h65.612v-0.656c0-3.916-2.987-7.188-6.886-7.541l-20.874-1.896v-44.267
			C629.655,525.091,632.204,521.984,635.742,521.275z"/>
		<path fill="#EDCA58" d="M624.609,533.747c2.787,0,5.046-2.259,5.046-5.048c0-3.607,2.546-6.715,6.085-7.424
			c17.682-3.534,29.326-20.513,26.265-38.278l-0.588-3.404h-73.618l-0.587,3.404c-3.062,17.77,8.583,34.744,26.267,38.278
			c3.535,0.709,6.086,3.813,6.086,7.424C619.563,531.487,621.821,533.747,624.609,533.747z"/>
		<g>
			<path fill="#F3F1F2" d="M603.299,504.906c-1.09,0.86-2.674,0.678-3.536-0.413c-0.332-0.426-0.647-0.859-0.956-1.303l-0.06-0.091
				c-0.039-0.058-0.074-0.113-0.107-0.178c-0.599-1.099-0.191-2.476,0.903-3.075l0.421-0.229c1.037-0.569,2.337-0.261,3.007,0.715
				c0.236,0.347,0.484,0.688,0.742,1.018c0.805,1.02,0.71,2.477-0.217,3.381C603.435,504.794,603.368,504.851,603.299,504.906z"/>
			<path fill="#F3F1F2" d="M597.506,494.755c-1.371,0.23-2.666-0.694-2.896-2.063c-0.44-2.786-0.419-5.627,0.063-8.406l4.81-27.869
				c0.233-1.375,1.541-2.295,2.912-2.059c1.373,0.233,2.297,1.542,2.06,2.916l-4.807,27.866c-0.39,2.226-0.407,4.497-0.061,6.729
				c0.201,1.271-0.586,2.49-1.827,2.83C597.68,494.722,597.592,494.741,597.506,494.755z"/>
		</g>
	</g>
</g>
</svg>
