<?xml version="1.0" encoding="utf-8"?>
<!-- Generator: Adobe Illustrator 16.0.0, SVG Export Plug-In . SVG Version: 6.00 Build 0)  -->
<!DOCTYPE svg PUBLIC "-//W3C//DTD SVG 1.1//EN" "http://www.w3.org/Graphics/SVG/1.1/DTD/svg11.dtd">
<svg version="1.1" id="Layer_1" xmlns="http://www.w3.org/2000/svg" xmlns:xlink="http://www.w3.org/1999/xlink" x="0px" y="0px"
	 width="694.726px" height="972.62px" viewBox="109.329 19.667 694.726 972.62"
	 enable-background="new 109.329 19.667 694.726 972.62" xml:space="preserve">
<g id="_x38_">
	<path fill="#FFF2D2" d="M804.055,922.811c0,38.367-31.102,69.477-69.471,69.477H178.802c-38.371,0-69.473-31.105-69.473-69.477
		V89.14c0-38.369,31.102-69.473,69.473-69.473h555.782c38.369,0,69.471,31.104,69.471,69.473V922.811z"/>
	<path fill="#FFD47D" d="M166.195,470.279V143.374c4.628,1.495,9.563,2.296,14.688,2.296c26.503,0,47.991-21.488,47.991-47.998
		c0-7.585-1.763-14.761-4.896-21.136c0.103-0.006,0.211-0.006,0.314-0.006h464.803c32.088,0,58.1,27.466,58.1,61.35v332.399"/>
	<path fill="#FFD47D" d="M747.193,381.5l-0.003,487.152c-4.628-1.494-9.564-2.296-14.69-2.296c-26.502,0-47.99,21.486-47.99,47.995
		c0,7.589,1.767,14.763,4.896,21.139c-0.104,0.006-0.21,0.006-0.313,0.006H224.291c-32.087,0-58.097-27.467-58.097-61.354
		l0.001-468.644"/>
	<path fill="none" stroke="#231F20" stroke-width="5" stroke-miterlimit="10" d="M747.193,864.03"/>
	<g>
		<rect x="152.154" y="67.786" fill="none" width="103.035" height="91.404"/>
		<text transform="matrix(1 0 0 1 152.1523 132.5869)" fill="#F7B728" font-family="'Arvo'" font-size="85.2941">8</text>
	</g>
	<path fill="none" stroke="#231F20" stroke-width="5" stroke-miterlimit="10" d="M485.742,470.279"/>
	<path fill="none" stroke="#231F20" stroke-width="5" stroke-miterlimit="10" d="M166.192,470.279"/>
	<path fill="none" stroke="#231F20" stroke-width="5" stroke-miterlimit="10" d="M485.742,470.279"/>
	<path fill="none" stroke="#231F20" stroke-width="5" stroke-miterlimit="10" d="M747.193,541.745"/>
	<path fill="none" stroke="#231F20" stroke-width="5" stroke-miterlimit="10" d="M427.643,541.745"/>
	<g>
		<rect x="651.775" y="853.658" fill="none" width="103.035" height="91.405"/>
		<text transform="matrix(-1 0 0 -1 754.8086 880.2578)" fill="#F7B728" font-family="'Arvo'" font-size="85.2941">8</text>
	</g>
	<g>
		<g>
			<path fill="#E3E4E2" d="M314.648,224.952c17.73-3.546,29.414-20.574,26.344-38.396l-7.136-41.384h-60.751l-7.135,41.384
				c-3.073,17.823,8.608,34.85,26.343,38.396c3.55,0.709,6.104,3.827,6.104,7.447v44.4l-20.937,1.905
				c-3.912,0.356-6.906,3.635-6.906,7.563v0.659h65.813v-0.659c0-3.929-2.994-7.208-6.906-7.563l-20.938-1.903v-44.4
				C308.543,228.78,311.098,225.662,314.648,224.952z"/>
			<path fill="#EDCA58" d="M303.481,237.461c2.796,0,5.063-2.267,5.063-5.062c0-3.62,2.555-6.737,6.105-7.447
				c17.73-3.546,29.415-20.574,26.343-38.396l-0.589-3.415h-73.844l-0.587,3.415c-3.073,17.823,8.608,34.85,26.343,38.396
				c3.55,0.709,6.104,3.827,6.104,7.447C298.418,235.194,300.684,237.461,303.481,237.461z"/>
			<g>
				<path fill="#F3F1F2" d="M282.106,208.531c-1.093,0.866-2.683,0.681-3.547-0.414c-0.333-0.426-0.652-0.861-0.958-1.306
					l-0.061-0.088c-0.039-0.059-0.074-0.118-0.107-0.178c-0.601-1.101-0.197-2.483,0.907-3.085l0.419-0.23
					c1.041-0.572,2.346-0.261,3.017,0.718c0.238,0.347,0.486,0.687,0.746,1.02c0.804,1.019,0.711,2.481-0.217,3.391
					C282.24,208.419,282.175,208.477,282.106,208.531z"/>
				<path fill="#F3F1F2" d="M276.295,198.349c-1.375,0.231-2.676-0.696-2.907-2.07c-0.443-2.795-0.422-5.645,0.064-8.432
					l4.821-27.954c0.237-1.378,1.547-2.302,2.925-2.064c1.377,0.239,2.301,1.546,2.063,2.925l-4.82,27.955
					c-0.39,2.229-0.41,4.51-0.06,6.747c0.203,1.275-0.588,2.498-1.833,2.84C276.467,198.315,276.381,198.335,276.295,198.349z"/>
			</g>
		</g>
		<g>
			<path fill="#E3E4E2" d="M622.385,224.952c17.733-3.546,29.416-20.574,26.344-38.396l-7.136-41.384h-60.751l-7.136,41.384
				c-3.072,17.823,8.609,34.85,26.344,38.396c3.552,0.709,6.106,3.827,6.106,7.447v44.4l-20.94,1.905
				c-3.911,0.356-6.905,3.635-6.905,7.563v0.659h65.814v-0.659c0-3.929-2.996-7.208-6.908-7.563L616.28,276.8v-44.4
				C616.28,228.78,618.836,225.662,622.385,224.952z"/>
			<path fill="#EDCA58" d="M611.218,237.461c2.795,0,5.063-2.267,5.063-5.062c0-3.62,2.556-6.737,6.104-7.447
				c17.734-3.546,29.417-20.574,26.344-38.396l-0.589-3.415h-73.844l-0.59,3.415c-3.072,17.823,8.609,34.85,26.344,38.396
				c3.551,0.709,6.105,3.827,6.105,7.447C606.155,235.194,608.422,237.461,611.218,237.461z"/>
			<g>
				<path fill="#F3F1F2" d="M589.843,208.531c-1.095,0.866-2.682,0.681-3.548-0.414c-0.333-0.426-0.652-0.861-0.958-1.306
					l-0.062-0.088c-0.037-0.059-0.074-0.118-0.106-0.178c-0.601-1.101-0.195-2.483,0.906-3.085l0.422-0.23
					c1.04-0.572,2.344-0.261,3.017,0.718c0.237,0.347,0.485,0.687,0.744,1.02c0.808,1.019,0.713,2.481-0.217,3.391
					C589.979,208.419,589.91,208.477,589.843,208.531z"/>
				<path fill="#F3F1F2" d="M584.03,198.349c-1.375,0.231-2.677-0.696-2.907-2.07c-0.442-2.795-0.422-5.645,0.066-8.432
					l4.815-27.954c0.238-1.378,1.547-2.302,2.927-2.064c1.381,0.239,2.304,1.546,2.063,2.925l-4.819,27.955
					c-0.391,2.229-0.409,4.51-0.061,6.747c0.202,1.275-0.587,2.498-1.833,2.84C584.202,198.315,584.116,198.335,584.03,198.349z"/>
			</g>
		</g>
		<g>
			<path fill="#E3E4E2" d="M475.45,373.282c17.73-3.547,29.415-20.574,26.343-38.396l-7.134-41.385h-60.752l-7.134,41.385
				c-3.074,17.822,8.607,34.85,26.343,38.396c3.549,0.709,6.104,3.825,6.104,7.446v44.4l-20.938,1.903
				c-3.912,0.354-6.907,3.636-6.907,7.563v0.659h65.814v-0.659c0-3.929-2.995-7.207-6.905-7.563l-20.938-1.903v-44.4
				C469.346,377.107,471.9,373.991,475.45,373.282z"/>
			<path fill="#EDCA58" d="M464.283,385.791c2.795,0,5.063-2.267,5.063-5.063c0-3.62,2.559-6.737,6.104-7.446
				c17.73-3.547,29.415-20.574,26.343-38.396l-0.589-3.416h-73.845l-0.588,3.416c-3.072,17.822,8.608,34.85,26.344,38.396
				c3.549,0.709,6.104,3.825,6.104,7.446C459.221,383.524,461.486,385.791,464.283,385.791z"/>
			<g>
				<path fill="#F3F1F2" d="M442.908,356.86c-1.093,0.866-2.685,0.681-3.547-0.415c-0.333-0.427-0.652-0.862-0.958-1.306
					l-0.063-0.088c-0.038-0.058-0.074-0.118-0.104-0.178c-0.604-1.104-0.196-2.483,0.903-3.086l0.421-0.229
					c1.04-0.572,2.347-0.262,3.017,0.717c0.239,0.348,0.488,0.688,0.746,1.02c0.805,1.02,0.712,2.481-0.219,3.391
					C443.044,356.747,442.977,356.805,442.908,356.86z"/>
				<path fill="#F3F1F2" d="M437.095,346.678c-1.374,0.229-2.676-0.697-2.907-2.071c-0.44-2.795-0.421-5.646,0.065-8.433
					l4.82-27.953c0.235-1.378,1.547-2.303,2.925-2.063c1.377,0.237,2.301,1.546,2.063,2.923l-4.817,27.954
					c-0.394,2.231-0.411,4.51-0.062,6.748c0.202,1.276-0.587,2.498-1.834,2.837C437.267,346.644,437.181,346.663,437.095,346.678z"
					/>
			</g>
		</g>
		<g>
			<path fill="#E3E4E2" d="M307.229,771.618v-44.4l20.938-1.9c3.912-0.354,6.906-3.639,6.906-7.563v-0.659H269.26v0.659
				c0,3.928,2.995,7.208,6.906,7.563l20.937,1.9v44.4c0,3.62-2.554,6.736-6.103,7.445c-17.734,3.549-29.416,20.572-26.343,38.396
				l7.134,41.387h60.751l7.136-41.387c3.071-17.822-8.607-34.849-26.343-38.396C309.785,778.354,307.229,775.238,307.229,771.618z"
				/>
			<path fill="#EDCA58" d="M297.104,771.618c0,3.62-2.554,6.736-6.103,7.445c-17.734,3.549-29.416,20.572-26.343,38.396l0.588,3.417
				h73.845l0.588-3.417c3.072-17.822-8.607-34.849-26.343-38.396c-3.55-0.712-6.104-3.825-6.104-7.445
				c0-2.795-2.269-5.063-5.063-5.063C299.371,766.557,297.104,768.823,297.104,771.618z"/>
			<g>
				<path fill="#F3F1F2" d="M280.991,795.66c0.928,0.91,1.021,2.369,0.217,3.39c-0.258,0.333-0.508,0.675-0.746,1.021
					c-0.671,0.979-1.976,1.291-3.016,0.718l-0.42-0.23c-1.103-0.602-1.507-1.979-0.907-3.083c0.034-0.063,0.068-0.118,0.107-0.178
					l0.061-0.091c0.305-0.444,0.625-0.881,0.957-1.305c0.865-1.098,2.454-1.279,3.548-0.413
					C280.861,795.541,280.926,795.601,280.991,795.66z"/>
				<path fill="#F3F1F2" d="M275.237,805.726c1.245,0.343,2.036,1.563,1.833,2.841c-0.35,2.235-0.329,4.517,0.06,6.745l4.819,27.954
					c0.237,1.378-0.686,2.688-2.063,2.927c-1.378,0.233-2.688-0.688-2.926-2.064l-4.819-27.953c-0.487-2.788-0.51-5.639-0.066-8.434
					c0.23-1.372,1.532-2.303,2.907-2.07C275.067,805.683,275.152,805.703,275.237,805.726z"/>
			</g>
		</g>
		<g>
			<path fill="#E3E4E2" d="M614.966,771.618v-44.4l20.938-1.9c3.912-0.354,6.904-3.639,6.904-7.563v-0.659h-65.813v0.659
				c0,3.928,2.995,7.208,6.907,7.563l20.938,1.9v44.4c0,3.62-2.555,6.736-6.104,7.445c-17.733,3.549-29.415,20.572-26.346,38.396
				l7.138,41.387h60.752l7.135-41.387c3.072-17.822-8.609-34.849-26.344-38.396C617.521,778.354,614.966,775.238,614.966,771.618z"
				/>
			<path fill="#EDCA58" d="M604.841,771.618c0,3.62-2.555,6.736-6.104,7.445c-17.733,3.549-29.415,20.572-26.346,38.396l0.591,3.417
				h73.845l0.59-3.417c3.072-17.822-8.61-34.849-26.344-38.396c-3.55-0.712-6.105-3.825-6.105-7.445
				c0-2.795-2.267-5.063-5.062-5.063C607.108,766.557,604.841,768.823,604.841,771.618z"/>
			<g>
				<path fill="#F3F1F2" d="M588.729,795.66c0.929,0.91,1.021,2.369,0.218,3.39c-0.261,0.333-0.506,0.675-0.746,1.021
					c-0.67,0.979-1.979,1.291-3.018,0.718l-0.421-0.23c-1.103-0.602-1.508-1.979-0.908-3.083c0.035-0.063,0.07-0.118,0.108-0.178
					l0.06-0.091c0.31-0.444,0.625-0.881,0.959-1.305c0.864-1.098,2.452-1.279,3.55-0.413
					C588.598,795.541,588.664,795.601,588.729,795.66z"/>
				<path fill="#F3F1F2" d="M582.973,805.726c1.246,0.343,2.035,1.563,1.834,2.841c-0.351,2.235-0.33,4.517,0.063,6.745
					l4.816,27.954c0.238,1.378-0.688,2.688-2.063,2.927c-1.38,0.233-2.688-0.688-2.926-2.064l-4.82-27.953
					c-0.485-2.788-0.51-5.639-0.064-8.434c0.229-1.372,1.532-2.303,2.906-2.07C582.803,805.683,582.889,805.703,582.973,805.726z"/>
			</g>
		</g>
	</g>
	<g>
		<path fill="#E3E4E2" d="M313.336,527.318c17.734-3.548,29.416-20.574,26.343-38.397l-7.135-41.385h-60.752l-7.134,41.385
			c-3.073,17.823,8.61,34.85,26.343,38.397c3.549,0.708,6.104,3.822,6.104,7.443v44.4l-20.938,1.904
			c-3.911,0.354-6.906,3.634-6.906,7.563v0.659h65.813v-0.659c0-3.929-2.995-7.207-6.906-7.563l-20.938-1.904v-44.4
			C307.23,531.144,309.785,528.026,313.336,527.318z"/>
		<path fill="#EDCA58" d="M302.168,539.826c2.795,0,5.063-2.27,5.063-5.063c0-3.62,2.556-6.736,6.104-7.443
			c17.734-3.548,29.415-20.574,26.343-38.397l-0.588-3.416h-73.845l-0.588,3.416c-3.073,17.823,8.61,34.851,26.343,38.397
			c3.549,0.708,6.104,3.822,6.104,7.443C297.105,537.56,299.371,539.826,302.168,539.826z"/>
		<g>
			<path fill="#F3F1F2" d="M280.793,510.896c-1.093,0.865-2.683,0.683-3.547-0.411c-0.333-0.43-0.653-0.861-0.958-1.311l-0.06-0.087
				c-0.039-0.06-0.075-0.116-0.108-0.178c-0.601-1.104-0.195-2.484,0.907-3.085l0.421-0.231c1.041-0.568,2.344-0.262,3.015,0.723
				c0.238,0.347,0.488,0.687,0.746,1.019c0.804,1.021,0.711,2.481-0.217,3.391C280.927,510.784,280.862,510.841,280.793,510.896z"/>
			<path fill="#F3F1F2" d="M274.98,500.714c-1.374,0.231-2.676-0.696-2.906-2.07c-0.443-2.795-0.42-5.645,0.066-8.432l4.82-27.955
				c0.239-1.378,1.547-2.301,2.925-2.063c1.378,0.236,2.302,1.546,2.063,2.925l-4.82,27.954c-0.39,2.229-0.411,4.51-0.06,6.747
				c0.202,1.273-0.587,2.498-1.834,2.839C275.153,500.682,275.067,500.699,274.98,500.714z"/>
		</g>
	</g>
	<g>
		<path fill="#E3E4E2" d="M621.071,527.318c17.732-3.548,29.416-20.574,26.344-38.397l-7.136-41.385h-60.752l-7.137,41.385
			c-3.069,17.823,8.609,34.85,26.346,38.397c3.551,0.708,6.104,3.822,6.104,7.443v44.4l-20.938,1.904
			c-3.912,0.354-6.907,3.634-6.907,7.563v0.659h65.813v-0.659c0-3.929-2.992-7.207-6.904-7.563l-20.938-1.904v-44.4
			C614.966,531.144,617.521,528.026,621.071,527.318z"/>
		<path fill="#EDCA58" d="M609.903,539.826c2.796,0,5.063-2.27,5.063-5.063c0-3.62,2.559-6.736,6.104-7.443
			c17.732-3.548,29.416-20.574,26.345-38.397l-0.59-3.416H572.98l-0.591,3.416c-3.069,17.823,8.61,34.851,26.346,38.397
			c3.551,0.708,6.104,3.822,6.104,7.443C604.841,537.56,607.108,539.826,609.903,539.826z"/>
		<g>
			<path fill="#F3F1F2" d="M588.528,510.896c-1.097,0.865-2.687,0.683-3.547-0.411c-0.333-0.43-0.652-0.861-0.96-1.311l-0.062-0.087
				c-0.039-0.06-0.074-0.116-0.104-0.178c-0.604-1.104-0.196-2.484,0.903-3.085l0.422-0.231c1.04-0.568,2.348-0.262,3.018,0.723
				c0.239,0.347,0.484,0.687,0.746,1.019c0.804,1.021,0.712,2.481-0.22,3.391C588.664,510.784,588.598,510.841,588.528,510.896z"/>
			<path fill="#F3F1F2" d="M582.717,500.714c-1.375,0.231-2.677-0.696-2.907-2.07c-0.438-2.795-0.42-5.645,0.066-8.432l4.82-27.955
				c0.234-1.378,1.546-2.301,2.924-2.063c1.378,0.236,2.302,1.546,2.063,2.925l-4.815,27.954c-0.394,2.229-0.41,4.51-0.063,6.747
				c0.201,1.273-0.588,2.498-1.835,2.839C582.89,500.682,582.803,500.699,582.717,500.714z"/>
		</g>
	</g>
	<g>
		<path fill="#E3E4E2" d="M469.346,643.175v-44.397l20.938-1.905c3.911-0.354,6.905-3.636,6.905-7.563v-0.656h-65.814v0.656
			c0,3.929,2.995,7.207,6.907,7.563l20.938,1.905v44.397c0,3.621-2.555,6.737-6.104,7.446
			c-17.734,3.548-29.417,20.575-26.343,38.396l7.134,41.387h60.752l7.134-41.387c3.071-17.818-8.61-34.849-26.343-38.396
			C471.9,649.912,469.346,646.796,469.346,643.175z"/>
		<path fill="#EDCA58" d="M459.221,643.175c0,3.621-2.555,6.737-6.104,7.446c-17.734,3.548-29.416,20.575-26.343,38.396l0.587,3.414
			h73.845l0.589-3.414c3.071-17.818-8.609-34.849-26.343-38.396c-3.55-0.71-6.104-3.825-6.104-7.446
			c0-2.797-2.268-5.062-5.063-5.062C461.486,638.113,459.221,640.378,459.221,643.175z"/>
		<g>
			<path fill="#F3F1F2" d="M443.105,667.217c0.928,0.908,1.021,2.369,0.218,3.393c-0.258,0.333-0.508,0.673-0.747,1.021
				c-0.67,0.979-1.978,1.29-3.018,0.719l-0.42-0.229c-1.103-0.604-1.508-1.982-0.903-3.085c0.031-0.063,0.067-0.12,0.105-0.181
				l0.062-0.089c0.306-0.44,0.625-0.88,0.958-1.306c0.863-1.093,2.454-1.279,3.547-0.414
				C442.977,667.098,443.044,667.155,443.105,667.217z"/>
			<path fill="#F3F1F2" d="M437.352,677.281c1.246,0.34,2.037,1.563,1.834,2.839c-0.351,2.237-0.328,4.517,0.062,6.747l4.82,27.953
				c0.235,1.379-0.688,2.688-2.063,2.926c-1.378,0.235-2.687-0.688-2.925-2.064l-4.82-27.952c-0.485-2.786-0.508-5.64-0.063-8.435
				c0.229-1.375,1.532-2.302,2.905-2.07C437.181,677.239,437.267,677.258,437.352,677.281z"/>
		</g>
	</g>
</g>
</svg>
