<?xml version="1.0" encoding="utf-8"?>
<!-- Generator: Adobe Illustrator 16.0.0, SVG Export Plug-In . SVG Version: 6.00 Build 0)  -->
<!DOCTYPE svg PUBLIC "-//W3C//DTD SVG 1.1//EN" "http://www.w3.org/Graphics/SVG/1.1/DTD/svg11.dtd">
<svg version="1.1" id="Layer_1" xmlns="http://www.w3.org/2000/svg" xmlns:xlink="http://www.w3.org/1999/xlink" x="0px" y="0px"
	 width="677.144px" height="948.005px" viewBox="252.105 31.872 677.144 948.005"
	 enable-background="new 252.105 31.872 677.144 948.005" xml:space="preserve">
<g id="_x39_">
	<path fill="#FFF2D2" d="M929.249,912.164c0,37.395-30.315,67.713-67.714,67.713H319.819c-37.4,0-67.714-30.318-67.714-67.713
		V99.587c0-37.396,30.314-67.715,67.714-67.715h541.716c37.398,0,67.714,30.318,67.714,67.715V912.164z"/>
	<path fill="#FFD47D" d="M307.53,471.083V152.45c4.51,1.456,9.319,2.238,14.313,2.238c25.832,0,46.776-20.944,46.776-46.784
		c0-7.393-1.718-14.388-4.772-20.601c0.103-0.006,0.205-0.006,0.308-0.006h453.039c31.272,0,56.627,26.77,56.627,59.797v323.988"/>
	<path fill="#FFD47D" d="M873.821,375.5l0.001,483.874c-4.513-1.459-9.322-2.238-14.315-2.238
		c-25.832,0-46.774,20.945-46.774,46.783c0,7.396,1.719,14.389,4.771,20.6c-0.101,0.009-0.205,0.009-0.305,0.009h-453.04
		c-31.276,0-56.626-26.771-56.626-59.798l-0.002-479.023"/>
	<path fill="none" stroke="#231F20" stroke-width="5" stroke-miterlimit="10" d="M873.825,854.869"/>
	<g>
		<rect x="293.844" y="78.773" fill="none" width="100.428" height="89.09"/>
		<text transform="matrix(1 0 0 1 293.8438 141.9365)" fill="#F7B728" font-family="'Arvo'" font-size="83.1357">9</text>
	</g>
	<path fill="none" stroke="#231F20" stroke-width="5" stroke-miterlimit="10" d="M873.821,381.5"/>
	<path fill="none" stroke="#231F20" stroke-width="5" stroke-miterlimit="10" d="M618.991,471.083"/>
	<path fill="none" stroke="#231F20" stroke-width="5" stroke-miterlimit="10" d="M618.991,471.083"/>
	<path fill="none" stroke="#231F20" stroke-width="5" stroke-miterlimit="10" d="M873.825,540.74"/>
	<path fill="none" stroke="#231F20" stroke-width="5" stroke-miterlimit="10" d="M562.361,540.74"/>
	<g>
		<rect x="786.643" y="844.762" fill="none" width="100.431" height="89.091"/>
		<text transform="matrix(-1 0 0 -1 887.0742 870.6914)" fill="#F7B728" font-family="'Arvo'" font-size="83.1357">9</text>
	</g>
	<g>
		<g>
			<path fill="#E3E4E2" d="M452.229,231.963c17.284-3.457,28.674-20.053,25.678-37.425l-6.954-40.336h-59.215l-6.955,40.336
				c-2.995,17.372,8.392,33.968,25.677,37.425c3.46,0.692,5.95,3.729,5.95,7.259v43.277L416,284.354
				c-3.813,0.346-6.73,3.544-6.73,7.371v0.643h64.147v-0.643c0-3.828-2.919-7.024-6.731-7.371l-20.406-1.854v-43.277
				C446.276,235.694,448.767,232.655,452.229,231.963z"/>
			<path fill="#EDCA58" d="M441.342,244.156c2.729,0,4.938-2.209,4.938-4.934c0-3.528,2.487-6.566,5.947-7.259
				c17.286-3.457,28.674-20.053,25.68-37.425l-0.575-3.328h-71.978l-0.571,3.328c-2.995,17.372,8.392,33.968,25.677,37.425
				c3.46,0.692,5.95,3.729,5.95,7.259C436.408,241.946,438.617,244.156,441.342,244.156z"/>
			<g>
				<path fill="#F3F1F2" d="M420.508,215.958c-1.063,0.844-2.615,0.664-3.458-0.403c-0.324-0.416-0.636-0.839-0.933-1.273
					l-0.063-0.085c-0.038-0.056-0.07-0.114-0.104-0.173c-0.587-1.074-0.192-2.42,0.883-3.006l0.409-0.225
					c1.015-0.557,2.286-0.254,2.938,0.701c0.232,0.338,0.479,0.669,0.729,0.994c0.785,0.993,0.692,2.418-0.21,3.303
					C420.641,215.849,420.574,215.905,420.508,215.958z"/>
				<path fill="#F3F1F2" d="M414.843,206.033c-1.339,0.226-2.605-0.678-2.833-2.018c-0.431-2.725-0.41-5.502,0.064-8.218
					l4.699-27.247c0.229-1.344,1.507-2.243,2.851-2.012c1.342,0.232,2.243,1.508,2.011,2.851l-4.697,27.246
					c-0.379,2.174-0.397,4.396-0.057,6.577c0.198,1.244-0.574,2.436-1.788,2.767C415.011,206.001,414.927,206.02,414.843,206.033z"
					/>
			</g>
		</g>
		<g>
			<path fill="#E3E4E2" d="M752.175,231.963c17.286-3.457,28.673-20.053,25.677-37.425l-6.951-40.336h-59.218l-6.952,40.336
				c-2.993,17.372,8.394,33.968,25.68,37.425c3.459,0.692,5.945,3.729,5.945,7.259v43.277l-20.403,1.854
				c-3.813,0.346-6.732,3.544-6.732,7.371v0.643h64.148v-0.643c0-3.828-2.92-7.024-6.732-7.371l-20.405-1.854v-43.277
				C746.226,235.694,748.716,232.655,752.175,231.963z"/>
			<path fill="#EDCA58" d="M741.29,244.156c2.726,0,4.936-2.209,4.936-4.934c0-3.528,2.489-6.566,5.949-7.259
				c17.286-3.457,28.672-20.053,25.677-37.425l-0.572-3.328h-71.979l-0.573,3.328c-2.993,17.372,8.395,33.968,25.681,37.425
				c3.459,0.692,5.945,3.729,5.945,7.259C736.356,241.946,738.563,244.156,741.29,244.156z"/>
			<g>
				<path fill="#F3F1F2" d="M720.456,215.958c-1.066,0.844-2.614,0.664-3.457-0.403c-0.325-0.416-0.635-0.839-0.934-1.273
					l-0.063-0.085c-0.037-0.056-0.071-0.114-0.104-0.173c-0.587-1.074-0.191-2.42,0.884-3.006l0.41-0.225
					c1.013-0.557,2.282-0.254,2.938,0.701c0.232,0.338,0.479,0.669,0.729,0.994c0.78,0.993,0.689,2.418-0.212,3.303
					C720.589,215.849,720.525,215.905,720.456,215.958z"/>
				<path fill="#F3F1F2" d="M714.792,206.033c-1.34,0.226-2.608-0.678-2.833-2.018c-0.432-2.725-0.41-5.502,0.063-8.219
					l4.698-27.246c0.231-1.343,1.507-2.243,2.854-2.012c1.342,0.231,2.242,1.508,2.012,2.85l-4.698,27.247
					c-0.379,2.174-0.396,4.396-0.057,6.576c0.195,1.243-0.573,2.435-1.788,2.767C714.96,206.001,714.876,206.02,714.792,206.033z"/>
			</g>
		</g>
		<g>
			<path fill="#E3E4E2" d="M452.229,411.601c17.284-3.456,28.674-20.053,25.678-37.425l-6.954-40.338h-59.215l-6.955,40.338
				c-2.995,17.371,8.392,33.968,25.677,37.425c3.46,0.692,5.95,3.729,5.95,7.258v43.276L416,463.992
				c-3.813,0.347-6.73,3.543-6.73,7.371v0.642h64.147v-0.642c0-3.829-2.919-7.024-6.731-7.371l-20.406-1.856V418.86
				C446.276,415.331,448.767,412.293,452.229,411.601z"/>
			<path fill="#EDCA58" d="M441.342,423.794c2.729,0,4.938-2.209,4.938-4.935c0-3.528,2.487-6.566,5.947-7.258
				c17.286-3.456,28.674-20.053,25.68-37.425l-0.575-3.329h-71.978l-0.571,3.329c-2.995,17.371,8.392,33.968,25.677,37.425
				c3.46,0.692,5.95,3.729,5.95,7.258C436.408,421.584,438.617,423.794,441.342,423.794z"/>
			<g>
				<path fill="#F3F1F2" d="M420.508,395.594c-1.063,0.844-2.615,0.665-3.458-0.403c-0.324-0.416-0.636-0.84-0.933-1.273
					l-0.063-0.086c-0.038-0.057-0.07-0.114-0.104-0.174c-0.587-1.075-0.192-2.421,0.883-3.008l0.409-0.224
					c1.015-0.559,2.286-0.254,2.938,0.7c0.232,0.339,0.479,0.669,0.729,0.993c0.785,0.993,0.692,2.419-0.21,3.304
					C420.641,395.486,420.574,395.543,420.508,395.594z"/>
				<path fill="#F3F1F2" d="M414.843,385.671c-1.339,0.225-2.605-0.679-2.833-2.018c-0.431-2.724-0.41-5.501,0.064-8.219
					l4.699-27.246c0.229-1.343,1.507-2.244,2.851-2.012c1.342,0.231,2.243,1.508,2.011,2.851l-4.697,27.246
					c-0.379,2.175-0.397,4.397-0.057,6.578c0.198,1.243-0.574,2.435-1.788,2.766C415.011,385.638,414.927,385.657,414.843,385.671z"
					/>
			</g>
		</g>
		<g>
			<path fill="#E3E4E2" d="M752.175,411.601c17.286-3.456,28.673-20.053,25.677-37.425l-6.951-40.338h-59.218l-6.952,40.338
				c-2.993,17.371,8.394,33.968,25.68,37.425c3.459,0.692,5.945,3.729,5.945,7.258v43.276l-20.403,1.856
				c-3.813,0.347-6.732,3.543-6.732,7.371v0.642h64.148v-0.642c0-3.829-2.92-7.024-6.732-7.371l-20.405-1.856v-43.276
				C746.226,415.331,748.716,412.293,752.175,411.601z"/>
			<path fill="#EDCA58" d="M741.29,423.794c2.726,0,4.936-2.209,4.936-4.935c0-3.528,2.489-6.566,5.949-7.258
				c17.286-3.456,28.672-20.053,25.677-37.425l-0.572-3.329h-71.979l-0.573,3.329c-2.993,17.371,8.395,33.968,25.681,37.425
				c3.459,0.692,5.945,3.729,5.945,7.258C736.356,421.584,738.563,423.794,741.29,423.794z"/>
			<g>
				<path fill="#F3F1F2" d="M720.456,395.594c-1.066,0.844-2.614,0.665-3.457-0.403c-0.325-0.416-0.635-0.84-0.934-1.273
					l-0.063-0.086c-0.037-0.057-0.071-0.114-0.104-0.174c-0.587-1.075-0.191-2.421,0.884-3.008l0.41-0.224
					c1.013-0.559,2.282-0.254,2.938,0.7c0.232,0.339,0.479,0.669,0.729,0.993c0.78,0.993,0.689,2.419-0.212,3.304
					C720.589,395.486,720.525,395.543,720.456,395.594z"/>
				<path fill="#F3F1F2" d="M714.792,385.671c-1.34,0.225-2.608-0.679-2.833-2.018c-0.432-2.725-0.41-5.501,0.063-8.219
					l4.698-27.246c0.231-1.343,1.507-2.244,2.854-2.012c1.343,0.231,2.242,1.508,2.012,2.851l-4.698,27.246
					c-0.379,2.175-0.396,4.397-0.057,6.578c0.195,1.243-0.573,2.435-1.788,2.766C714.96,385.638,714.876,385.657,714.792,385.671z"
					/>
			</g>
		</g>
		<g>
			<path fill="#E3E4E2" d="M601.563,526.678c17.283-3.459,28.674-20.055,25.679-37.426l-6.955-40.336H561.07l-6.954,40.336
				c-2.996,17.372,8.391,33.967,25.677,37.426c3.459,0.691,5.948,3.729,5.948,7.258v43.275l-20.406,1.857
				c-3.813,0.346-6.731,3.543-6.731,7.366v0.646h64.146v-0.646c0-3.823-2.919-7.021-6.732-7.366l-20.403-1.857v-43.275
				C595.611,530.406,598.101,527.369,601.563,526.678z"/>
			<path fill="#EDCA58" d="M590.677,538.869c2.727,0,4.937-2.209,4.937-4.937c0-3.524,2.486-6.563,5.947-7.258
				c17.285-3.459,28.675-20.055,25.68-37.426l-0.576-3.329h-71.977l-0.571,3.329c-2.996,17.372,8.391,33.967,25.676,37.426
				c3.46,0.691,5.949,3.729,5.949,7.258C585.741,536.66,587.95,538.869,590.677,538.869z"/>
			<g>
				<path fill="#F3F1F2" d="M569.842,510.672c-1.063,0.842-2.614,0.662-3.458-0.404c-0.324-0.416-0.634-0.84-0.933-1.271
					l-0.062-0.086c-0.038-0.06-0.069-0.115-0.104-0.174c-0.585-1.074-0.19-2.42,0.884-3.007l0.41-0.229
					c1.015-0.555,2.286-0.254,2.938,0.703c0.231,0.338,0.478,0.668,0.729,0.992c0.785,0.994,0.692,2.42-0.212,3.305
					C569.974,510.561,569.91,510.619,569.842,510.672z"/>
				<path fill="#F3F1F2" d="M564.178,500.746c-1.342,0.227-2.605-0.678-2.834-2.017c-0.432-2.729-0.411-5.506,0.063-8.222
					l4.698-27.246c0.229-1.344,1.508-2.243,2.85-2.012c1.345,0.232,2.244,1.508,2.012,2.85l-4.697,27.246
					c-0.38,2.178-0.396,4.397-0.058,6.577c0.196,1.243-0.572,2.438-1.787,2.771C564.345,500.715,564.261,500.732,564.178,500.746z"
					/>
			</g>
		</g>
		<g>
			<path fill="#E3E4E2" d="M444.996,764.795v-43.277l20.408-1.854c3.812-0.348,6.729-3.545,6.729-7.373v-0.641h-64.146v0.641
				c0,3.828,2.919,7.025,6.729,7.373l20.408,1.854v43.277c0,3.529-2.49,6.566-5.95,7.26c-17.285,3.457-28.671,20.056-25.677,37.425
				l6.955,40.34h59.215l6.954-40.34c2.996-17.369-8.394-33.966-25.676-37.425C447.486,771.361,444.996,768.324,444.996,764.795z"/>
			<path fill="#EDCA58" d="M435.127,764.795c0,3.529-2.49,6.566-5.95,7.26c-17.285,3.457-28.671,20.056-25.677,37.425l0.574,3.327
				h71.976l0.574-3.327c2.996-17.369-8.391-33.966-25.676-37.425c-3.46-0.69-5.95-3.729-5.95-7.26c0-2.725-2.209-4.934-4.934-4.934
				C437.336,759.861,435.127,762.07,435.127,764.795z"/>
			<g>
				<path fill="#F3F1F2" d="M419.421,788.229c0.904,0.885,0.995,2.313,0.21,3.305c-0.252,0.324-0.494,0.654-0.727,0.992
					c-0.653,0.955-1.926,1.26-2.939,0.698l-0.41-0.225c-1.074-0.584-1.47-1.932-0.884-3.006c0.033-0.062,0.067-0.117,0.104-0.174
					l0.06-0.086c0.297-0.437,0.608-0.857,0.934-1.271c0.846-1.063,2.394-1.246,3.457-0.401
					C419.295,788.113,419.36,788.17,419.421,788.229z"/>
				<path fill="#F3F1F2" d="M413.813,798.041c1.217,0.33,1.984,1.521,1.787,2.764c-0.343,2.187-0.319,4.402,0.061,6.578
					l4.698,27.246c0.229,1.342-0.671,2.619-2.015,2.854c-1.343,0.229-2.618-0.673-2.851-2.017l-4.698-27.246
					c-0.474-2.717-0.497-5.494-0.063-8.219c0.226-1.34,1.491-2.244,2.832-2.02C413.646,797.998,413.73,798.018,413.813,798.041z"/>
			</g>
		</g>
		<g>
			<path fill="#E3E4E2" d="M744.944,764.795v-43.277l20.406-1.854c3.813-0.348,6.731-3.545,6.731-7.373v-0.641h-64.148v0.641
				c0,3.828,2.922,7.025,6.731,7.373l20.407,1.854v43.277c0,3.529-2.49,6.566-5.95,7.26c-17.285,3.457-28.672,20.056-25.677,37.425
				l6.953,40.34h59.216l6.953-40.34c2.993-17.369-8.395-33.966-25.679-37.425C747.436,771.361,744.944,768.324,744.944,764.795z"/>
			<path fill="#EDCA58" d="M735.076,764.795c0,3.529-2.49,6.566-5.95,7.26c-17.285,3.457-28.672,20.056-25.677,37.425l0.574,3.327
				h71.976l0.573-3.327c2.996-17.369-8.395-33.966-25.679-37.425c-3.459-0.69-5.947-3.729-5.947-7.26
				c0-2.725-2.209-4.934-4.936-4.934C737.289,759.861,735.076,762.07,735.076,764.795z"/>
			<g>
				<path fill="#F3F1F2" d="M719.369,788.229c0.904,0.885,0.996,2.313,0.212,3.305c-0.252,0.324-0.494,0.654-0.729,0.992
					c-0.651,0.955-1.925,1.26-2.938,0.698l-0.41-0.225c-1.073-0.584-1.47-1.932-0.883-3.006c0.033-0.062,0.064-0.117,0.104-0.174
					l0.061-0.086c0.297-0.437,0.605-0.857,0.935-1.271c0.843-1.063,2.394-1.246,3.457-0.401
					C719.244,788.113,719.309,788.17,719.369,788.229z"/>
				<path fill="#F3F1F2" d="M713.76,798.041c1.215,0.33,1.985,1.521,1.788,2.764c-0.343,2.187-0.322,4.402,0.062,6.578l4.693,27.246
					c0.232,1.342-0.669,2.619-2.012,2.854c-1.342,0.229-2.618-0.673-2.85-2.017l-4.698-27.246c-0.475-2.717-0.497-5.494-0.064-8.219
					c0.229-1.34,1.494-2.244,2.833-2.02C713.595,797.998,713.679,798.018,713.76,798.041z"/>
			</g>
		</g>
		<g>
			<path fill="#E3E4E2" d="M444.996,585.158v-43.277l20.408-1.854c3.812-0.349,6.729-3.543,6.729-7.371v-0.644h-64.146v0.644
				c0,3.828,2.919,7.021,6.729,7.371l20.408,1.854v43.277c0,3.524-2.49,6.563-5.95,7.258c-17.285,3.457-28.671,20.055-25.677,37.426
				l6.955,40.336h59.215l6.954-40.336c2.996-17.371-8.394-33.969-25.676-37.426C447.486,591.725,444.996,588.688,444.996,585.158z"
				/>
			<path fill="#EDCA58" d="M435.127,585.158c0,3.524-2.49,6.563-5.95,7.258c-17.285,3.457-28.671,20.055-25.677,37.426l0.574,3.328
				h71.976l0.574-3.328c2.996-17.371-8.391-33.969-25.676-37.426c-3.46-0.691-5.95-3.729-5.95-7.258
				c0-2.728-2.209-4.938-4.934-4.938C437.336,580.223,435.127,582.434,435.127,585.158z"/>
			<g>
				<path fill="#F3F1F2" d="M419.421,608.592c0.904,0.888,0.995,2.313,0.21,3.308c-0.252,0.321-0.494,0.651-0.727,0.989
					c-0.653,0.955-1.926,1.263-2.939,0.701l-0.41-0.225c-1.074-0.586-1.47-1.935-0.884-3.006c0.033-0.062,0.067-0.117,0.104-0.173
					l0.06-0.09c0.297-0.434,0.608-0.854,0.934-1.271c0.846-1.066,2.394-1.248,3.457-0.404
					C419.295,608.477,419.36,608.531,419.421,608.592z"/>
				<path fill="#F3F1F2" d="M413.813,618.4c1.217,0.332,1.984,1.522,1.787,2.768c-0.343,2.182-0.319,4.402,0.061,6.576l4.698,27.246
					c0.229,1.344-0.671,2.621-2.015,2.852c-1.343,0.23-2.618-0.668-2.851-2.01l-4.698-27.248c-0.474-2.717-0.497-5.496-0.063-8.219
					c0.226-1.34,1.491-2.244,2.832-2.021C413.646,618.361,413.73,618.379,413.813,618.4z"/>
			</g>
		</g>
		<g>
			<path fill="#E3E4E2" d="M744.944,585.158v-43.277l20.406-1.854c3.813-0.349,6.731-3.543,6.731-7.371v-0.644h-64.148v0.644
				c0,3.828,2.922,7.021,6.731,7.371l20.407,1.854v43.277c0,3.524-2.49,6.563-5.95,7.258c-17.285,3.457-28.672,20.055-25.677,37.426
				l6.953,40.336h59.216l6.953-40.336c2.993-17.371-8.395-33.969-25.679-37.426C747.436,591.725,744.944,588.688,744.944,585.158z"
				/>
			<path fill="#EDCA58" d="M735.076,585.158c0,3.524-2.49,6.563-5.95,7.258c-17.285,3.457-28.672,20.055-25.677,37.426l0.574,3.328
				h71.976l0.573-3.328c2.996-17.371-8.395-33.969-25.679-37.426c-3.459-0.691-5.947-3.729-5.947-7.258
				c0-2.728-2.209-4.938-4.936-4.938C737.289,580.223,735.076,582.434,735.076,585.158z"/>
			<g>
				<path fill="#F3F1F2" d="M719.369,608.592c0.904,0.888,0.996,2.313,0.212,3.308c-0.252,0.321-0.494,0.651-0.729,0.989
					c-0.651,0.955-1.925,1.263-2.938,0.701l-0.41-0.225c-1.073-0.586-1.47-1.935-0.883-3.006c0.033-0.062,0.064-0.117,0.104-0.173
					l0.061-0.09c0.297-0.434,0.605-0.854,0.935-1.271c0.843-1.066,2.394-1.248,3.457-0.404
					C719.244,608.477,719.309,608.531,719.369,608.592z"/>
				<path fill="#F3F1F2" d="M713.76,618.4c1.215,0.332,1.985,1.522,1.788,2.768c-0.343,2.182-0.322,4.402,0.062,6.576l4.693,27.246
					c0.232,1.344-0.669,2.621-2.012,2.852c-1.342,0.23-2.618-0.668-2.85-2.01l-4.698-27.248c-0.475-2.717-0.497-5.496-0.064-8.219
					c0.229-1.34,1.494-2.244,2.833-2.021C713.595,618.361,713.679,618.379,713.76,618.4z"/>
			</g>
		</g>
	</g>
</g>
</svg>
