<?xml version="1.0" encoding="utf-8"?>
<!-- Generator: Adobe Illustrator 16.0.0, SVG Export Plug-In . SVG Version: 6.00 Build 0)  -->
<!DOCTYPE svg PUBLIC "-//W3C//DTD SVG 1.1//EN" "http://www.w3.org/Graphics/SVG/1.1/DTD/svg11.dtd">
<svg version="1.1" id="Layer_1" xmlns="http://www.w3.org/2000/svg" xmlns:xlink="http://www.w3.org/1999/xlink" x="0px" y="0px"
	 width="685.902px" height="960.266px" viewBox="0 0 685.902 960.266" enable-background="new 0 0 685.902 960.266"
	 xml:space="preserve">
<g id="a">
	<g>
		<path fill="#FFF2D2" d="M685.902,891.675c0,37.879-30.707,68.591-68.589,68.591H68.589C30.707,960.266,0,929.554,0,891.675V68.591
			C0,30.71,30.708,0,68.589,0h548.724c37.882,0,68.589,30.71,68.589,68.591V891.675z"/>
		<path fill="#FFD47D" d="M56.144,444.89V122.137c4.569,1.475,9.442,2.268,14.5,2.268c26.167,0,47.383-21.216,47.383-47.389
			c0-7.49-1.741-14.573-4.834-20.868c0.101-0.005,0.208-0.005,0.309-0.005h458.898c31.681,0,57.36,27.116,57.36,60.57V444.89"/>
		<path fill="#FFD47D" d="M629.76,356.633l0.001,481.57c-4.57-1.479-9.443-2.271-14.503-2.271
			c-26.166,0-47.386,21.214-47.386,47.391c0,7.486,1.741,14.571,4.833,20.864c-0.101,0.006-0.205,0.006-0.309,0.006H113.501
			c-31.68,0-57.358-27.112-57.358-60.566l-0.003-486.994"/>
		<path fill="none" stroke="#231F20" stroke-width="5" stroke-miterlimit="10" d="M629.763,833.64"/>
		<rect x="36.681" y="39.249" fill="none" width="75.364" height="75.533"/>
		<text transform="matrix(1 0 0 1 36.6797 103.2285)" fill="#F7B728" font-family="'Arvo'" font-size="84.2109">A</text>
		<path fill="none" stroke="#231F20" stroke-width="5" stroke-miterlimit="10" d="M371.633,444.89"/>
		<path fill="none" stroke="#231F20" stroke-width="5" stroke-miterlimit="10" d="M56.141,444.89"/>
		<path fill="none" stroke="#231F20" stroke-width="5" stroke-miterlimit="10" d="M371.633,444.89"/>
		<rect x="578.483" y="845.555" fill="none" width="71.53" height="75.533"/>
		<text transform="matrix(-1 0 0 -1 650.0127 857.1094)" fill="#F7B728" font-family="'Arvo'" font-size="84.2109">A</text>
		<path fill="none" stroke="#231F20" stroke-width="5" stroke-miterlimit="10" d="M629.763,515.448"/>
		<path fill="none" stroke="#231F20" stroke-width="5" stroke-miterlimit="10" d="M314.27,515.448"/>
	</g>
	<g>
		<path fill="#F7B728" d="M517.118,522.561H390.452v-31.667h126.666V522.561z"/>
		<path fill="#F7B728" d="M517.118,702.006H390.452v-31.667h126.666V702.006z"/>
		<path fill="#FFFFFF" d="M517.118,670.339H390.452V522.561h126.666V670.339z"/>
		<path fill="#565656" d="M485.453,205.892h-63.335v-63.335h63.335V205.892z"/>
		<path fill="#F7B728" d="M485.453,290.336h-63.335v-84.444h63.335V290.336z"/>
		<path fill="#E6E9ED" d="M358.784,438.115v337.777c0,11.612,9.396,21.11,21.111,21.11H527.57c11.716,0,21.216-9.498,21.216-21.11
			V438.115c0-41.377-26.488-76.528-63.333-89.624v-58.159h-63.335v58.159h-0.104C385.174,361.587,358.784,396.738,358.784,438.115z
			 M390.452,490.894h126.666v211.112H390.452V522.561V490.894z"/>
		<path fill="#E6E9ED" d="M358.784,438.115v337.777c0,11.612,9.396,21.11,21.111,21.11h31.698c-11.716,0-21.111-9.498-21.111-21.11
			v-73.89h-0.03v-211.11h0.03V448.68c0-41.376,26.389-76.527,63.23-89.614h0.104v-68.73h-31.698v58.159h-0.104
			C385.174,361.587,358.784,396.738,358.784,438.115z"/>
		<path fill="#F4AC1E" d="M453.816,290.336h-31.698v-84.444h31.698V290.336z"/>
		<path fill="#474747" d="M453.816,205.892h-31.698v-63.335h31.698V205.892z"/>
		<path fill="#F7B728" d="M411.532,596.47c0-5.834,4.716-10.556,10.559-10.556h63.362c5.839,0,10.559,4.722,10.559,10.556
			c0,5.841-4.718,10.557-10.559,10.557h-63.364C416.248,607.026,411.532,602.311,411.532,596.47z"/>
		<path fill="#F7B728" d="M432.685,628.137c0-5.835,4.721-10.555,10.555-10.555h21.063c5.835,0,10.556,4.72,10.556,10.555
			c0,5.841-4.721,10.558-10.556,10.558h-21.063C437.405,638.693,432.685,633.978,432.685,628.137z"/>
		<path fill="#FFCE54" d="M474.603,564.783c0-5.845,4.727-10.561,10.556-10.561h0.114c5.828,0,10.493,4.716,10.493,10.561
			c0,5.839-4.772,10.555-10.607,10.555C479.329,575.338,474.603,570.622,474.603,564.783z"/>
		<path fill="#FFCE54" d="M442.936,564.783c0-5.845,4.727-10.561,10.556-10.561h0.114c5.828,0,10.493,4.716,10.493,10.561
			c0,5.839-4.772,10.555-10.607,10.555C447.662,575.338,442.936,570.622,442.936,564.783z"/>
		<path fill="#FFCE54" d="M411.213,564.783c0-5.845,4.729-10.561,10.555-10.561h0.118c5.821,0,10.494,4.716,10.494,10.561
			c0,5.839-4.772,10.555-10.612,10.555C415.943,575.338,411.213,570.622,411.213,564.783z"/>
	</g>
	<g id="glass_2_">
		<g>
			<path fill="#80C612" d="M170.217,651.605L170.217,651.605l-11.376-4.551l4.55,11.378l0,0c0.325,0.649,0.646,1.297,1.301,1.948
				c1.95,1.95,5.2,1.95,7.476,0c2.274-1.948,1.95-5.199,0-7.475C171.517,652.258,170.865,651.605,170.217,651.605z"/>
		</g>
		<polyline fill="#FFFCEE" points="267.399,642.829 150.39,642.829 168.592,778.04 168.592,798.842 249.848,798.842 249.848,778.04 
			267.399,642.829 		"/>
		<line fill="none" x1="267.399" y1="642.829" x2="207.595" y2="642.829"/>
		<polyline fill="#FFFCEE" points="210.845,798.842 249.848,798.842 249.848,778.04 267.399,642.829 		"/>
		<path fill="#E8E3CF" d="M164.689,660.38c-0.647-0.651-0.975-1.298-1.298-1.949l-1.708-4.266l-0.86-6.316l9.396,3.757
			c0.646,0,1.298,0.651,1.947,1.302c1.947,2.272,2.275,5.523,0,7.477C169.89,662.333,166.643,662.333,164.689,660.38z"/>
		<path fill="#E8E3CF" d="M257.647,642.83l-11.702,83.533c0,20.477-16.575,36.728-37.052,36.728s-37.379-16.251-37.379-36.728
			l-6.455-47.396c15.079-5.034,25.866-19.345,26.269-36.141L257.647,642.83L257.647,642.83z"/>
		<path fill="#E8E3CF" d="M191.329,642.83c-0.399,16.796-11.188,31.104-26.269,36.141l-3.377-24.806l1.708,4.266
			c0.323,0.651,0.647,1.298,1.298,1.949c1.953,1.953,5.2,1.953,7.476,0c2.277-1.949,1.949-5.2,0-7.479
			c-0.647-0.646-1.302-1.298-1.945-1.298l-9.396-3.757l-0.682-5.019L191.329,642.83L191.329,642.83z"/>
		<path fill="#FFFCEE" d="M161.684,654.165l3.377,24.806c-3.2,1.069-6.593,1.721-10.12,1.887l-4.549-38.354h40.941
			c0,0.106,0,0.217-0.008,0.327h-31.187l0.682,5.019"/>
		<path fill="#BDE5C8" d="M191.342,641.852v0.651h-0.009C191.342,642.286,191.342,642.068,191.342,641.852z"/>
		<path fill="#E8E3CF" d="M209.22,763.091c20.478,0,36.728-15.929,36.728-36.404l11.702-83.854h-50.054"/>
		<path fill="#F7B728" d="M230.996,681.508c-5.851,4.55-13.647,7.15-22.102,7.15s-16.251-2.604-22.103-7.15
			c-5.524,4.225-12.354,6.501-20.15,7.15l5.2,37.379c0,20.475,16.577,37.054,37.053,37.054s37.053-16.579,37.053-37.054l5.2-37.704
			C243.348,688.009,236.521,685.408,230.996,681.508z"/>
		<path fill="#F7B728" d="M208.895,763.091c20.476,0,37.053-16.579,37.053-37.054l5.2-37.704c-7.8-0.324-14.626-2.925-20.151-7.151
			c-5.851,4.551-13.647,7.151-22.102,7.151"/>
		<path fill="#FFFCEE" d="M182.893,732.862c0.326,1.62-0.649,2.926-1.95,2.926l0,0c-1.3,0.324-2.601-0.979-2.926-2.276l-5.2-38.678
			c0-1.625,0.976-3.252,2.275-3.252l0,0c1.3-0.324,2.6,0.976,2.925,2.273L182.893,732.862z"/>
		<path fill="#FFFCEE" d="M176.393,680.858c0,0.649-0.976,1.302-2.275,1.625l0,0c-1.3,0.325-2.6-0.323-2.6-0.976l-2.601-19.177
			c0-0.648,0.976-1.3,2.272-1.624l0,0c1.3-0.326,2.604,0.323,2.604,0.976L176.393,680.858z"/>
		<path fill="#FFFCEE" d="M249.848,647.704c0,1.302-1.625,1.625-2.925,1.625h-75.731c-1.3,0-2.925-0.649-2.925-1.625l0,0
			c0-0.977,0.975-1.624,2.6-1.624h76.061C248.224,646.08,249.848,646.405,249.848,647.704L249.848,647.704z"/>
	</g>
</g>
</svg>
