<?xml version="1.0" encoding="utf-8"?>
<!-- Generator: Adobe Illustrator 16.0.0, SVG Export Plug-In . SVG Version: 6.00 Build 0)  -->
<!DOCTYPE svg PUBLIC "-//W3C//DTD SVG 1.1//EN" "http://www.w3.org/Graphics/SVG/1.1/DTD/svg11.dtd">
<svg version="1.1" id="Layer_1" xmlns="http://www.w3.org/2000/svg" xmlns:xlink="http://www.w3.org/1999/xlink" x="0px" y="0px"
	 width="685.789px" height="960.105px" viewBox="0 0 685.789 960.105" enable-background="new 0 0 685.789 960.105"
	 xml:space="preserve">
<g id="b">
	<path fill="#FFF2D2" d="M685.789,891.527c0,37.873-30.702,68.578-68.578,68.578H68.578C30.702,960.105,0,929.4,0,891.527V68.58
		C0,30.705,30.702,0,68.578,0H617.21c37.876,0,68.578,30.706,68.578,68.58L685.789,891.527L685.789,891.527z"/>
	<path fill="#FFD47D" d="M56.134,444.816v-322.7c4.569,1.475,9.442,2.266,14.499,2.266c26.163,0,47.376-21.21,47.376-47.38
		c0-7.487-1.741-14.571-4.834-20.864c0.102-0.004,0.208-0.004,0.309-0.004h458.822c31.675,0,57.349,27.111,57.349,60.56v328.122"/>
	<path fill="#FFD47D" d="M629.655,390.102l-0.002,447.964c-4.566-1.475-9.439-2.268-14.497-2.268
		c-26.162,0-47.376,21.211-47.376,47.381c0,7.488,1.742,14.572,4.835,20.865c-0.102,0.004-0.208,0.004-0.31,0.004H113.484
		c-31.675,0-57.35-27.111-57.35-60.559l-0.002-480.937"/>
	<g>
		<g id="glass_1_">
			<circle fill="#00A057" cx="143.472" cy="546.131" r="55.028"/>
			<path fill="#008730" d="M143.472,491.105c30.52,0,55.026,24.508,55.026,55.029c0,30.52-24.507,55.025-55.026,55.025"/>
			<path fill="#E9F98C" d="M143.472,502.205c24.261,0,43.929,19.664,43.929,43.93c0,24.262-19.667,43.926-43.929,43.926
				s-43.929-19.664-43.929-43.926C99.543,521.869,119.211,502.205,143.472,502.205z"/>
			<path fill="#BEE874" d="M174.454,514.689c17.108,17.107,17.108,45.316,0,62.424c-17.11,17.109-45.317,17.109-62.426,0"/>
			<g>
				<path fill="#80C612" d="M136.536,520.238L136.536,520.238l6.935,16.188l6.936-16.188l0,0c0.463-0.924,0.463-1.85,0.463-3.232
					c0-4.164-3.237-7.402-7.399-7.402s-7.398,3.24-7.398,7.402C136.074,517.923,136.074,519.314,136.536,520.238z"/>
				<path fill="#80C612" d="M150.407,571.564L150.407,571.564l-6.935-16.184l-6.935,16.184l0,0c-0.463,0.93-0.463,1.855-0.463,3.238
					c0,4.16,3.236,7.4,7.398,7.4c4.161,0,7.399-3.24,7.399-7.4C150.87,573.878,150.87,572.492,150.407,571.564z"/>
				<path fill="#80C612" d="M169.366,539.195L169.366,539.195l-16.184,6.939l16.184,6.934l0,0c0.925,0.467,1.851,0.467,3.238,0.467
					c4.161,0,7.398-3.236,7.398-7.396c0-4.162-3.237-7.4-7.398-7.4C171.216,538.273,170.291,538.732,169.366,539.195z"/>
				<path fill="#80C612" d="M117.576,552.609L117.576,552.609l16.185-6.938l-16.185-6.939l0,0c-0.925-0.461-1.85-0.461-3.237-0.461
					c-4.162,0-7.398,3.236-7.398,7.396c0,4.164,3.236,7.396,7.398,7.396C115.727,553.531,116.652,553.068,117.576,552.609z"/>
				<path fill="#80C612" d="M156.881,523.011L156.881,523.011l-6.474,16.184l16.185-6.475l0,0c0.923-0.461,1.85-0.924,2.774-1.846
					c2.775-2.777,2.775-7.402,0-10.641c-2.774-2.773-7.398-2.773-10.635,0C157.807,521.162,157.344,522.087,156.881,523.011z"/>
				<path fill="#80C612" d="M130.061,568.791L130.061,568.791l7.861-16.186l-15.261,6.938l0,0c-1.85,0.926-3.237,1.389-4.161,2.311
					c-2.774,2.775-2.774,6.939,0,10.174c2.774,2.775,7.399,2.775,10.173,0C129.599,570.64,129.599,569.714,130.061,568.791z"/>
				<path fill="#80C612" d="M166.592,559.542L166.592,559.542l-16.185-6.479l6.474,16.188l0,0c0.462,0.926,0.925,1.85,1.85,2.771
					c2.774,2.775,7.399,2.775,10.635,0c3.238-2.771,2.775-7.396,0-10.637C168.442,560.468,167.516,559.542,166.592,559.542z"/>
				<path fill="#80C612" d="M122.663,532.259L122.663,532.259l15.261,6.473l-7.399-16.184l0,0c-0.463-0.924-0.924-1.848-1.85-2.773
					c-2.774-2.771-7.862-2.771-10.636,0c-2.773,2.773-1.851,7.4,0.925,10.637C119.889,531.332,120.352,531.796,122.663,532.259z"/>
			</g>
			<polyline fill="#FFFCEE" points="304.854,547.056 138.385,547.056 164.28,739.419 164.28,769.013 279.883,769.013 
				279.883,739.419 304.854,547.056 			"/>
			<line fill="none" x1="304.854" y1="547.056" x2="219.77" y2="547.056"/>
			<polyline fill="#FFFCEE" points="224.394,769.013 279.883,769.013 279.883,739.419 304.854,547.056 			"/>
			<path fill="#E8E3CF" d="M152.258,547.056l16.184,118.84c0,29.133,24.045,52.254,53.177,52.254s52.714-23.123,52.714-52.254
				l16.647-118.84H152.258L152.258,547.056z"/>
			<path fill="#BDE5C8" d="M144.86,601.16c29.132-1.391,51.789-25.898,51.789-55.492v0.926h-58.264L144.86,601.16z"/>
			<path fill="#DFE5CF" d="M166.592,559.542L166.592,559.542l-16.185-6.479l6.474,16.188l0,0c0.462,0.926,0.925,1.85,1.85,2.771
				c2.774,2.775,7.399,2.775,10.635,0c3.238-2.771,2.775-7.396,0-10.637C168.442,560.468,167.516,559.542,166.592,559.542z"/>
			<path fill="#E8E3CF" d="M222.082,718.15c29.132,0,52.252-22.654,52.252-51.791l16.646-119.303h-71.211"/>
			<path fill="#D8D2BA" d="M253.063,602.085c-8.324,6.471-19.42,10.172-31.443,10.172c-12.022,0-23.121-3.701-31.445-10.172
				c-7.861,6.01-17.571,9.248-28.669,10.172l7.398,53.18c0,29.129,23.583,52.715,52.715,52.715s52.714-23.588,52.714-52.715
				l7.4-53.643C270.635,611.333,260.925,607.632,253.063,602.085z"/>
			<path fill="#D8D2BA" d="M221.62,718.15c29.133,0,52.714-23.586,52.714-52.715l7.4-53.643c-11.103-0.459-20.813-4.16-28.67-10.172
				c-8.324,6.475-19.42,10.172-31.444,10.172"/>
			<path fill="#FFFCEE" d="M184.626,675.144c0.464,2.314-0.925,4.162-2.774,4.162l0,0c-1.849,0.463-3.698-1.387-4.161-3.238
				l-7.399-55.021c0-2.314,1.388-4.625,3.237-4.625l0,0c1.85-0.463,3.699,1.385,4.161,3.234L184.626,675.144z"/>
			<path fill="#FFFCEE" d="M175.378,601.16c0,0.924-1.387,1.846-3.236,2.311l0,0c-1.851,0.463-3.699-0.465-3.699-1.387l-3.7-27.281
				c0-0.926,1.388-1.852,3.236-2.313l0,0c1.85-0.469,3.701,0.463,3.701,1.387L175.378,601.16z"/>
			<path fill="#FFFCEE" d="M279.883,553.992c0,1.852-2.311,2.313-4.157,2.313H167.979c-1.849,0-4.161-0.924-4.161-2.313l0,0
				c0-1.387,1.389-2.314,3.699-2.314h108.207C277.572,551.681,279.883,552.144,279.883,553.992L279.883,553.992z"/>
		</g>
		<g id="bottle_1_">
			<path fill="#E3E4E2" d="M559.721,428.062v310.305c0,16.486-13.36,29.854-29.853,29.854l0,0H350.762
				c-16.483,0-29.851-13.363-29.851-29.854l0,0V428.062c-0.005-11.478,4.952-22.396,13.596-29.949l66.012-57.763
				c0,0-9.95-9.95-9.95-29.852c-0.009-3.336,0.287-6.667,0.881-9.95c2.438-13.272,9.069-19.9,9.069-19.9v-19.9h79.602v19.9
				c0,0,6.63,6.629,9.069,19.9c0.594,3.283,0.89,6.614,0.882,9.95c0,19.902-9.951,29.852-9.951,29.852l66.011,57.763
				C554.769,405.665,559.725,416.586,559.721,428.062z"/>
			<path fill="#C9C9C8" d="M498.443,449.369c-20.646-6.313-40.203-9.519-58.128-9.519c-17.538,0-36.668,3.069-56.841,9.125
				l-5.726-19.061c22.034-6.607,43.083-9.969,62.563-9.969c19.896,0,41.42,3.491,63.945,10.386L498.443,449.369z"/>
			<path fill="#EB5849" d="M360.712,489.605c0,0,39.802-19.896,79.604-19.896c39.802,0,79.603,19.896,79.603,19.896v208.957H360.712
				V489.605z"/>
			<path fill="#C9C9C8" d="M430.366,380.152h19.898v19.9h-19.898V380.152L430.366,380.152z"/>
			<path fill="#C9C9C8" d="M489.185,300.548h-97.739c2.438-13.272,9.068-19.9,9.068-19.9v-19.9h79.603v19.9
				C480.117,280.646,486.746,287.276,489.185,300.548z"/>
			<path fill="#E54B3D" d="M480.117,260.747h-79.604v-19.901c0,0,9.947-49.751,39.802-49.751c29.851,0,39.802,49.751,39.802,49.751
				V260.747z"/>
			<path fill="#D4342F" d="M500.019,280.646H380.612l-9.949-39.801h139.306L500.019,280.646z"/>
			<path fill="#C9C9C8" d="M360.712,618.96h159.205v79.604H360.712V618.96z"/>
			<path fill="#B2B1B4" d="M410.464,648.812h19.902v19.9h-19.902V648.812z"/>
			<path fill="#B2B1B4" d="M450.264,648.812h19.898v19.9h-19.898V648.812z"/>
			<circle fill="#F8BC1E" cx="440.315" cy="559.259" r="39.801"/>
			<path fill="#1CA55D" d="M519.918,569.208l-159.205,19.898v29.855h159.205V569.208z"/>
		</g>
	</g>
	<path fill="none" stroke="#231F20" stroke-width="5" stroke-miterlimit="10" d="M629.657,833.501"/>
	<g>
		<rect x="36.675" y="39.244" fill="none" width="62.867" height="75.521"/>
		<text transform="matrix(1 0 0 1 36.6753 103.2144)" fill="#F7B728" font-family="'Arvo'" font-size="84.1969">B</text>
	</g>
	<path fill="none" stroke="#231F20" stroke-width="5" stroke-miterlimit="10" d="M371.571,444.816"/>
	<path fill="none" stroke="#231F20" stroke-width="5" stroke-miterlimit="10" d="M56.132,444.816"/>
	<path fill="none" stroke="#231F20" stroke-width="5" stroke-miterlimit="10" d="M371.571,444.816"/>
	<rect x="586.246" y="845.416" fill="none" width="62.866" height="75.52"/>
	<text transform="matrix(-1 0 0 -1 649.1123 856.9663)" fill="#F7B728" font-family="'Arvo'" font-size="84.1969">B</text>
	<path fill="none" stroke="#231F20" stroke-width="5" stroke-miterlimit="10" d="M629.657,515.365"/>
	<path fill="none" stroke="#231F20" stroke-width="5" stroke-miterlimit="10" d="M314.218,515.365"/>
</g>
</svg>
