<?xml version="1.0" encoding="utf-8"?>
<!-- Generator: Adobe Illustrator 16.0.0, SVG Export Plug-In . SVG Version: 6.00 Build 0)  -->
<!DOCTYPE svg PUBLIC "-//W3C//DTD SVG 1.1//EN" "http://www.w3.org/Graphics/SVG/1.1/DTD/svg11.dtd">
<svg version="1.1" id="Layer_1" xmlns="http://www.w3.org/2000/svg" xmlns:xlink="http://www.w3.org/1999/xlink" x="0px" y="0px"
	 width="699.085px" height="978.719px" viewBox="0 0 699.085 978.719" enable-background="new 0 0 699.085 978.719"
	 xml:space="preserve">
<g id="d">
	<path fill="#FFF2D2" d="M699.085,908.812c0,38.604-31.299,69.908-69.906,69.908H69.907C31.295,978.72,0,947.416,0,908.812V69.908
		C0,31.299,31.295,0,69.907,0h559.272c38.605,0,69.906,31.3,69.906,69.909V908.812z"/>
	<path fill="#FFD47D" d="M57.22,453.438V124.482c4.657,1.504,9.624,2.312,14.78,2.312c26.67,0,48.293-21.623,48.293-48.299
		c0-7.633-1.774-14.854-4.927-21.269c0.103-0.006,0.211-0.006,0.315-0.006H583.4c32.289,0,58.461,27.638,58.461,61.735v334.483"/>
	<path fill="#FFD47D" d="M641.865,377.86l-0.004,476.452c-4.656-1.506-9.625-2.314-14.781-2.314
		c-26.668,0-48.293,21.625-48.293,48.305c0,7.633,1.775,14.854,4.928,21.27c-0.102,0.004-0.211,0.004-0.313,0.004h-467.72
		c-32.289,0-58.461-27.637-58.461-61.73L57.22,357.86"/>
	<path fill="none" stroke="#231F20" stroke-width="5" stroke-miterlimit="10" d="M641.865,849.66"/>
	<rect x="32.354" y="40.003" fill="none" width="69.119" height="76.985"/>
	<text transform="matrix(1 0 0 1 32.3555 105.2144)" fill="#F7B728" font-family="'Arvo'" font-size="85.8294">D</text>
	<path fill="none" stroke="#231F20" stroke-width="5" stroke-miterlimit="10" d="M641.865,453.438"/>
	<path fill="none" stroke="#231F20" stroke-width="5" stroke-miterlimit="10" d="M378.775,453.438"/>
	<path fill="none" stroke="#231F20" stroke-width="5" stroke-miterlimit="10" d="M57.217,453.438"/>
	<path fill="none" stroke="#231F20" stroke-width="5" stroke-miterlimit="10" d="M378.775,453.438"/>
	<rect x="591.97" y="855.027" fill="none" width="69.727" height="83.764"/>
	<text transform="matrix(-1 0 0 -1 661.6987 873.5825)" fill="#F7B728" font-family="'Arvo'" font-size="85.8294">D</text>
	<path fill="none" stroke="#231F20" stroke-width="5" stroke-miterlimit="10" d="M641.865,525.355"/>
	<path fill="none" stroke="#231F20" stroke-width="5" stroke-miterlimit="10" d="M320.308,525.355"/>
	<g>
		<path fill="#656D78" d="M333.796,399.629v365.911c0,11.84,9.689,21.523,21.523,21.523h150.67c11.945,0,21.525-9.688,21.525-21.523
			V399.629c0-42.188-26.904-78.026-64.574-91.374v-27.01h-64.574v27.01C360.808,321.604,333.796,357.441,333.796,399.629z"/>
		<path fill="#ED5565" d="M462.943,173.519h-64.574v-53.706h64.574V173.519z"/>
		<path fill="#DA4453" d="M462.943,281.245h-64.574V173.519h64.574V281.245z"/>
		<path fill="#ED5565" d="M366.083,679.423V474.985H495.23v204.438H366.083z"/>
		<path fill="#656D78" d="M333.796,399.629v365.911c0,11.84,9.689,21.523,21.523,21.523h32.318c-11.84,0-21.523-9.688-21.523-21.523
			v-64.57h-0.031V453.44h0.031V410.4c0-42.187,27.016-78.024,64.572-91.367v-37.788h-32.318v27.01
			C360.808,321.604,333.796,357.441,333.796,399.629z"/>
		<path fill="#D3374E" d="M430.687,281.245h-32.318V173.519h32.318V281.245z"/>
		<g>
			<path fill="#DA4453" d="M430.687,173.519h-32.318v-53.706h32.318V173.519z"/>
			<path fill="#DA4453" d="M446.798,517.908c8.936,0,16.146,7.314,16.146,16.145c0,8.93-7.211,16.143-16.146,16.143
				c-8.934,0-16.143-7.215-16.143-16.143C430.656,525.222,437.865,517.908,446.798,517.908z"/>
			<path fill="#DA4453" d="M446.798,561.964c0,8.936-7.211,16.145-16.143,16.145c-8.934,0-16.145-7.211-16.145-16.145
				c0-8.82,7.211-16.145,16.145-16.145C439.589,545.822,446.798,553.142,446.798,561.964z"/>
			<path fill="#DA4453" d="M414.511,550.193c-8.934,0-16.145-7.213-16.145-16.145c0-8.826,7.209-16.145,16.145-16.145
				s16.145,7.314,16.145,16.145C430.656,542.98,423.445,550.193,414.511,550.193z"/>
			<path fill="#DA4453" d="M387.628,604.056c0-5.953,4.814-10.766,10.764-10.766h64.594c5.955,0,10.764,4.813,10.764,10.766
				c0,5.945-4.809,10.764-10.764,10.764h-64.594C392.441,614.82,387.628,610.005,387.628,604.056z"/>
			<path fill="#DA4453" d="M409.173,636.355c0-5.955,4.814-10.764,10.766-10.764h21.502c5.955,0,10.764,4.809,10.764,10.764
				c0,5.947-4.809,10.76-10.764,10.76h-21.502C413.986,647.115,409.173,642.302,409.173,636.355z"/>
		</g>
		<path fill="#E3E4E2" d="M260.482,674.996c32.07-6.414,53.197-37.205,47.64-69.434l-12.901-74.84H185.358l-12.903,74.84
			c-5.558,32.229,15.569,63.02,47.639,69.434c6.42,1.285,11.04,6.92,11.04,13.467v80.293l-37.864,3.441
			c-7.073,0.643-12.489,6.574-12.49,13.676v1.191h119.016v-1.191c0-7.102-5.415-13.033-12.486-13.676l-37.863-3.441v-80.293
			C249.443,681.916,254.063,676.281,260.482,674.996z"/>
		<path fill="#ED5565" d="M240.288,697.617c5.056,0,9.154-4.098,9.154-9.154c0-6.547,4.621-12.182,11.04-13.467
			c32.07-6.414,53.197-37.205,47.64-69.434l-1.063-6.176H173.52l-1.063,6.176c-5.558,32.229,15.569,63.02,47.639,69.434
			c6.419,1.285,11.039,6.92,11.039,13.467C231.133,693.519,235.232,697.617,240.288,697.617z"/>
		<g>
			<path fill="#F3F1F2" d="M201.634,645.3c-1.978,1.563-4.851,1.229-6.415-0.748c-0.603-0.771-1.18-1.563-1.732-2.363l-0.108-0.158
				c-0.07-0.104-0.135-0.213-0.195-0.322c-1.088-1.992-0.353-4.49,1.64-5.578l0.761-0.42c1.882-1.031,4.24-0.471,5.454,1.303
				c0.431,0.629,0.88,1.24,1.349,1.844c1.454,1.844,1.285,4.488-0.393,6.131C201.879,645.097,201.759,645.203,201.634,645.3z"/>
			<path fill="#F3F1F2" d="M191.124,626.886c-2.485,0.42-4.839-1.262-5.256-3.744c-0.802-5.057-0.761-10.205,0.119-15.248
				l8.717-50.549c0.429-2.492,2.797-4.164,5.289-3.734c2.491,0.43,4.162,2.797,3.732,5.289l-8.714,50.551
				c-0.705,4.033-0.741,8.156-0.107,12.201c0.367,2.307-1.063,4.52-3.315,5.133C191.436,626.828,191.28,626.861,191.124,626.886z"/>
		</g>
	</g>
</g>
</svg>
