<?xml version="1.0" encoding="utf-8"?>
<!-- Generator: Adobe Illustrator 16.0.0, SVG Export Plug-In . SVG Version: 6.00 Build 0)  -->
<!DOCTYPE svg PUBLIC "-//W3C//DTD SVG 1.1//EN" "http://www.w3.org/Graphics/SVG/1.1/DTD/svg11.dtd">
<svg version="1.1" id="Layer_1" xmlns="http://www.w3.org/2000/svg" xmlns:xlink="http://www.w3.org/1999/xlink" x="0px" y="0px"
	 width="699.5px" height="979.299px" viewBox="0 0 699.5 979.299" enable-background="new 0 0 699.5 979.299" xml:space="preserve">
<g id="k">
	<path fill="#FFF2D2" d="M699.5,909.349c0,38.631-31.315,69.951-69.949,69.951H69.95C31.316,979.3,0,947.979,0,909.349V69.951
		C0,31.32,31.315,0,69.95,0h559.6c38.634,0,69.949,31.319,69.949,69.951L699.5,909.349L699.5,909.349z"/>
	<path fill="#FFD47D" d="M57.256,453.708v-329.15c4.66,1.504,9.629,2.313,14.789,2.313c26.685,0,48.321-21.636,48.321-48.329
		c0-7.637-1.775-14.862-4.929-21.28c0.103-0.005,0.21-0.005,0.314-0.005h467.995c32.31,0,58.496,27.654,58.496,61.771V453.71"/>
	<path fill="#FFD47D" d="M642.242,352.748l0.001,502.071c-4.658-1.506-9.629-2.313-14.788-2.313
		c-26.688,0-48.322,21.635-48.322,48.324c0,7.641,1.775,14.863,4.934,21.281c-0.104,0.006-0.217,0.006-0.315,0.006H115.752
		c-32.309,0-58.496-27.652-58.496-61.771v-507.6"/>
	<path fill="none" stroke="#231F20" stroke-width="5" stroke-miterlimit="10" d="M642.246,850.165"/>
	<rect x="32.374" y="40.028" fill="none" width="69.159" height="77.032"/>
	<text transform="matrix(1 0 0 1 32.375 105.2773)" fill="#F7B728" font-family="'Arvo'" font-size="85.8802">K</text>
	<path fill="none" stroke="#231F20" stroke-width="5" stroke-miterlimit="10" d="M379,453.708"/>
	<path fill="none" stroke="#231F20" stroke-width="5" stroke-miterlimit="10" d="M57.254,453.708"/>
	<path fill="none" stroke="#231F20" stroke-width="5" stroke-miterlimit="10" d="M379,453.708"/>
	<rect x="592.321" y="855.534" fill="none" width="69.771" height="83.813"/>
	<text transform="matrix(-1 0 0 -1 662.0918 874.0986)" fill="#F7B728" font-family="'Arvo'" font-size="85.8802">K</text>
	<path fill="none" stroke="#231F20" stroke-width="5" stroke-miterlimit="10" d="M642.246,525.667"/>
	<path fill="none" stroke="#231F20" stroke-width="5" stroke-miterlimit="10" d="M320.5,525.667"/>
	<g>
		<path fill="#E59751" d="M568.919,387.011v365.674c-0.003,16.828-13.644,30.472-30.472,30.476H335.293
			c-16.828-0.004-30.469-13.646-30.473-30.476V387.011l37.201-4.141c27.388-2.983,47.392-27.275,45.063-54.724
			c-0.623-6.984-1.003-14.5-1.003-22.398c0-40.631,10.159-71.104,10.159-71.104V214.33h81.261v20.315
			c0,0,10.157,30.474,10.157,71.104c0,7.896-0.38,15.414-1.001,22.398c-2.328,27.449,17.675,51.741,45.062,54.724L568.919,387.011z"
			/>
		<path fill="#4E4E4F" d="M487.657,305.749H386.081c0.036-17.054,1.737-34.065,5.079-50.789c1.312-6.862,3.008-13.645,5.08-20.315
			V214.33h81.261v20.315c2.071,6.67,3.768,13.453,5.08,20.315C485.923,271.684,487.622,288.694,487.657,305.749z"/>
		<path fill="#4E4E4F" d="M304.82,437.797h264.099v264.101H304.82V437.797z"/>
		<path fill="#B2B1B4" d="M511.508,534.522c-19.214-16.521-45.723-25.619-74.638-25.619c-28.917,0-55.423,9.1-74.64,25.619
			l-13.244-15.4c22.896-19.688,54.105-30.535,87.884-30.535c33.772,0,64.985,10.847,87.883,30.535L511.508,534.522z"/>
		<ellipse fill="#B2B1B4" cx="436.869" cy="590.163" rx="71.104" ry="50.789"/>
		<path fill="#959494" d="M406.396,580.007h20.313v20.313h-20.313V580.007z"/>
		<path fill="#959494" d="M447.027,580.007h20.313v20.313h-20.313V580.007z"/>
		<path fill="#343433" d="M482.58,254.96h-91.421c1.312-6.862,3.008-13.645,5.08-20.315V214.33H477.5v20.315
			C479.572,241.315,481.267,248.098,482.58,254.96z"/>
		<path fill="#4E4E4F" d="M487.657,234.645H386.081v-40.631h101.577L487.657,234.645L487.657,234.645z"/>
		<path fill="#E3E4E2" d="M307.078,783.159H163.89c-13.766,0-25.183-9.68-26.13-22.15l-15.778-207.83h227.004l-15.78,207.83
			C332.26,773.478,320.843,783.157,307.078,783.159z"/>
		<path fill="#E59751" d="M132.82,688.548h205.33l-2.279,32.572l-39.271,27.633H174.368l-39.267-27.633L132.82,688.548z"/>
		<path fill="#B5691A" d="M296.6,688.548c0,33.252-27.36,60.207-61.113,60.207c-33.753,0-61.116-26.955-61.116-60.207H296.6z"/>
		<path fill="#C9C9C8" d="M174.368,688.548c0-33.256,27.363-60.209,61.116-60.209s61.113,26.957,61.113,60.209H174.368z"/>
	</g>
</g>
</svg>
