<?xml version="1.0" encoding="utf-8"?>
<!-- Generator: Adobe Illustrator 16.0.0, SVG Export Plug-In . SVG Version: 6.00 Build 0)  -->
<!DOCTYPE svg PUBLIC "-//W3C//DTD SVG 1.1//EN" "http://www.w3.org/Graphics/SVG/1.1/DTD/svg11.dtd">
<svg version="1.1" id="Layer_1" xmlns="http://www.w3.org/2000/svg" xmlns:xlink="http://www.w3.org/1999/xlink" x="0px" y="0px"
	 width="1000px" height="1000px" viewBox="0 0 1000 1000" enable-background="new 0 0 1000 1000" xml:space="preserve">
<g id="_x35_">
	<path fill="#FFF2D2" d="M872.241,916.275c0,38.313-31.061,69.379-69.38,69.379H247.828c-38.318,0-69.379-31.063-69.379-69.379
		V83.725c0-38.316,31.061-69.379,69.379-69.379h555.033c38.318,0,69.38,31.063,69.38,69.379V916.275L872.241,916.275z"/>
	<path fill="#FFD47D" d="M235.238,464.353V137.886c4.622,1.493,9.551,2.294,14.668,2.294c26.467,0,47.927-21.459,47.927-47.934
		c0-7.575-1.76-14.741-4.89-21.106c0.103-0.005,0.21-0.005,0.313-0.005h464.177c32.045,0,58.02,27.428,58.02,61.268v331.953"/>
	<path fill="#FFD47D" d="M815.455,464.353l-0.003,397.838c-4.62-1.493-9.551-2.295-14.668-2.295
		c-26.467,0-47.928,21.461-47.928,47.937c0,7.574,1.761,14.738,4.89,21.104c-0.102,0.007-0.209,0.007-0.313,0.007H293.257
		c-32.045,0-58.02-27.429-58.02-61.268l-0.003-403.323"/>
	<path fill="none" stroke="#231F20" stroke-width="5" stroke-miterlimit="10" d="M815.455,857.571"/>
	<g>
		<rect x="221.215" y="62.399" fill="none" width="102.896" height="91.282"/>
		<text transform="matrix(1 0 0 1 221.2139 127.1152)" fill="#F7B728" font-family="'Arvo'" font-size="85.1795">5</text>
	</g>
	<path fill="none" stroke="#231F20" stroke-width="5" stroke-miterlimit="10" d="M815.455,464.353"/>
	<path fill="none" stroke="#231F20" stroke-width="5" stroke-miterlimit="10" d="M554.355,464.353"/>
	<path fill="none" stroke="#231F20" stroke-width="5" stroke-miterlimit="10" d="M235.235,464.353"/>
	<path fill="none" stroke="#231F20" stroke-width="5" stroke-miterlimit="10" d="M554.355,464.353"/>
	<path fill="none" stroke="#231F20" stroke-width="5" stroke-miterlimit="10" d="M815.455,535.723"/>
	<path fill="none" stroke="#231F20" stroke-width="5" stroke-miterlimit="10" d="M496.334,535.723"/>
	<g>
		<rect x="723.575" y="847.217" fill="none" width="102.896" height="91.28"/>
		<text transform="matrix(-1 0 0 -1 826.4688 873.7852)" fill="#F7B728" font-family="'Arvo'" font-size="85.1795">5</text>
	</g>
	<g>
		<g>
			<path fill="#E3E4E2" d="M383.493,219.354c17.709-3.542,29.376-20.545,26.307-38.343l-7.125-41.33h-60.671l-7.124,41.33
				c-3.069,17.798,8.597,34.801,26.308,38.343c3.545,0.71,6.097,3.822,6.097,7.438v44.341l-20.91,1.901
				c-3.907,0.355-6.897,3.631-6.897,7.551v0.659h65.726v-0.659c0-3.922-2.991-7.196-6.897-7.551l-20.91-1.901v-44.341
				C377.395,223.176,379.946,220.065,383.493,219.354z"/>
			<path fill="#EDCA58" d="M372.34,231.847c2.792,0,5.055-2.263,5.055-5.056c0-3.615,2.553-6.726,6.099-7.438
				c17.709-3.542,29.376-20.545,26.307-38.343l-0.587-3.411h-73.746l-0.585,3.411c-3.069,17.798,8.597,34.801,26.309,38.343
				c3.544,0.71,6.096,3.822,6.096,7.438C367.284,229.584,369.547,231.847,372.34,231.847z"/>
			<g>
				<path fill="#F3F1F2" d="M350.994,202.955c-1.092,0.865-2.679,0.681-3.542-0.412c-0.333-0.426-0.651-0.86-0.957-1.304
					l-0.062-0.088c-0.039-0.059-0.073-0.117-0.106-0.178c-0.602-1.101-0.195-2.479,0.906-3.082l0.42-0.231
					c1.038-0.569,2.342-0.26,3.011,0.719c0.238,0.348,0.486,0.685,0.745,1.019c0.803,1.019,0.71,2.478-0.217,3.385
					C351.129,202.844,351.063,202.901,350.994,202.955z"/>
				<path fill="#F3F1F2" d="M345.189,192.788c-1.372,0.23-2.673-0.694-2.902-2.069c-0.444-2.792-0.42-5.636,0.063-8.421
					l4.814-27.917c0.237-1.375,1.545-2.297,2.921-2.061c1.375,0.238,2.298,1.545,2.063,2.921l-4.813,27.916
					c-0.389,2.228-0.409,4.505-0.06,6.738c0.201,1.273-0.586,2.495-1.83,2.835C345.361,192.753,345.276,192.772,345.189,192.788z"/>
			</g>
		</g>
		<g>
			<path fill="#E3E4E2" d="M690.813,219.354c17.713-3.542,29.379-20.545,26.31-38.343l-7.125-41.33h-60.669l-7.127,41.33
				c-3.068,17.798,8.599,34.801,26.309,38.343c3.546,0.71,6.097,3.822,6.097,7.438v44.341l-20.909,1.901
				c-3.906,0.355-6.897,3.631-6.897,7.551v0.659h65.728v-0.659c0-3.922-2.991-7.196-6.897-7.551l-20.91-1.901v-44.341
				C684.718,223.176,687.27,220.065,690.813,219.354z"/>
			<path fill="#EDCA58" d="M679.662,231.847c2.793,0,5.057-2.263,5.057-5.056c0-3.615,2.553-6.726,6.097-7.438
				c17.712-3.542,29.378-20.545,26.309-38.343l-0.588-3.411h-73.744l-0.588,3.411c-3.068,17.798,8.599,34.801,26.309,38.343
				c3.546,0.71,6.097,3.822,6.097,7.438C674.605,229.584,676.87,231.847,679.662,231.847z"/>
			<g>
				<path fill="#F3F1F2" d="M658.316,202.955c-1.095,0.865-2.681,0.681-3.545-0.412c-0.332-0.426-0.649-0.86-0.954-1.304
					l-0.063-0.088c-0.036-0.059-0.072-0.117-0.104-0.178c-0.604-1.101-0.196-2.479,0.904-3.082l0.421-0.231
					c1.038-0.569,2.342-0.26,3.013,0.719c0.237,0.348,0.485,0.685,0.743,1.019c0.805,1.019,0.711,2.478-0.217,3.385
					C658.451,202.844,658.384,202.901,658.316,202.955z"/>
				<path fill="#F3F1F2" d="M652.512,192.788c-1.372,0.23-2.672-0.694-2.901-2.069c-0.443-2.792-0.422-5.636,0.064-8.421
					l4.814-27.917c0.235-1.375,1.544-2.297,2.92-2.061c1.376,0.238,2.3,1.545,2.063,2.92l-4.814,27.917
					c-0.388,2.228-0.409,4.505-0.06,6.738c0.202,1.273-0.587,2.495-1.833,2.835C652.685,192.753,652.598,192.772,652.512,192.788z"
					/>
			</g>
		</g>
		<g>
			<path fill="#E3E4E2" d="M376.083,765.287v-44.342l20.91-1.9c3.907-0.354,6.896-3.631,6.896-7.552v-0.66h-65.725v0.66
				c0,3.921,2.99,7.195,6.896,7.552l20.909,1.9v44.342c0,3.614-2.551,6.728-6.095,7.438c-17.711,3.541-29.377,20.545-26.309,38.346
				l7.125,41.327h60.67l7.126-41.327c3.067-17.8-8.599-34.805-26.31-38.346C378.635,772.014,376.083,768.901,376.083,765.287z"/>
			<path fill="#EDCA58" d="M365.971,765.287c0,3.614-2.551,6.728-6.095,7.438c-17.709,3.541-29.377,20.545-26.309,38.346
				l0.587,3.409h73.744l0.588-3.409c3.067-17.8-8.599-34.805-26.31-38.346c-3.544-0.709-6.096-3.821-6.096-7.438
				c0-2.793-2.264-5.056-5.056-5.056C368.235,760.231,365.971,762.494,365.971,765.287z"/>
			<g>
				<path fill="#F3F1F2" d="M349.88,789.295c0.927,0.908,1.021,2.368,0.216,3.387c-0.258,0.331-0.505,0.67-0.742,1.019
					c-0.671,0.979-1.975,1.29-3.013,0.72l-0.42-0.231c-1.102-0.602-1.507-1.979-0.905-3.08c0.034-0.063,0.069-0.12,0.108-0.181
					l0.059-0.088c0.306-0.444,0.624-0.879,0.956-1.306c0.865-1.092,2.451-1.275,3.543-0.413
					C349.75,789.177,349.816,789.235,349.88,789.295z"/>
				<path fill="#F3F1F2" d="M344.133,799.347c1.243,0.342,2.033,1.563,1.831,2.837c-0.35,2.232-0.329,4.51,0.061,6.736l4.813,27.916
					c0.236,1.376-0.685,2.685-2.062,2.921c-1.377,0.238-2.684-0.685-2.922-2.061l-4.813-27.916
					c-0.486-2.785-0.508-5.629-0.066-8.421c0.231-1.373,1.53-2.3,2.902-2.068C343.963,799.305,344.048,799.323,344.133,799.347z"/>
			</g>
		</g>
		<g>
			<path fill="#E3E4E2" d="M683.406,765.287v-44.342l20.91-1.9c3.905-0.354,6.896-3.631,6.896-7.552v-0.66h-65.726v0.66
				c0,3.921,2.99,7.195,6.896,7.552l20.91,1.9v44.342c0,3.614-2.551,6.728-6.097,7.438c-17.711,3.541-29.376,20.545-26.309,38.346
				l7.125,41.327h60.672l7.124-41.327c3.067-17.8-8.599-34.805-26.308-38.346C685.957,772.014,683.406,768.901,683.406,765.287z"/>
			<path fill="#EDCA58" d="M673.295,765.287c0,3.614-2.551,6.728-6.097,7.438c-17.711,3.541-29.376,20.545-26.309,38.346
				l0.587,3.409h73.744l0.588-3.409c3.068-17.8-8.598-34.805-26.308-38.346c-3.545-0.709-6.097-3.821-6.097-7.438
				c0-2.793-2.264-5.056-5.056-5.056S673.295,762.494,673.295,765.287z"/>
			<g>
				<path fill="#F3F1F2" d="M657.202,789.295c0.927,0.908,1.021,2.368,0.218,3.387c-0.26,0.331-0.507,0.67-0.747,1.019
					c-0.669,0.979-1.974,1.29-3.012,0.72l-0.419-0.231c-1.103-0.602-1.506-1.979-0.907-3.08c0.034-0.063,0.069-0.12,0.107-0.181
					l0.062-0.088c0.304-0.444,0.623-0.879,0.955-1.306c0.865-1.092,2.451-1.275,3.544-0.413
					C657.072,789.177,657.139,789.235,657.202,789.295z"/>
				<path fill="#F3F1F2" d="M651.457,799.347c1.242,0.342,2.031,1.563,1.829,2.837c-0.352,2.232-0.328,4.51,0.06,6.736l4.813,27.916
					c0.237,1.376-0.687,2.685-2.063,2.921c-1.375,0.238-2.684-0.685-2.921-2.061l-4.813-27.916c-0.485-2.785-0.51-5.629-0.065-8.421
					c0.23-1.373,1.53-2.3,2.901-2.068C651.286,799.305,651.371,799.323,651.457,799.347z"/>
			</g>
		</g>
	</g>
	<g>
		<path fill="#E3E4E2" d="M536.497,521.313c17.71-3.541,29.375-20.547,26.307-38.346l-7.124-41.329h-60.672l-7.124,41.329
			c-3.068,17.8,8.599,34.805,26.309,38.346c3.545,0.709,6.098,3.819,6.098,7.438v44.34l-20.91,1.901
			c-3.907,0.354-6.897,3.631-6.897,7.554v0.658h65.724v-0.658c0-3.923-2.99-7.198-6.896-7.554l-20.91-1.901v-44.34
			C530.4,525.134,532.952,522.022,536.497,521.313z"/>
		<path fill="#EDCA58" d="M525.345,533.805c2.792,0,5.057-2.263,5.057-5.054c0-3.616,2.553-6.729,6.098-7.438
			c17.711-3.541,29.375-20.547,26.307-38.346l-0.587-3.409h-73.745l-0.587,3.409c-3.067,17.8,8.599,34.805,26.309,38.346
			c3.545,0.709,6.097,3.82,6.097,7.438C520.289,531.542,522.552,533.805,525.345,533.805z"/>
		<g>
			<path fill="#F3F1F2" d="M503.998,504.914c-1.092,0.865-2.68,0.679-3.541-0.413c-0.333-0.427-0.652-0.861-0.957-1.306
				l-0.061-0.088c-0.039-0.061-0.074-0.117-0.106-0.181c-0.602-1.1-0.196-2.479,0.906-3.08l0.42-0.229
				c1.039-0.57,2.342-0.26,3.011,0.718c0.238,0.347,0.486,0.688,0.746,1.018c0.805,1.021,0.71,2.479-0.218,3.388
				C504.134,504.801,504.067,504.859,503.998,504.914z"/>
			<path fill="#F3F1F2" d="M498.194,494.746c-1.373,0.229-2.673-0.695-2.903-2.067c-0.443-2.791-0.42-5.638,0.066-8.421
				l4.813-27.916c0.237-1.376,1.546-2.299,2.921-2.062c1.377,0.236,2.3,1.545,2.063,2.921l-4.813,27.916
				c-0.389,2.229-0.409,4.504-0.06,6.738c0.201,1.272-0.585,2.496-1.832,2.835C498.366,494.713,498.28,494.731,498.194,494.746z"/>
		</g>
	</g>
</g>
</svg>
