<?xml version="1.0" encoding="utf-8"?>
<!-- Generator: Adobe Illustrator 16.0.0, SVG Export Plug-In . SVG Version: 6.00 Build 0)  -->
<!DOCTYPE svg PUBLIC "-//W3C//DTD SVG 1.1//EN" "http://www.w3.org/Graphics/SVG/1.1/DTD/svg11.dtd">
<svg version="1.1" id="Layer_1" xmlns="http://www.w3.org/2000/svg" xmlns:xlink="http://www.w3.org/1999/xlink" x="0px" y="0px"
	 width="1000px" height="1000px" viewBox="0 0 1000 1000" enable-background="new 0 0 1000 1000" xml:space="preserve">
<g id="_x36_">
	<path fill="#FFF2D2" d="M770.238,905.889c0,37.359-30.285,67.646-67.648,67.646H161.406c-37.362,0-67.648-30.288-67.648-67.646
		V94.113c0-37.361,30.285-67.648,67.648-67.648H702.59c37.363,0,67.648,30.288,67.648,67.648V905.889L770.238,905.889z"/>
	<path fill="#FFD47D" d="M149.13,465.241V146.922c4.507,1.456,9.313,2.236,14.303,2.236c25.807,0,46.73-20.922,46.73-46.738
		c0-7.385-1.717-14.373-4.767-20.58c0.099-0.005,0.205-0.005,0.305-0.005h452.594c31.245,0,56.571,26.744,56.571,59.738v323.668"/>
	<path fill="#FFD47D" d="M714.868,465.241l-0.002,387.91c-4.506-1.456-9.313-2.235-14.304-2.235
		c-25.807,0-46.729,20.923-46.729,46.737c0,7.385,1.717,14.373,4.767,20.58c-0.1,0.007-0.204,0.007-0.306,0.007H205.701
		c-31.245,0-56.571-26.744-56.571-59.738l-0.002-393.26"/>
	<path fill="none" stroke="#231F20" stroke-width="5" stroke-miterlimit="10" d="M714.868,848.65"/>
	<g>
		<rect x="135.458" y="73.319" fill="none" width="100.329" height="89.005"/>
		<text transform="matrix(1 0 0 1 135.4561 136.4189)" fill="#F7B728" font-family="'Arvo'" font-size="83.054">6</text>
	</g>
	<path fill="none" stroke="#231F20" stroke-width="5" stroke-miterlimit="10" d="M714.868,465.241"/>
	<path fill="none" stroke="#231F20" stroke-width="5" stroke-miterlimit="10" d="M460.286,465.241"/>
	<path fill="none" stroke="#231F20" stroke-width="5" stroke-miterlimit="10" d="M149.128,465.241"/>
	<path fill="none" stroke="#231F20" stroke-width="5" stroke-miterlimit="10" d="M460.286,465.241"/>
	<path fill="none" stroke="#231F20" stroke-width="5" stroke-miterlimit="10" d="M714.868,534.831"/>
	<path fill="none" stroke="#231F20" stroke-width="5" stroke-miterlimit="10" d="M403.711,534.831"/>
	<g>
		<rect x="625.281" y="838.554" fill="none" width="100.33" height="89.003"/>
		<text transform="matrix(-1 0 0 -1 725.6094 864.4531)" fill="#F7B728" font-family="'Arvo'" font-size="83.054">6</text>
	</g>
	<g>
		<g>
			<path fill="#E3E4E2" d="M293.686,226.358c17.268-3.454,28.643-20.034,25.651-37.388l-6.948-40.297h-59.155l-6.948,40.297
				c-2.993,17.354,8.383,33.934,25.651,37.388c3.458,0.691,5.944,3.725,5.944,7.252v43.234l-20.388,1.854
				c-3.809,0.346-6.725,3.539-6.725,7.364v0.641h64.083v-0.641c0-3.825-2.917-7.018-6.726-7.364l-20.388-1.854V233.61
				C287.74,230.084,290.229,227.049,293.686,226.358z"/>
			<path fill="#EDCA58" d="M282.811,238.539c2.722,0,4.929-2.207,4.929-4.929c0-3.526,2.489-6.561,5.945-7.252
				c17.268-3.454,28.643-20.034,25.652-37.388l-0.573-3.324h-71.906l-0.572,3.324c-2.993,17.354,8.383,33.934,25.651,37.388
				c3.457,0.691,5.944,3.725,5.944,7.252C277.881,236.333,280.088,238.539,282.811,238.539z"/>
			<g>
				<path fill="#F3F1F2" d="M261.996,210.368c-1.064,0.844-2.611,0.664-3.453-0.402c-0.325-0.415-0.634-0.839-0.932-1.272
					l-0.06-0.086c-0.037-0.056-0.071-0.114-0.104-0.174c-0.586-1.073-0.192-2.418,0.883-3.004l0.409-0.225
					c1.012-0.557,2.283-0.254,2.936,0.699c0.232,0.338,0.475,0.67,0.727,0.994c0.783,0.993,0.692,2.417-0.211,3.301
					C262.128,210.259,262.064,210.315,261.996,210.368z"/>
				<path fill="#F3F1F2" d="M256.338,200.454c-1.337,0.225-2.605-0.677-2.829-2.017c-0.431-2.721-0.411-5.495,0.063-8.21
					l4.694-27.22c0.231-1.341,1.507-2.241,2.848-2.009c1.341,0.231,2.241,1.506,2.01,2.848l-4.693,27.22
					c-0.379,2.171-0.399,4.392-0.058,6.569c0.198,1.242-0.572,2.433-1.784,2.764C256.505,200.421,256.422,200.439,256.338,200.454z"
					/>
			</g>
		</g>
		<g>
			<path fill="#E3E4E2" d="M593.338,226.358c17.27-3.454,28.644-20.034,25.652-37.388l-6.948-40.297h-59.155l-6.947,40.297
				c-2.991,17.354,8.384,33.934,25.652,37.388c3.457,0.691,5.944,3.725,5.944,7.252v43.234l-20.39,1.854
				c-3.81,0.346-6.725,3.539-6.725,7.364v0.641h64.085v-0.641c0-3.825-2.916-7.018-6.725-7.364l-20.388-1.854V233.61
				C587.395,230.084,589.883,227.049,593.338,226.358z"/>
			<path fill="#EDCA58" d="M582.465,238.539c2.725,0,4.932-2.207,4.932-4.929c0-3.526,2.487-6.561,5.942-7.252
				c17.27-3.454,28.643-20.034,25.652-37.388l-0.574-3.324h-71.904l-0.572,3.324c-2.992,17.354,8.384,33.934,25.651,37.388
				c3.458,0.691,5.945,3.725,5.945,7.252C577.535,236.333,579.743,238.539,582.465,238.539z"/>
			<g>
				<path fill="#F3F1F2" d="M561.651,210.368c-1.065,0.844-2.613,0.664-3.454-0.402c-0.324-0.415-0.635-0.839-0.934-1.272
					l-0.06-0.086c-0.036-0.056-0.072-0.114-0.104-0.174c-0.586-1.073-0.19-2.418,0.885-3.004l0.408-0.225
					c1.015-0.557,2.283-0.254,2.938,0.699c0.231,0.338,0.473,0.67,0.726,0.994c0.782,0.993,0.692,2.417-0.212,3.301
					C561.783,210.259,561.718,210.315,561.651,210.368z"/>
				<path fill="#F3F1F2" d="M555.992,200.454c-1.339,0.225-2.605-0.677-2.831-2.017c-0.431-2.721-0.411-5.495,0.063-8.21
					l4.694-27.22c0.23-1.341,1.506-2.241,2.847-2.009c1.345,0.231,2.242,1.506,2.012,2.848l-4.693,27.22
					c-0.38,2.171-0.399,4.392-0.059,6.569c0.197,1.242-0.572,2.433-1.785,2.764C556.16,200.421,556.076,200.439,555.992,200.454z"/>
			</g>
		</g>
		<g>
			<path fill="#E3E4E2" d="M286.462,758.668v-43.235l20.387-1.854c3.81-0.346,6.727-3.54,6.727-7.363v-0.643H249.49v0.643
				c0,3.823,2.916,7.019,6.725,7.363l20.386,1.854v43.235c0,3.524-2.487,6.56-5.943,7.25c-17.27,3.454-28.643,20.033-25.651,37.389
				l6.947,40.298h59.156l6.947-40.298c2.992-17.354-8.384-33.935-25.651-37.389C288.949,765.228,286.462,762.192,286.462,758.668z"
				/>
			<path fill="#EDCA58" d="M276.602,758.668c0,3.524-2.487,6.56-5.943,7.25c-17.269,3.454-28.644,20.033-25.651,37.389l0.572,3.325
				h71.904l0.572-3.325c2.992-17.354-8.384-33.935-25.652-37.389c-3.456-0.688-5.944-3.725-5.944-7.25
				c0-2.724-2.207-4.932-4.929-4.932C278.809,753.737,276.602,755.944,276.602,758.668z"/>
			<g>
				<path fill="#F3F1F2" d="M260.91,782.077c0.904,0.887,0.995,2.308,0.211,3.302c-0.251,0.325-0.492,0.655-0.726,0.994
					c-0.653,0.954-1.924,1.257-2.937,0.698l-0.409-0.225c-1.074-0.586-1.469-1.93-0.882-3.004c0.032-0.061,0.066-0.117,0.104-0.175
					l0.059-0.085c0.297-0.434,0.607-0.857,0.932-1.271c0.843-1.066,2.39-1.246,3.455-0.404
					C260.786,781.961,260.85,782.018,260.91,782.077z"/>
				<path fill="#F3F1F2" d="M255.308,791.879c1.212,0.331,1.982,1.521,1.785,2.764c-0.341,2.179-0.322,4.397,0.059,6.57
					l4.693,27.219c0.23,1.345-0.669,2.617-2.01,2.851c-1.341,0.229-2.616-0.669-2.849-2.012l-4.693-27.221
					c-0.474-2.714-0.497-5.489-0.064-8.21c0.225-1.339,1.492-2.241,2.83-2.018C255.143,791.838,255.227,791.854,255.308,791.879z"/>
			</g>
		</g>
		<g>
			<path fill="#E3E4E2" d="M586.115,758.668v-43.235l20.388-1.854c3.81-0.346,6.725-3.54,6.725-7.363v-0.643h-64.085v0.643
				c0,3.823,2.917,7.019,6.727,7.363l20.387,1.854v43.235c0,3.524-2.487,6.56-5.943,7.25c-17.27,3.454-28.644,20.033-25.65,37.389
				l6.946,40.298h59.155l6.946-40.298c2.993-17.354-8.384-33.935-25.652-37.389C588.604,765.228,586.115,762.192,586.115,758.668z"
				/>
			<path fill="#EDCA58" d="M576.256,758.668c0,3.524-2.487,6.56-5.943,7.25c-17.27,3.454-28.644,20.033-25.651,37.389l0.572,3.325
				h71.903l0.573-3.325c2.991-17.354-8.384-33.935-25.652-37.389c-3.456-0.688-5.943-3.725-5.943-7.25
				c0-2.724-2.207-4.932-4.928-4.932C578.463,753.737,576.256,755.944,576.256,758.668z"/>
			<g>
				<path fill="#F3F1F2" d="M560.564,782.077c0.903,0.887,0.995,2.308,0.213,3.302c-0.253,0.325-0.494,0.655-0.729,0.994
					c-0.65,0.954-1.924,1.257-2.936,0.698l-0.41-0.225c-1.074-0.586-1.468-1.93-0.883-3.004c0.031-0.061,0.065-0.117,0.104-0.175
					l0.061-0.085c0.297-0.434,0.607-0.857,0.932-1.271c0.844-1.066,2.39-1.246,3.454-0.404
					C560.438,781.961,560.503,782.018,560.564,782.077z"/>
				<path fill="#F3F1F2" d="M554.962,791.879c1.213,0.331,1.981,1.521,1.786,2.764c-0.342,2.179-0.322,4.397,0.058,6.57
					l4.693,27.219c0.231,1.345-0.669,2.617-2.011,2.851c-1.342,0.229-2.616-0.669-2.85-2.012l-4.692-27.221
					c-0.475-2.714-0.496-5.489-0.063-8.21c0.226-1.339,1.492-2.241,2.829-2.018C554.796,791.838,554.88,791.854,554.962,791.879z"/>
			</g>
		</g>
	</g>
	<g>
		<path fill="#E3E4E2" d="M292.406,520.781c17.268-3.452,28.644-20.033,25.651-37.388l-6.946-40.298h-59.157l-6.947,40.298
			c-2.992,17.354,8.383,33.936,25.651,37.388c3.456,0.69,5.944,3.728,5.944,7.251v43.235l-20.387,1.854
			c-3.809,0.347-6.725,3.541-6.725,7.365v0.643h64.085v-0.643c0-3.824-2.918-7.02-6.726-7.365l-20.388-1.854v-43.235
			C286.462,524.509,288.949,521.474,292.406,520.781z"/>
		<path fill="#EDCA58" d="M281.532,532.962c2.722,0,4.93-2.206,4.93-4.93c0-3.523,2.487-6.561,5.944-7.252
			c17.268-3.452,28.644-20.033,25.651-37.388l-0.572-3.323H245.58l-0.572,3.323c-2.993,17.354,8.383,33.936,25.651,37.388
			c3.456,0.69,5.944,3.728,5.944,7.252C276.602,530.755,278.809,532.962,281.532,532.962z"/>
		<g>
			<path fill="#F3F1F2" d="M260.719,504.792c-1.065,0.843-2.613,0.662-3.455-0.403c-0.324-0.415-0.635-0.838-0.933-1.271
				l-0.059-0.087c-0.038-0.056-0.072-0.113-0.104-0.171c-0.587-1.074-0.191-2.419,0.883-3.007l0.409-0.224
				c1.014-0.558,2.284-0.255,2.938,0.699c0.232,0.337,0.475,0.669,0.727,0.992c0.784,0.993,0.692,2.417-0.211,3.302
				C260.85,504.682,260.786,504.738,260.719,504.792z"/>
			<path fill="#F3F1F2" d="M255.059,494.879c-1.338,0.226-2.605-0.68-2.831-2.017c-0.431-2.724-0.409-5.497,0.065-8.212
				l4.692-27.221c0.232-1.341,1.508-2.24,2.849-2.009c1.342,0.231,2.241,1.507,2.01,2.848l-4.693,27.221
				c-0.38,2.171-0.399,4.392-0.058,6.568c0.196,1.242-0.572,2.436-1.786,2.766C255.227,494.845,255.143,494.863,255.059,494.879z"/>
		</g>
	</g>
	<g>
		<path fill="#E3E4E2" d="M592.06,520.781c17.271-3.452,28.646-20.033,25.652-37.388l-6.946-40.298h-59.156l-6.946,40.298
			c-2.992,17.354,8.383,33.936,25.652,37.388c3.454,0.69,5.942,3.728,5.942,7.251v43.235l-20.387,1.854
			c-3.81,0.347-6.727,3.541-6.727,7.365v0.643h64.086v-0.643c0-3.824-2.916-7.02-6.725-7.365l-20.388-1.854v-43.235
			C586.115,524.509,588.604,521.474,592.06,520.781z"/>
		<path fill="#EDCA58" d="M581.186,532.962c2.724,0,4.931-2.206,4.931-4.93c0-3.523,2.489-6.561,5.943-7.252
			c17.27-3.452,28.644-20.033,25.651-37.388l-0.573-3.323h-71.902l-0.572,3.323c-2.992,17.354,8.383,33.936,25.651,37.388
			c3.455,0.69,5.943,3.728,5.943,7.252C576.257,530.755,578.463,532.962,581.186,532.962z"/>
		<g>
			<path fill="#F3F1F2" d="M560.372,504.792c-1.064,0.843-2.612,0.662-3.453-0.403c-0.325-0.415-0.636-0.838-0.933-1.271
				l-0.061-0.087c-0.037-0.056-0.07-0.113-0.104-0.171c-0.586-1.074-0.19-2.419,0.882-3.007l0.411-0.224
				c1.013-0.558,2.283-0.255,2.936,0.699c0.232,0.337,0.476,0.669,0.728,0.992c0.784,0.993,0.691,2.417-0.212,3.302
				C560.504,504.682,560.439,504.738,560.372,504.792z"/>
			<path fill="#F3F1F2" d="M554.713,494.879c-1.338,0.226-2.604-0.68-2.83-2.017c-0.432-2.724-0.41-5.497,0.064-8.212l4.691-27.221
				c0.232-1.341,1.509-2.24,2.851-2.009c1.341,0.231,2.241,1.507,2.01,2.848l-4.693,27.221c-0.379,2.171-0.398,4.392-0.058,6.568
				c0.195,1.242-0.572,2.436-1.786,2.766C554.881,494.845,554.796,494.863,554.713,494.879z"/>
		</g>
	</g>
</g>
</svg>
