<?xml version="1.0" encoding="utf-8"?>
<!-- Generator: Adobe Illustrator 16.0.0, SVG Export Plug-In . SVG Version: 6.00 Build 0)  -->
<!DOCTYPE svg PUBLIC "-//W3C//DTD SVG 1.1//EN" "http://www.w3.org/Graphics/SVG/1.1/DTD/svg11.dtd">
<svg version="1.1" id="Layer_1" xmlns="http://www.w3.org/2000/svg" xmlns:xlink="http://www.w3.org/1999/xlink" x="0px" y="0px"
	 width="1000px" height="1000px" viewBox="0 0 1000 1000" enable-background="new 0 0 1000 1000" xml:space="preserve">
<g id="d">
	<path fill="#FFF2D2" d="M747.099,919.451c0,38.607-31.298,69.908-69.909,69.908H117.921c-38.612,0-69.908-31.301-69.908-69.908
		V80.548c0-38.609,31.296-69.909,69.908-69.909h559.269c38.609,0,69.909,31.3,69.909,69.909V919.451z"/>
	<path fill="#FFD47D" d="M105.234,464.078V135.122c4.657,1.504,9.624,2.312,14.78,2.312c26.67,0,48.293-21.623,48.293-48.299
		c0-7.633-1.774-14.854-4.927-21.269c0.103-0.006,0.211-0.006,0.315-0.006h467.718c32.29,0,58.461,27.638,58.461,61.735v334.483"/>
	<path fill="#FFD47D" d="M689.879,464.078l-0.005,400.873c-4.656-1.506-9.624-2.313-14.78-2.313
		c-26.669,0-48.293,21.625-48.293,48.301c0,7.633,1.774,14.854,4.927,21.27c-0.102,0.004-0.211,0.004-0.314,0.004H163.696
		c-32.289,0-58.461-27.637-58.461-61.732l-0.003-406.402"/>
	<path fill="none" stroke="#231F20" stroke-width="5" stroke-miterlimit="10" d="M689.879,860.299"/>
	<rect x="80.367" y="50.643" fill="none" width="69.119" height="76.985"/>
	<text transform="matrix(1 0 0 1 80.3691 115.855)" fill="#F7B728" font-family="'Arvo'" font-size="85.8294">D</text>
	<path fill="none" stroke="#231F20" stroke-width="5" stroke-miterlimit="10" d="M689.879,464.078"/>
	<path fill="none" stroke="#231F20" stroke-width="5" stroke-miterlimit="10" d="M426.788,464.078"/>
	<path fill="none" stroke="#231F20" stroke-width="5" stroke-miterlimit="10" d="M105.231,464.078"/>
	<path fill="none" stroke="#231F20" stroke-width="5" stroke-miterlimit="10" d="M426.788,464.078"/>
	<rect x="639.983" y="865.666" fill="none" width="69.728" height="83.764"/>
	<text transform="matrix(-1 0 0 -1 709.7129 884.2227)" fill="#F7B728" font-family="'Arvo'" font-size="85.8294">D</text>
	<path fill="none" stroke="#231F20" stroke-width="5" stroke-miterlimit="10" d="M689.879,535.994"/>
	<path fill="none" stroke="#231F20" stroke-width="5" stroke-miterlimit="10" d="M368.322,535.994"/>
	<g>
		<path fill="#656D78" d="M381.811,410.269V776.18c0,11.84,9.686,21.523,21.523,21.523h150.67c11.945,0,21.524-9.684,21.524-21.523
			V410.269c0-42.188-26.904-78.026-64.573-91.374v-27.01h-64.574v27.01C408.821,332.243,381.811,368.081,381.811,410.269z"/>
		<path fill="#ED5565" d="M510.956,184.158h-64.574v-53.706h64.574V184.158z"/>
		<path fill="#DA4453" d="M510.956,291.885h-64.574V184.158h64.574V291.885z"/>
		<path fill="#ED5565" d="M414.098,690.063V485.625h129.146v204.438H414.098z"/>
		<path fill="#656D78" d="M381.811,410.269V776.18c0,11.84,9.686,21.523,21.523,21.523h32.318c-11.84,0-21.524-9.684-21.524-21.523
			v-64.572h-0.03V464.078h0.03V421.04c0-42.187,27.016-78.024,64.573-91.367v-37.788h-32.318v27.01
			C408.821,332.243,381.811,368.081,381.811,410.269z"/>
		<path fill="#D3374E" d="M478.701,291.885h-32.318V184.158h32.318V291.885z"/>
		<g>
			<path fill="#DA4453" d="M478.701,184.158h-32.318v-53.706h32.318V184.158z"/>
			<path fill="#DA4453" d="M494.813,528.547c8.933,0,16.143,7.314,16.143,16.143c0,8.93-7.211,16.143-16.143,16.143
				c-8.935,0-16.144-7.215-16.144-16.143C478.669,535.861,485.879,528.547,494.813,528.547z"/>
			<path fill="#DA4453" d="M494.813,572.604c0,8.936-7.211,16.145-16.144,16.145c-8.933,0-16.144-7.211-16.144-16.145
				c0-8.82,7.211-16.143,16.144-16.143C487.603,556.461,494.813,563.781,494.813,572.604z"/>
			<path fill="#DA4453" d="M462.525,560.832c-8.932,0-16.143-7.213-16.143-16.143c0-8.828,7.21-16.143,16.143-16.143
				c8.935,0,16.144,7.314,16.144,16.143C478.669,553.619,471.459,560.832,462.525,560.832z"/>
			<path fill="#DA4453" d="M435.643,614.695c0-5.953,4.813-10.762,10.761-10.762h64.594c5.954,0,10.764,4.809,10.764,10.762
				c0,5.949-4.81,10.764-10.764,10.764h-64.594C440.455,625.459,435.643,620.645,435.643,614.695z"/>
			<path fill="#DA4453" d="M457.187,646.994c0-5.955,4.813-10.764,10.764-10.764h21.502c5.954,0,10.763,4.809,10.763,10.764
				c0,5.947-4.809,10.76-10.763,10.76h-21.502C462,657.754,457.187,652.941,457.187,646.994z"/>
		</g>
		<path fill="#E3E4E2" d="M308.496,685.635c32.07-6.414,53.196-37.205,47.64-69.434l-12.903-74.84H233.372l-12.903,74.84
			c-5.558,32.229,15.569,63.02,47.639,69.434c6.42,1.285,11.04,6.92,11.04,13.467v80.293l-37.864,3.441
			c-7.073,0.643-12.489,6.574-12.49,13.676v1.191H347.81v-1.191c0-7.102-5.416-13.033-12.489-13.676l-37.863-3.441v-80.293
			C297.457,692.555,302.077,686.92,308.496,685.635z"/>
		<path fill="#ED5565" d="M288.302,708.256c5.056,0,9.154-4.098,9.154-9.154c0-6.547,4.621-12.182,11.04-13.467
			c32.07-6.414,53.196-37.205,47.64-69.434l-1.064-6.176H221.532l-1.063,6.176c-5.558,32.229,15.569,63.02,47.639,69.434
			c6.419,1.285,11.039,6.92,11.039,13.467C279.147,704.158,283.246,708.256,288.302,708.256z"/>
		<g>
			<path fill="#F3F1F2" d="M249.648,655.939c-1.978,1.564-4.851,1.23-6.415-0.748c-0.603-0.771-1.18-1.559-1.732-2.363l-0.108-0.158
				c-0.07-0.105-0.135-0.213-0.195-0.322c-1.088-1.994-0.353-4.492,1.64-5.578l0.761-0.42c1.882-1.033,4.24-0.471,5.454,1.301
				c0.431,0.629,0.88,1.242,1.349,1.844c1.454,1.844,1.285,4.488-0.393,6.131C249.893,655.736,249.773,655.842,249.648,655.939z"/>
			<path fill="#F3F1F2" d="M239.137,637.525c-2.485,0.42-4.839-1.258-5.256-3.744c-0.802-5.053-0.761-10.205,0.119-15.248
				l8.717-50.549c0.429-2.492,2.797-4.164,5.289-3.734c2.491,0.43,4.162,2.797,3.732,5.289l-8.714,50.551
				c-0.705,4.033-0.741,8.156-0.107,12.201c0.367,2.307-1.063,4.52-3.315,5.133C239.449,637.467,239.294,637.5,239.137,637.525z"/>
		</g>
	</g>
</g>
</svg>
