<?xml version="1.0" encoding="utf-8"?>
<!-- Generator: Adobe Illustrator 16.0.0, SVG Export Plug-In . SVG Version: 6.00 Build 0)  -->
<!DOCTYPE svg PUBLIC "-//W3C//DTD SVG 1.1//EN" "http://www.w3.org/Graphics/SVG/1.1/DTD/svg11.dtd">
<svg version="1.1" id="Layer_1" xmlns="http://www.w3.org/2000/svg" xmlns:xlink="http://www.w3.org/1999/xlink" x="0px" y="0px"
	 width="1000px" height="1000px" viewBox="0 0 1000 1000" enable-background="new 0 0 1000 1000" xml:space="preserve">
<g id="b">
	<path fill="#FFF2D2" d="M734.506,911.475c0,37.872-30.702,68.578-68.578,68.578H117.295c-37.876,0-68.578-30.706-68.578-68.578
		V88.527c0-37.875,30.702-68.58,68.578-68.58h548.632c37.876,0,68.578,30.706,68.578,68.58L734.506,911.475L734.506,911.475z"/>
	<path fill="#FFD47D" d="M104.851,464.764v-322.7c4.569,1.475,9.442,2.266,14.499,2.266c26.163,0,47.376-21.21,47.376-47.38
		c0-7.487-1.741-14.571-4.834-20.864c0.102-0.004,0.208-0.004,0.309-0.004h458.822c31.675,0,57.349,27.111,57.349,60.56v328.122"/>
	<path fill="#FFD47D" d="M678.374,464.764l-0.004,393.25c-4.566-1.476-9.439-2.268-14.497-2.268
		c-26.162,0-47.376,21.211-47.376,47.381c0,7.487,1.742,14.572,4.835,20.864c-0.102,0.005-0.208,0.005-0.31,0.005H162.201
		c-31.675,0-57.35-27.112-57.35-60.56l-0.001-398.674"/>
	<g>
		<g id="glass_1_">
			<circle fill="#00A057" cx="192.189" cy="566.079" r="55.028"/>
			<path fill="#008730" d="M192.189,511.052c30.52,0,55.026,24.509,55.026,55.029c0,30.52-24.507,55.026-55.026,55.026"/>
			<path fill="#E9F98C" d="M192.189,522.152c24.261,0,43.929,19.664,43.929,43.929c0,24.262-19.667,43.927-43.929,43.927
				s-43.929-19.665-43.929-43.927C148.26,541.816,167.928,522.152,192.189,522.152z"/>
			<path fill="#BEE874" d="M223.171,534.636c17.108,17.107,17.108,45.316,0,62.425c-17.11,17.108-45.317,17.108-62.426,0"/>
			<g>
				<path fill="#80C612" d="M185.253,540.185L185.253,540.185l6.935,16.188l6.936-16.188l0,0c0.463-0.923,0.463-1.85,0.463-3.235
					c0-4.163-3.237-7.401-7.399-7.401s-7.398,3.239-7.398,7.401C184.791,537.871,184.791,539.262,185.253,540.185z"/>
				<path fill="#80C612" d="M199.124,591.512L199.124,591.512l-6.935-16.184l-6.935,16.184l0,0
					c-0.463,0.927-0.463,1.852-0.463,3.238c0,4.159,3.236,7.399,7.398,7.399c4.161,0,7.399-3.24,7.399-7.399
					C199.587,593.826,199.587,592.438,199.124,591.512z"/>
				<path fill="#80C612" d="M218.083,559.143L218.083,559.143l-16.184,6.938l16.184,6.934l0,0c0.925,0.465,1.851,0.465,3.238,0.465
					c4.161,0,7.398-3.237,7.398-7.397c0-4.162-3.237-7.4-7.398-7.4C219.933,558.22,219.008,558.68,218.083,559.143z"/>
				<path fill="#80C612" d="M166.293,572.556L166.293,572.556l16.185-6.939l-16.185-6.937l0,0c-0.925-0.461-1.85-0.461-3.237-0.461
					c-4.162,0-7.398,3.236-7.398,7.396c0,4.164,3.236,7.398,7.398,7.398C164.444,573.478,165.369,573.015,166.293,572.556z"/>
				<path fill="#80C612" d="M205.598,542.959L205.598,542.959l-6.474,16.184l16.185-6.475l0,0c0.923-0.462,1.85-0.924,2.774-1.847
					c2.775-2.776,2.775-7.401,0-10.638c-2.774-2.775-7.398-2.775-10.635,0C206.524,541.108,206.061,542.034,205.598,542.959z"/>
				<path fill="#80C612" d="M178.778,588.738L178.778,588.738l7.861-16.184l-15.261,6.935l0,0c-1.85,0.927-3.237,1.389-4.161,2.312
					c-2.774,2.775-2.774,6.938,0,10.173c2.774,2.776,7.399,2.776,10.173,0C178.316,590.587,178.316,589.662,178.778,588.738z"/>
				<path fill="#80C612" d="M215.309,579.489L215.309,579.489l-16.185-6.476l6.474,16.187l0,0c0.462,0.925,0.925,1.849,1.85,2.772
					c2.774,2.776,7.399,2.776,10.635,0c3.238-2.772,2.775-7.396,0-10.636C217.159,580.416,216.233,579.489,215.309,579.489z"/>
				<path fill="#80C612" d="M171.38,552.206L171.38,552.206l15.261,6.473l-7.399-16.183l0,0c-0.463-0.924-0.924-1.849-1.85-2.774
					c-2.774-2.772-7.862-2.772-10.636,0c-2.773,2.774-1.851,7.4,0.925,10.635C168.606,551.279,169.069,551.744,171.38,552.206z"/>
			</g>
			<polyline fill="#FFFCEE" points="353.57,567.003 187.102,567.003 212.997,759.367 212.997,788.961 328.6,788.961 328.6,759.367 
				353.57,567.003 			"/>
			<line fill="none" x1="353.57" y1="567.003" x2="268.487" y2="567.003"/>
			<polyline fill="#FFFCEE" points="273.111,788.961 328.6,788.961 328.6,759.367 353.57,567.003 			"/>
			<path fill="#E8E3CF" d="M200.975,567.003l16.184,118.841c0,29.132,24.045,52.253,53.177,52.253s52.714-23.122,52.714-52.253
				l16.647-118.841H200.975L200.975,567.003z"/>
			<path fill="#BDE5C8" d="M193.577,621.106c29.132-1.388,51.789-25.897,51.789-55.491v0.925h-58.264L193.577,621.106z"/>
			<path fill="#DFE5CF" d="M215.309,579.489L215.309,579.489l-16.185-6.476l6.474,16.187l0,0c0.462,0.925,0.925,1.849,1.85,2.772
				c2.774,2.776,7.399,2.776,10.635,0c3.238-2.772,2.775-7.396,0-10.636C217.159,580.416,216.233,579.489,215.309,579.489z"/>
			<path fill="#E8E3CF" d="M270.799,738.098c29.132,0,52.252-22.658,52.252-51.791l16.646-119.304h-71.211"/>
			<path fill="#D8D2BA" d="M301.78,622.032c-8.324,6.471-19.42,10.173-31.443,10.173c-12.022,0-23.121-3.701-31.445-10.173
				c-7.861,6.01-17.571,9.248-28.669,10.173l7.398,53.179c0,29.129,23.583,52.715,52.715,52.715s52.714-23.587,52.714-52.715
				l7.4-53.643C319.352,631.28,309.642,627.58,301.78,622.032z"/>
			<path fill="#D8D2BA" d="M270.337,738.098c29.133,0,52.714-23.587,52.714-52.715l7.4-53.643c-11.1-0.46-20.81-4.16-28.67-10.173
				c-8.324,6.475-19.42,10.173-31.444,10.173"/>
			<path fill="#FFFCEE" d="M233.343,695.092c0.464,2.313-0.925,4.162-2.774,4.162l0,0c-1.849,0.463-3.698-1.387-4.161-3.238
				l-7.399-55.025c0-2.313,1.388-4.625,3.237-4.625l0,0c1.85-0.463,3.699,1.386,4.161,3.237L233.343,695.092z"/>
			<path fill="#FFFCEE" d="M224.095,621.106c0,0.925-1.387,1.847-3.236,2.312l0,0c-1.851,0.462-3.699-0.466-3.699-1.387l-3.7-27.282
				c0-0.925,1.388-1.851,3.236-2.313l0,0c1.85-0.465,3.701,0.463,3.701,1.388L224.095,621.106z"/>
			<path fill="#FFFCEE" d="M328.6,573.938c0,1.852-2.311,2.313-4.16,2.313H216.696c-1.849,0-4.161-0.923-4.161-2.313l0,0
				c0-1.384,1.389-2.312,3.699-2.312h108.206C326.289,571.628,328.6,572.092,328.6,573.938L328.6,573.938z"/>
		</g>
		<g id="bottle_1_">
			<path fill="#E3E4E2" d="M608.438,448.009v310.305c0,16.486-13.363,29.851-29.853,29.851l0,0H399.479
				c-16.486,0-29.851-13.363-29.851-29.851l0,0V448.009c-0.005-11.478,4.952-22.396,13.596-29.949l66.009-57.763
				c0,0-9.95-9.95-9.95-29.852c-0.009-3.336,0.287-6.667,0.881-9.95c2.44-13.272,9.069-19.9,9.069-19.9v-19.9h79.602v19.9
				c0,0,6.63,6.629,9.069,19.9c0.594,3.283,0.89,6.614,0.882,9.95c0,19.902-9.951,29.852-9.951,29.852l66.011,57.763
				C603.485,425.612,608.441,436.533,608.438,448.009z"/>
			<path fill="#C9C9C8" d="M547.16,469.316c-20.646-6.313-40.203-9.516-58.128-9.516c-17.538,0-36.668,3.069-56.841,9.125
				l-5.723-19.061c22.034-6.607,43.083-9.968,62.563-9.968c19.898,0,41.42,3.493,63.948,10.385L547.16,469.316z"/>
			<path fill="#EB5849" d="M409.429,509.553c0,0,39.802-19.899,79.604-19.899s79.603,19.899,79.603,19.899V718.51H409.429V509.553z"
				/>
			<path fill="#C9C9C8" d="M479.083,400.099h19.898v19.9h-19.898V400.099L479.083,400.099z"/>
			<path fill="#C9C9C8" d="M537.901,320.495h-97.739c2.439-13.272,9.068-19.9,9.068-19.9v-19.9h79.603v19.9
				C528.834,300.594,535.463,307.223,537.901,320.495z"/>
			<path fill="#E54B3D" d="M528.834,280.694H449.23v-19.901c0,0,9.95-49.751,39.802-49.751c29.851,0,39.802,49.751,39.802,49.751
				V280.694z"/>
			<path fill="#D4342F" d="M548.735,300.594H429.329l-9.949-39.801h139.306L548.735,300.594z"/>
			<path fill="#C9C9C8" d="M409.429,638.908h159.205v79.603H409.429V638.908z"/>
			<path fill="#B2B1B4" d="M459.181,668.759h19.902v19.901h-19.902V668.759z"/>
			<path fill="#B2B1B4" d="M498.98,668.759h19.901v19.901H498.98V668.759z"/>
			<circle fill="#F8BC1E" cx="489.032" cy="579.207" r="39.801"/>
			<path fill="#1CA55D" d="M568.635,589.155L409.43,609.055v29.854h159.205V589.155z"/>
		</g>
	</g>
	<path fill="none" stroke="#231F20" stroke-width="5" stroke-miterlimit="10" d="M678.374,853.449"/>
	<g>
		<rect x="85.392" y="59.191" fill="none" width="62.867" height="75.521"/>
		<text transform="matrix(1 0 0 1 85.3921 123.1611)" fill="#F7B728" font-family="'Arvo'" font-size="84.1969">B</text>
	</g>
	<path fill="none" stroke="#231F20" stroke-width="5" stroke-miterlimit="10" d="M678.374,464.764"/>
	<path fill="none" stroke="#231F20" stroke-width="5" stroke-miterlimit="10" d="M420.288,464.764"/>
	<path fill="none" stroke="#231F20" stroke-width="5" stroke-miterlimit="10" d="M104.849,464.764"/>
	<path fill="none" stroke="#231F20" stroke-width="5" stroke-miterlimit="10" d="M420.288,464.764"/>
	<rect x="634.963" y="865.362" fill="none" width="62.866" height="75.521"/>
	<text transform="matrix(-1 0 0 -1 697.8291 876.9141)" fill="#F7B728" font-family="'Arvo'" font-size="84.1969">B</text>
	<path fill="none" stroke="#231F20" stroke-width="5" stroke-miterlimit="10" d="M678.374,535.312"/>
	<path fill="none" stroke="#231F20" stroke-width="5" stroke-miterlimit="10" d="M362.935,535.312"/>
</g>
</svg>
