<?xml version="1.0" encoding="utf-8"?>
<!-- Generator: Adobe Illustrator 16.0.0, SVG Export Plug-In . SVG Version: 6.00 Build 0)  -->
<!DOCTYPE svg PUBLIC "-//W3C//DTD SVG 1.1//EN" "http://www.w3.org/Graphics/SVG/1.1/DTD/svg11.dtd">
<svg version="1.1" id="Layer_1" xmlns="http://www.w3.org/2000/svg" xmlns:xlink="http://www.w3.org/1999/xlink" x="0px" y="0px"
	 width="1000px" height="1000px" viewBox="0 0 1000 1000" enable-background="new 0 0 1000 1000" xml:space="preserve">
<g id="a">
	<g>
		<path fill="#FFF2D2" d="M866.714,911.542c0,37.879-30.707,68.591-68.589,68.591H249.401c-37.883,0-68.589-30.712-68.589-68.591
			V88.458c0-37.881,30.707-68.591,68.589-68.591h548.724c37.882,0,68.589,30.71,68.589,68.591V911.542z"/>
		<path fill="#FFD47D" d="M236.955,464.757V142.004c4.569,1.475,9.442,2.268,14.5,2.268c26.167,0,47.383-21.216,47.383-47.389
			c0-7.49-1.741-14.573-4.834-20.868c0.101-0.005,0.208-0.005,0.309-0.005h458.898c31.681,0,57.36,27.116,57.36,60.57v328.177"/>
		<path fill="#FFD47D" d="M810.574,464.757l-0.002,393.313c-4.57-1.477-9.443-2.268-14.503-2.268
			c-26.166,0-47.383,21.214-47.383,47.388c0,7.489,1.741,14.574,4.833,20.867c-0.101,0.006-0.207,0.006-0.309,0.006H294.313
			c-31.68,0-57.358-27.115-57.358-60.569l-0.003-398.737"/>
		<path fill="none" stroke="#231F20" stroke-width="5" stroke-miterlimit="10" d="M810.574,853.507"/>
		<rect x="217.492" y="59.116" fill="none" width="75.364" height="75.533"/>
		<text transform="matrix(1 0 0 1 217.4912 123.0957)" fill="#F7B728" font-family="'Arvo'" font-size="84.2109">A</text>
		<path fill="none" stroke="#231F20" stroke-width="5" stroke-miterlimit="10" d="M810.574,464.757"/>
		<path fill="none" stroke="#231F20" stroke-width="5" stroke-miterlimit="10" d="M552.444,464.757"/>
		<path fill="none" stroke="#231F20" stroke-width="5" stroke-miterlimit="10" d="M236.952,464.757"/>
		<path fill="none" stroke="#231F20" stroke-width="5" stroke-miterlimit="10" d="M552.444,464.757"/>
		<rect x="759.295" y="865.422" fill="none" width="71.53" height="75.533"/>
		<text transform="matrix(-1 0 0 -1 830.8242 876.9766)" fill="#F7B728" font-family="'Arvo'" font-size="84.2109">A</text>
		<path fill="none" stroke="#231F20" stroke-width="5" stroke-miterlimit="10" d="M810.574,535.315"/>
		<path fill="none" stroke="#231F20" stroke-width="5" stroke-miterlimit="10" d="M495.081,535.315"/>
	</g>
	<g>
		<path fill="#F7B728" d="M697.93,542.428H571.264v-31.667H697.93V542.428z"/>
		<path fill="#F7B728" d="M697.93,721.873H571.264v-31.667H697.93V721.873z"/>
		<path fill="#FFFFFF" d="M697.93,690.206H571.264V542.428H697.93V690.206z"/>
		<path fill="#565656" d="M666.265,225.759H602.93v-63.335h63.335V225.759z"/>
		<path fill="#F7B728" d="M666.265,310.203H602.93v-84.444h63.335V310.203z"/>
		<path fill="#E6E9ED" d="M539.596,457.982v337.78c0,11.612,9.396,21.11,21.111,21.11h147.675c11.716,0,21.216-9.498,21.216-21.11
			v-337.78c0-41.377-26.491-76.528-63.333-89.621v-58.159H602.93v58.159h-0.104C565.985,381.454,539.596,416.605,539.596,457.982z
			 M571.264,510.761H697.93v211.112H571.264V542.428V510.761z"/>
		<path fill="#E6E9ED" d="M539.596,457.982v337.78c0,11.612,9.396,21.11,21.111,21.11h31.698c-11.716,0-21.111-9.498-21.111-21.11
			v-73.89h-0.03V510.761h0.03v-42.213c0-41.376,26.389-76.527,63.23-89.614h0.104v-68.73H602.93v58.159h-0.104
			C565.985,381.454,539.596,416.605,539.596,457.982z"/>
		<path fill="#F4AC1E" d="M634.628,310.203H602.93v-84.444h31.698V310.203z"/>
		<path fill="#474747" d="M634.628,225.759H602.93v-63.335h31.698V225.759z"/>
		<path fill="#F7B728" d="M592.344,616.337c0-5.834,4.716-10.556,10.556-10.556h63.365c5.839,0,10.556,4.722,10.556,10.556
			c0,5.841-4.717,10.557-10.556,10.557h-63.365C597.06,626.894,592.344,622.178,592.344,616.337z"/>
		<path fill="#F7B728" d="M613.496,648.004c0-5.835,4.721-10.555,10.555-10.555h21.062c5.835,0,10.556,4.72,10.556,10.555
			c0,5.841-4.721,10.558-10.556,10.558h-21.062C618.217,658.561,613.496,653.845,613.496,648.004z"/>
		<path fill="#FFCE54" d="M655.414,584.65c0-5.842,4.727-10.558,10.556-10.558h0.114c5.828,0,10.493,4.716,10.493,10.558
			c0,5.839-4.772,10.555-10.607,10.555C660.141,595.205,655.414,590.489,655.414,584.65z"/>
		<path fill="#FFCE54" d="M623.747,584.65c0-5.842,4.727-10.558,10.556-10.558h0.114c5.828,0,10.493,4.716,10.493,10.558
			c0,5.839-4.772,10.555-10.607,10.555C628.474,595.205,623.747,590.489,623.747,584.65z"/>
		<path fill="#FFCE54" d="M592.024,584.65c0-5.842,4.729-10.558,10.555-10.558h0.118c5.824,0,10.494,4.716,10.494,10.558
			c0,5.839-4.772,10.555-10.612,10.555C596.755,595.205,592.024,590.489,592.024,584.65z"/>
	</g>
	<g id="glass_2_">
		<g>
			<path fill="#80C612" d="M351.028,671.473L351.028,671.473l-11.376-4.551l4.55,11.378l0,0c0.325,0.649,0.649,1.297,1.301,1.948
				c1.95,1.95,5.2,1.95,7.476,0c2.274-1.948,1.95-5.199,0-7.475C352.328,672.125,351.677,671.473,351.028,671.473z"/>
		</g>
		<polyline fill="#FFFCEE" points="448.211,662.696 331.201,662.696 349.403,797.907 349.403,818.709 430.659,818.709 
			430.659,797.907 448.211,662.696 		"/>
		<line fill="none" x1="448.211" y1="662.696" x2="388.406" y2="662.696"/>
		<polyline fill="#FFFCEE" points="391.656,818.709 430.659,818.709 430.659,797.907 448.211,662.696 		"/>
		<path fill="#E8E3CF" d="M345.501,680.247c-0.647-0.651-0.975-1.298-1.298-1.949l-1.708-4.266l-0.86-6.316l9.395,3.757
			c0.646,0,1.298,0.651,1.949,1.299c1.948,2.275,2.276,5.526,0,7.477C350.701,682.2,347.454,682.2,345.501,680.247z"/>
		<path fill="#E8E3CF" d="M438.459,662.697l-11.702,83.533c0,20.477-16.575,36.728-37.052,36.728s-37.379-16.251-37.379-36.728
			l-6.455-47.394c15.079-5.034,25.866-19.345,26.269-36.141L438.459,662.697L438.459,662.697z"/>
		<path fill="#E8E3CF" d="M372.141,662.697c-0.402,16.796-11.188,31.105-26.269,36.141l-3.377-24.806l1.708,4.266
			c0.323,0.651,0.65,1.298,1.298,1.949c1.953,1.953,5.2,1.953,7.476,0c2.277-1.949,1.949-5.2,0-7.478
			c-0.65-0.646-1.302-1.298-1.948-1.298l-9.395-3.757l-0.682-5.019L372.141,662.697L372.141,662.697z"/>
		<path fill="#FFFCEE" d="M342.495,674.032l3.377,24.806c-3.2,1.069-6.593,1.721-10.12,1.887l-4.549-38.354h40.941
			c0,0.106,0,0.217-0.005,0.327h-31.188l0.682,5.019"/>
		<path fill="#BDE5C8" d="M372.153,661.719v0.651h-0.009C372.153,662.153,372.153,661.936,372.153,661.719z"/>
		<path fill="#E8E3CF" d="M390.031,782.958c20.478,0,36.728-15.929,36.728-36.404l11.702-83.856h-50.054"/>
		<path fill="#F7B728" d="M411.808,701.375c-5.851,4.55-13.65,7.15-22.102,7.15s-16.251-2.602-22.103-7.15
			c-5.524,4.225-12.351,6.501-20.15,7.15l5.2,37.379c0,20.475,16.577,37.054,37.053,37.054s37.053-16.579,37.053-37.054l5.2-37.704
			C424.159,707.876,417.333,705.275,411.808,701.375z"/>
		<path fill="#F7B728" d="M389.706,782.958c20.476,0,37.053-16.579,37.053-37.054l5.2-37.704c-7.8-0.324-14.626-2.925-20.151-7.151
			c-5.851,4.551-13.65,7.151-22.102,7.151"/>
		<path fill="#FFFCEE" d="M363.704,752.729c0.326,1.623-0.649,2.926-1.95,2.926l0,0c-1.3,0.324-2.601-0.976-2.926-2.276l-5.2-38.678
			c0-1.625,0.976-3.252,2.275-3.252l0,0c1.3-0.324,2.6,0.976,2.925,2.276L363.704,752.729z"/>
		<path fill="#FFFCEE" d="M357.204,700.726c0,0.649-0.976,1.299-2.275,1.625l0,0c-1.3,0.325-2.6-0.326-2.6-0.976l-2.601-19.177
			c0-0.648,0.976-1.3,2.275-1.624l0,0c1.3-0.326,2.602,0.323,2.602,0.976L357.204,700.726z"/>
		<path fill="#FFFCEE" d="M430.659,667.571c0,1.302-1.625,1.625-2.925,1.625h-75.731c-1.3,0-2.925-0.649-2.925-1.625l0,0
			c0-0.974,0.975-1.624,2.6-1.624h76.058C429.035,665.947,430.659,666.272,430.659,667.571L430.659,667.571z"/>
	</g>
</g>
</svg>
