<?xml version="1.0" encoding="utf-8"?>
<!-- Generator: Adobe Illustrator 16.0.0, SVG Export Plug-In . SVG Version: 6.00 Build 0)  -->
<!DOCTYPE svg PUBLIC "-//W3C//DTD SVG 1.1//EN" "http://www.w3.org/Graphics/SVG/1.1/DTD/svg11.dtd">
<svg version="1.1" id="Layer_1" xmlns="http://www.w3.org/2000/svg" xmlns:xlink="http://www.w3.org/1999/xlink" x="0px" y="0px"
	 width="1000px" height="1000px" viewBox="0 0 1000 1000" enable-background="new 0 0 1000 1000" xml:space="preserve">
<g id="k">
	<path fill="#FFF2D2" d="M789.21,919.699c0,38.631-31.315,69.95-69.949,69.95H159.66c-38.634,0-69.95-31.319-69.95-69.95V80.301
		c0-38.631,31.315-69.951,69.95-69.951h559.6c38.634,0,69.949,31.319,69.949,69.951L789.21,919.699L789.21,919.699z"/>
	<path fill="#FFD47D" d="M146.966,464.058v-329.15c4.66,1.504,9.629,2.313,14.789,2.313c26.685,0,48.321-21.636,48.321-48.329
		c0-7.637-1.775-14.862-4.929-21.28c0.103-0.005,0.21-0.005,0.314-0.005h467.995c32.31,0,58.496,27.654,58.496,61.771v334.682"/>
	<path fill="#FFD47D" d="M731.956,464.058l-0.003,401.111c-4.658-1.505-9.629-2.312-14.788-2.312
		c-26.686,0-48.322,21.635-48.322,48.327c0,7.638,1.775,14.862,4.93,21.281c-0.103,0.005-0.213,0.005-0.315,0.005H205.462
		c-32.309,0-58.496-27.654-58.496-61.771l-0.002-406.642"/>
	<path fill="none" stroke="#231F20" stroke-width="5" stroke-miterlimit="10" d="M731.956,860.515"/>
	<rect x="122.084" y="50.378" fill="none" width="69.159" height="77.032"/>
	<text transform="matrix(1 0 0 1 122.085 115.627)" fill="#F7B728" font-family="'Arvo'" font-size="85.8802">K</text>
	<path fill="none" stroke="#231F20" stroke-width="5" stroke-miterlimit="10" d="M731.956,464.058"/>
	<path fill="none" stroke="#231F20" stroke-width="5" stroke-miterlimit="10" d="M468.71,464.058"/>
	<path fill="none" stroke="#231F20" stroke-width="5" stroke-miterlimit="10" d="M146.964,464.058"/>
	<path fill="none" stroke="#231F20" stroke-width="5" stroke-miterlimit="10" d="M468.71,464.058"/>
	<rect x="682.031" y="865.884" fill="none" width="69.771" height="83.814"/>
	<text transform="matrix(-1 0 0 -1 751.8018 884.4492)" fill="#F7B728" font-family="'Arvo'" font-size="85.8802">K</text>
	<path fill="none" stroke="#231F20" stroke-width="5" stroke-miterlimit="10" d="M731.956,536.017"/>
	<path fill="none" stroke="#231F20" stroke-width="5" stroke-miterlimit="10" d="M410.21,536.017"/>
	<g>
		<path fill="#E28A3B" d="M658.629,397.361v365.674c-0.003,16.828-13.644,30.47-30.472,30.474H425.003
			c-16.828-0.004-30.469-13.645-30.473-30.474V397.361l37.202-4.141c27.387-2.983,47.391-27.275,45.063-54.724
			c-0.623-6.984-1.003-14.5-1.003-22.398c0-40.631,10.159-71.104,10.159-71.104V224.68h81.261v20.315
			c0,0,10.157,30.474,10.157,71.104c0,7.896-0.38,15.414-1.001,22.398c-2.328,27.449,17.675,51.741,45.062,54.724L658.629,397.361z"
			/>
		<path fill="#4E4E4F" d="M577.367,316.099H475.791c0.036-17.054,1.737-34.065,5.079-50.789c1.312-6.862,3.008-13.645,5.08-20.315
			V224.68h81.261v20.315c2.071,6.67,3.767,13.453,5.08,20.315C575.633,282.034,577.332,299.044,577.367,316.099z"/>
		<path fill="#4E4E4F" d="M394.53,448.147h264.099v264.101H394.53V448.147z"/>
		<path fill="#B2B1B4" d="M601.218,544.873c-19.214-16.521-45.723-25.62-74.638-25.62c-28.917,0-55.423,9.1-74.639,25.62
			l-13.245-15.4c22.898-19.69,54.109-30.535,87.884-30.535c33.773,0,64.985,10.844,87.883,30.535L601.218,544.873z"/>
		<ellipse fill="#B2B1B4" cx="526.579" cy="600.514" rx="71.104" ry="50.789"/>
		<path fill="#959494" d="M496.106,590.356h20.316v20.314h-20.316V590.356z"/>
		<path fill="#959494" d="M536.737,590.356h20.315v20.314h-20.315V590.356z"/>
		<path fill="#343433" d="M572.29,265.31h-91.421c1.312-6.862,3.008-13.645,5.08-20.315V224.68h81.261v20.315
			C569.282,251.665,570.977,258.448,572.29,265.31z"/>
		<path fill="#4E4E4F" d="M577.367,244.995H475.791v-40.631h101.577V244.995z"/>
		<path fill="#E3E4E2" d="M396.788,793.509H253.6c-13.766,0-25.183-9.68-26.13-22.153l-15.778-207.83h227.004l-15.78,207.83
			C421.97,783.828,410.553,793.508,396.788,793.509z"/>
		<path fill="#E59751" d="M222.53,698.897h205.326l-2.279,32.575l-39.269,27.632H264.078l-39.267-27.632L222.53,698.897z"/>
		<path fill="#B5691A" d="M386.31,698.897c0,33.253-27.363,60.207-61.116,60.207c-33.753,0-61.116-26.955-61.116-60.207H386.31z"/>
		<path fill="#C9C9C8" d="M264.078,698.897c0-33.252,27.363-60.208,61.116-60.208c33.753,0,61.116,26.957,61.116,60.208H264.078z"/>
	</g>
</g>
</svg>
