<?xml version="1.0" encoding="utf-8"?>
<!-- Generator: Adobe Illustrator 16.0.0, SVG Export Plug-In . SVG Version: 6.00 Build 0)  -->
<!DOCTYPE svg PUBLIC "-//W3C//DTD SVG 1.1//EN" "http://www.w3.org/Graphics/SVG/1.1/DTD/svg11.dtd">
<svg version="1.1" id="Layer_1" xmlns="http://www.w3.org/2000/svg" xmlns:xlink="http://www.w3.org/1999/xlink" x="0px" y="0px"
	 width="1000px" height="1000px" viewBox="0 0 1000 1000" enable-background="new 0 0 1000 1000" xml:space="preserve">
<g id="_x31_0">
	<path fill="#FFF2D2" d="M714.816,909.957c0,37.733-30.591,68.325-68.326,68.325H99.882c-37.737,0-68.326-30.594-68.326-68.325
		V90.044c0-37.734,30.588-68.326,68.326-68.326H646.49c37.736,0,68.326,30.592,68.326,68.326V909.957z"/>
	<path fill="#FFD47D" d="M87.483,464.893V143.384c4.551,1.469,9.406,2.257,14.445,2.257c26.066,0,47.2-21.133,47.2-47.206
		c0-7.46-1.734-14.518-4.815-20.787c0.101-0.005,0.208-0.005,0.308-0.005h457.131c31.561,0,57.139,27.012,57.139,60.337v326.912"/>
	<path fill="#FFD47D" d="M658.893,464.893L658.89,856.69c-4.553-1.47-9.406-2.259-14.444-2.259c-26.067,0-47.2,21.134-47.2,47.206
		c0,7.461,1.732,14.519,4.814,20.788c-0.101,0.006-0.206,0.006-0.309,0.006H144.62c-31.559,0-57.138-27.013-57.138-60.339
		l-0.003-397.201"/>
	<path fill="none" stroke="#231F20" stroke-width="5" stroke-miterlimit="10" d="M658.893,852.146"/>
	<g>
		<rect x="53.54" y="69.042" fill="none" width="101.335" height="89.895"/>
		<text transform="matrix(1 0 0 1 53.5396 132.7764)" fill="#F7B728" font-family="'Arvo'" font-size="83.8865">10</text>
	</g>
	<path fill="none" stroke="#231F20" stroke-width="5" stroke-miterlimit="10" d="M658.893,464.893"/>
	<path fill="none" stroke="#231F20" stroke-width="5" stroke-miterlimit="10" d="M401.757,464.893"/>
	<path fill="none" stroke="#231F20" stroke-width="5" stroke-miterlimit="10" d="M87.48,464.893"/>
	<path fill="none" stroke="#231F20" stroke-width="5" stroke-miterlimit="10" d="M401.757,464.893"/>
	<path fill="none" stroke="#231F20" stroke-width="5" stroke-miterlimit="10" d="M658.893,535.181"/>
	<path fill="none" stroke="#231F20" stroke-width="5" stroke-miterlimit="10" d="M344.615,535.181"/>
	<g>
		<rect x="595.922" y="841.947" fill="none" width="101.335" height="89.895"/>
		<text transform="matrix(-1 0 0 -1 697.2559 868.1055)" fill="#F7B728" font-family="'Arvo'" font-size="83.8865">10</text>
	</g>
	<g>
		<g>
			<path fill="#E3E4E2" d="M233.486,223.615c17.441-3.488,28.931-20.234,25.908-37.762l-7.017-40.702h-59.749l-7.017,40.702
				c-3.023,17.528,8.466,34.274,25.908,37.762c3.491,0.698,6.004,3.763,6.004,7.324v43.667l-20.591,1.873
				c-3.847,0.35-6.792,3.575-6.792,7.438v0.648h64.728v-0.648c0-3.863-2.946-7.089-6.792-7.438l-20.591-1.873v-43.667
				C227.482,227.378,229.994,224.314,233.486,223.615z"/>
			<path fill="#E8C35B" d="M222.503,235.918c2.75,0,4.979-2.23,4.979-4.979c0-3.561,2.512-6.625,6.004-7.324
				c17.441-3.488,28.931-20.234,25.908-37.762l-0.58-3.358h-72.626l-0.578,3.358c-3.022,17.528,8.466,34.274,25.908,37.762
				c3.491,0.698,6.004,3.763,6.004,7.324C217.524,233.688,219.753,235.918,222.503,235.918z"/>
			<g>
				<path fill="#F3F1F2" d="M201.481,207.466c-1.076,0.852-2.638,0.669-3.489-0.406c-0.328-0.42-0.641-0.848-0.941-1.286
					l-0.06-0.086c-0.038-0.057-0.073-0.115-0.106-0.174c-0.592-1.084-0.192-2.442,0.892-3.034l0.414-0.228
					c1.022-0.562,2.307-0.257,2.966,0.707c0.234,0.341,0.479,0.676,0.733,1.002c0.792,1.002,0.7,2.44-0.213,3.333
					C201.614,207.355,201.549,207.412,201.481,207.466z"/>
				<path fill="#F3F1F2" d="M195.765,197.451c-1.352,0.228-2.63-0.683-2.859-2.035c-0.436-2.75-0.414-5.552,0.065-8.293l4.74-27.492
					c0.234-1.354,1.521-2.263,2.876-2.031c1.355,0.234,2.264,1.522,2.03,2.876l-4.74,27.493c-0.382,2.194-0.402,4.438-0.058,6.636
					c0.199,1.254-0.579,2.457-1.803,2.79C195.934,197.418,195.85,197.438,195.765,197.451z"/>
			</g>
		</g>
		<g>
			<path fill="#E3E4E2" d="M536.144,223.615c17.441-3.488,28.932-20.234,25.909-37.762l-7.019-40.702h-59.749l-7.016,40.702
				c-3.022,17.528,8.466,34.274,25.907,37.762c3.491,0.698,6.003,3.763,6.003,7.324v43.667l-20.591,1.873
				c-3.848,0.35-6.792,3.575-6.792,7.438v0.648h64.729v-0.648c0-3.863-2.946-7.089-6.792-7.438l-20.594-1.873v-43.667
				C530.14,227.378,532.652,224.314,536.144,223.615z"/>
			<path fill="#EDCA58" d="M525.16,235.918c2.75,0,4.979-2.23,4.979-4.979c0-3.561,2.514-6.625,6.004-7.324
				c17.441-3.488,28.932-20.234,25.909-37.762l-0.58-3.358h-72.626l-0.578,3.358c-3.021,17.528,8.467,34.274,25.908,37.762
				c3.491,0.698,6.003,3.763,6.003,7.324C520.182,233.688,522.41,235.918,525.16,235.918z"/>
			<g>
				<path fill="#F3F1F2" d="M504.139,207.466c-1.076,0.852-2.639,0.669-3.487-0.406c-0.329-0.42-0.643-0.848-0.942-1.286
					l-0.06-0.086c-0.037-0.057-0.073-0.115-0.105-0.174c-0.592-1.084-0.193-2.442,0.892-3.034l0.415-0.228
					c1.022-0.562,2.307-0.257,2.967,0.707c0.233,0.341,0.479,0.676,0.731,1.002c0.792,1.002,0.7,2.44-0.213,3.333
					C504.271,207.355,504.207,207.412,504.139,207.466z"/>
				<path fill="#F3F1F2" d="M498.422,197.452c-1.352,0.227-2.631-0.684-2.859-2.036c-0.436-2.75-0.414-5.552,0.065-8.293
					l4.74-27.492c0.232-1.354,1.521-2.263,2.876-2.031c1.354,0.234,2.265,1.522,2.03,2.876l-4.739,27.493
					c-0.384,2.194-0.402,4.438-0.061,6.636c0.199,1.254-0.576,2.457-1.802,2.79C498.591,197.418,498.506,197.438,498.422,197.452z"
					/>
			</g>
		</g>
		<g>
			<path fill="#E3E4E2" d="M233.486,404.875c17.441-3.488,28.931-20.233,25.908-37.763l-7.017-40.701h-59.749l-7.017,40.701
				c-3.023,17.529,8.466,34.274,25.908,37.763c3.491,0.699,6.004,3.764,6.004,7.324v43.667l-20.591,1.874
				c-3.847,0.348-6.792,3.574-6.792,7.437v0.649h64.728v-0.649c0-3.862-2.946-7.089-6.792-7.437l-20.591-1.874V412.2
				C227.482,408.638,229.994,405.575,233.486,404.875z"/>
			<path fill="#EDCA58" d="M222.503,417.178c2.75,0,4.979-2.229,4.979-4.978c0-3.562,2.512-6.625,6.004-7.324
				c17.441-3.488,28.931-20.233,25.908-37.763l-0.58-3.357h-72.626l-0.578,3.357c-3.022,17.529,8.466,34.273,25.908,37.763
				c3.491,0.699,6.004,3.764,6.004,7.324C217.524,414.949,219.753,417.178,222.503,417.178z"/>
			<g>
				<path fill="#F3F1F2" d="M201.481,388.727c-1.076,0.851-2.638,0.668-3.489-0.408c-0.328-0.418-0.641-0.848-0.941-1.285
					l-0.06-0.087c-0.038-0.058-0.073-0.115-0.106-0.174c-0.592-1.084-0.192-2.442,0.892-3.034l0.414-0.229
					c1.022-0.563,2.307-0.256,2.966,0.707c0.234,0.341,0.479,0.676,0.733,1.003c0.792,1.001,0.7,2.44-0.213,3.333
					C201.614,388.615,201.549,388.672,201.481,388.727z"/>
				<path fill="#F3F1F2" d="M195.765,378.711c-1.352,0.228-2.63-0.684-2.859-2.035c-0.436-2.749-0.414-5.551,0.065-8.293
					l4.74-27.492c0.234-1.356,1.521-2.265,2.876-2.031c1.355,0.233,2.264,1.521,2.03,2.876l-4.74,27.493
					c-0.382,2.193-0.402,4.437-0.058,6.636c0.199,1.254-0.579,2.457-1.803,2.791C195.934,378.679,195.85,378.698,195.765,378.711z"
					/>
			</g>
		</g>
		<g>
			<path fill="#E3E4E2" d="M536.144,404.875c17.441-3.488,28.932-20.233,25.909-37.763l-7.019-40.701h-59.749l-7.016,40.701
				c-3.022,17.529,8.466,34.274,25.907,37.763c3.491,0.699,6.003,3.764,6.003,7.324v43.667l-20.591,1.874
				c-3.848,0.348-6.792,3.574-6.792,7.437v0.649h64.729v-0.649c0-3.862-2.946-7.089-6.792-7.437l-20.594-1.874V412.2
				C530.14,408.638,532.652,405.575,536.144,404.875z"/>
			<path fill="#EDCA58" d="M525.16,417.178c2.75,0,4.979-2.229,4.979-4.978c0-3.562,2.514-6.625,6.004-7.324
				c17.441-3.488,28.932-20.233,25.909-37.763l-0.58-3.357h-72.626l-0.578,3.357c-3.021,17.529,8.467,34.273,25.908,37.763
				c3.491,0.699,6.003,3.764,6.003,7.324C520.182,414.949,522.41,417.178,525.16,417.178z"/>
			<g>
				<path fill="#F3F1F2" d="M504.139,388.727c-1.076,0.851-2.639,0.668-3.487-0.408c-0.329-0.418-0.643-0.848-0.942-1.285
					l-0.06-0.087c-0.037-0.058-0.073-0.115-0.105-0.174c-0.592-1.084-0.193-2.442,0.892-3.034l0.415-0.229
					c1.022-0.563,2.307-0.256,2.967,0.707c0.233,0.341,0.479,0.676,0.731,1.003c0.792,1.001,0.7,2.44-0.213,3.333
					C504.271,388.615,504.207,388.672,504.139,388.727z"/>
				<path fill="#F3F1F2" d="M498.422,378.711c-1.352,0.228-2.631-0.684-2.859-2.035c-0.436-2.75-0.414-5.551,0.065-8.293
					l4.74-27.492c0.232-1.356,1.521-2.265,2.876-2.031c1.354,0.233,2.265,1.521,2.03,2.876l-4.739,27.493
					c-0.384,2.193-0.402,4.437-0.061,6.636c0.199,1.254-0.576,2.457-1.802,2.791C498.591,378.679,498.506,378.698,498.422,378.711z"
					/>
			</g>
		</g>
		<g>
			<path fill="#E3E4E2" d="M387.901,322.28c17.441-3.487,28.93-20.234,25.907-37.762l-7.017-40.701h-59.748l-7.017,40.701
				c-3.022,17.528,8.467,34.275,25.908,37.762c3.491,0.699,6.005,3.764,6.005,7.324v43.668l-20.593,1.872
				c-3.847,0.35-6.792,3.575-6.792,7.438v0.648h64.729v-0.648c0-3.863-2.946-7.088-6.793-7.438l-20.593-1.872v-43.668
				C381.896,326.044,384.41,322.979,387.901,322.28z"/>
			<path fill="#EDCA58" d="M376.918,334.583c2.749,0,4.979-2.23,4.979-4.979c0-3.56,2.514-6.625,6.005-7.324
				c17.441-3.487,28.93-20.234,25.907-37.762l-0.578-3.358h-72.627l-0.577,3.358c-3.022,17.528,8.467,34.275,25.908,37.762
				c3.491,0.699,6.005,3.764,6.005,7.324C371.94,332.354,374.169,334.583,376.918,334.583z"/>
			<g>
				<path fill="#F3F1F2" d="M355.896,306.13c-1.075,0.851-2.639,0.669-3.488-0.407c-0.329-0.419-0.643-0.847-0.942-1.285
					l-0.06-0.086c-0.038-0.058-0.072-0.116-0.106-0.176c-0.592-1.083-0.191-2.442,0.893-3.034l0.415-0.228
					c1.021-0.562,2.306-0.257,2.966,0.708c0.234,0.34,0.479,0.676,0.731,1.001c0.792,1.002,0.699,2.44-0.212,3.334
					C356.029,306.019,355.964,306.076,355.896,306.13z"/>
				<path fill="#F3F1F2" d="M350.18,296.116c-1.352,0.227-2.631-0.684-2.858-2.037c-0.437-2.749-0.415-5.552,0.064-8.293
					l4.74-27.492c0.233-1.354,1.522-2.264,2.877-2.031c1.354,0.234,2.264,1.521,2.031,2.877l-4.74,27.493
					c-0.384,2.193-0.402,4.436-0.059,6.635c0.198,1.254-0.577,2.457-1.803,2.792C350.349,296.083,350.265,296.102,350.18,296.116z"
					/>
			</g>
		</g>
		<g>
			<path fill="#E3E4E2" d="M226.19,761.262v-43.67l20.592-1.871c3.846-0.351,6.792-3.575,6.792-7.438v-0.647h-64.728v0.647
				c0,3.862,2.946,7.088,6.792,7.438l20.591,1.871v43.67c0,3.561-2.513,6.625-6.003,7.321c-17.442,3.49-28.932,20.235-25.908,37.764
				l7.017,40.701h59.749l7.018-40.701c3.022-17.527-8.468-34.271-25.909-37.764C228.703,767.886,226.19,764.82,226.19,761.262z"/>
			<path fill="#EDCA58" d="M216.232,761.262c0,3.561-2.513,6.625-6.003,7.321c-17.442,3.49-28.932,20.235-25.908,37.764l0.578,3.359
				h72.626l0.579-3.359c3.022-17.527-8.467-34.271-25.909-37.764c-3.491-0.696-6.003-3.763-6.003-7.321
				c0-2.751-2.23-4.979-4.979-4.979C218.461,756.281,216.232,758.511,216.232,761.262z"/>
			<g>
				<path fill="#F3F1F2" d="M200.383,784.905c0.913,0.894,1.005,2.33,0.213,3.335c-0.254,0.325-0.499,0.658-0.733,1.001
					c-0.659,0.965-1.942,1.27-2.966,0.707l-0.414-0.228c-1.084-0.593-1.483-1.95-0.892-3.032c0.033-0.062,0.068-0.119,0.106-0.178
					l0.06-0.087c0.299-0.438,0.614-0.866,0.941-1.284c0.851-1.075,2.413-1.259,3.489-0.407
					C200.256,784.788,200.321,784.845,200.383,784.905z"/>
				<path fill="#F3F1F2" d="M194.724,794.804c1.226,0.335,2.003,1.539,1.803,2.793c-0.345,2.2-0.325,4.44,0.058,6.637l4.739,27.49
					c0.234,1.354-0.674,2.646-2.03,2.879c-1.355,0.232-2.642-0.677-2.876-2.03l-4.739-27.494c-0.479-2.74-0.501-5.543-0.065-8.292
					c0.228-1.353,1.508-2.264,2.859-2.037C194.558,794.762,194.643,794.78,194.724,794.804z"/>
			</g>
		</g>
		<g>
			<path fill="#E3E4E2" d="M528.848,761.262v-43.67l20.594-1.871c3.846-0.351,6.791-3.575,6.791-7.438v-0.647h-64.728v0.647
				c0,3.862,2.946,7.088,6.792,7.438l20.592,1.871v43.67c0,3.561-2.514,6.625-6.003,7.321c-17.441,3.49-28.932,20.235-25.909,37.764
				l7.017,40.701h59.75l7.018-40.701c3.022-17.527-8.468-34.271-25.909-37.764C531.36,767.886,528.848,764.82,528.848,761.262z"/>
			<path fill="#EDCA58" d="M518.889,761.262c0,3.561-2.514,6.625-6.003,7.321c-17.441,3.49-28.932,20.235-25.909,37.764l0.579,3.359
				h72.626l0.579-3.359c3.022-17.527-8.468-34.271-25.91-37.764c-3.488-0.696-6.002-3.763-6.002-7.321
				c0-2.751-2.229-4.979-4.979-4.979S518.889,758.511,518.889,761.262z"/>
			<g>
				<path fill="#F3F1F2" d="M503.041,784.905c0.913,0.894,1.005,2.33,0.213,3.335c-0.254,0.325-0.497,0.658-0.732,1.001
					c-0.659,0.965-1.941,1.27-2.967,0.707l-0.414-0.228c-1.083-0.593-1.482-1.95-0.892-3.032c0.034-0.062,0.068-0.119,0.106-0.178
					l0.059-0.087c0.301-0.438,0.615-0.866,0.943-1.284c0.85-1.075,2.412-1.259,3.488-0.407
					C502.916,784.788,502.98,784.845,503.041,784.905z"/>
				<path fill="#F3F1F2" d="M497.383,794.804c1.226,0.335,2.001,1.539,1.802,2.793c-0.345,2.2-0.324,4.44,0.059,6.637l4.739,27.49
					c0.233,1.354-0.677,2.646-2.03,2.879c-1.354,0.232-2.642-0.677-2.876-2.03l-4.74-27.494c-0.479-2.74-0.501-5.543-0.064-8.292
					c0.228-1.353,1.507-2.264,2.858-2.037C497.215,794.762,497.299,794.78,497.383,794.804z"/>
			</g>
		</g>
		<g>
			<path fill="#E3E4E2" d="M226.19,580.001v-43.669l20.592-1.872c3.846-0.35,6.792-3.575,6.792-7.438v-0.648h-64.728v0.648
				c0,3.861,2.946,7.088,6.792,7.438l20.591,1.872v43.669c0,3.561-2.513,6.626-6.003,7.323
				c-17.442,3.487-28.932,20.233-25.908,37.763l7.017,40.701h59.749l7.018-40.701c3.022-17.528-8.468-34.273-25.909-37.763
				C228.703,586.625,226.19,583.561,226.19,580.001z"/>
			<path fill="#EDCA58" d="M216.232,580.001c0,3.561-2.513,6.626-6.003,7.323c-17.442,3.487-28.932,20.233-25.908,37.763
				l0.578,3.359h72.626l0.579-3.359c3.022-17.528-8.467-34.273-25.909-37.763c-3.491-0.697-6.003-3.765-6.003-7.323
				c0-2.75-2.23-4.98-4.979-4.98C218.461,575.021,216.232,577.251,216.232,580.001z"/>
			<g>
				<path fill="#F3F1F2" d="M200.383,603.646c0.913,0.894,1.005,2.329,0.213,3.332c-0.254,0.327-0.499,0.661-0.733,1.005
					c-0.659,0.963-1.942,1.27-2.966,0.706l-0.414-0.228c-1.084-0.592-1.483-1.951-0.892-3.034c0.033-0.061,0.068-0.118,0.106-0.176
					l0.06-0.087c0.299-0.438,0.614-0.865,0.941-1.285c0.851-1.076,2.413-1.258,3.489-0.407
					C200.256,603.528,200.321,603.585,200.383,603.646z"/>
				<path fill="#F3F1F2" d="M194.724,613.544c1.226,0.335,2.003,1.538,1.803,2.792c-0.345,2.201-0.325,4.441,0.058,6.636
					l4.739,27.493c0.234,1.354-0.674,2.644-2.03,2.876c-1.355,0.233-2.642-0.675-2.876-2.029l-4.739-27.493
					c-0.479-2.74-0.501-5.544-0.065-8.294c0.228-1.352,1.508-2.264,2.859-2.036C194.558,613.503,194.643,613.521,194.724,613.544z"
					/>
			</g>
		</g>
		<g>
			<path fill="#E3E4E2" d="M528.848,580.001v-43.669l20.594-1.872c3.846-0.35,6.791-3.575,6.791-7.438v-0.648h-64.728v0.648
				c0,3.861,2.946,7.088,6.792,7.438l20.592,1.872v43.669c0,3.561-2.514,6.626-6.003,7.323
				c-17.441,3.487-28.932,20.233-25.909,37.763l7.017,40.701h59.75l7.018-40.701c3.022-17.528-8.468-34.273-25.909-37.763
				C531.36,586.625,528.848,583.561,528.848,580.001z"/>
			<path fill="#EDCA58" d="M518.889,580.001c0,3.561-2.514,6.626-6.003,7.323c-17.441,3.487-28.932,20.233-25.909,37.763
				l0.579,3.359h72.626l0.579-3.359c3.022-17.528-8.468-34.273-25.91-37.763c-3.488-0.697-6.002-3.765-6.002-7.323
				c0-2.75-2.229-4.98-4.979-4.98S518.889,577.251,518.889,580.001z"/>
			<g>
				<path fill="#F3F1F2" d="M503.041,603.646c0.913,0.894,1.005,2.329,0.213,3.332c-0.254,0.327-0.497,0.661-0.732,1.005
					c-0.659,0.963-1.941,1.27-2.967,0.706l-0.414-0.228c-1.083-0.592-1.482-1.951-0.892-3.034c0.034-0.061,0.068-0.118,0.106-0.176
					l0.059-0.087c0.301-0.438,0.615-0.865,0.943-1.285c0.85-1.076,2.412-1.258,3.488-0.407
					C502.916,603.528,502.98,603.585,503.041,603.646z"/>
				<path fill="#F3F1F2" d="M497.383,613.544c1.226,0.335,2.001,1.538,1.802,2.792c-0.345,2.201-0.324,4.441,0.059,6.636
					l4.739,27.493c0.233,1.354-0.677,2.644-2.03,2.876c-1.354,0.233-2.642-0.675-2.876-2.029l-4.74-27.492
					c-0.479-2.741-0.501-5.545-0.064-8.294c0.228-1.353,1.507-2.265,2.858-2.037C497.215,613.503,497.299,613.521,497.383,613.544z"
					/>
			</g>
		</g>
		<g>
			<path fill="#E3E4E2" d="M380.605,662.596v-43.668l20.591-1.873c3.847-0.349,6.792-3.573,6.792-7.438v-0.648H343.26v0.648
				c0,3.862,2.946,7.089,6.793,7.438l20.592,1.873v43.668c0,3.562-2.513,6.624-6.003,7.323
				c-17.441,3.488-28.932,20.234-25.909,37.763l7.017,40.702h59.75l7.017-40.702c3.023-17.527-8.467-34.272-25.91-37.763
				C383.118,669.22,380.605,666.156,380.605,662.596z"/>
			<path fill="#EDCA58" d="M370.646,662.596c0,3.562-2.513,6.624-6.002,7.323c-17.442,3.488-28.933,20.234-25.91,37.763l0.578,3.359
				h72.625l0.58-3.359c3.022-17.527-8.468-34.272-25.909-37.763c-3.49-0.699-6.003-3.764-6.003-7.323
				c0-2.75-2.231-4.979-4.979-4.979C372.876,657.617,370.646,659.846,370.646,662.596z"/>
			<g>
				<path fill="#F3F1F2" d="M354.799,686.24c0.912,0.894,1.004,2.331,0.214,3.333c-0.254,0.328-0.499,0.661-0.732,1.004
					c-0.66,0.964-1.943,1.268-2.968,0.706l-0.413-0.229c-1.085-0.591-1.484-1.947-0.893-3.034c0.033-0.059,0.068-0.117,0.105-0.175
					l0.06-0.087c0.301-0.437,0.615-0.865,0.942-1.284c0.851-1.075,2.413-1.258,3.487-0.407
					C354.671,686.123,354.737,686.18,354.799,686.24z"/>
				<path fill="#F3F1F2" d="M349.141,696.14c1.226,0.335,2.001,1.537,1.803,2.791c-0.346,2.2-0.325,4.442,0.058,6.637l4.74,27.492
					c0.233,1.354-0.676,2.645-2.03,2.876c-1.354,0.233-2.642-0.675-2.876-2.03l-4.74-27.491c-0.479-2.742-0.5-5.545-0.064-8.293
					c0.228-1.353,1.507-2.265,2.858-2.037C348.973,696.099,349.058,696.115,349.141,696.14z"/>
			</g>
		</g>
	</g>
</g>
</svg>
