<?xml version="1.0" encoding="utf-8"?>
<!-- Generator: Adobe Illustrator 16.0.0, SVG Export Plug-In . SVG Version: 6.00 Build 0)  -->
<!DOCTYPE svg PUBLIC "-//W3C//DTD SVG 1.1//EN" "http://www.w3.org/Graphics/SVG/1.1/DTD/svg11.dtd">
<svg version="1.1" id="Layer_1" xmlns="http://www.w3.org/2000/svg" xmlns:xlink="http://www.w3.org/1999/xlink" x="0px" y="0px"
	 width="1000px" height="1000px" viewBox="0 0 1000 1000" enable-background="new 0 0 1000 1000" xml:space="preserve">
<g id="_x33_">
	<path fill="#FFF2D2" d="M888.504,912.502c0,37.967-30.775,68.75-68.749,68.75H269.753c-37.972,0-68.75-30.783-68.75-68.75V87.498
		c0-37.968,30.778-68.75,68.75-68.75h550c37.974,0,68.75,30.782,68.75,68.75L888.504,912.502L888.504,912.502z"/>
	<path fill="#FFD47D" d="M257.277,464.674V141.169c4.58,1.479,9.465,2.272,14.535,2.272c26.228,0,47.494-21.264,47.494-47.498
		c0-7.507-1.745-14.607-4.846-20.917c0.103-0.005,0.209-0.005,0.312-0.005h459.967c31.754,0,57.492,27.181,57.492,60.713v328.941"/>
	<path fill="#FFD47D" d="M832.232,464.674l-0.004,394.23c-4.578-1.48-9.465-2.273-14.534-2.273
		c-26.229,0-47.492,21.267-47.492,47.498c0,7.508,1.746,14.609,4.846,20.918c-0.103,0.004-0.208,0.004-0.311,0.004H314.77
		c-31.754,0-57.494-27.18-57.494-60.711l-0.003-399.666"/>
	<path fill="none" stroke="#231F20" stroke-width="5" stroke-miterlimit="10" d="M832.232,854.332"/>
	<g>
		<rect x="243.38" y="66.365" fill="none" width="101.963" height="90.454"/>
		<text transform="matrix(1 0 0 1 243.3809 130.4941)" fill="#F7B728" font-family="'Arvo'" font-size="84.4072">3</text>
	</g>
	<path fill="none" stroke="#231F20" stroke-width="5" stroke-miterlimit="10" d="M832.232,464.674"/>
	<path fill="none" stroke="#231F20" stroke-width="5" stroke-miterlimit="10" d="M573.5,464.674"/>
	<path fill="none" stroke="#231F20" stroke-width="5" stroke-miterlimit="10" d="M257.274,464.674"/>
	<path fill="none" stroke="#231F20" stroke-width="5" stroke-miterlimit="10" d="M573.5,464.674"/>
	<path fill="none" stroke="#231F20" stroke-width="5" stroke-miterlimit="10" d="M832.232,535.396"/>
	<path fill="none" stroke="#231F20" stroke-width="5" stroke-miterlimit="10" d="M516.005,535.396"/>
	<g>
		<rect x="742.03" y="844.068" fill="none" width="101.963" height="90.455"/>
		<text transform="matrix(-1 0 0 -1 843.9902 870.3945)" fill="#F7B728" font-family="'Arvo'" font-size="84.4072">3</text>
	</g>
	<g>
		<g>
			<path fill="#E3E4E2" d="M572.325,221.9c17.549-3.511,29.108-20.361,26.067-37.999l-7.061-40.954h-60.119l-7.062,40.954
				c-3.041,17.638,8.52,34.487,26.068,37.999c3.514,0.702,6.041,3.785,6.041,7.369v43.939l-20.721,1.883
				c-3.869,0.352-6.834,3.598-6.834,7.485v0.652h65.129v-0.652c0-3.888-2.964-7.133-6.833-7.485l-20.722-1.883v-43.94
				C566.282,225.685,568.813,222.602,572.325,221.9z"/>
			<path fill="#EDCA58" d="M561.273,234.278c2.766,0,5.007-2.243,5.007-5.009c0-3.582,2.53-6.667,6.045-7.369
				c17.549-3.511,29.108-20.361,26.067-37.999l-0.583-3.378h-73.075l-0.581,3.378c-3.042,17.638,8.519,34.487,26.067,37.999
				c3.514,0.702,6.041,3.785,6.041,7.369C556.263,232.036,558.508,234.278,561.273,234.278z"/>
			<g>
				<path fill="#F3F1F2" d="M540.119,205.648c-1.081,0.857-2.654,0.673-3.51-0.409c-0.33-0.422-0.646-0.854-0.947-1.293
					l-0.061-0.087c-0.037-0.057-0.072-0.116-0.105-0.175c-0.595-1.091-0.195-2.458,0.897-3.054l0.415-0.229
					c1.029-0.564,2.32-0.258,2.985,0.711c0.235,0.343,0.481,0.681,0.739,1.009c0.793,1.009,0.702,2.455-0.215,3.355
					C540.254,205.536,540.188,205.594,540.119,205.648z"/>
				<path fill="#F3F1F2" d="M534.369,195.572c-1.36,0.229-2.648-0.688-2.876-2.049c-0.438-2.766-0.418-5.586,0.063-8.344
					l4.771-27.665c0.233-1.362,1.531-2.277,2.894-2.042c1.365,0.235,2.278,1.53,2.043,2.895l-4.771,27.664
					c-0.384,2.208-0.403,4.462-0.058,6.676c0.2,1.262-0.582,2.473-1.814,2.81C534.538,195.539,534.454,195.557,534.369,195.572z"/>
			</g>
		</g>
		<g>
			<path fill="#E3E4E2" d="M564.984,762.881v-43.938l20.719-1.884c3.871-0.352,6.835-3.598,6.835-7.485v-0.65h-65.13v0.65
				c0,3.887,2.965,7.133,6.835,7.485l20.721,1.884v43.938c0,3.582-2.528,6.666-6.043,7.369
				c-17.548,3.512-29.111,20.359-26.067,37.998l7.06,40.953h60.12l7.061-40.953c3.041-17.639-8.521-34.488-26.068-37.998
				C567.511,769.547,564.984,766.463,564.984,762.881z"/>
			<path fill="#EDCA58" d="M554.964,762.881c0,3.582-2.529,6.666-6.043,7.369c-17.548,3.512-29.111,20.359-26.069,37.998
				l0.582,3.379h73.077l0.582-3.379c3.04-17.639-8.521-34.488-26.07-37.998c-3.513-0.703-6.038-3.787-6.038-7.369
				c0-2.768-2.246-5.01-5.012-5.01C557.206,757.871,554.964,760.113,554.964,762.881z"/>
			<g>
				<path fill="#F3F1F2" d="M539.017,786.672c0.919,0.898,1.012,2.346,0.215,3.355c-0.257,0.33-0.501,0.664-0.737,1.01
					c-0.664,0.971-1.954,1.276-2.984,0.709l-0.418-0.228c-1.09-0.594-1.491-1.963-0.896-3.053c0.032-0.061,0.067-0.119,0.104-0.176
					l0.062-0.088c0.302-0.441,0.617-0.869,0.946-1.293c0.856-1.082,2.429-1.269,3.511-0.41
					C538.89,786.555,538.954,786.611,539.017,786.672z"/>
				<path fill="#F3F1F2" d="M533.322,796.633c1.23,0.338,2.015,1.547,1.813,2.81c-0.347,2.215-0.327,4.469,0.06,6.678l4.769,27.662
					c0.235,1.362-0.678,2.66-2.042,2.895c-1.361,0.234-2.659-0.68-2.895-2.043l-4.771-27.662c-0.479-2.76-0.503-5.578-0.063-8.346
					c0.229-1.357,1.517-2.277,2.877-2.049C533.155,796.59,533.239,796.609,533.322,796.633z"/>
			</g>
		</g>
	</g>
	<g>
		<path fill="#E3E4E2" d="M571.023,521.119c17.55-3.51,29.11-20.359,26.069-37.997l-7.06-40.953h-60.122l-7.061,40.953
			c-3.041,17.637,8.521,34.487,26.068,37.997c3.513,0.703,6.044,3.787,6.044,7.369v43.938l-20.722,1.886
			c-3.87,0.35-6.834,3.598-6.834,7.481v0.656h65.13v-0.656c0-3.885-2.965-7.131-6.835-7.481l-20.719-1.886v-43.938
			C564.984,524.906,567.511,521.822,571.023,521.119z"/>
		<path fill="#EDCA58" d="M559.974,533.498c2.767,0,5.012-2.242,5.012-5.01c0-3.582,2.525-6.666,6.039-7.369
			c17.55-3.51,29.11-20.359,26.069-37.997l-0.582-3.378h-73.076l-0.581,3.378c-3.042,17.637,8.521,34.487,26.067,37.997
			c3.514,0.703,6.044,3.787,6.044,7.369C554.965,531.256,557.206,533.498,559.974,533.498z"/>
		<g>
			<path fill="#F3F1F2" d="M538.82,504.869c-1.082,0.854-2.654,0.674-3.512-0.408c-0.33-0.424-0.645-0.854-0.946-1.295l-0.062-0.088
				c-0.037-0.058-0.072-0.113-0.104-0.176c-0.595-1.091-0.193-2.457,0.896-3.054l0.418-0.229c1.029-0.564,2.32-0.257,2.984,0.712
				c0.236,0.345,0.48,0.681,0.738,1.009c0.796,1.008,0.703,2.455-0.215,3.355C538.954,504.758,538.89,504.816,538.82,504.869z"/>
			<path fill="#F3F1F2" d="M533.069,494.792c-1.361,0.229-2.648-0.688-2.877-2.049c-0.439-2.768-0.417-5.586,0.064-8.345
				l4.771-27.664c0.233-1.364,1.53-2.278,2.894-2.042c1.364,0.234,2.276,1.528,2.042,2.893l-4.769,27.664
				c-0.387,2.209-0.405,4.464-0.061,6.679c0.2,1.261-0.581,2.472-1.813,2.81C533.239,494.759,533.155,494.779,533.069,494.792z"/>
		</g>
	</g>
</g>
</svg>
