<?xml version="1.0" encoding="utf-8"?>
<!-- Generator: Adobe Illustrator 16.0.0, SVG Export Plug-In . SVG Version: 6.00 Build 0)  -->
<!DOCTYPE svg PUBLIC "-//W3C//DTD SVG 1.1//EN" "http://www.w3.org/Graphics/SVG/1.1/DTD/svg11.dtd">
<svg version="1.1" id="Layer_1" xmlns="http://www.w3.org/2000/svg" xmlns:xlink="http://www.w3.org/1999/xlink" x="0px" y="0px"
	 width="954.387px" height="533.089px" viewBox="0 0 954.387 533.089" enable-background="new 0 0 954.387 533.089"
	 xml:space="preserve">
<g>
	<g>
		<path fill="#F9D49D" d="M416.26,313.699c10.262,8.61,11.602,23.909,2.99,34.17L294.53,496.503
			c-8.611,10.262-23.908,11.6-34.169,2.99L37.41,312.416c-10.262-8.61-11.601-23.91-2.991-34.17l124.72-148.636
			c8.61-10.26,23.908-11.598,34.169-2.988l222.951,187.079L416.26,313.699z"/>
		<path fill="#F9D069" d="M390.463,317.974c9.062,7.604,10.569,20.723,3.369,29.305L289.528,471.582
			c-7.201,8.582-20.384,9.375-29.444,1.771L63.201,308.147c-9.061-7.603-10.57-20.724-3.369-29.306l104.303-124.302
			c7.201-8.582,20.383-9.374,29.445-1.771L390.463,317.974z"/>
		<g>
			<path fill="#FFFFFF" d="M226.043,388.666c-42.058,0-76.274-34.215-76.274-76.272s34.216-76.274,76.274-76.274
				s76.274,34.216,76.274,76.274S268.101,388.666,226.043,388.666z"/>
			<circle fill="#D85555" cx="226.043" cy="312.392" r="70.274"/>
			<g>
				<path fill="#FFCD38" d="M228.538,282.399c-1.095,1.744-2.899,2.919-4.935,3.218c0.694,3.838-1.853,7.51-5.689,8.204
					c-0.652,0.117-1.318,0.144-1.978,0.076c1.485,4.423-0.674,9.246-4.963,11.086l4.449,3.733c2.01,1.687,2.271,4.683,0.585,6.691
					c-1.686,2.01-4.682,2.27-6.692,0.586l-4.627-3.875c-1.347,1.604-3.34,2.527-5.436,2.516c0.098,3.349-2.179,6.3-5.442,7.054
					l46.999,39.437c1.343,1.127,3.347,0.953,4.475-0.391l31.708-37.789c1.127-1.343,0.952-3.347-0.391-4.475l-47-39.438
					C229.54,280.228,229.174,281.386,228.538,282.399z"/>
				<path fill="#FFF1D7" d="M266.846,310.291l9.75,8.183c1.344,1.128,1.52,3.131,0.392,4.476l-31.706,37.785
					c-1.128,1.346-3.131,1.521-4.475,0.395l-9.751-8.184l3.849-0.016c3.493-0.023,6.8-1.581,9.046-4.258l20.926-24.939
					c2.246-2.675,3.204-6.201,2.622-9.646L266.846,310.291z"/>
				<path fill="#FFF1D7" d="M220.648,271.847c-0.112-0.104-0.218-0.213-0.336-0.313c-3.46-2.918-8.63-2.48-11.549,0.979
					c-0.413,0.488-0.768,1.025-1.055,1.599c-3.295-1.368-7.077,0.188-8.446,3.485c-0.287,0.688-0.453,1.426-0.488,2.171
					c-4.959-0.503-9.386,3.108-9.89,8.065c-0.116,1.131-0.015,2.275,0.294,3.369c-3.48,0.787-5.665,4.246-4.878,7.727
					c0.165,0.73,0.456,1.427,0.858,2.057c-3.626,2.708-4.37,7.844-1.661,11.471c0.383,0.512,0.823,0.979,1.313,1.387
					c0.122,0.102,0.244,0.185,0.367,0.277c-0.383,3.877,2.452,7.332,6.33,7.715c3.878,0.381,7.332-2.453,7.714-6.332
					c0.028-0.287,0.039-0.576,0.032-0.865c2.098,0.013,4.092-0.911,5.439-2.52l4.626,3.875c2.01,1.686,5.006,1.424,6.692-0.586
					c1.688-2.011,1.424-5.007-0.586-6.691l-4.451-3.735c4.288-1.84,6.446-6.662,4.962-11.085c3.877,0.396,7.344-2.424,7.742-6.301
					c0.068-0.661,0.042-1.327-0.075-1.979c3.854-0.582,6.506-4.177,5.925-8.029c-0.58-3.854-4.175-6.506-8.029-5.926
					c-0.288,0.043-0.572,0.104-0.853,0.182L220.648,271.847z"/>
				<g>
					<path fill="#F7B521" d="M254.188,317.843c-0.493,0.589-1.37,0.664-1.958,0.171l-16.053-13.47
						c-0.588-0.494-0.666-1.369-0.172-1.957c0.494-0.588,1.371-0.666,1.958-0.172l16.054,13.471
						C254.604,316.38,254.681,317.255,254.188,317.843z"/>
					<path fill="#F7B521" d="M236.292,339.169c-0.493,0.588-1.37,0.664-1.958,0.172l-16.053-13.471
						c-0.588-0.494-0.664-1.369-0.171-1.957c0.493-0.588,1.37-0.666,1.958-0.172l16.053,13.471
						C236.709,337.707,236.786,338.582,236.292,339.169z"/>
					<path fill="#F7B521" d="M245.24,328.507c-0.493,0.586-1.37,0.664-1.958,0.17l-16.053-13.469
						c-0.588-0.494-0.665-1.369-0.171-1.959c0.494-0.586,1.37-0.664,1.958-0.17l16.053,13.469
						C245.657,327.042,245.733,327.917,245.24,328.507z"/>
				</g>
				<path fill="#FFDFB8" d="M247.192,293.787c-7.756-9.265-4.002-16.47-0.44-18.631c4.059-2.463,8.319,0.918,11.152,4.207
					c9.201,10.682,8.166,22.471,0.876,24.156l9.433,7.906c2.605-6.5,6.981-22.446-5.209-36.49
					c-13.792-15.881-27.701-2.998-27.635,8.896L247.192,293.787z"/>
			</g>
		</g>
	</g>
	<g>
		<path fill="#FCDBB1" d="M512.251,303.955c5.661,12.139,0.409,26.569-11.729,32.231l-175.851,82
			c-12.141,5.661-26.57,0.407-32.231-11.731l-123-263.773c-5.661-12.139-0.409-26.571,11.731-32.232l175.851-82
			c12.141-5.66,26.569-0.409,32.23,11.731L512.251,303.955L512.251,303.955z"/>
		<path fill="#F9D069" d="M487.065,296.925c4.997,10.719,0.819,23.25-9.332,27.982L330.67,393.484
			c-10.153,4.734-22.435-0.119-27.434-10.837L194.618,149.713c-4.999-10.719-0.822-23.248,9.331-27.982l147.063-68.577
			c10.152-4.734,22.437,0.118,27.436,10.839L487.065,296.925z"/>
		<g>
			<path fill="#FFFFFF" d="M340.409,298.656c-42.058,0-76.273-34.216-76.273-76.274c0-42.057,34.216-76.273,76.273-76.273
				c42.057,0,76.271,34.216,76.271,76.273C416.682,264.439,382.466,298.656,340.409,298.656z"/>
			<circle fill="#D85555" cx="340.409" cy="222.382" r="70.273"/>
			<g>
				<path fill="#FFCD38" d="M355.346,196.252c-1.729,1.118-3.859,1.422-5.833,0.831c-0.991,3.772-4.854,6.022-8.623,5.031
					c-0.641-0.17-1.256-0.427-1.823-0.767c-0.523,4.637-4.521,8.096-9.185,7.95l2.454,5.264c1.108,2.377,0.08,5.204-2.298,6.313
					c-2.377,1.108-5.203,0.081-6.313-2.298l-2.556-5.467c-1.899,0.887-4.095,0.881-5.991-0.017
					c-1.324,3.076-4.637,4.788-7.913,4.093l25.931,55.605c0.742,1.588,2.631,2.275,4.221,1.535l44.708-20.849
					c1.589-0.74,2.277-2.631,1.535-4.221l-25.929-55.604C357.172,194.708,356.35,195.603,355.346,196.252z"/>
				<path fill="#FFF1D7" d="M378.277,237.719l5.379,11.537c0.742,1.59,0.055,3.48-1.536,4.221l-44.705,20.847
					c-1.59,0.742-3.479,0.053-4.221-1.535l-5.38-11.537l3.493,1.612c3.179,1.454,6.832,1.439,9.998-0.035l29.509-13.759
					c3.163-1.477,5.522-4.268,6.451-7.636L378.277,237.719z"/>
				<path fill="#FFF1D7" d="M352.655,183.355c-0.059-0.143-0.107-0.286-0.173-0.426c-1.901-4.107-6.773-5.895-10.882-3.993
					c-0.579,0.27-1.13,0.606-1.632,1.003c-2.409-2.634-6.495-2.819-9.129-0.412c-0.551,0.504-1.012,1.101-1.359,1.763
					c-4.28-2.553-9.82-1.151-12.372,3.129c-0.582,0.978-0.977,2.056-1.156,3.18c-3.488-0.758-6.929,1.454-7.688,4.94
					c-0.158,0.732-0.188,1.484-0.091,2.225c-4.432,0.922-7.274,5.264-6.353,9.693c0.13,0.627,0.333,1.235,0.604,1.812
					c0.067,0.145,0.146,0.272,0.215,0.408c-1.983,3.354-0.876,7.68,2.479,9.667c3.353,1.984,7.681,0.876,9.666-2.478
					c0.146-0.249,0.278-0.505,0.394-0.769c1.896,0.897,4.097,0.901,5.996,0.014l2.555,5.467c1.108,2.377,3.936,3.405,6.313,2.297
					c2.377-1.108,3.405-3.934,2.297-6.313l-2.456-5.265c4.664,0.145,8.658-3.314,9.185-7.95c3.347,1.999,7.68,0.908,9.68-2.439
					c0.341-0.568,0.599-1.183,0.768-1.825c3.737,1.102,7.661-1.034,8.765-4.772c1.102-3.737-1.035-7.661-4.772-8.763
					c-0.278-0.083-0.563-0.148-0.851-0.195L352.655,183.355z"/>
				<g>
					<path fill="#F7B521" d="M363.613,239.217c-0.696,0.324-1.522,0.023-1.848-0.672l-8.854-18.993
						c-0.325-0.695-0.024-1.521,0.672-1.847c0.695-0.325,1.522-0.023,1.847,0.672l8.856,18.992
						C364.609,238.064,364.309,238.892,363.613,239.217z"/>
					<path fill="#F7B521" d="M338.382,250.981c-0.694,0.325-1.521,0.023-1.847-0.672l-8.857-18.992
						c-0.324-0.696-0.021-1.523,0.673-1.847c0.695-0.326,1.522-0.024,1.848,0.671l8.855,18.993
						C339.378,249.831,339.077,250.656,338.382,250.981z"/>
					<path fill="#F7B521" d="M350.997,245.1c-0.695,0.323-1.522,0.022-1.846-0.673l-8.856-18.992
						c-0.325-0.696-0.023-1.523,0.672-1.847c0.695-0.324,1.522-0.023,1.849,0.672l8.855,18.993
						C351.994,243.947,351.692,244.775,350.997,245.1z"/>
				</g>
				<path fill="#FFDFB8" d="M367.439,214.455c-3.114-11.673,3.332-16.617,7.475-17.07c4.72-0.517,7.152,4.346,8.331,8.526
					c3.824,13.569-2.096,23.815-9.416,22.264l5.209,11.151c5.105-4.791,15.813-17.392,10.699-35.274
					c-5.788-20.221-23.838-14.423-28.808-3.615L367.439,214.455z"/>
			</g>
		</g>
	</g>
	<g>
		<path fill="#FCE0C3" d="M597.648,342.212c0,13.395-10.858,24.254-24.256,24.254H379.366c-13.396,0-24.253-10.859-24.253-24.254
			V51.171c0-13.395,10.857-24.254,24.253-24.254h194.027c13.396,0,24.253,10.86,24.255,24.254V342.212L597.648,342.212z"/>
		<path fill="#F9D069" d="M577.792,325.199c0,11.827-9.08,21.418-20.282,21.416l-162.267,0.002
			c-11.203,0-20.284-9.592-20.284-21.418V68.186c0-11.829,9.081-21.418,20.284-21.418H557.51c11.202,0,20.282,9.589,20.282,21.418
			V325.199z"/>
		<g>
			<path fill="#FFFFFF" d="M476.381,271.931c-42.057,0-76.271-34.216-76.271-76.273c0-42.057,34.216-76.273,76.271-76.273
				c42.059,0,76.273,34.216,76.273,76.273C552.654,237.715,518.438,271.931,476.381,271.931z"/>
			<circle fill="#D85555" cx="476.381" cy="195.658" r="70.273"/>
			<g>
				<path fill="#FFCD38" d="M500.961,178.291c-2.04,0.281-4.102-0.345-5.639-1.713c-2.492,2.999-6.943,3.407-9.94,0.916
					c-0.51-0.424-0.957-0.918-1.329-1.467c-2.436,3.98-7.517,5.428-11.684,3.325v5.808c0,2.623-2.127,4.751-4.75,4.75
					c-2.623,0.001-4.75-2.125-4.75-4.75l-0.005-6.034c-2.099,0-4.085-0.934-5.423-2.546c-2.502,2.228-6.228,2.38-8.901,0.364v61.353
					c0,1.754,1.421,3.177,3.177,3.177h49.329c1.754,0,3.176-1.423,3.176-3.177v-61.352
					C503.268,177.663,502.146,178.127,500.961,178.291z"/>
				<path fill="#FFF1D7" d="M504.219,225.563v12.729c0,1.752-1.422,3.175-3.176,3.175h-49.327c-1.754,0-3.176-1.423-3.176-3.176
					v-12.729l2.485,2.938c2.265,2.66,5.583,4.193,9.075,4.192l32.559,0.001c3.492,0,6.811-1.533,9.074-4.193L504.219,225.563z"/>
				<path fill="#FFF1D7" d="M503.973,165.463c0.008-0.153,0.023-0.303,0.023-0.459c0.012-4.525-3.647-8.204-8.174-8.216
					c-0.644-0.002-1.28,0.072-1.903,0.218c-1.068-3.404-4.694-5.298-8.099-4.229c-0.713,0.223-1.383,0.57-1.979,1.022
					c-2.802-4.122-8.414-5.193-12.536-2.392c-0.938,0.638-1.753,1.45-2.392,2.392c-2.841-2.16-6.896-1.61-9.055,1.23
					c-0.453,0.595-0.801,1.265-1.023,1.978c-4.405-1.036-8.817,1.696-9.854,6.101c-0.146,0.623-0.22,1.259-0.219,1.897
					c0,0.16,0.017,0.306,0.023,0.46c-3.216,2.2-4.041,6.592-1.84,9.807c2.198,3.217,6.591,4.041,9.808,1.841
					c0.238-0.163,0.466-0.34,0.683-0.532c1.342,1.615,3.33,2.548,5.43,2.547l0.005,6.034c0,2.624,2.127,4.75,4.75,4.75
					s4.75-2.126,4.75-4.75v-5.81c4.166,2.103,9.247,0.656,11.683-3.325c2.188,3.227,6.576,4.07,9.806,1.881
					c0.548-0.372,1.042-0.82,1.466-1.33c2.922,2.58,7.381,2.3,9.959-0.621c2.579-2.922,2.301-7.381-0.621-9.959
					C504.442,165.805,504.213,165.625,503.973,165.463L503.973,165.463z"/>
				<g>
					<path fill="#F7B521" d="M490.295,220.723c-0.768-0.001-1.389-0.624-1.389-1.39v-20.957c0-0.769,0.621-1.389,1.389-1.39
						c0.768,0.001,1.391,0.623,1.391,1.39v20.956C491.685,220.1,491.063,220.722,490.295,220.723z"/>
					<path fill="#F7B521" d="M462.456,220.722c-0.767,0-1.39-0.623-1.39-1.389v-20.957c-0.002-0.769,0.623-1.389,1.391-1.389
						c0.767,0,1.389,0.622,1.389,1.387v20.958C463.846,220.1,463.224,220.721,462.456,220.722z"/>
					<path fill="#F7B521" d="M476.377,220.722c-0.769,0.001-1.39-0.623-1.39-1.389v-20.957c0-0.769,0.621-1.39,1.39-1.389
						c0.768,0,1.389,0.622,1.389,1.389v20.957C477.766,220.1,477.145,220.722,476.377,220.722z"/>
				</g>
				<path fill="#FFDFB8" d="M504.229,199.899c2.109-11.895,10.045-13.651,13.987-12.313c4.497,1.527,4.646,6.961,3.947,11.249
					c-2.271,13.914-11.966,20.699-17.942,16.199l0.008,12.307c6.653-2.182,21.684-9.081,24.604-27.446
					c3.301-20.774-15.509-23.147-24.579-15.45L504.229,199.899z"/>
			</g>
		</g>
	</g>
	<g>
		<g>
			<path fill="#F9D069" d="M-395.254,377.106c3.224,0,3.224-5,0-5S-398.479,377.106-395.254,377.106L-395.254,377.106z"/>
		</g>
	</g>
	<g>
		<path fill="#F9E2CD" d="M675.426,414.171c-5.66,12.139-20.091,17.393-32.229,11.732l-175.853-82.003
			c-12.141-5.659-17.392-20.091-11.729-32.229l123-263.773c5.66-12.14,20.091-17.393,32.23-11.731l175.851,82
			c12.141,5.66,17.391,20.091,11.729,32.231L675.426,414.171L675.426,414.171z"/>
		<path fill="#F9D069" d="M664.622,390.359c-5,10.719-17.282,15.574-27.435,10.84l-147.063-68.58
			c-10.153-4.734-14.33-17.263-9.331-27.979L589.41,71.706c5-10.72,17.28-15.574,27.436-10.84l147.063,68.577
			c10.15,4.735,14.33,17.263,9.331,27.983L664.622,390.359z"/>
		<g>
			<path fill="#FFFFFF" d="M627.456,306.371c-42.058,0-76.274-34.215-76.274-76.272c0-42.057,34.218-76.274,76.274-76.274
				s76.274,34.216,76.274,76.274C703.73,272.156,669.514,306.371,627.456,306.371z"/>
			<circle fill="#D85555" cx="627.456" cy="230.097" r="70.274"/>
			<g>
				<path fill="#FFCD38" d="M657.074,224.744c-1.969-0.606-3.571-2.044-4.388-3.934c-3.524,1.664-7.731,0.154-9.396-3.372
					c-0.282-0.6-0.48-1.237-0.585-1.891c-3.89,2.579-9.107,1.743-11.993-1.925l-2.455,5.263c-1.106,2.378-3.935,3.406-6.313,2.298
					c-2.376-1.108-3.406-3.934-2.297-6.313l2.546-5.471c-1.899-0.886-3.31-2.572-3.839-4.599c-3.209,0.96-6.648-0.475-8.223-3.432
					l-25.93,55.604c-0.741,1.59-0.053,3.479,1.536,4.222l44.709,20.847c1.589,0.742,3.479,0.053,4.221-1.537l25.929-55.604
					C659.43,225.15,658.216,225.098,657.074,224.744z"/>
				<path fill="#FFF1D7" d="M640.048,268.964l-5.379,11.537c-0.742,1.59-2.631,2.278-4.221,1.537l-44.706-20.848
					c-1.59-0.741-2.276-2.63-1.536-4.221l5.38-11.537l1.011,3.714c0.931,3.369,3.287,6.159,6.454,7.636l29.505,13.757
					c3.167,1.478,6.821,1.488,9.998,0.035L640.048,268.964z"/>
				<path fill="#FFF1D7" d="M665.225,214.394c0.073-0.136,0.15-0.267,0.217-0.408c1.925-4.097,0.16-8.978-3.937-10.901
					c-0.58-0.271-1.188-0.476-1.817-0.606c0.472-3.537-2.015-6.786-5.553-7.257c-0.74-0.098-1.494-0.066-2.224,0.092
					c-0.797-4.921-5.433-8.262-10.353-7.466c-1.124,0.182-2.2,0.574-3.179,1.157c-1.662-3.158-5.565-4.372-8.727-2.712
					c-0.662,0.349-1.259,0.809-1.766,1.361c-3.554-2.802-8.706-2.191-11.509,1.364c-0.396,0.502-0.729,1.048-0.999,1.627
					c-0.067,0.145-0.116,0.284-0.175,0.427c-3.845,0.634-6.447,4.265-5.813,8.11c0.635,3.844,4.268,6.448,8.11,5.812
					c0.284-0.047,0.567-0.111,0.843-0.192c0.532,2.03,1.94,3.716,3.846,4.601l-2.547,5.472c-1.106,2.377-0.079,5.203,2.298,6.312
					c2.378,1.109,5.202,0.081,6.313-2.296l2.455-5.267c2.888,3.667,8.104,4.502,11.993,1.925c0.62,3.848,4.24,6.467,8.091,5.848
					c0.654-0.106,1.291-0.302,1.893-0.585c1.56,3.571,5.717,5.203,9.288,3.645c3.571-1.557,5.203-5.716,3.646-9.289
					c-0.116-0.266-0.249-0.525-0.397-0.776L665.225,214.394L665.225,214.394z"/>
				<g>
					<path fill="#F7B521" d="M629.477,258.693c-0.694-0.323-0.995-1.15-0.673-1.845l8.857-18.994
						c0.323-0.695,1.147-0.997,1.845-0.673c0.696,0.326,0.997,1.152,0.673,1.848l-8.854,18.992
						C630.998,258.717,630.171,259.018,629.477,258.693z"/>
					<path fill="#F7B521" d="M604.245,246.928c-0.695-0.323-0.998-1.15-0.674-1.846l8.854-18.992
						c0.325-0.695,1.152-0.997,1.849-0.673c0.694,0.325,0.997,1.151,0.675,1.848l-8.857,18.992
						C605.766,246.952,604.94,247.252,604.245,246.928z"/>
					<path fill="#F7B521" d="M616.86,252.812c-0.696-0.324-0.996-1.151-0.673-1.848l8.854-18.992
						c0.324-0.695,1.151-0.997,1.848-0.672c0.694,0.326,0.995,1.152,0.673,1.848l-8.856,18.992
						C618.383,252.835,617.556,253.136,616.86,252.812z"/>
				</g>
				<path fill="#FFDFB8" d="M650.902,245.71c6.938-9.89,14.873-8.128,17.883-5.247c3.431,3.284,1.268,8.272-1.176,11.862
					c-7.938,11.651-19.595,13.703-23.107,7.098l-5.195,11.159c6.953,0.832,23.487,0.935,33.897-14.478
					c11.771-17.433-4.272-27.533-15.746-24.391L650.902,245.71z"/>
			</g>
		</g>
	</g>
	<g>
		<path fill="#FCE8C0" d="M701.011,504.181c-10.261,8.609-25.559,7.271-34.17-2.988l-124.72-148.635
			c-8.61-10.262-7.271-25.561,2.991-34.17l222.95-187.078c10.262-8.61,25.56-7.272,34.17,2.989l124.721,148.634
			c8.607,10.26,7.269,25.559-2.991,34.168L701.011,504.181L701.011,504.181z"/>
		<path fill="#F9D069" d="M701.282,478.035c-9.063,7.602-22.244,6.809-29.443-1.771L567.534,351.958
			c-7.201-8.582-5.691-21.701,3.368-29.306L767.786,157.45c9.061-7.603,22.244-6.811,29.445,1.771l104.302,124.303
			c7.201,8.581,5.693,21.702-3.368,29.304L701.282,478.035z"/>
		<g>
			<path fill="#FFFFFF" d="M735.328,393.355c-42.059,0-76.273-34.216-76.273-76.273c0-42.057,34.217-76.271,76.273-76.271
				s76.271,34.216,76.271,76.271C811.601,359.139,777.385,393.355,735.328,393.355z"/>
			<circle fill="#D85555" cx="735.328" cy="317.082" r="70.273"/>
			<g>
				<path fill="#FFCD38" d="M764.435,324.746c-1.526-1.381-2.372-3.361-2.313-5.418c-3.898,0.019-7.075-3.129-7.092-7.027
					c-0.003-0.661,0.087-1.322,0.269-1.961c-4.614,0.693-8.989-2.27-10.056-6.813l-4.45,3.732c-2.009,1.688-5.006,1.425-6.691-0.584
					c-1.687-2.01-1.424-5.006,0.587-6.692l4.618-3.883c-1.349-1.606-1.908-3.729-1.531-5.792c-3.313-0.482-5.826-3.24-6.003-6.585
					l-46.998,39.438c-1.346,1.127-1.521,3.129-0.395,4.476l31.709,37.788c1.128,1.343,3.13,1.518,4.477,0.391l46.999-39.438
					C766.396,326.109,765.319,325.548,764.435,324.746z"/>
				<path fill="#FFF1D7" d="M730.313,357.628l-9.747,8.182c-1.347,1.127-3.35,0.953-4.478-0.393l-31.706-37.785
					c-1.127-1.346-0.953-3.348,0.394-4.475l9.75-8.184l-0.652,3.792c-0.582,3.444,0.376,6.972,2.622,9.646l20.927,24.939
					c2.245,2.675,5.551,4.232,9.045,4.257L730.313,357.628z"/>
				<path fill="#FFF1D7" d="M776.193,318.808c0.124-0.094,0.25-0.178,0.365-0.277c3.478-2.9,3.942-8.068,1.041-11.543
					c-0.408-0.49-0.878-0.934-1.391-1.316c1.921-3.008,1.042-7.004-1.964-8.924c-0.631-0.404-1.327-0.692-2.056-0.858
					c1.355-4.796-1.433-9.782-6.227-11.14c-1.096-0.312-2.239-0.412-3.37-0.295c-0.171-3.563-3.195-6.316-6.763-6.146
					c-0.747,0.034-1.482,0.2-2.172,0.485c-2.038-4.041-6.967-5.664-11.009-3.627c-0.571,0.289-1.104,0.643-1.597,1.053
					c-0.12,0.104-0.223,0.209-0.335,0.314c-3.754-1.051-7.646,1.141-8.695,4.893c-1.051,3.755,1.141,7.646,4.894,8.697
					c0.278,0.078,0.561,0.137,0.847,0.18c-0.376,2.066,0.188,4.189,1.537,5.795l-4.619,3.883c-2.01,1.688-2.271,4.682-0.585,6.691
					c1.688,2.011,4.686,2.272,6.692,0.586l4.45-3.734c1.065,4.542,5.439,7.506,10.056,6.813c-1.064,3.748,1.11,7.654,4.86,8.719
					c0.641,0.183,1.299,0.271,1.963,0.271c-0.099,3.895,2.98,7.133,6.878,7.229c3.895,0.096,7.133-2.98,7.229-6.881
					c0.009-0.289-0.003-0.58-0.029-0.869L776.193,318.808z"/>
				<g>
					<path fill="#F7B521" d="M725.072,343.851c-0.492-0.588-0.416-1.465,0.172-1.957l16.054-13.471
						c0.588-0.493,1.463-0.416,1.958,0.172c0.492,0.587,0.416,1.463-0.173,1.955l-16.053,13.472
						C726.443,344.515,725.564,344.438,725.072,343.851z"/>
					<path fill="#F7B521" d="M707.179,322.525c-0.494-0.588-0.418-1.464,0.17-1.958l16.056-13.47
						c0.588-0.494,1.465-0.416,1.957,0.172c0.491,0.587,0.417,1.462-0.17,1.956l-16.055,13.471
						C708.548,323.189,707.672,323.112,707.179,322.525z"/>
					<path fill="#F7B521" d="M716.125,333.189c-0.494-0.589-0.416-1.466,0.172-1.958l16.054-13.472
						c0.587-0.492,1.466-0.414,1.956,0.173c0.494,0.588,0.417,1.465-0.17,1.958l-16.054,13.47
						C717.495,333.854,716.619,333.777,716.125,333.189z"/>
				</g>
				<path fill="#FFDFB8" d="M749.979,341.139c10.473-6.029,16.914-1.082,18.426,2.801c1.722,4.427-2.349,8.034-6.078,10.254
					c-12.118,7.205-23.549,4.14-23.942-3.332l-9.424,7.917c5.95,3.693,20.893,10.771,36.841,1.205
					c18.034-10.824,7.764-26.759-3.964-28.761L749.979,341.139z"/>
			</g>
		</g>
	</g>
</g>
</svg>
