<?xml version="1.0" encoding="utf-8"?>
<!-- Generator: Adobe Illustrator 16.0.0, SVG Export Plug-In . SVG Version: 6.00 Build 0)  -->
<!DOCTYPE svg PUBLIC "-//W3C//DTD SVG 1.1//EN" "http://www.w3.org/Graphics/SVG/1.1/DTD/svg11.dtd">
<svg version="1.1" id="Layer_1" xmlns="http://www.w3.org/2000/svg" xmlns:xlink="http://www.w3.org/1999/xlink" x="0px" y="0px"
	 width="954.387px" height="307.514px" viewBox="0 0 954.387 307.514" enable-background="new 0 0 954.387 307.514"
	 xml:space="preserve">
<g>
	<g>
		<path fill="#F9D49D" d="M408.894,307.517h-139.34c-0.18,0.62-0.36,1.2-0.54,1.74c-0.28,0.81-0.55,1.53-0.8,2.17l-1.37-1.14
			l-3.29-2.771h-17.25l1.46,3.12l-3.72-3.12H32.963c-5.99-8.75-5.69-20.75,1.46-29.27l124.72-148.64c2.82-3.36,6.34-5.76,10.18-7.16
			c7.89-2.91,17.07-1.62,23.98,4.18l2.56,2.15l74.8,62.76l4.78,4.01l35.69,29.95l0.01,0.01l22.7,19.04l5.04,4.229l11.63,9.75
			l4.6,3.86l2.82,2.37l17.03,14.29l3.15,2.64l4.78,4.011L408.894,307.517z"/>
		<path fill="#F9D069" d="M377.993,307.517h-108.44c-0.18,0.62-0.36,1.2-0.54,1.74c-0.28,0.81-0.55,1.53-0.8,2.17l-1.37-1.14
			l-3.29-2.771h-17.25l1.46,3.12l-3.72-3.12H62.493c-8.42-7.67-9.67-20.319-2.66-28.68l104.3-124.3c2.24-2.68,5.07-4.59,8.17-5.73
			c6.85-2.53,15.04-1.27,21.28,3.96l4.03,3.38l67.15,56.351l5.57,4.67l60.66,50.91h0.01l7.07,5.939l17.04,14.3l2.61,2.19l5.54,4.64
			l11.7,9.82L377.993,307.517z"/>
		<g>
			<path fill="#FFFFFF" d="M302.153,307.517h-32.6c-0.18,0.62-0.36,1.2-0.54,1.74c-0.28,0.81-0.55,1.53-0.8,2.17l-1.37-1.14
				l-3.29-2.771h-17.25l1.46,3.12l-3.72-3.12h-94.11c2.25-35.59,29.02-64.63,63.56-70.359c4.08-0.69,8.28-1.04,12.55-1.04
				c3.08,0,6.12,0.18,9.11,0.54c12.49,1.5,24.06,6.02,33.96,12.83h0.01c4.05,2.77,7.81,5.93,11.24,9.42
				c3.96,4.01,7.47,8.46,10.46,13.26l0.01,0.02c2.57,4.12,4.75,8.511,6.5,13.101C300.003,292.267,301.664,299.738,302.153,307.517z"
				/>
			<path fill="#D85555" d="M296.144,307.517h-26.59c-0.18,0.62-0.36,1.2-0.54,1.74c-0.28,0.81-0.55,1.53-0.8,2.17l-1.37-1.14
				l-3.29-2.771h-17.25l1.46,3.12l-3.72-3.12h-88.1c2.27-33.229,27.65-60.109,60.19-64.7c3.23-0.46,6.54-0.699,9.91-0.699
				c4.14,0,8.21,0.359,12.15,1.05c14.49,2.52,27.45,9.479,37.44,19.439c0,0.011,0.01,0.011,0.02,0.021
				c3.98,3.96,7.49,8.41,10.44,13.24C291.783,285.207,295.363,295.977,296.144,307.517z"/>
			<g>
				<path fill="#FFCD38" d="M246.303,307.517l1.46,3.12l-3.72-3.12h-30.05l-3.02-2.529c4.29-1.841,6.45-6.671,4.96-11.091
					c0.46,0.051,0.91,0.051,1.34,0.011c0.22-0.021,0.43-0.051,0.64-0.091c0.21-0.04,0.42-0.09,0.63-0.14c0.2-0.06,0.4-0.12,0.6-0.2
					c0.14-0.05,0.27-0.1,0.4-0.17c0.13-0.05,0.25-0.109,0.37-0.17c0.15-0.08,0.3-0.16,0.44-0.25c0.23-0.14,0.44-0.28,0.64-0.45
					c0.12-0.09,0.24-0.189,0.36-0.3c0.02-0.01,0.04-0.03,0.06-0.05c0.13-0.11,0.25-0.24,0.37-0.36c0.05-0.05,0.09-0.1,0.13-0.149
					c0.11-0.12,0.21-0.24,0.3-0.36c0.02-0.01,0.03-0.02,0.04-0.04c0.12-0.15,0.23-0.31,0.33-0.479c0.02-0.021,0.03-0.03,0.04-0.051
					c0.09-0.149,0.18-0.3,0.26-0.46c0.09-0.149,0.17-0.31,0.23-0.479c0.05-0.11,0.1-0.22,0.13-0.33c0.08-0.18,0.14-0.36,0.19-0.54
					c0.05-0.15,0.09-0.311,0.11-0.47c0.02-0.04,0.03-0.091,0.04-0.141c0.03-0.16,0.05-0.319,0.07-0.489
					c0.01-0.051,0.02-0.091,0.02-0.141c0.01-0.06,0.01-0.109,0.01-0.17c0.02-0.16,0.03-0.33,0.03-0.5v-0.16
					c0-0.39-0.04-0.77-0.11-1.149c0.22-0.03,0.43-0.07,0.64-0.13c0.21-0.051,0.42-0.11,0.62-0.181c0.15-0.05,0.3-0.109,0.44-0.17
					c0.44-0.18,0.86-0.399,1.24-0.68c0.17-0.12,0.33-0.24,0.49-0.37c0.17-0.13,0.32-0.271,0.46-0.41c0.29-0.29,0.56-0.6,0.8-0.939
					c0.09-0.11,0.17-0.221,0.24-0.341c0.37-0.58,0.65-1.22,0.82-1.88c0.04-0.149,0.08-0.3,0.11-0.46c0.08-0.34,0.12-0.68,0.14-1.02
					l5.62,4.72l11.97,10.03l11.59,9.729l4.77,4H246.303z"/>
				<path fill="#FFF1D7" d="M229.463,280.057c-0.03,0.16-0.07,0.311-0.11,0.46c-0.23,0.8-0.59,1.55-1.06,2.221
					c-0.24,0.34-0.51,0.649-0.8,0.939c-0.15,0.14-0.3,0.28-0.46,0.41c-0.16,0.13-0.32,0.25-0.49,0.37c-0.38,0.26-0.8,0.49-1.24,0.68
					c-0.14,0.061-0.29,0.12-0.44,0.17c-0.2,0.07-0.41,0.13-0.62,0.181c-0.21,0.05-0.42,0.1-0.64,0.13
					c0.07,0.38,0.11,0.76,0.11,1.149v0.16c0,0.17-0.01,0.34-0.03,0.5c0,0.061,0,0.11-0.01,0.17c0,0.05-0.01,0.09-0.02,0.141
					c-0.02,0.17-0.04,0.329-0.07,0.489c-0.01,0.05-0.02,0.101-0.04,0.141c-0.03,0.159-0.06,0.319-0.11,0.47
					c-0.05,0.18-0.11,0.36-0.19,0.54c-0.03,0.11-0.08,0.22-0.13,0.33c-0.06,0.17-0.14,0.33-0.23,0.479
					c-0.08,0.16-0.17,0.311-0.26,0.46c-0.01,0.021-0.02,0.03-0.04,0.051c-0.1,0.17-0.21,0.329-0.33,0.479
					c-0.01,0.021-0.02,0.03-0.04,0.04c-0.09,0.12-0.19,0.24-0.3,0.36c-0.04,0.05-0.08,0.1-0.13,0.149
					c-0.12,0.12-0.24,0.25-0.37,0.36c-0.02,0.02-0.04,0.04-0.06,0.05c-0.12,0.11-0.24,0.21-0.36,0.3c-0.2,0.17-0.41,0.311-0.64,0.45
					c-0.14,0.09-0.29,0.17-0.44,0.25c-0.12,0.061-0.24,0.12-0.37,0.17c-0.13,0.07-0.26,0.12-0.4,0.17c-0.2,0.08-0.4,0.141-0.6,0.2
					c-0.41,0.12-0.83,0.2-1.27,0.23c-0.43,0.04-0.88,0.04-1.34-0.011c1.49,4.42-0.67,9.25-4.96,11.091l3.02,2.529h-32.13
					c0.01-2.479,1.15-4.93,3.29-6.529c-0.4-0.631-0.69-1.33-0.85-2.061c-0.79-3.479,1.39-6.939,4.87-7.72
					c-0.3-1.101-0.41-2.24-0.29-3.37c0.5-4.96,4.93-8.57,9.89-8.07c0.04-0.74,0.2-1.479,0.49-2.17c1.37-3.3,5.15-4.85,8.44-3.49
					c0.29-0.569,0.65-1.109,1.06-1.59c2.92-3.46,8.09-3.899,11.55-0.979c0.12,0.1,0.22,0.21,0.33,0.31
					c0.28-0.08,0.57-0.14,0.85-0.18c3.86-0.58,7.45,2.07,8.03,5.92C229.653,278.437,229.624,279.277,229.463,280.057z"/>
				<g>
					<path fill="#F7B521" d="M244.043,307.517h-4.33l-3.54-2.97c-0.58-0.5-0.66-1.37-0.17-1.96c0.5-0.59,1.37-0.67,1.96-0.17
						L244.043,307.517z"/>
				</g>
				<path fill="#FFDFB8" d="M269.553,307.517c-0.18,0.62-0.36,1.2-0.54,1.74c-0.28,0.81-0.55,1.53-0.8,2.17l-1.37-1.14l-3.29-2.771
					l-4.77-4c2.57-0.59,4.36-2.439,5.2-5.05c1.55-4.8-0.12-12.18-6.08-19.1c-1.32-1.53-2.94-3.08-4.72-4.051
					c-2.03-1.119-4.26-1.479-6.43-0.159c-3.56,2.159-7.32,9.359,0.44,18.63l-11.82-9.96c-0.05-7.88,6.05-16.2,14.18-16.29
					c4.14-0.04,8.8,2.05,13.45,7.399C273.193,286.677,271.803,299.747,269.553,307.517z"/>
			</g>
		</g>
	</g>
	<g>
		<path fill="#FCDBB1" d="M513.583,307.517h-244.03c-0.18,0.62-0.36,1.2-0.54,1.74c-0.28,0.81-0.55,1.53-0.8,2.17l-1.37-1.14
			l-3.29-2.771h-17.25l-11.08-23.76l-19.09-40.94l-2.64-5.659l-41.19-88.351l-2.86-6.12c-3.11-6.66-2.93-14.02-0.12-20.24
			c2.3-5.11,6.38-9.45,11.85-12l175.85-82c5.79-2.7,12.1-2.91,17.73-1.09c6.18,2.01,11.54,6.47,14.5,12.82l3.17,6.8l40.21,86.23
			l2.57,5.51l12.77,27.39l5.68,12.181v0.01l8.72,18.7l1.47,3.14l15.18,32.561l4.09,8.77l0.01,0.01l2.61,5.601l7.8,16.739l2.58,5.521
			l0.57,1.229l15.569,33.391C512.804,305.127,513.243,306.317,513.583,307.517z"/>
		<path fill="#F9D069" d="M489.144,307.517h-219.59c-0.18,0.62-0.36,1.2-0.54,1.74l-0.81-1.74l-4.22-9.05l-10.8-23.15l-3.63-7.779
			l-11.36-24.37l-3.04-6.51l-37.54-80.511l-3-6.43c-3.31-7.12-2.59-15.04,1.25-20.94c1.94-2.99,4.68-5.46,8.09-7.05l147.06-68.57
			c1.34-0.62,2.71-1.08,4.1-1.38c7.9-1.71,16.29,1.68,21.24,8.62c0.8,1.11,1.5,2.31,2.1,3.6l38.89,83.41c0,0,0,0,0,0.01l2.83,6.06
			c0,0,0,0,0,0.01l28.37,60.83l8.36,17.931v0.01l4.3,9.21v0.01l11.36,24.351l2.21,4.75l0.63,1.34l10.32,22.14l1.34,2.87
			C488.674,300.377,489.333,304.017,489.144,307.517z"/>
		<g>
			<path fill="#FFFFFF" d="M340.409,298.656c-42.06,0-76.273-34.217-76.273-76.274c0-42.057,34.216-76.273,76.273-76.273
				c42.057,0,76.271,34.217,76.271,76.273C416.682,264.439,382.466,298.656,340.409,298.656z"/>
			<circle fill="#D85555" cx="340.409" cy="222.382" r="70.273"/>
			<g>
				<path fill="#FFCD38" d="M355.346,196.252c-1.729,1.118-3.857,1.422-5.833,0.831c-0.991,3.771-4.854,6.021-8.623,5.031
					c-0.641-0.171-1.256-0.428-1.821-0.768c-0.523,4.637-4.521,8.096-9.187,7.95l2.454,5.264c1.108,2.377,0.08,5.204-2.298,6.313
					c-2.377,1.107-5.203,0.081-6.313-2.298l-2.556-5.468c-1.899,0.888-4.095,0.882-5.991-0.017
					c-1.324,3.076-4.637,4.788-7.913,4.093l25.933,55.605c0.742,1.588,2.631,2.273,4.221,1.535l44.708-20.851
					c1.589-0.74,2.277-2.631,1.535-4.221l-25.929-55.604C357.172,194.708,356.35,195.603,355.346,196.252z"/>
				<path fill="#FFF1D7" d="M378.277,237.719l5.379,11.537c0.742,1.59,0.055,3.479-1.536,4.221l-44.705,20.848
					c-1.59,0.741-3.479,0.053-4.221-1.535l-5.38-11.537l3.491,1.612c3.181,1.453,6.832,1.438,9.998-0.035l29.511-13.76
					c3.161-1.477,5.521-4.268,6.449-7.636L378.277,237.719z"/>
				<path fill="#FFF1D7" d="M352.655,183.355c-0.061-0.143-0.107-0.286-0.173-0.426c-1.901-4.106-6.773-5.895-10.884-3.993
					c-0.577,0.271-1.13,0.606-1.632,1.003c-2.409-2.634-6.495-2.818-9.129-0.412c-0.551,0.505-1.012,1.102-1.357,1.764
					c-4.28-2.554-9.82-1.151-12.372,3.129c-0.582,0.978-0.979,2.056-1.156,3.18c-3.488-0.758-6.929,1.454-7.688,4.94
					c-0.156,0.731-0.188,1.483-0.091,2.225c-4.432,0.922-7.272,5.264-6.353,9.693c0.13,0.627,0.333,1.234,0.604,1.812
					c0.067,0.146,0.146,0.272,0.215,0.408c-1.981,3.354-0.876,7.68,2.479,9.667c3.353,1.984,7.681,0.876,9.666-2.478
					c0.146-0.249,0.278-0.506,0.394-0.77c1.896,0.897,4.099,0.901,5.996,0.014l2.555,5.468c1.108,2.377,3.938,3.404,6.313,2.297
					c2.376-1.108,3.405-3.935,2.297-6.313l-2.456-5.265c4.664,0.145,8.658-3.314,9.187-7.95c3.347,1.999,7.68,0.908,9.68-2.438
					c0.341-0.568,0.599-1.184,0.768-1.825c3.737,1.102,7.661-1.034,8.767-4.772c1.102-3.736-1.035-7.661-4.772-8.763
					c-0.277-0.083-0.563-0.148-0.851-0.195L352.655,183.355z"/>
				<g>
					<path fill="#F7B521" d="M363.613,239.217c-0.696,0.324-1.522,0.023-1.85-0.672l-8.854-18.993
						c-0.325-0.695-0.024-1.521,0.672-1.847c0.695-0.325,1.521-0.023,1.847,0.672l8.856,18.992
						C364.609,238.064,364.309,238.892,363.613,239.217z"/>
					<path fill="#F7B521" d="M338.382,250.981c-0.694,0.325-1.521,0.023-1.847-0.672l-8.857-18.992
						c-0.324-0.695-0.021-1.522,0.673-1.847c0.695-0.326,1.522-0.024,1.85,0.671l8.854,18.993
						C339.378,249.831,339.077,250.656,338.382,250.981z"/>
					<path fill="#F7B521" d="M350.997,245.1c-0.695,0.323-1.522,0.022-1.846-0.673l-8.856-18.992
						c-0.325-0.695-0.023-1.522,0.672-1.847s1.522-0.023,1.851,0.672l8.854,18.993C351.994,243.948,351.692,244.775,350.997,245.1z"
						/>
				</g>
				<path fill="#FFDFB8" d="M367.439,214.455c-3.114-11.673,3.332-16.617,7.475-17.07c4.72-0.517,7.152,4.346,8.331,8.526
					c3.824,13.568-2.096,23.814-9.416,22.264l5.209,11.151c5.104-4.791,15.813-17.393,10.699-35.274
					c-5.788-20.221-23.838-14.423-28.81-3.615L367.439,214.455z"/>
			</g>
		</g>
	</g>
	<g>
		<path fill="#FCE0C3" d="M597.653,51.167v256.35h-242.54V51.167c0-11.81,8.45-21.66,19.64-23.81c1.49-0.29,3.03-0.44,4.61-0.44
			h194.03c7.42,0,14.069,3.34,18.52,8.59C595.493,39.737,597.653,45.207,597.653,51.167z"/>
		<path fill="#F9D069" d="M577.793,68.187v239.33h-202.83V68.187c0-2.75,0.49-5.38,1.39-7.79c2.62-7.09,8.71-12.34,16.07-13.42
			c0.92-0.14,1.86-0.21,2.82-0.21h162.271c7.149,0,13.439,3.91,17.05,9.82C576.604,59.927,577.793,63.917,577.793,68.187z"/>
		<g>
			<path fill="#FFFFFF" d="M476.381,271.931c-42.057,0-76.271-34.216-76.271-76.272c0-42.058,34.216-76.273,76.271-76.273
				c42.061,0,76.273,34.216,76.273,76.273C552.654,237.715,518.438,271.931,476.381,271.931z"/>
			<circle fill="#D85555" cx="476.381" cy="195.658" r="70.273"/>
			<g>
				<path fill="#FFCD38" d="M500.961,178.291c-2.04,0.281-4.102-0.346-5.639-1.713c-2.492,2.999-6.943,3.406-9.94,0.916
					c-0.51-0.425-0.957-0.918-1.329-1.468c-2.436,3.98-7.517,5.429-11.684,3.325v5.809c0,2.623-2.127,4.751-4.75,4.75
					c-2.623,0.001-4.75-2.125-4.75-4.75l-0.005-6.034c-2.101,0-4.085-0.935-5.423-2.546c-2.502,2.228-6.229,2.38-8.901,0.363v61.354
					c0,1.754,1.421,3.177,3.177,3.177h49.329c1.754,0,3.176-1.423,3.176-3.177v-61.353
					C503.268,177.663,502.146,178.127,500.961,178.291z"/>
				<path fill="#FFF1D7" d="M504.219,225.563v12.729c0,1.752-1.422,3.175-3.176,3.175h-49.327c-1.754,0-3.176-1.423-3.176-3.176
					v-12.729l2.485,2.938c2.265,2.66,5.583,4.192,9.073,4.191l32.561,0.001c3.492,0,6.811-1.532,9.074-4.192L504.219,225.563z"/>
				<path fill="#FFF1D7" d="M503.973,165.463c0.008-0.153,0.023-0.303,0.023-0.459c0.012-4.525-3.647-8.204-8.174-8.216
					c-0.646-0.002-1.28,0.071-1.903,0.218c-1.068-3.404-4.694-5.298-8.099-4.229c-0.713,0.224-1.383,0.57-1.979,1.022
					c-2.802-4.122-8.414-5.193-12.536-2.392c-0.938,0.638-1.753,1.449-2.392,2.392c-2.841-2.16-6.896-1.61-9.055,1.229
					c-0.453,0.596-0.803,1.266-1.023,1.979c-4.405-1.036-8.817,1.696-9.854,6.101c-0.146,0.623-0.22,1.26-0.219,1.897
					c0,0.16,0.019,0.306,0.023,0.46c-3.216,2.2-4.041,6.592-1.84,9.807c2.196,3.218,6.591,4.041,9.808,1.842
					c0.238-0.163,0.466-0.341,0.683-0.532c1.344,1.615,3.33,2.548,5.432,2.547l0.005,6.034c0,2.624,2.127,4.75,4.75,4.75
					s4.75-2.126,4.75-4.75v-5.811c4.166,2.104,9.247,0.656,11.683-3.325c2.188,3.228,6.576,4.07,9.808,1.882
					c0.548-0.372,1.042-0.82,1.466-1.33c2.922,2.58,7.381,2.3,9.959-0.621c2.579-2.922,2.301-7.381-0.621-9.959
					C504.442,165.805,504.213,165.625,503.973,165.463L503.973,165.463z"/>
				<g>
					<path fill="#F7B521" d="M490.295,220.723c-0.768-0.001-1.389-0.624-1.389-1.39v-20.957c0-0.77,0.621-1.39,1.389-1.391
						c0.768,0.001,1.391,0.623,1.391,1.391v20.956C491.685,220.1,491.063,220.722,490.295,220.723z"/>
					<path fill="#F7B521" d="M462.456,220.722c-0.767,0-1.39-0.623-1.39-1.389v-20.957c-0.002-0.77,0.623-1.39,1.391-1.39
						c0.767,0,1.389,0.622,1.389,1.388v20.958C463.846,220.1,463.224,220.721,462.456,220.722z"/>
					<path fill="#F7B521" d="M476.377,220.722c-0.769,0.001-1.39-0.623-1.39-1.389v-20.957c0-0.77,0.621-1.391,1.39-1.39
						c0.768,0,1.389,0.622,1.389,1.39v20.957C477.766,220.1,477.145,220.722,476.377,220.722z"/>
				</g>
				<path fill="#FFDFB8" d="M504.229,199.899c2.109-11.895,10.047-13.65,13.987-12.313c4.497,1.526,4.646,6.961,3.947,11.249
					c-2.271,13.914-11.966,20.699-17.942,16.199l0.008,12.307c6.653-2.182,21.686-9.081,24.604-27.446
					c3.301-20.773-15.509-23.146-24.579-15.45L504.229,199.899z"/>
			</g>
		</g>
	</g>
	<g>
		<path fill="#F9E2CD" d="M798.424,150.397l-3.171,6.8l-40.199,86.199l-2.57,5.521l-12.79,27.41l-5.67,12.18l-8.72,18.7l-0.15,0.31
			h-21.74l-0.26,0.221l0.1-0.221h-245.7l16.61-35.62l0.61-1.319l2.17-4.66l8.79-18.84l2.61-5.601l0.01-0.01l4.08-8.77l11.79-25.271
			l9.3-19.939l3.27-7.021l13.78-29.55l2.771-5.93l41.22-88.4l4.05-8.69c2.76-5.93,7.63-10.22,13.3-12.39
			c5.92-2.28,12.73-2.23,18.931,0.66l175.85,82c5.78,2.7,10.01,7.39,12.23,12.88v0.01
			C801.363,137.077,801.384,144.047,798.424,150.397z"/>
		<path fill="#F9D069" d="M774.644,153.497c-0.33,1.319-0.8,2.64-1.4,3.93l-38.89,83.39l-2.84,6.091l-28.261,60.609h-223.56
			c0.29-0.97,0.66-1.93,1.1-2.88l4.931-10.58l10.96-23.49l0.74-1.59l3.479-7.45v-0.01l22.021-47.22v-0.01l5.289-11.34l14.391-30.86
			l3.46-7.42l31.729-68.04l11.62-24.92c1.88-4.03,4.8-7.24,8.24-9.41c5.71-3.6,12.86-4.38,19.19-1.43l147.069,68.58
			c1.34,0.62,2.57,1.38,3.69,2.25C773.974,136.657,776.773,145.257,774.644,153.497z"/>
		<g>
			<path fill="#FFFFFF" d="M627.456,306.371c-42.058,0-76.274-34.215-76.274-76.271s34.22-76.273,76.274-76.273
				s76.274,34.216,76.274,76.273C703.73,272.156,669.514,306.371,627.456,306.371z"/>
			<circle fill="#D85555" cx="627.456" cy="230.097" r="70.274"/>
			<g>
				<path fill="#FFCD38" d="M657.074,224.744c-1.969-0.606-3.571-2.044-4.39-3.935c-3.522,1.664-7.729,0.154-9.396-3.372
					c-0.282-0.6-0.48-1.236-0.585-1.891c-3.892,2.579-9.107,1.743-11.993-1.925l-2.455,5.263c-1.104,2.378-3.935,3.406-6.313,2.298
					c-2.376-1.107-3.406-3.934-2.299-6.313l2.548-5.472c-1.899-0.886-3.312-2.571-3.841-4.599c-3.209,0.96-6.646-0.475-8.223-3.432
					l-25.93,55.604c-0.741,1.59-0.053,3.479,1.536,4.222l44.709,20.848c1.589,0.742,3.479,0.053,4.221-1.537l25.929-55.604
					C659.43,225.15,658.216,225.098,657.074,224.744z"/>
				<path fill="#FFF1D7" d="M640.048,268.964l-5.379,11.537c-0.742,1.59-2.631,2.276-4.221,1.537l-44.706-20.85
					c-1.59-0.74-2.276-2.63-1.536-4.221l5.38-11.537l1.011,3.714c0.933,3.369,3.287,6.159,6.454,7.636l29.505,13.757
					c3.167,1.479,6.821,1.487,9.998,0.034L640.048,268.964z"/>
				<path fill="#FFF1D7" d="M665.225,214.394c0.073-0.136,0.15-0.267,0.219-0.408c1.925-4.097,0.158-8.978-3.938-10.9
					c-0.58-0.271-1.188-0.477-1.817-0.606c0.474-3.537-2.015-6.786-5.553-7.257c-0.74-0.098-1.494-0.065-2.224,0.092
					c-0.797-4.921-5.435-8.262-10.354-7.466c-1.124,0.182-2.199,0.574-3.179,1.157c-1.662-3.158-5.565-4.372-8.727-2.712
					c-0.662,0.349-1.261,0.809-1.768,1.36c-3.554-2.802-8.706-2.19-11.509,1.364c-0.396,0.502-0.729,1.048-0.999,1.627
					c-0.067,0.146-0.116,0.284-0.175,0.427c-3.845,0.635-6.447,4.266-5.813,8.11c0.637,3.844,4.27,6.448,8.11,5.813
					c0.284-0.048,0.567-0.111,0.843-0.192c0.532,2.03,1.94,3.716,3.847,4.601l-2.548,5.473c-1.104,2.377-0.079,5.203,2.298,6.312
					c2.38,1.109,5.202,0.081,6.313-2.296l2.455-5.267c2.888,3.667,8.104,4.502,11.993,1.925c0.62,3.848,4.24,6.467,8.091,5.848
					c0.654-0.105,1.291-0.302,1.893-0.585c1.562,3.571,5.719,5.203,9.288,3.646c3.571-1.558,5.203-5.716,3.646-9.289
					c-0.116-0.267-0.249-0.525-0.397-0.776L665.225,214.394L665.225,214.394z"/>
				<g>
					<path fill="#F7B521" d="M629.477,258.693c-0.692-0.322-0.993-1.149-0.673-1.845l8.857-18.994
						c0.323-0.694,1.146-0.997,1.845-0.673c0.696,0.326,0.997,1.152,0.673,1.848l-8.854,18.992
						C630.998,258.717,630.171,259.018,629.477,258.693z"/>
					<path fill="#F7B521" d="M604.245,246.928c-0.695-0.323-0.998-1.15-0.674-1.846l8.854-18.992
						c0.325-0.695,1.152-0.997,1.851-0.673c0.692,0.325,0.996,1.15,0.675,1.848l-8.857,18.992
						C605.766,246.952,604.94,247.252,604.245,246.928z"/>
					<path fill="#F7B521" d="M616.86,252.812c-0.696-0.324-0.996-1.15-0.673-1.848l8.854-18.992
						c0.324-0.695,1.151-0.997,1.848-0.672c0.694,0.326,0.995,1.152,0.675,1.848l-8.856,18.992
						C618.383,252.835,617.556,253.136,616.86,252.812z"/>
				</g>
				<path fill="#FFDFB8" d="M650.902,245.71c6.938-9.891,14.873-8.128,17.883-5.247c3.431,3.284,1.268,8.271-1.176,11.862
					c-7.938,11.65-19.597,13.702-23.107,7.098l-5.195,11.159c6.953,0.832,23.487,0.936,33.897-14.479
					c11.771-17.433-4.272-27.533-15.746-24.391L650.902,245.71z"/>
			</g>
		</g>
	</g>
	<g>
		<path fill="#FCE8C0" d="M930.903,307.517h-227.49l-0.26,0.221l0.1-0.221H558.063l19.729-16.55l1.811-1.52l4.67-3.921l13.38-11.229
			l5.78-4.85h0.01l7.42-6.23l24.6-20.64l4.841-4.07l16.52-13.85v-0.011l9.28-7.779l23.45-19.681l4.67-3.92l73.38-61.57l0.46-0.39
			c9.05-7.59,22.02-7.45,30.86-0.26v0.01c1.18,0.94,2.289,2.03,3.31,3.24l124.72,148.64
			C932.894,290.017,934.094,299.497,930.903,307.517z"/>
		<path fill="#F9D069" d="M902.793,307.517h-199.38l-0.26,0.221l0.1-0.221H588.934l8.64-7.25l0.08-0.069l5.13-4.301l20.5-17.199
			l8.391-7.04l11.689-9.811l0.021-0.02l1.729-1.45l23.7-19.88l5.18-4.351l22.561-18.93l5.21-4.37l66.02-55.399
			c2.11-1.771,4.43-3.08,6.86-3.95c7.109-2.54,15.05-1.25,20.609,3.7c0.7,0.609,1.36,1.279,1.98,2.02l104.3,124.31
			C907.253,290.337,907.474,300.017,902.793,307.517z"/>
		<g>
			<path fill="#FFFFFF" d="M811.003,307.517h-107.59l-0.26,0.221l0.1-0.221h-43.6c0.39-3.1,0.97-6.14,1.72-9.109v-0.011
				c0.71-2.819,1.58-5.569,2.601-8.25c5.79-15.31,16.37-28.279,29.91-37.069c2.42-1.57,4.93-3.011,7.529-4.301
				c9.94-4.97,21.12-7.819,32.94-7.96c0.32-0.01,0.649-0.01,0.97-0.01c6.82,0,13.44,0.9,19.73,2.59
				C784.594,251.307,807.113,276.557,811.003,307.517z"/>
			<path fill="#D85555" d="M804.953,307.517h-101.54l-0.26,0.221l0.1-0.221h-37.55c0.63-4.64,1.71-9.12,3.2-13.42
				c1.36-3.97,3.08-7.77,5.11-11.37c3.87-6.899,8.87-13.08,14.76-18.29c3.12-2.76,6.479-5.239,10.05-7.42
				c9.62-5.859,20.76-9.47,32.69-10.109c1.26-0.07,2.529-0.101,3.81-0.101c5.92,0,11.67,0.73,17.16,2.11
				C779.993,255.817,801.063,278.927,804.953,307.517z"/>
			<g>
				<path fill="#FFCD38" d="M733.094,302.607c-0.19,0.86-0.141,1.771,0.17,2.62c0.189,0.511,0.47,1.011,0.84,1.45
					c0.12,0.14,0.24,0.271,0.37,0.39c0.17,0.181,0.359,0.33,0.55,0.45h-31.61l28.351-23.779l0.01-0.011
					c0.01,0.21,0.03,0.42,0.06,0.62l0.091,0.51c0.149,0.7,0.409,1.37,0.77,1.98c0.06,0.11,0.12,0.21,0.19,0.31
					c0.319,0.5,0.699,0.96,1.14,1.36l0.01,0.01c0.13,0.12,0.271,0.24,0.41,0.351c0.03,0.029,0.06,0.05,0.1,0.08
					c0.131,0.1,0.25,0.189,0.391,0.27c0.109,0.08,0.229,0.16,0.35,0.22c0.16,0.101,0.32,0.181,0.49,0.261
					c0.02,0.01,0.03,0.02,0.04,0.02c0.17,0.08,0.35,0.16,0.53,0.22c0.14,0.061,0.29,0.11,0.439,0.15c0.04,0.01,0.09,0.03,0.13,0.04
					c0.08,0.02,0.16,0.04,0.24,0.06c0.01,0,0.01,0.011,0.021,0c0.189,0.051,0.39,0.09,0.59,0.12h0.01
					c-0.37,2.061,0.18,4.19,1.53,5.79h-0.011l-4.6,3.891C733.863,300.687,733.323,301.617,733.094,302.607z"/>
				<path fill="#FFCD38" d="M747.354,307.517h-6.9c0.11-0.08,0.221-0.17,0.33-0.26h0.01l4.44-3.72v-0.011h0.01
					C745.604,305.067,746.354,306.427,747.354,307.517z"/>
				<path fill="#FFF1D7" d="M777.993,307.517h-30.66c-1-1.09-1.739-2.45-2.1-3.979v-0.011l-4.44,3.73h-0.01
					c-0.109,0.09-0.22,0.18-0.33,0.26h-5.43c-0.19-0.12-0.38-0.27-0.55-0.45c-0.13-0.109-0.261-0.25-0.38-0.39
					c-0.37-0.439-0.65-0.93-0.83-1.45c-0.311-0.85-0.36-1.76-0.17-2.62c0.21-0.989,0.739-1.93,1.58-2.63l4.619-3.88
					c-1.35-1.6-1.909-3.729-1.529-5.79c-0.2-0.03-0.4-0.069-0.59-0.12c-0.011,0.011-0.011,0-0.021,0c-0.08-0.02-0.16-0.04-0.24-0.06
					c-0.04-0.01-0.09-0.03-0.13-0.04c-0.149-0.04-0.3-0.09-0.439-0.15c-0.181-0.06-0.36-0.14-0.53-0.22
					c-0.01,0-0.021-0.01-0.04-0.02c-0.17-0.08-0.33-0.16-0.49-0.261c-0.12-0.06-0.24-0.14-0.35-0.22
					c-0.141-0.08-0.26-0.17-0.391-0.27c-0.04-0.03-0.069-0.051-0.1-0.08c-0.14-0.11-0.28-0.23-0.41-0.351l-0.01-0.01
					c-0.44-0.4-0.82-0.86-1.14-1.36c-0.07-0.1-0.131-0.199-0.19-0.31c-0.36-0.61-0.62-1.28-0.77-1.98l-0.091-0.51
					c-0.029-0.2-0.06-0.41-0.069-0.609c-0.04-0.761,0.029-1.54,0.25-2.311c0.96-3.41,4.26-5.54,7.68-5.1
					c0.34,0.04,0.68,0.109,1.02,0.21c0.11-0.11,0.211-0.21,0.33-0.32c0.5-0.41,1.03-0.76,1.601-1.05c4.04-2.04,8.97-0.41,11.01,3.63
					c0.69-0.29,1.43-0.45,2.17-0.49c3.57-0.17,6.59,2.58,6.771,6.15c1.13-0.12,2.27-0.021,3.369,0.29
					c4.79,1.359,7.58,6.35,6.221,11.14c0.729,0.17,1.43,0.46,2.06,0.86c3.01,1.92,3.88,5.92,1.96,8.93
					c0.521,0.38,0.99,0.82,1.391,1.311C777.733,307.157,777.873,307.337,777.993,307.517z"/>
			</g>
		</g>
	</g>
</g>
<line fill="#FFCD38" x1="734.193" y1="307.517" x2="748.983" y2="307.517"/>
</svg>
