<?xml version="1.0" encoding="utf-8"?>
<!-- Generator: Adobe Illustrator 16.0.0, SVG Export Plug-In . SVG Version: 6.00 Build 0)  -->
<!DOCTYPE svg PUBLIC "-//W3C//DTD SVG 1.1//EN" "http://www.w3.org/Graphics/SVG/1.1/DTD/svg11.dtd">
<svg version="1.1" id="Layer_1" xmlns="http://www.w3.org/2000/svg" xmlns:xlink="http://www.w3.org/1999/xlink" x="0px" y="0px"
	 width="301.05713px" height="247.26953px" viewBox="62.80225 13.00024 301.05713 247.26953"
	 enable-background="new 62.80225 13.00024 301.05713 247.26953" xml:space="preserve">
<g>
	<g>
		<g id="_x39__8_">
			<g>
				<path fill="#FFFFFF" d="M164.51074,260.26978c-11.49316,0-22.29395-4.56055-30.41162-12.84082l-58.78711-59.96289
					c-16.67969-17.00391-16.68018-44.68066,0-61.69531c8.11768-8.28027,18.91846-12.84082,30.41211-12.84082
					c11.49316,0,22.29395,4.56055,30.41162,12.84082l28.37988,28.94531l65.63379-66.94336
					c14.99121-15.28906,59.54883-61.43457,59.99707-61.89941c8.15039-8.31348,18.95117-12.87305,30.44434-12.87305
					s22.29297,4.56055,30.41016,12.84082c16.87012,17.20605,17.18164,44.88672,0.69336,61.7041L194.92188,247.42993
					C186.80469,255.70923,176.00439,260.26978,164.51074,260.26978z"/>
				<path fill="#62BC73" d="M346.7168,30.04126c-14.43164-14.72168-37.82031-14.72168-52.25391,0
					c0,0-44.84863,46.44922-60.0293,61.93164c-17.47949,17.8291-69.91797,71.31348-69.91797,71.31348l-32.66455-33.31543
					c-14.43213-14.72168-37.82227-14.72168-52.25439,0s-14.43213,38.58203,0,53.29492l58.78662,59.96289
					c14.43262,14.7207,37.82275,14.7207,52.25439,0l96.87988-98.80371l59.89258-61.08008
					C361.84375,68.62329,361.15039,44.76294,346.7168,30.04126z"/>
			</g>
		</g>
	</g>
</g>
</svg>
