<?xml version="1.0" encoding="utf-8"?>
<!-- Generator: Adobe Illustrator 16.0.0, SVG Export Plug-In . SVG Version: 6.00 Build 0)  -->
<!DOCTYPE svg PUBLIC "-//W3C//DTD SVG 1.1//EN" "http://www.w3.org/Graphics/SVG/1.1/DTD/svg11.dtd">
<svg version="1.1" id="Layer_1" xmlns="http://www.w3.org/2000/svg" xmlns:xlink="http://www.w3.org/1999/xlink" x="0px" y="0px"
	 width="943.453px" height="317.984px" viewBox="0 0 943.453 317.984" enable-background="new 0 0 943.453 317.984"
	 xml:space="preserve">
<g>
	<path fill="#FFFFFF" d="M95.38,199.682c-5.636,0-11.346-1.266-16.973-3.756c-2.263-1-4.537-2.197-6.81-3.586l-0.86,4.303H22.689
		l19.641-91.848h-6.545c-10.115,0-17.99-2.388-23.405-7.093c-5.706-4.949-8.601-12.23-8.601-21.645
		c0-9.954,3.195-19.729,9.498-29.045c6.05-8.951,14.414-16.82,24.858-23.392l0.092-0.058c8.461-5.142,17.902-9.171,28.061-11.981
		C76.44,8.779,87.015,7.357,97.72,7.357c21.903,0,39.175,6.787,51.337,20.171c11.986,13.194,18.063,31.408,18.063,54.138
		c0,11.835-1.395,23.992-4.146,36.137c-2.754,12.141-6.699,23.642-11.726,34.187c-6.744,14.469-14.945,26.051-24.352,34.366
		C116.889,195.2,106.287,199.682,95.38,199.682z M77.576,163.962c0.333,0.146,0.663,0.273,0.99,0.395
		c1.436,0.514,2.88,0.762,4.428,0.762c9.462,0,18.021-9.045,25.438-26.886c8.251-19.85,12.435-43.044,12.435-68.945
		c0-12.978-2.413-22.656-7.171-28.769c-2.226-2.857-4.995-4.975-8.353-6.366L77.576,163.962z M41.402,92.911
		c0.443,0.898,0.702,1.491,0.887,2.029c0.344,1.045,0.496,1.95,0.496,2.854v4.871l12.336-57.688
		c-0.313,0.271-0.625,0.552-0.932,0.834c-9.875,9.059-14.676,20.862-14.676,36.092c0,2.542,0.16,4.723,0.474,6.479
		C40.264,89.941,40.739,91.46,41.402,92.911z"/>
	<path fill="#FFFFFF" d="M148.488,196.643l27.741-130.854h47.946l-1.05,5.01c0.891-0.52,1.741-0.977,2.551-1.373
		c4.927-2.412,10.013-3.638,15.12-3.638c6.801,0,12.655,2.555,16.929,7.388c4.114,4.662,6.197,10.428,6.197,17.143
		c0,6.664-2.222,12.376-6.604,16.979c-4.417,4.636-10.37,7.081-17.223,7.081c-4.339,0-7.943-1.186-10.71-3.521
		c-2.805-2.355-4.559-6.048-5.49-11.588c-0.643,0.158-1.267,0.382-1.88,0.667c-0.659,0.308-2.497,1.347-6.155,4.565l-19.399,92.143
		L148.488,196.643L148.488,196.643z"/>
	<path fill="#FFFFFF" d="M275.041,198.048c-9.815,0-17.734-3.254-23.537-9.666c-5.62-6.213-8.47-14.75-8.47-25.379
		c0-2.283,0.174-4.887,0.518-7.73c0.338-2.769,0.842-5.755,1.501-8.897l17.071-80.583h20.278c-3.521-1.219-6.701-3.235-9.509-6.049
		c-4.924-4.919-7.423-10.987-7.423-18.034c0-7.015,2.481-13.104,7.374-18.103c4.934-5.04,11.021-7.597,18.089-7.597
		c7.037,0,13.145,2.537,18.152,7.54c5.008,5.016,7.545,11.121,7.545,18.156c0,7.068-2.557,13.154-7.597,18.09
		c-2.843,2.781-6.037,4.783-9.556,5.993h10.604l-18.615,87.91c-0.284,1.272-0.482,2.36-0.607,3.317
		c-0.116,0.863-0.175,1.77-0.175,2.711c0,0.67,0.052,1.129,0.104,1.422c0.431,0.104,1.206,0.227,2.478,0.227
		c2.479,0,4.931-1.219,7.486-3.727c3.036-2.979,5.344-6.979,6.854-11.899l1.521-4.939h24.869l-3.279,9.321
		c-5.374,15.273-12.813,27.119-22.105,35.208C298.933,193.772,287.636,198.048,275.041,198.048z"/>
	<path fill="#FFFFFF" d="M408.487,198.048c-10.593,0-19.087-3.074-25.244-9.143c-6.189-6.09-9.333-14.256-9.333-24.271
		c0-3.219,0.375-7.033,1.146-11.667c0.737-4.427,2.184-11.151,4.417-20.563c2.138-8.709,3.517-14.968,4.104-18.654
		c0.563-3.521,0.848-6.455,0.848-8.708c0-3.339-0.661-4.591-0.841-4.868c-0.095-0.021-0.275-0.05-0.573-0.05
		c-0.579,0-2.34,0-5.03,3.218c-2.532,3.025-4.688,7.409-6.413,13.031l-17.005,80.271h-47.967l27.741-130.854h47.961l-0.534,2.524
		c5.159-2.297,10.762-3.46,16.671-3.46c10.139,0,18.251,2.969,24.112,8.823c5.857,5.865,8.83,14.137,8.83,24.584
		c0,4.011-0.455,8.567-1.393,13.938c-0.89,5.09-2.563,12.619-5.124,23.024c-2.003,7.854-3.309,13.375-3.894,16.459
		c-0.54,2.827-0.813,5.139-0.813,6.875c0,1.896,0.391,2.504,0.412,2.541l0,0c0.018,0,0.515,0.271,1.938,0.271
		c2.115,0,3.73-0.635,5.238-2.061c0.945-0.896,3.609-4.064,7.951-14.25l1.813-4.255h24.253l-3.192,9.275
		c-5.313,15.433-11.959,27.25-19.756,35.13C430.4,193.731,420.194,198.048,408.487,198.048z"/>
	<path fill="#FFFFFF" d="M541.698,198.048c-11.261,0-20.191-2.934-26.56-8.715c-6.563-5.947-9.889-14.338-9.889-24.93
		c0-2.129,0.133-4.363,0.396-6.645c0.261-2.242,0.649-4.588,1.161-6.978l1.88-9.161c0.256-1.148,0.449-2.319,0.579-3.474
		c0.125-1.142,0.188-2.376,0.188-3.661c0-2.804-0.507-3.883-0.659-4.146c-0.113-0.027-0.352-0.069-0.751-0.069
		c-1.258,0-2.784,0.433-4.541,1.285c-1.771,0.858-3.927,2.281-6.416,4.235l-12.813,60.853h-47.982l36.722-172.199l49.325-6.666
		l-15.564,73.056l31.798-25.043h47.899l-48.546,33.738c4.272,1.622,7.998,4.143,11.139,7.544c5.808,6.307,8.749,14.584,8.749,24.611
		c0,1.772-0.093,3.553-0.271,5.282c-0.186,1.729-0.462,3.445-0.827,5.104l-2.532,11.511c-0.313,1.849-0.578,3.394-0.813,4.636
		c-0.21,1.131-0.229,1.537-0.229,1.557c0.001,0.705,0.074,1.146,0.136,1.393c0.305,0.088,0.916,0.209,1.979,0.209
		c2.115,0,3.732-0.635,5.239-2.061c0.945-0.895,3.607-4.064,7.95-14.25l1.813-4.255h24.188l-3.109,9.232
		c-5.15,15.283-11.764,27.078-19.65,35.058C563.184,193.692,553.096,198.048,541.698,198.048z"/>
	<path fill="#FFFFFF" d="M728.662,198.048c-10.594,0-19.086-3.074-25.245-9.143c-6.189-6.088-9.33-14.256-9.33-24.271
		c0-3.221,0.375-7.035,1.146-11.667c0.729-4.37,2.215-11.291,4.417-20.563c2.137-8.697,3.514-14.957,4.104-18.654
		c0.563-3.519,0.847-6.448,0.847-8.708c0-3.354-0.665-4.601-0.841-4.869c-0.097-0.021-0.275-0.05-0.572-0.05
		c-0.578,0-2.341,0-5.03,3.217c-2.53,3.024-4.688,7.409-6.413,13.032l-17.004,80.272h-47.966l18.933-89.459l0.121-0.37
		c0.14-0.416,0.225-0.812,0.256-1.202c0.063-0.729,0.093-1.561,0.093-2.439c0-1.768-0.285-2.755-0.516-3.263
		c-1.232,0.11-2.976,0.701-5.168,3.26c-2.574,3.007-4.752,7.439-6.471,13.181l-17.01,80.295h-47.969L596.784,65.79h47.964
		l-0.508,2.396c5.385-2.366,11.369-3.564,17.813-3.564c8.52,0,15.5,2.245,20.754,6.674c2.146,1.813,3.988,3.968,5.522,6.451
		c2.729-2.765,5.603-5.083,8.604-6.938c6.393-3.949,13.686-5.952,21.673-5.952c10.14,0,18.251,2.969,24.112,8.826
		c5.856,5.861,8.827,14.134,8.827,24.583c0,4.008-0.452,8.564-1.389,13.936c-0.896,5.123-2.571,12.652-5.123,23.025
		c-2,7.837-3.306,13.354-3.896,16.461c-0.539,2.821-0.813,5.131-0.813,6.874c0,1.896,0.389,2.506,0.411,2.543c0,0,0,0,0.002,0
		c0.019,0,0.519,0.271,1.937,0.271c2.116,0,3.732-0.635,5.24-2.061c0.944-0.895,3.606-4.063,7.95-14.25l1.813-4.255h24.253
		l-3.192,9.275c-5.313,15.431-11.957,27.25-19.756,35.13C750.575,193.731,740.369,198.048,728.662,198.048z"/>
	<path fill="#FFFFFF" d="M808.122,197.579c-13.987,0-24.989-3.813-32.698-11.34c-7.759-7.564-11.691-18.529-11.691-32.585
		c0-9.49,1.547-19.659,4.6-30.222c3.057-10.573,7.307-20.152,12.634-28.477c6.301-10.052,14.103-17.868,23.149-23.181
		c9.152-5.369,19.467-8.091,30.652-8.091c12.149,0,21.538,4.026,27.899,11.973c4.962,6.206,7.896,14.771,8.75,25.517
		c3.087-0.515,6.618-1.553,10.557-3.107c6.16-2.438,11.962-5.555,17.245-9.269l7.691-5.407l6.393,19.181l-2.839,3.042
		c-4.956,5.311-11.529,9.919-19.537,13.704c-6.307,2.983-13.194,5.277-20.541,6.841c-2.514,19.948-8.944,36.541-19.155,49.38
		C839.602,190.163,825.097,197.579,808.122,197.579z M836.635,91.943c-1.562,0-7.229,1.333-14.738,18.479
		c-6.199,14.146-9.344,27.669-9.344,40.191c0,8.747,1.265,11.045,1.407,11.28c0.063,0.102,0.976,0.648,3.511,0.648
		c2.883,0,6.661-3.805,10.364-10.437c4.146-7.422,7.18-16.558,9.046-27.205c-1.197-0.957-2.222-2.109-3.046-3.443
		c-1.699-2.738-2.563-6.223-2.563-10.343c0-4.183,0.938-7.946,2.793-11.188c1.082-1.896,2.436-3.538,4.041-4.92
		c-0.3-1.792-0.642-2.67-0.808-3.02C837.165,91.968,836.95,91.943,836.635,91.943z"/>
	<path fill="#D85555" d="M65,189.643H31.345L63.129,41.006l34.589-4.675L69.673,167.442c2.18,1.561,4.36,2.729,6.544,3.506
		c2.18,0.781,4.44,1.168,6.777,1.168c12.621,0,23.254-10.398,31.901-31.2s12.971-44.676,12.971-71.633
		c0-14.644-2.885-25.668-8.646-33.067c-5.766-7.396-14.256-11.104-25.474-11.104c-18.229,0-32.993,5.183-44.288,15.542
		c-11.3,10.365-16.945,24.113-16.945,41.251c0,2.961,0.193,5.532,0.584,7.712c0.387,2.186,1.052,4.287,1.987,6.313
		c0.31,0.625,0.504,1.052,0.584,1.283c0.077,0.232,0.117,0.434,0.117,0.585c-8.413,0-14.687-1.79-18.813-5.375
		c-4.13-3.583-6.193-9.033-6.193-16.358c0-8.565,2.764-16.943,8.296-25.124c5.529-8.182,13.125-15.31,22.787-21.384
		c7.946-4.828,16.71-8.567,26.292-11.221c9.583-2.646,19.435-3.974,29.564-3.974c19.942,0,35.326,5.959,46.157,17.878
		c10.828,11.919,16.243,28.396,16.243,49.43c0,11.375-1.326,22.903-3.973,34.59c-2.651,11.688-6.39,22.595-11.218,32.721
		c-6.391,13.711-13.946,24.422-22.669,32.135c-8.728,7.713-17.686,11.568-26.877,11.568c-4.674,0-9.388-1.053-14.139-3.154
		c-4.754-2.104-9.545-5.18-14.373-9.23L65,189.643z"/>
	<path fill="#D85555" d="M190.781,189.643h-33.654L181.9,72.789h33.654l-3.039,14.489c6.854-5.762,12.27-9.619,16.243-11.568
		c3.973-1.943,7.982-2.921,12.036-2.921c4.828,0,8.724,1.677,11.685,5.023c2.958,3.354,4.44,7.52,4.44,12.503
		c0,4.832-1.56,8.881-4.674,12.151c-3.118,3.271-7.168,4.907-12.153,4.907c-2.651,0-4.714-0.62-6.193-1.869
		c-1.481-1.245-2.534-3.813-3.155-7.713c-0.468-2.49-1.015-4.09-1.636-4.792c-0.624-0.7-1.482-1.052-2.57-1.052
		c-2.651,0-5.142,0.549-7.479,1.638c-2.337,1.094-5.532,3.506-9.582,7.244L190.781,189.643z"/>
	<path fill="#D85555" d="M250.032,163.003c0-2.021,0.157-4.322,0.468-6.896c0.313-2.57,0.78-5.334,1.401-8.295l15.893-75.021h33.654
		l-16.828,79.46c-0.313,1.401-0.547,2.688-0.7,3.856c-0.157,1.168-0.233,2.377-0.233,3.623c0,3.119,0.737,5.338,2.22,6.66
		c1.479,1.324,3.936,1.984,7.361,1.984c4.36,0,8.49-1.902,12.387-5.727c3.896-3.814,6.777-8.766,8.646-14.839h9.814
		c-4.986,14.179-11.687,24.929-20.101,32.251c-8.413,7.325-18.076,10.982-28.979,10.982c-7.793,0-13.906-2.453-18.347-7.359
		C252.252,178.776,250.032,171.882,250.032,163.003z M309.629,41.707c0,5.145-1.833,9.506-5.492,13.089
		c-3.663,3.586-8.063,5.375-13.205,5.375c-5.144,0-9.505-1.789-13.087-5.375c-3.586-3.583-5.376-7.944-5.376-13.089
		c0-5.143,1.79-9.542,5.376-13.205c3.582-3.658,7.944-5.491,13.087-5.491c5.142,0,9.542,1.833,13.205,5.491
		C307.794,32.166,309.629,36.566,309.629,41.707z"/>
	<path fill="#D85555" d="M380.909,164.636c0-2.806,0.353-6.313,1.054-10.521c0.699-4.206,2.141-10.902,4.321-20.098
		c2.182-8.881,3.582-15.271,4.207-19.164c0.619-3.896,0.937-7.165,0.937-9.815c0-3.894-0.702-6.854-2.104-8.881
		c-1.401-2.021-3.507-3.037-6.313-3.037c-3.738,0-7.208,1.909-10.399,5.729c-3.194,3.817-5.807,9.076-7.829,15.772l-15.893,75.021
		h-33.653l24.771-116.854h33.652l-2.569,12.151c3.894-4.359,8.1-7.632,12.62-9.814c4.519-2.181,9.425-3.271,14.724-3.271
		c8.258,0,14.646,2.26,19.165,6.775c4.519,4.521,6.777,11.063,6.777,19.634c0,3.585-0.434,7.827-1.286,12.734
		c-0.857,4.907-2.535,12.428-5.024,22.556c-2.024,7.943-3.353,13.555-3.974,16.825c-0.624,3.271-0.937,6-0.937,8.182
		c0,3.271,0.776,5.725,2.337,7.359c1.558,1.639,3.895,2.453,7.014,2.453c3.893,0,7.243-1.318,10.049-3.973
		c2.806-2.646,5.997-8.18,9.583-16.593h9.813c-4.986,14.488-11.021,25.32-18.11,32.484c-7.091,7.168-15.542,10.75-25.356,10.75
		c-8.729,0-15.505-2.373-20.333-7.129C383.323,179.169,380.909,172.741,380.909,164.636z"/>
	<path fill="#D85555" d="M513.419,26.049l-17.527,82.267l45.104-35.522h23.139l-46.742,32.484c2.184-0.312,3.777-0.544,4.791-0.701
		c1.015-0.151,1.987-0.231,2.922-0.231c7.945,0,14.218,2.493,18.813,7.479c4.597,4.989,6.896,11.609,6.896,19.865
		c0,1.559-0.079,3.079-0.232,4.558c-0.154,1.482-0.393,2.922-0.698,4.323l-2.571,11.687c-0.313,1.871-0.584,3.431-0.816,4.677
		c-0.23,1.247-0.352,2.184-0.352,2.803c0,2.961,0.737,5.143,2.221,6.545c1.479,1.402,3.775,2.104,6.896,2.104
		c3.895,0,7.244-1.32,10.05-3.975c2.805-2.646,5.995-8.18,9.581-16.592h9.814c-4.831,14.336-10.83,25.124-17.994,32.37
		c-7.169,7.244-15.507,10.865-25.009,10.865c-9.505,0-16.79-2.299-21.853-6.896c-5.063-4.594-7.596-11.178-7.596-19.748
		c0-1.871,0.114-3.813,0.35-5.844c0.234-2.021,0.585-4.125,1.054-6.312l1.869-9.112c0.313-1.402,0.544-2.808,0.7-4.207
		c0.154-1.402,0.231-2.883,0.231-4.441c0-3.738-0.699-6.543-2.104-8.413c-1.399-1.869-3.505-2.805-6.311-2.805
		c-2.339,0-4.871,0.665-7.598,1.987c-2.729,1.323-5.959,3.546-9.697,6.658l-12.151,57.729h-33.653l33.89-158.921L513.419,26.049z"/>
	<path fill="#D85555" d="M701.085,164.636c0-2.806,0.351-6.313,1.052-10.521c0.701-4.206,2.141-10.902,4.323-20.098
		c2.181-8.881,3.58-15.271,4.205-19.164c0.621-3.896,0.937-7.165,0.937-9.815c0-3.894-0.699-6.854-2.104-8.881
		c-1.399-2.021-3.505-3.037-6.311-3.037c-3.739,0-7.209,1.909-10.399,5.729c-3.193,3.817-5.807,9.076-7.829,15.772l-15.893,75.021
		h-33.654l17.063-80.628c0.312-0.938,0.505-1.87,0.584-2.808c0.077-0.936,0.117-1.943,0.117-3.037c0-3.113-0.625-5.607-1.87-7.479
		c-1.247-1.87-2.961-2.805-5.144-2.805c-4.055,0-7.713,1.908-10.982,5.726c-3.271,3.82-5.923,9.155-7.944,16.01l-15.894,75.021
		h-33.653l24.77-116.854h33.655l-2.568,12.151c3.895-4.519,8.182-7.866,12.854-10.049s9.894-3.271,15.657-3.271
		c6.854,0,12.271,1.677,16.242,5.024c3.974,3.353,6.58,8.377,7.828,15.072c4.358-6.695,9.189-11.687,14.488-14.958
		c5.296-3.271,11.296-4.906,17.995-4.906c8.256,0,14.646,2.26,19.164,6.775c4.521,4.521,6.776,11.063,6.776,19.634
		c0,3.585-0.434,7.827-1.284,12.734c-0.858,4.907-2.533,12.428-5.023,22.554c-2.024,7.945-3.354,13.557-3.974,16.826
		c-0.625,3.271-0.936,6-0.936,8.183c0,3.271,0.774,5.725,2.336,7.359c1.557,1.639,3.895,2.453,7.012,2.453
		c3.894,0,7.245-1.318,10.051-3.973c2.805-2.646,5.994-8.181,9.582-16.593h9.814c-4.988,14.488-11.023,25.318-18.112,32.484
		c-7.092,7.168-15.542,10.75-25.355,10.75c-8.729,0-15.506-2.373-20.334-7.129C703.498,179.169,701.085,172.741,701.085,164.636z"/>
	<path fill="#D85555" d="M770.729,153.653c0-8.881,1.442-18.306,4.323-28.278c2.881-9.97,6.813-18.851,11.804-26.644
		c5.763-9.19,12.696-16.162,20.8-20.917c8.103-4.751,17.139-7.128,27.109-7.128c9.97,0,17.446,3.119,22.438,9.349
		c4.982,6.233,7.479,15.582,7.479,28.045c0.312,0.156,0.66,0.273,1.052,0.354c0.39,0.08,0.896,0.115,1.521,0.115
		c4.825,0,10.593-1.32,17.295-3.975c6.693-2.646,12.93-5.996,18.693-10.05l2.104,6.312c-4.363,4.675-10.165,8.729-17.411,12.151
		c-7.243,3.43-15.229,5.844-23.954,7.245c-1.868,21.034-7.946,38.019-18.229,50.949c-10.283,12.934-22.826,19.396-37.629,19.396
		c-12.15,0-21.425-3.113-27.813-9.35C773.925,175.003,770.729,165.805,770.729,153.653z M836.635,84.943
		c-7.479,0-14.529,7.561-21.149,22.67c-6.624,15.114-9.933,29.447-9.933,43.002c0,7.326,0.815,12.312,2.452,14.957
		c1.637,2.652,4.791,3.975,9.466,3.975c5.763,0,11.256-4.674,16.479-14.021c5.219-9.351,8.767-20.877,10.635-34.589
		c-2.186-0.468-3.778-1.521-4.791-3.155c-1.018-1.636-1.521-3.854-1.521-6.661c0-2.958,0.621-5.527,1.871-7.712
		c1.244-2.18,3.037-3.813,5.375-4.907c-0.313-4.982-1.133-8.487-2.455-10.519C841.737,85.959,839.593,84.943,836.635,84.943z"/>
</g>
<g enable-background="new    ">
	<path d="M243.145,260.444c-0.484,1.125-1.147,2.108-1.99,2.951c-0.843,0.844-1.831,1.507-2.965,1.99
		c-1.132,0.482-2.34,0.725-3.623,0.725h-11.962v-37.785h11.962c1.283,0,2.491,0.242,3.623,0.725c1.134,0.483,2.122,1.146,2.965,1.99
		c0.843,0.843,1.506,1.831,1.99,2.964c0.482,1.134,0.724,2.341,0.724,3.622v19.208C243.869,258.117,243.627,259.32,243.145,260.444z
		 M240.47,237.627c0-0.844-0.158-1.63-0.475-2.359c-0.316-0.729-0.751-1.369-1.304-1.922s-1.195-0.988-1.924-1.304
		c-0.729-0.317-1.516-0.476-2.358-0.476h-8.405v31.303h8.405c0.843,0,1.629-0.159,2.358-0.476c0.729-0.316,1.371-0.746,1.924-1.29
		s0.988-1.182,1.304-1.911c0.316-0.729,0.475-1.515,0.475-2.357V237.627z"/>
	<path d="M270.364,266.11l-10.25-16.126h-4.663v16.126h-3.399v-37.785h11.989c1.282,0,2.485,0.242,3.609,0.725
		c1.124,0.483,2.108,1.146,2.951,1.99c0.843,0.843,1.506,1.831,1.99,2.964c0.483,1.134,0.725,2.341,0.725,3.622v3.057
		c0,1.282-0.242,2.49-0.725,3.623c-0.483,1.133-1.146,2.121-1.99,2.963c-0.843,0.844-1.827,1.507-2.951,1.99
		c-1.125,0.483-2.328,0.725-3.609,0.725l10.25,16.125h-3.927V266.11z M269.917,237.627c0-0.844-0.158-1.63-0.475-2.359
		c-0.316-0.729-0.747-1.369-1.291-1.922c-0.545-0.553-1.182-0.988-1.911-1.304c-0.729-0.317-1.516-0.476-2.358-0.476h-8.432v15.178
		h8.432c0.842,0,1.629-0.159,2.358-0.475c0.729-0.316,1.366-0.751,1.911-1.305c0.544-0.554,0.975-1.195,1.291-1.924
		c0.317-0.729,0.475-1.516,0.475-2.357V237.627z"/>
	<path d="M281.42,266.11v-37.785h3.399v37.785H281.42z"/>
	<path d="M313.58,266.11l-15.756-27.509l-0.317-1.634v29.143h-3.399v-37.785h1.766l15.757,27.535l0.343,1.607v-29.143h3.399v37.785
		H313.58z"/>
	<path d="M324.662,266.11v-37.785h3.399v37.785H324.662z M343.105,266.11l-14.228-18.893l14.228-18.892h4.216l-14.518,18.892
		l14.518,18.893H343.105z"/>
	<path d="M353.371,266.11v-37.785h3.399v37.785H353.371z"/>
	<path d="M385.531,266.11l-15.756-27.509l-0.317-1.634v29.143h-3.399v-37.785h1.766l15.756,27.535l0.343,1.607v-29.143h3.399v37.785
		H385.531z"/>
	<path d="M417.323,266.11h-1.081l-1.977-3.03c-0.826,1.089-1.827,1.954-3.003,2.595c-1.177,0.642-2.486,0.962-3.926,0.962h-1.977
		c-1.282,0-2.489-0.241-3.622-0.725c-1.132-0.483-2.121-1.146-2.964-1.989c-0.843-0.843-1.506-1.827-1.989-2.951
		c-0.484-1.124-0.724-2.327-0.724-3.609v-20.289c0-1.282,0.24-2.485,0.724-3.61c0.483-1.123,1.146-2.106,1.989-2.95
		c0.843-0.844,1.832-1.507,2.964-1.989c1.133-0.483,2.341-0.725,3.622-0.725h2.688c1.282,0,2.485,0.241,3.61,0.725
		c1.124,0.482,2.107,1.146,2.952,1.989c0.843,0.844,1.505,1.827,1.989,2.95c0.482,1.125,0.725,2.328,0.725,3.61v1.528l-3.399,0.527
		v-2.056c0-0.843-0.158-1.629-0.475-2.358c-0.316-0.729-0.747-1.365-1.291-1.91c-0.545-0.544-1.182-0.975-1.91-1.291
		c-0.73-0.316-1.516-0.474-2.359-0.474h-2.371c-0.843,0-1.63,0.157-2.358,0.474c-0.729,0.316-1.37,0.747-1.924,1.291
		c-0.554,0.545-0.988,1.182-1.304,1.91c-0.317,0.729-0.475,1.516-0.475,2.358v20.289c0,0.843,0.158,1.629,0.475,2.357
		c0.316,0.729,0.75,1.371,1.304,1.924s1.194,0.987,1.924,1.304c0.729,0.316,1.515,0.476,2.358,0.476h2.371
		c0.843,0,1.629-0.159,2.359-0.476c0.729-0.316,1.365-0.751,1.91-1.304c0.544-0.554,0.975-1.195,1.291-1.924
		c0.317-0.729,0.475-1.515,0.475-2.357v-7.879h-6.034v-3.24h9.433V266.11z"/>
	<path d="M459.129,260.971c-0.483,1.124-1.146,2.108-1.989,2.951s-1.827,1.506-2.952,1.989s-2.328,0.725-3.61,0.725h-2.687
		c-1.283,0-2.49-0.241-3.623-0.725s-2.121-1.146-2.964-1.989s-1.507-1.827-1.989-2.951c-0.484-1.124-0.725-2.327-0.725-3.609
		v-20.289c0-1.282,0.241-2.485,0.725-3.61c0.482-1.123,1.146-2.106,1.989-2.95s1.831-1.507,2.964-1.989
		c1.133-0.483,2.34-0.725,3.623-0.725h2.687c1.282,0,2.485,0.241,3.61,0.725c1.125,0.482,2.108,1.146,2.952,1.989
		c0.843,0.844,1.506,1.827,1.989,2.95c0.483,1.125,0.725,2.328,0.725,3.61v1.528l-3.399,0.527v-2.056
		c0-0.843-0.158-1.63-0.474-2.358s-0.747-1.365-1.292-1.91c-0.545-0.544-1.182-0.975-1.91-1.291
		c-0.729-0.316-1.515-0.474-2.359-0.474h-2.371c-0.843,0-1.63,0.157-2.357,0.474c-0.73,0.316-1.371,0.747-1.924,1.291
		c-0.554,0.545-0.988,1.182-1.304,1.91c-0.317,0.729-0.475,1.516-0.475,2.358v20.289c0,0.843,0.158,1.629,0.475,2.357
		c0.316,0.729,0.75,1.371,1.304,1.924c0.553,0.553,1.193,0.987,1.924,1.304c0.729,0.316,1.514,0.476,2.357,0.476h2.371
		c0.844,0,1.63-0.159,2.359-0.476c0.729-0.316,1.365-0.751,1.91-1.304c0.544-0.554,0.975-1.195,1.292-1.924s0.474-1.515,0.474-2.357
		v-2.056l3.399,0.554v1.502C459.854,258.644,459.612,259.847,459.129,260.971z"/>
	<path d="M482.24,257.309h-11.964l-2.476,8.801h-3.531l11.067-37.785h1.793l11.117,37.785h-3.503L482.24,257.309z M471.199,254.068
		h10.145l-4.979-17.417l-0.104-1.396l-0.105,1.396L471.199,254.068z"/>
	<path d="M511.502,266.11l-10.25-16.126h-4.662v16.126h-3.4v-37.785h11.988c1.281,0,2.486,0.242,3.611,0.725
		c1.123,0.483,2.107,1.146,2.951,1.99c0.842,0.843,1.504,1.831,1.988,2.964c0.482,1.133,0.725,2.341,0.725,3.622v3.057
		c0,1.282-0.242,2.49-0.725,3.623c-0.484,1.133-1.146,2.121-1.988,2.963c-0.844,0.844-1.828,1.507-2.951,1.99
		c-1.125,0.483-2.33,0.725-3.611,0.725l10.25,16.125h-3.926V266.11z M511.055,237.627c0-0.844-0.158-1.63-0.475-2.359
		c-0.318-0.729-0.748-1.369-1.291-1.922c-0.545-0.553-1.184-0.988-1.91-1.304c-0.73-0.317-1.516-0.476-2.359-0.476h-8.43v15.178
		h8.43c0.844,0,1.631-0.159,2.359-0.475c0.727-0.316,1.365-0.751,1.91-1.305c0.543-0.554,0.973-1.195,1.291-1.924
		c0.316-0.729,0.475-1.516,0.475-2.357V237.627z"/>
	<path d="M543.098,260.444c-0.486,1.125-1.148,2.108-1.992,2.951c-0.842,0.844-1.83,1.507-2.963,1.99
		c-1.133,0.482-2.34,0.725-3.623,0.725h-11.963v-37.785h11.963c1.283,0,2.49,0.242,3.623,0.725c1.135,0.483,2.121,1.146,2.963,1.99
		c0.844,0.843,1.506,1.831,1.992,2.964c0.482,1.134,0.723,2.341,0.723,3.622v19.208C543.82,258.117,543.58,259.32,543.098,260.444z
		 M540.422,237.627c0-0.844-0.16-1.63-0.477-2.359c-0.314-0.729-0.75-1.369-1.303-1.922s-1.195-0.988-1.922-1.304
		c-0.73-0.317-1.518-0.476-2.359-0.476h-8.406v31.303h8.406c0.844,0,1.629-0.159,2.359-0.476c0.727-0.316,1.369-0.746,1.922-1.29
		s0.988-1.182,1.303-1.911c0.316-0.729,0.477-1.515,0.477-2.357V237.627z"/>
	<path d="M586.324,266.11h-1.08l-1.977-3.03c-0.826,1.089-1.828,1.954-3.004,2.595c-1.178,0.642-2.486,0.962-3.926,0.962h-1.979
		c-1.281,0-2.488-0.241-3.621-0.725s-2.123-1.146-2.965-1.989s-1.506-1.827-1.988-2.951s-0.725-2.327-0.725-3.609v-20.289
		c0-1.282,0.242-2.485,0.725-3.61c0.482-1.123,1.146-2.106,1.988-2.95c0.844-0.844,1.832-1.507,2.965-1.989
		c1.135-0.483,2.34-0.725,3.621-0.725h2.689c1.281,0,2.486,0.241,3.609,0.725c1.125,0.482,2.109,1.146,2.951,1.989
		s1.506,1.827,1.99,2.95c0.484,1.125,0.725,2.328,0.725,3.61v1.528l-3.398,0.527v-2.056c0-0.843-0.158-1.629-0.477-2.358
		c-0.314-0.729-0.746-1.365-1.289-1.91c-0.545-0.544-1.182-0.975-1.91-1.291c-0.73-0.316-1.516-0.474-2.359-0.474h-2.371
		c-0.844,0-1.629,0.157-2.359,0.474c-0.729,0.316-1.369,0.747-1.922,1.291c-0.553,0.545-0.986,1.182-1.305,1.91
		c-0.316,0.729-0.475,1.516-0.475,2.358v20.289c0,0.843,0.158,1.629,0.475,2.357c0.318,0.729,0.752,1.371,1.305,1.924
		c0.555,0.553,1.193,0.987,1.922,1.304c0.73,0.316,1.518,0.476,2.359,0.476h2.371c0.844,0,1.631-0.159,2.359-0.476
		s1.365-0.751,1.91-1.304c0.543-0.554,0.975-1.195,1.289-1.924c0.318-0.729,0.477-1.515,0.477-2.357v-7.879h-6.035v-3.24h9.434
		V266.11L586.324,266.11z"/>
	<path d="M609.264,257.309h-11.965l-2.475,8.801h-3.531l11.066-37.785h1.791l11.119,37.785h-3.504L609.264,257.309z
		 M598.223,254.068h10.145l-4.98-17.417l-0.104-1.396l-0.105,1.396L598.223,254.068z"/>
	<path d="M644.031,266.11v-25.901l-0.236,1.607l-8.775,24.293h-1.791l-8.854-24.293l-0.211-1.607v25.901h-3.398v-37.785h1.766
		l11.463,30.986l0.102,1.397l0.107-1.397l11.436-30.986h1.791v37.785H644.031z"/>
	<path d="M656.693,266.11v-37.785h21.264v3.241h-17.863v14.044h14.465v3.241h-14.465v14.018h17.863v3.241H656.693z"/>
</g>
</svg>
