<?xml version="1.0" encoding="utf-8"?>
<!-- Generator: Adobe Illustrator 16.0.0, SVG Export Plug-In . SVG Version: 6.00 Build 0)  -->
<!DOCTYPE svg PUBLIC "-//W3C//DTD SVG 1.1//EN" "http://www.w3.org/Graphics/SVG/1.1/DTD/svg11.dtd">
<svg version="1.1" id="Layer_1" xmlns="http://www.w3.org/2000/svg" xmlns:xlink="http://www.w3.org/1999/xlink" x="0px" y="0px"
	 width="512px" height="512px" viewBox="0 0 512 512" enable-background="new 0 0 512 512" xml:space="preserve">
<path fill="#FFDFCF" d="M407.152,226.509c-0.891,0.476-1.441,1.402-1.441,2.41c0,1.008,0.551,1.937,1.441,2.409
	c6.438,3.441,10.824,10.219,10.824,18.031v10.221c0,7.809-4.387,14.59-10.824,18.027c-0.891,0.477-1.441,1.402-1.441,2.41
	s0.551,1.938,1.441,2.41c6.438,3.441,10.824,10.218,10.824,18.031v10.219c0,7.809-4.387,14.589-10.824,18.027
	c-0.891,0.476-1.441,1.401-1.441,2.41c0,1.008,0.551,1.937,1.441,2.409c6.438,3.441,10.824,10.218,10.824,18.031v10.219
	c0,11.29-9.152,20.438-20.441,20.438H288.393c-15.383,0-30.348-5.024-42.613-14.305c-12.27-9.287-27.23-14.31-42.617-14.31h-83.594
	V220.744h72.516c14.605,0,28.098-7.79,35.402-20.438l34.574-59.887c2.691-4.664,4.105-9.949,4.105-15.332V90.954
	c0-8.465,6.861-15.328,15.332-15.328c19.754,0,35.766,16.016,35.766,35.77v19.262c0,10.812-2.859,21.433-8.285,30.781l-6.84,11.777
	c-1.184,2.046,0.289,4.605,2.652,4.605h92.746c11.287,0,20.439,9.152,20.439,20.441v10.219
	C417.977,216.289,413.59,223.071,407.152,226.509z"/>
<path fill="#FFEEE6" d="M285.121,79.714v20.438c0,5.645-4.574,10.219-10.219,10.219h-8.734V90.953
	c0-8.465,6.863-15.328,15.328-15.328c0.953,0,1.895,0.047,2.828,0.121C284.836,76.969,285.121,78.309,285.121,79.714z"/>
<path fill="#FFC9C0" d="M336.219,218.7c0-5.645,4.578-10.219,10.219-10.219h71.539c0,7.808-4.387,14.589-10.824,18.027
	c-0.891,0.476-1.441,1.402-1.441,2.41h-59.273C340.797,228.918,336.219,224.345,336.219,218.7z M397.535,349.513H288.391
	c-15.383,0-30.346-5.028-42.613-14.31c-12.269-9.285-27.229-14.309-42.616-14.309h-83.595v32.703h83.595
	c15.387,0,30.347,5.023,42.616,14.309c12.265,9.282,27.23,14.306,42.613,14.306h109.146c11.287,0,20.439-9.149,20.439-20.438
	v-10.219c0-4.152-1.262-8-3.391-11.219C410.926,345.859,404.66,349.512,397.535,349.513z M336.221,320.894
	c0,5.646,4.578,10.22,10.219,10.22h59.273c0-1.009,0.549-1.934,1.439-2.41c6.438-3.438,10.824-10.219,10.824-18.027h-71.539
	C340.797,310.676,336.221,315.248,336.221,320.894z M336.221,269.796c0,5.645,4.578,10.219,10.219,10.219h59.273
	c0-1.008,0.549-1.933,1.439-2.41c6.438-3.437,10.824-10.218,10.824-18.026h-71.539C340.797,259.578,336.221,264.15,336.221,269.796z
	"/>
<path fill="#49A55E" d="M160.439,203.372v167.6c0,8.471-6.86,15.33-15.32,15.33h-51.1c-7.05,0-12.97-4.77-14.76-11.239l-48.86,2.46
	c-5.31-10.58-10.65-23.03-15.27-36.21c-4.43-12.601-8.19-25.86-10.63-38.811c-1.89-9.99-3.05-19.78-3.72-28.92
	c-0.01-0.06-0.01-0.11-0.01-0.16c-0.44-8.92-0.65-17.95-0.72-27.03c0.23-12.78,1.2-21.86,1.6-24.63c1.09-7.61,2.52-15.11,4.28-22.48
	h73.32c0.06-0.2,0.12-0.4,0.18-0.6c0.13-0.4,0.27-0.79,0.43-1.17c0.08-0.2,0.17-0.39,0.25-0.57c0.09-0.19,0.18-0.38,0.27-0.56
	c0.38-0.73,0.82-1.43,1.3-2.09c0.11-0.17,0.23-0.33,0.37-0.49c0.16-0.2,0.32-0.4,0.49-0.59c0.17-0.19,0.35-0.38,0.53-0.56
	c0.36-0.36,0.73-0.71,1.12-1.04c0.15-0.14,0.32-0.27,0.48-0.38c0.14-0.11,0.29-0.22,0.44-0.33c0.85-0.62,1.76-1.14,2.73-1.56
	c0.14-0.06,0.28-0.12,0.42-0.18c0.82-0.33,1.67-0.6,2.55-0.78c0.14-0.03,0.28-0.06,0.42-0.08c0.15-0.03,0.3-0.06,0.46-0.08
	c0.21-0.04,0.43-0.06,0.64-0.08c0.3-0.04,0.6-0.06,0.9-0.08c0.26-0.01,0.53-0.02,0.79-0.02h51.1
	C153.579,188.042,160.439,194.902,160.439,203.372z"/>
<path fill="#62BC73" d="M145.119,188.042h-51.1c-0.26,0-0.53,0.01-0.79,0.02c-0.3,0.02-0.6,0.04-0.9,0.08
	c-0.21,0.02-0.43,0.04-0.64,0.08c-0.16,0.02-0.31,0.05-0.46,0.08c-0.14,0.02-0.28,0.05-0.42,0.08c-0.88,0.18-1.73,0.45-2.55,0.78
	c-0.14,0.06-0.28,0.12-0.42,0.18c-0.97,0.42-1.88,0.94-2.73,1.56c-0.15,0.11-0.3,0.22-0.44,0.33c-0.16,0.11-0.33,0.24-0.48,0.38
	c-0.39,0.33-0.76,0.68-1.12,1.04c-0.18,0.18-0.36,0.37-0.53,0.56c-0.17,0.19-0.33,0.39-0.49,0.59c-0.14,0.16-0.26,0.32-0.37,0.49
	c-0.5,0.66-0.93,1.36-1.3,2.09c-0.09,0.18-0.18,0.37-0.27,0.56c-0.08,0.18-0.17,0.37-0.25,0.57c-0.16,0.38-0.3,0.77-0.43,1.17
	c-0.07,0.2-0.13,0.4-0.19,0.6c-0.36,1.3-0.55,2.67-0.55,4.09v132.85c0,8.471,6.86,15.33,15.33,15.33h51.1
	c8.46,0,15.32-6.859,15.32-15.33v-132.85C160.439,194.902,153.579,188.042,145.119,188.042z M5.929,199.282
	c-1.76,7.37-3.19,14.87-4.28,22.48c-0.4,2.77-1.37,11.85-1.6,24.63c-0.14,7.82,0,17.03,0.72,27.03c0,0.05,0,0.101,0.01,0.16
	c0.67,9.14,1.83,18.93,3.72,28.92c2.44,12.95,6.2,26.21,10.63,38.811l17.57-1.32c8.47,0,15.33-6.86,15.33-15.32v-125.39H5.929z
	 M2.529,199.282c-1.25,8.76-2.05,17.67-2.37,26.69c0.33-9.02,1.14-17.93,2.39-26.69H2.529z"/>
</svg>
