<?xml version="1.0" encoding="utf-8"?>
<!-- Generator: Adobe Illustrator 16.0.0, SVG Export Plug-In . SVG Version: 6.00 Build 0)  -->
<!DOCTYPE svg PUBLIC "-//W3C//DTD SVG 1.1//EN" "http://www.w3.org/Graphics/SVG/1.1/DTD/svg11.dtd">
<svg version="1.1" id="Layer_1" xmlns="http://www.w3.org/2000/svg" xmlns:xlink="http://www.w3.org/1999/xlink" x="0px" y="0px"
	 width="501.35px" height="501.246px" viewBox="0 0 501.35 501.246" enable-background="new 0 0 501.35 501.246"
	 xml:space="preserve">
<path fill="#F9E17A" d="M501.35,250.67c0,25.25-3.729,49.63-10.68,72.61c-4.2,13.89-9.57,27.27-16,40.029
	c-0.05,0.101-0.1,0.21-0.15,0.311c0,0-0.01,0-0.01,0.01c-1.64,3.271-3.359,6.48-5.149,9.65c-7.16,12.77-15.42,24.84-24.641,36.1
	c-4.529,5.53-9.3,10.87-14.29,16c-5.43,5.59-11.13,10.94-17.069,16c-9.431,8.06-19.471,15.43-30.04,22.03
	c-5.841,3.649-11.841,7.069-18,10.24c-25.42,13.09-53.37,21.97-82.92,25.699c-10.391,1.311-20.98,1.99-31.73,1.99h-0.15
	C190.37,501.3,135.18,480.09,92,444.74c-1.35-1.101-2.69-2.221-4.01-3.36c-5.94-5.06-11.63-10.4-17.07-16
	c-4.98-5.12-9.75-10.46-14.28-16c-9.22-11.25-17.48-23.32-24.65-36.09c-1.8-3.19-3.52-6.41-5.17-9.68V363.6
	c-0.05-0.1-0.1-0.199-0.15-0.3c-6.44-12.77-11.81-26.16-16-40.07C3.73,300.26,0,275.9,0,250.67c0-25.24,3.73-49.61,10.67-72.59
	c4.2-13.9,9.57-27.28,16-40.04c2.86-5.68,5.93-11.24,9.2-16.66c6.81-11.28,14.47-21.98,22.91-32c2.75-3.28,5.6-6.49,8.53-9.62
	c24.21-25.97,53.88-46.8,87.19-60.63h0.01c0.32-0.14,0.64-0.28,0.96-0.41c10.24-4.22,20.83-7.77,31.7-10.61
	c10.35-2.7,20.95-4.75,31.77-6.12C229.33,0.68,239.92,0,250.67,0c34.08,0,66.57,6.8,96.19,19.12
	c33.29,13.84,62.949,34.65,87.159,60.61c2.94,3.14,5.79,6.36,8.551,9.65c8.439,10.02,16.1,20.72,22.899,32
	c3.271,5.41,6.34,10.97,9.2,16.64c6.43,12.76,11.8,26.14,16,40.04C497.62,201.04,501.35,225.42,501.35,250.67z"/>
<g>
	<path fill="#F06423" d="M474.67,121.38h-448c-8.83,0-16,7.17-16,16v185.85c4.19,13.91,9.56,27.301,16,40.07
		c0.05,0.101,0.1,0.2,0.15,0.3v0.011c0.54,3.829,2.43,7.22,5.17,9.68c7.17,12.77,15.43,24.84,24.65,36.09
		c4.53,5.54,9.3,10.88,14.28,16c5.44,5.6,11.13,10.94,17.07,16H413.36c5.939-5.06,11.64-10.41,17.069-16
		c4.99-5.13,9.761-10.47,14.29-16c9.221-11.26,17.48-23.33,24.641-36.1c2.729-2.45,4.619-5.83,5.149-9.65
		c0-0.01,0.01-0.01,0.01-0.01c0.051-0.101,0.101-0.21,0.15-0.311c6.43-12.76,11.8-26.14,16-40.029v-185.9
		C490.67,128.55,483.51,121.38,474.67,121.38z"/>
	<path fill="#FAA51E" d="M474.67,121.38h-448c-8.83,0-16,7.17-16,16v185.85c4.19,13.91,9.56,27.301,16,40.07
		c0.05,0.101,0.1,0.2,0.15,0.3v0.011c0.54,3.829,2.43,7.22,5.17,9.68c7.17,12.77,15.43,24.84,24.65,36.09
		c4.53,5.54,9.3,10.88,14.28,16h359.51c4.99-5.13,9.761-10.47,14.29-16c9.221-11.26,17.48-23.33,24.641-36.1
		c2.729-2.45,4.619-5.83,5.149-9.65c0-0.01,0.01-0.01,0.01-0.01c0.051-0.101,0.101-0.21,0.15-0.311c6.43-12.76,11.8-26.14,16-40.029
		v-185.9C490.67,128.55,483.51,121.38,474.67,121.38z"/>
	<path fill="#738CA0" d="M250.67,121.38v288H56.64c-9.22-11.25-17.48-23.32-24.65-36.09c-2.74-2.46-4.63-5.851-5.17-9.68V363.6
		c-0.05-0.1-0.1-0.199-0.15-0.3V105.38c0-8.83,7.17-16,16-16h176C236.35,89.38,250.67,103.71,250.67,121.38z"/>
	<path fill="#738CA0" d="M474.67,105.38v257.93c-0.05,0.101-0.1,0.21-0.15,0.311c0,0-0.01,0-0.01,0.01
		c-0.53,3.82-2.42,7.2-5.149,9.65c-7.16,12.77-15.42,24.84-24.641,36.1H250.67v-288c0-17.67,14.33-32,32-32h176
		C467.51,89.38,474.67,96.55,474.67,105.38z"/>
	<path fill="#D7E6E6" d="M250.67,121.38v288c0-17.67-14.32-32-32-32h-176c-4.11,0-7.85-1.54-10.68-4.09
		c-2.74-2.46-4.63-5.851-5.17-9.68V363.6c-0.1-0.729-0.15-1.47-0.15-2.22v-256c0-8.83,7.17-16,16-16h176
		C236.35,89.38,250.67,103.71,250.67,121.38z"/>
	<path fill="#AAC3D7" d="M474.67,105.38v256c0,0.76-0.05,1.51-0.15,2.24c0,0-0.01,0-0.01,0.01c-0.53,3.82-2.42,7.2-5.149,9.65
		c-2.83,2.55-6.58,4.1-10.69,4.1h-176c-17.67,0-32,14.33-32,32v-288c0-17.67,14.33-32,32-32h176
		C467.51,89.38,474.67,96.55,474.67,105.38z"/>
	<circle fill="#91BE41" cx="138.675" cy="89.382" r="72"/>
	<path fill="#D7E6E6" d="M125.342,122.715c-3.184,0.004-6.238-1.261-8.486-3.515l-16-16c-4.699-4.674-4.719-12.271-0.045-16.97
		c4.674-4.699,12.271-4.719,16.971-0.045c0.015,0.015,0.03,0.03,0.045,0.046l7.515,7.514l31.514-31.514
		c4.698-4.674,12.296-4.655,16.97,0.043c4.657,4.681,4.657,12.245,0,16.926l-40,40C131.579,121.454,128.525,122.719,125.342,122.715
		z"/>
	<circle fill="#F05555" cx="362.675" cy="89.382" r="72"/>
	<path fill="#D7E6E6" d="M379.646,89.382l15.515-15.515c4.647-4.724,4.586-12.322-0.139-16.97c-4.67-4.595-12.161-4.595-16.832,0
		l-15.515,15.514L347.16,56.897c-4.725-4.648-12.322-4.586-16.971,0.138c-4.595,4.67-4.595,12.162,0,16.832l15.515,15.515
		l-15.515,15.515c-4.724,4.648-4.786,12.246-0.138,16.97s12.246,4.786,16.97,0.138c0.047-0.046,0.093-0.092,0.139-0.138
		l15.515-15.514l15.515,15.514c4.725,4.648,12.322,4.586,16.971-0.138c4.595-4.67,4.595-12.162,0-16.832L379.646,89.382z"/>
	<path fill="#AAC3D7" d="M110.675,185.382h96c6.627,0,12,5.373,12,12l0,0c0,6.627-5.373,12-12,12h-96c-6.627,0-12-5.373-12-12l0,0
		C98.675,190.754,104.047,185.382,110.675,185.382z"/>
	<circle fill="#AAC3D7" cx="70.675" cy="197.382" r="12"/>
	<path fill="#AAC3D7" d="M110.675,249.382h96c6.627,0,12,5.373,12,12l0,0c0,6.627-5.373,12-12,12h-96c-6.627,0-12-5.373-12-12l0,0
		C98.675,254.755,104.047,249.382,110.675,249.382z"/>
	<circle fill="#AAC3D7" cx="70.675" cy="261.382" r="12"/>
	<path fill="#AAC3D7" d="M110.675,313.382h96c6.627,0,12,5.373,12,12l0,0c0,6.627-5.373,12-12,12h-96c-6.627,0-12-5.373-12-12l0,0
		C98.675,318.755,104.047,313.382,110.675,313.382z"/>
	<circle fill="#AAC3D7" cx="70.675" cy="325.382" r="12"/>
	<g>
		<path fill="#738CA0" d="M334.675,185.382h96c6.627,0,12,5.373,12,12l0,0c0,6.627-5.373,12-12,12h-96c-6.627,0-12-5.373-12-12l0,0
			C322.675,190.754,328.048,185.382,334.675,185.382z"/>
		<circle fill="#738CA0" cx="294.675" cy="197.382" r="12"/>
		<path fill="#738CA0" d="M334.675,249.382h96c6.627,0,12,5.373,12,12l0,0c0,6.627-5.373,12-12,12h-96c-6.627,0-12-5.373-12-12l0,0
			C322.675,254.755,328.048,249.382,334.675,249.382z"/>
		<circle fill="#738CA0" cx="294.675" cy="261.382" r="12"/>
		<path fill="#738CA0" d="M334.675,313.382h96c6.627,0,12,5.373,12,12l0,0c0,6.627-5.373,12-12,12h-96c-6.627,0-12-5.373-12-12l0,0
			C322.675,318.755,328.048,313.382,334.675,313.382z"/>
		<circle fill="#738CA0" cx="294.675" cy="325.382" r="12"/>
	</g>
</g>
</svg>
