<?xml version="1.0" encoding="utf-8"?>
<!-- Generator: Adobe Illustrator 16.0.0, SVG Export Plug-In . SVG Version: 6.00 Build 0)  -->
<!DOCTYPE svg PUBLIC "-//W3C//DTD SVG 1.1//EN" "http://www.w3.org/Graphics/SVG/1.1/DTD/svg11.dtd">
<svg version="1.1" id="Layer_1" xmlns="http://www.w3.org/2000/svg" xmlns:xlink="http://www.w3.org/1999/xlink" x="0px" y="0px"
	 width="501.35px" height="636.864px" viewBox="0 0 501.35 636.864" enable-background="new 0 0 501.35 636.864"
	 xml:space="preserve">
<path fill="#F9E17A" d="M501.35,386.288c0,89.74-47.149,168.46-118.029,212.74c-5.841,3.649-11.841,7.069-18,10.24
	c-25.42,13.09-53.37,21.97-82.92,25.699c-10.391,1.311-20.98,1.99-31.73,1.99h-0.15c-60.149-0.04-115.339-21.25-158.52-56.6
	c-56.16-45.971-92-115.83-92-194.07c0-104.74,64.24-194.48,155.47-231.95c10.24-4.22,20.83-7.77,31.7-10.61
	c10.35-2.7,20.95-4.75,31.77-6.12c10.39-1.31,20.98-1.99,31.73-1.99C389.12,135.618,501.35,247.848,501.35,386.288z"/>
<g>
	<path fill="#656D78" d="M282.41,275.038v359.66c0,0.09,0,0.18-0.01,0.27c-10.391,1.311-20.98,1.99-31.73,1.99h-0.15
		c-60.149-0.04-115.339-21.25-158.52-56.6v-305.32c0-41.47,26.44-76.69,63.47-89.81v-26.55h63.47v26.55
		C255.86,198.348,282.41,233.568,282.41,275.038z"/>
	<path fill="#ED5565" d="M155.467,0h63.47v52.789h-63.47V0z"/>
	<path fill="#DA4453" d="M155.467,52.789h63.47v105.887h-63.47V52.789z"/>
	<path fill="#ED5565" d="M250.673,550.054H123.732V349.107h126.941V550.054L250.673,550.054z"/>
	<path fill="#656D78" d="M282.41,275.038v359.66c0,0.09,0,0.18-0.01,0.27c-10.391,1.311-20.98,1.99-31.73,1.99h-0.15
		c0.08-0.74,0.12-1.5,0.12-2.26v-63.47h0.03v-243.3h-0.03v-42.3c0-41.47-26.55-76.69-63.47-89.81v-37.14h31.77v26.55
		C255.86,198.348,282.41,233.568,282.41,275.038z"/>
	<path fill="#D3374E" d="M187.171,52.789h31.766v105.887h-31.766V52.789z"/>
	<g>
		<path fill="#DA4453" d="M187.171,0h31.766v52.789h-31.766V0z"/>
		<path fill="#DA4453" d="M187.202,407.163c0,8.777-7.086,15.869-15.867,15.869c-8.78,0-15.867-7.092-15.867-15.869
			c0-8.678,7.087-15.867,15.867-15.867C180.116,391.296,187.202,398.485,187.202,407.163z"/>
		<path fill="#DA4453" d="M187.202,418.733c8.781,0,15.868,7.195,15.868,15.869c0,8.779-7.088,15.867-15.868,15.867
			c-8.779,0-15.867-7.088-15.867-15.867C171.334,425.929,178.422,418.733,187.202,418.733z"/>
		<path fill="#DA4453" d="M187.202,407.163c0-8.678,7.087-15.867,15.868-15.867s15.868,7.189,15.868,15.867
			c0,8.777-7.088,15.869-15.868,15.869C194.289,423.032,187.202,415.94,187.202,407.163z"/>
		<path fill="#DA4453" d="M218.917,486.552h-63.491c-5.852,0-10.577-4.73-10.577-10.578c0-5.852,4.725-10.576,10.577-10.576h63.491
			c5.848,0,10.579,4.725,10.579,10.576C229.495,481.821,224.764,486.552,218.917,486.552z"/>
		<path fill="#DA4453" d="M197.739,518.296h-21.137c-5.852,0-10.579-4.729-10.579-10.578c0-5.852,4.728-10.576,10.579-10.576h21.136
			c5.849,0,10.579,4.725,10.579,10.576C208.317,513.567,203.586,518.298,197.739,518.296z"/>
	</g>
	<path fill="#E3E4E2" d="M394.17,545.698c-6.31,1.27-10.85,6.8-10.85,13.24v40.09c-5.841,3.649-11.841,7.069-18,10.24v-50.33
		c0-6.44-4.54-11.98-10.851-13.24c-31.52-6.3-52.29-36.57-46.83-68.25l1.051-6.061l11.64-67.5H428.31l11.641,67.5l1.05,6.061
		C446.46,509.128,425.69,539.398,394.17,545.698z"/>
	<path fill="#ED5565" d="M383.317,558.938c0-6.436,4.541-11.975,10.852-13.236c31.521-6.305,52.287-36.57,46.826-68.25l-1.047-6.068
		h-131.26l-1.045,6.068c-5.463,31.68,15.303,61.945,46.826,68.25c6.309,1.26,10.85,6.801,10.85,13.236c0,4.969,4.029,8.998,9,8.998
		C379.288,567.937,383.317,563.907,383.317,558.938z"/>
	<g>
		<path fill="#F3F1F2" d="M411.96,516.204c-1.65-1.613-1.816-4.211-0.387-6.023c0.461-0.592,0.902-1.195,1.326-1.814
			c1.193-1.74,3.512-2.293,5.359-1.277l0.748,0.412c1.959,1.068,2.68,3.523,1.611,5.482c-0.059,0.107-0.123,0.213-0.191,0.316
			l-0.107,0.156c-0.543,0.791-1.109,1.564-1.701,2.322c-1.537,1.943-4.361,2.271-6.307,0.734
			C412.19,516.417,412.073,516.313,411.96,516.204z"/>
		<path fill="#F3F1F2" d="M422.188,498.313c-2.215-0.605-3.619-2.779-3.26-5.045c0.625-3.977,0.588-8.029-0.105-11.994
			l-8.564-49.688c-0.422-2.447,1.219-4.775,3.668-5.197s4.777,1.221,5.199,3.67l8.566,49.686c0.867,4.955,0.906,10.021,0.117,14.988
			c-0.41,2.445-2.723,4.092-5.166,3.682C422.489,498.39,422.339,498.354,422.188,498.313z"/>
	</g>
</g>
</svg>
