<?xml version="1.0" encoding="utf-8"?>
<!-- Generator: Adobe Illustrator 16.0.0, SVG Export Plug-In . SVG Version: 6.00 Build 0)  -->
<!DOCTYPE svg PUBLIC "-//W3C//DTD SVG 1.1//EN" "http://www.w3.org/Graphics/SVG/1.1/DTD/svg11.dtd">
<svg version="1.1" id="Layer_1" xmlns="http://www.w3.org/2000/svg" xmlns:xlink="http://www.w3.org/1999/xlink" x="0px" y="0px"
	 width="442.667px" height="453.333px" viewBox="0 0 442.667 453.333" enable-background="new 0 0 442.667 453.333"
	 xml:space="preserve">
<g>
	<path fill="#FFFFFF" d="M221.333,441.856c-57.479,0-111.518-22.383-152.162-63.027c-40.643-40.645-63.027-94.684-63.027-152.16
		c0-57.48,22.385-111.521,63.027-152.164c40.646-40.645,94.686-63.027,152.162-63.027c57.48,0,111.521,22.383,152.164,63.027
		c40.645,40.645,63.027,94.684,63.027,152.164c0,57.479-22.385,111.518-63.027,152.162
		C332.852,419.473,278.813,441.856,221.333,441.856z"/>
	<circle fill="#D85555" cx="221.333" cy="226.666" r="195.19"/>
	<g>
		<path fill="#FFCD38" d="M283.526,178.424c-5.666,0.781-11.389-0.955-15.66-4.756c-6.924,8.326-19.287,9.465-27.611,2.543
			c-1.416-1.18-2.658-2.551-3.691-4.074c-6.764,11.059-20.879,15.076-32.451,9.232v16.133c0,7.287-5.908,13.191-13.193,13.191
			s-13.191-5.904-13.191-13.191l-0.018-16.764c-5.82,0-11.344-2.592-15.061-7.07c-6.947,6.184-17.293,6.605-24.725,1.012v170.412
			c0,4.873,3.949,8.82,8.822,8.82h137.018c4.869,0,8.818-3.947,8.818-8.82V174.68C289.934,176.682,286.815,177.971,283.526,178.424z
			"/>
		<path fill="#FFF1D7" d="M292.575,309.729v35.355c0,4.871-3.949,8.82-8.822,8.82H146.745c-4.873,0-8.822-3.949-8.822-8.82v-35.355
			l6.902,8.162c6.291,7.389,15.506,11.645,25.211,11.645h90.428c9.701,0,18.918-4.258,25.207-11.645L292.575,309.729z"/>
		<path fill="#FFF1D7" d="M291.891,142.797c0.021-0.426,0.063-0.845,0.063-1.275c0.033-12.571-10.131-22.791-22.703-22.823
			c-1.775-0.005-3.553,0.198-5.283,0.608c-2.969-9.457-13.039-14.719-22.496-11.75c-1.98,0.621-3.842,1.582-5.49,2.838
			c-7.781-11.449-23.371-14.424-34.82-6.644c-2.615,1.774-4.869,4.031-6.645,6.644c-7.891-6-19.148-4.471-25.148,3.416
			c-1.26,1.654-2.221,3.514-2.842,5.496c-12.238-2.881-24.492,4.707-27.373,16.943c-0.406,1.729-0.609,3.498-0.605,5.271
			c0,0.441,0.043,0.85,0.064,1.275c-8.936,6.109-11.225,18.307-5.111,27.24c6.109,8.936,18.309,11.225,27.24,5.111
			c0.662-0.453,1.295-0.945,1.896-1.475c3.723,4.482,9.248,7.078,15.074,7.07l0.018,16.764c0,7.287,5.904,13.191,13.191,13.191
			c7.285,0,13.193-5.904,13.193-13.191v-16.141c11.57,5.842,25.686,1.822,32.447-9.23c6.074,8.961,18.268,11.301,27.229,5.223
			c1.525-1.033,2.896-2.273,4.074-3.689c8.115,7.158,20.5,6.389,27.662-1.73c7.162-8.115,6.389-20.5-1.729-27.662
			c-0.604-0.535-1.244-1.032-1.912-1.488L291.891,142.797z"/>
		<g>
			<path fill="#F7B521" d="M253.903,296.284c-2.133,0-3.859-1.729-3.859-3.857v-58.209c0-2.131,1.729-3.859,3.859-3.859
				c2.129,0,3.859,1.729,3.859,3.859v58.209C257.762,294.555,256.034,296.284,253.903,296.284z"/>
			<path fill="#F7B521" d="M176.577,296.284c-2.131,0-3.859-1.729-3.859-3.857v-58.209c0-2.131,1.73-3.859,3.859-3.859
				c2.131,0,3.859,1.729,3.859,3.859v58.209C180.436,294.553,178.708,296.282,176.577,296.284z"/>
			<path fill="#F7B521" d="M215.241,296.284c-2.133,0-3.859-1.729-3.859-3.857v-58.209c0-2.131,1.729-3.859,3.859-3.859
				c2.129,0,3.859,1.729,3.859,3.859v58.209C219.1,294.555,217.372,296.284,215.241,296.284z"/>
		</g>
		<path fill="#FFDFB8" d="M292.602,238.444c5.861-33.041,27.895-37.918,38.854-34.199c12.49,4.238,12.904,19.338,10.963,31.242
			c-6.303,38.646-33.232,57.494-49.834,44.992l0.021,34.188c18.479-6.064,60.223-25.223,68.338-76.234
			c9.168-57.699-43.076-64.293-68.271-42.916L292.602,238.444z"/>
	</g>
</g>
</svg>
