<?xml version="1.0" encoding="utf-8"?>
<!-- Generator: Adobe Illustrator 16.0.0, SVG Export Plug-In . SVG Version: 6.00 Build 0)  -->
<!DOCTYPE svg PUBLIC "-//W3C//DTD SVG 1.1//EN" "http://www.w3.org/Graphics/SVG/1.1/DTD/svg11.dtd">
<svg version="1.1" id="Layer_1" xmlns="http://www.w3.org/2000/svg" xmlns:xlink="http://www.w3.org/1999/xlink" x="0px" y="0px"
	 width="512px" height="512px" viewBox="0 0 512 512" enable-background="new 0 0 512 512" xml:space="preserve">
<path fill="#FFDFCF" d="M103.602,300.971c0.891-0.477,1.441-1.402,1.441-2.41s-0.551-1.938-1.441-2.41
	c-6.438-3.441-10.824-10.219-10.824-18.031V267.9c0-7.809,4.387-14.59,10.824-18.027c0.891-0.477,1.441-1.402,1.441-2.41
	s-0.551-1.938-1.441-2.41c-6.438-3.441-10.824-10.219-10.824-18.031v-10.219c0-7.809,4.387-14.59,10.824-18.027
	c0.891-0.477,1.441-1.402,1.441-2.41s-0.551-1.938-1.441-2.41c-6.438-3.441-10.824-10.219-10.824-18.031v-10.219
	c0-11.289,9.152-20.438,20.441-20.438h109.145c15.383,0,30.348,5.023,42.613,14.305c12.27,9.285,27.23,14.309,42.617,14.309h83.594
	v132.855h-72.516c-14.605,0-28.098,7.789-35.402,20.438l-34.574,59.887c-2.691,4.664-4.105,9.949-4.105,15.332v34.133
	c0,8.465-6.863,15.328-15.332,15.328c-19.754,0-35.766-16.016-35.766-35.77v-19.262c0-10.813,2.859-21.434,8.285-30.781l6.84-11.777
	c1.184-2.047-0.289-4.605-2.652-4.605h-92.746c-11.289,0-20.441-9.152-20.441-20.441v-10.219
	C92.777,311.189,97.164,304.408,103.602,300.971z"/>
<path fill="#FFEEE6" d="M225.633,447.764v-20.438c0-5.645,4.574-10.219,10.219-10.219h8.734v19.418
	c0,8.465-6.863,15.328-15.328,15.328c-0.953,0-1.895-0.047-2.828-0.121C225.918,450.51,225.633,449.17,225.633,447.764z"/>
<path fill="#FFC9C0" d="M174.535,308.779c0,5.645-4.578,10.219-10.219,10.219H92.777c0-7.809,4.387-14.59,10.824-18.027
	c0.891-0.477,1.441-1.402,1.441-2.41h59.273C169.957,298.561,174.535,303.135,174.535,308.779z M113.219,177.967h109.145
	c15.383,0,30.348,5.027,42.613,14.309c12.27,9.285,27.23,14.309,42.617,14.309h83.594v-32.703h-83.594
	c-15.387,0-30.348-5.023-42.617-14.309c-12.266-9.281-27.23-14.305-42.613-14.305H113.219c-11.289,0-20.441,9.148-20.441,20.438
	v10.219c0,4.152,1.262,8,3.391,11.219C99.828,181.619,106.094,177.967,113.219,177.967z M174.535,206.584
	c0-5.645-4.578-10.219-10.219-10.219h-59.273c0,1.008-0.551,1.934-1.441,2.41c-6.438,3.438-10.824,10.219-10.824,18.027h71.539
	C169.957,216.803,174.535,212.229,174.535,206.584z M174.535,257.682c0-5.645-4.578-10.219-10.219-10.219h-59.273
	c0,1.008-0.551,1.934-1.441,2.41c-6.438,3.438-10.824,10.219-10.824,18.027h71.539C169.957,267.9,174.535,263.326,174.535,257.682z"
	/>
<path fill="#D85555" d="M502.82,328.18L463.8,328.19h-1.069l-31.211,0.01h-0.02c-0.51,1.819-1.34,3.51-2.42,4.99
	c-0.85,1.149-1.86,2.18-2.99,3.06c-0.84,0.65-1.74,1.22-2.71,1.68c-0.22,0.101-0.45,0.21-0.68,0.301c-0.21,0.1-0.431,0.18-0.65,0.26
	c-0.02,0.01-0.05,0.02-0.069,0.029c-0.211,0.08-0.421,0.15-0.631,0.211c-0.46,0.149-0.93,0.27-1.399,0.369
	c-0.16,0.04-0.32,0.07-0.49,0.091c-0.13,0.029-0.26,0.05-0.4,0.069c-0.21,0.04-0.42,0.061-0.63,0.08c-0.3,0.04-0.6,0.061-0.899,0.08
	c-0.261,0.01-0.53,0.021-0.79,0.021H365.64c-8.46,0-15.33-6.86-15.33-15.33V156.51c0-8.47,6.87-15.33,15.33-15.33h51.101
	c7.05,0,12.97,4.76,14.76,11.24l55.3,0.1c0,0,0,0.01,0.01,0.01c5.45,11.25,10.091,22.96,13.82,35.08c0.04,0.13,0.08,0.25,0.12,0.38
	c4.46,14.49,7.63,29.53,9.39,45c1.07,9.39,1.62,18.95,1.62,28.63c0,0.399,0,0.8-0.01,1.2c-0.02,6.55-0.31,13.04-0.83,19.46
	c-0.04,0.529-0.09,1.05-0.13,1.58c-1.33,15.1-4,29.81-7.89,44.02L502.82,328.18z"/>
<path fill="#E06969" d="M416.74,175.92H365.64c-8.46,0-15.33,6.87-15.33,15.34V324.11c0,8.47,6.87,15.33,15.33,15.33h51.101
	c0.26,0,0.529-0.011,0.79-0.021c0.3-0.02,0.6-0.04,0.899-0.08c0.21-0.02,0.42-0.04,0.63-0.08c0.141-0.02,0.271-0.04,0.4-0.069
	c0.17-0.021,0.33-0.051,0.49-0.091c0.47-0.1,0.939-0.22,1.399-0.369c0.21-0.061,0.42-0.131,0.631-0.211
	c0.02-0.01,0.05-0.02,0.069-0.029c0.22-0.08,0.44-0.16,0.65-0.26c0.229-0.091,0.46-0.2,0.68-0.301c0.97-0.46,1.87-1.029,2.71-1.68
	c1.141-0.87,2.15-1.9,2.99-3.06c1.1-1.48,1.93-3.171,2.439-4.99c0.36-1.3,0.551-2.67,0.551-4.09V191.26
	C432.07,182.79,425.2,175.92,416.74,175.92z M510.14,232.99c-1.76-15.47-4.93-30.51-9.39-45c-0.04-0.13-0.08-0.25-0.12-0.38
	l-22.58-0.13c-8.46,0-15.319,6.87-15.319,15.33V328.2l1.069-0.01l39.101-0.311c3.89-14.21,6.56-28.92,7.89-44.02
	c0.04-0.53,0.09-1.051,0.13-1.58c0.521-6.42,0.811-12.91,0.83-19.46c0.01-0.4,0.01-0.801,0.01-1.2
	C511.76,251.94,511.21,242.38,510.14,232.99z"/>
</svg>
