<?xml version="1.0" encoding="utf-8"?>
<!-- Generator: Adobe Illustrator 16.0.0, SVG Export Plug-In . SVG Version: 6.00 Build 0)  -->
<!DOCTYPE svg PUBLIC "-//W3C//DTD SVG 1.1//EN" "http://www.w3.org/Graphics/SVG/1.1/DTD/svg11.dtd">
<svg version="1.1" id="Layer_1" xmlns="http://www.w3.org/2000/svg" xmlns:xlink="http://www.w3.org/1999/xlink" x="0px" y="0px"
	 width="261.48389px" height="261.48975px" viewBox="155.18213 63 261.48389 261.48975"
	 enable-background="new 155.18213 63 261.48389 261.48975" xml:space="preserve">
<g>
	<path fill="#FFFFFF" d="M358.75977,324.48975c-8.25391,0-15.99219-3.2373-21.79004-9.11426l-51.52832-52.27637l-52.28564,51.54785
		c-5.76025,5.67773-13.38721,8.80371-21.47363,8.80371c-0.00049,0,0.00049,0,0,0c-8.25537,0-15.99365-3.2373-21.78857-9.11621
		l-25.9043-26.27539c-5.73828-5.81543-8.86621-13.52051-8.80615-21.69531c0.06006-8.17188,3.29883-15.83105,9.12012-21.56543
		l52.27637-51.55322l-51.53369-52.28125c-11.83887-12.01318-11.69873-31.42334,0.31152-43.26953l26.2627-25.89258
		C197.37939,66.12549,205.00439,63,213.0918,63c8.25537,0,15.99561,3.23584,21.79443,9.11133l51.52979,52.28223l52.29688-51.54834
		c5.75684-5.67529,13.38086-8.80078,21.46777-8.80078c8.25391,0,15.99316,3.23584,21.79199,9.11084l25.89551,26.28027
		c11.8457,12.0083,11.71289,31.41943-0.29785,43.26855l-52.29492,51.54346l51.53027,52.27539
		c5.73926,5.82227,8.86816,13.5293,8.80957,21.70215c-0.05859,8.1709-3.29688,15.83105-9.11719,21.56836l-26.26367,25.8877
		C374.47656,321.36084,366.84961,324.48975,358.75977,324.48975z"/>
	<path fill="#D85555" d="M168.26172,283.84717l25.90479,26.27539c9.53613,9.67383,25.10596,9.7832,34.77686,0.25195
		l56.55859-55.75977l55.73926,56.54688c9.54297,9.67383,25.11328,9.7832,34.78125,0.24609l26.26367-25.88672
		c9.67383-9.53516,9.78906-25.10547,0.24609-34.78516l-55.74219-56.54932l56.56641-55.75342
		c9.66602-9.53613,9.78711-25.10596,0.23828-34.78613l-25.89258-26.27686c-9.54102-9.66699-25.10938-9.78223-34.77734-0.25195
		l-56.56934,55.76074l-55.73975-56.55273c-9.54199-9.66797-25.11328-9.78223-34.7832-0.25195l-26.26172,25.89209
		c-9.67432,9.54199-9.79102,25.10596-0.25195,34.78564l55.74463,56.55322l-56.5498,55.76855
		C158.83984,258.60303,158.72266,274.1792,168.26172,283.84717z"/>
</g>
</svg>
